<?xml version="1.0" encoding="utf-8"?>
<!-- Generator: Adobe Illustrator 13.0.0, SVG Export Plug-In . SVG Version: 6.00 Build 14948)  -->
<!DOCTYPE svg PUBLIC "-//W3C//DTD SVG 1.1 Basic//EN" "http://www.w3.org/Graphics/SVG/1.1/DTD/svg11-basic.dtd">
<svg version="1.1" baseProfile="basic" id="Слой_1"
	 xmlns="http://www.w3.org/2000/svg" xmlns:xlink="http://www.w3.org/1999/xlink" x="0px" y="0px" width="51.85px"
	 height="48.258px" viewBox="0 0 51.85 48.258" xml:space="preserve">
<linearGradient id="SVGID_1_" gradientUnits="userSpaceOnUse" x1="43.1648" y1="9.4731" x2="51.3611" y2="9.4731" gradientTransform="matrix(1 0 0 -1 0.0376 47.1035)">
	<stop  offset="0" style="stop-color:#F8F5EA"/>
	<stop  offset="1" style="stop-color:#F4EDCE"/>
</linearGradient>
<path fill="url(#SVGID_1_)" d="M50.452,33.069c0.8,0.561,1.159,1.771,0.819,3.35c-0.449,2.131-2.061,4.422-3.971,5.521
	c-1.328,0.76-2.46,0.77-3.189,0.229c-0.01-0.01-0.021-0.021-0.021-0.021c-0.77-0.579-1.09-1.771-0.76-3.31
	c0.449-2.131,2.062-4.43,3.97-5.521c1.24-0.71,2.301-0.761,3.04-0.319C50.382,33.02,50.412,33.049,50.452,33.069z"/>
<linearGradient id="SVGID_2_" gradientUnits="userSpaceOnUse" x1="36.6775" y1="8.5464" x2="44.012" y2="16.8805" gradientTransform="matrix(1 0 0 -1 0.0376 47.1035)">
	<stop  offset="0" style="stop-color:#F8F5EA"/>
	<stop  offset="1" style="stop-color:#F4EDCE"/>
</linearGradient>
<path fill="url(#SVGID_2_)" d="M47.861,31.279c0.83,0.57,1.65,1.14,2.479,1.72c-0.739-0.439-1.8-0.39-3.04,0.32
	c-1.908,1.09-3.521,3.391-3.97,5.521c-0.33,1.539-0.01,2.729,0.76,3.309c-1.108-0.77-2.229-1.539-3.34-2.309
	c-0.88-0.611-1.77-1.221-2.649-1.83c-1.301-0.9-2.601-1.801-3.899-2.701c-0.78-0.539-0.97-1.529-0.95-2.369
	c0.029-0.92,0.279-1.73,0.66-2.561c0.689-1.529,1.949-3.08,3.439-3.939c0.871-0.5,2.18-0.93,3.149-0.25
	c1.3,0.9,2.609,1.801,3.91,2.699C45.563,29.689,46.712,30.479,47.861,31.279z"/>
<linearGradient id="SVGID_3_" gradientUnits="userSpaceOnUse" x1="29.9548" y1="16.3691" x2="44.6726" y2="16.3691" gradientTransform="matrix(1 0 0 -1 0.0376 47.1035)">
	<stop  offset="0" style="stop-color:#F8F5EA"/>
	<stop  offset="1" style="stop-color:#F4EDCE"/>
</linearGradient>
<path fill="url(#SVGID_3_)" d="M37.352,26.439c-1.49,0.858-2.75,2.41-3.439,3.938c-0.381,0.83-0.631,1.642-0.66,2.562
	c-0.02,0.84,0.17,1.83,0.95,2.369c1.3,0.899,2.601,1.801,3.899,2.7c-4.75,3.229-8.971,1.22-7.959-4.649
	c0.68-3.989,3.688-8.33,7.209-10.34c5.121-2.93,8.391,0.36,7.061,5.87c-1.301-0.898-2.609-1.799-3.91-2.699
	C39.531,25.51,38.223,25.939,37.352,26.439z"/>
<linearGradient id="SVGID_4_" gradientUnits="userSpaceOnUse" x1="3.137" y1="33.2964" x2="9.804" y2="41.6299" gradientTransform="matrix(1 0 0 -1 0.0376 47.1035)">
	<stop  offset="0" style="stop-color:#F8F5EA"/>
	<stop  offset="1" style="stop-color:#F4EDCE"/>
</linearGradient>
<path fill="url(#SVGID_4_)" d="M14.812,8.419l-7.101,4.07v4.5c-2.109-1.46-4.21-2.91-6.319-4.37c-0.771-0.54-0.971-1.53-0.94-2.37
	c0.03-0.92,0.271-1.73,0.65-2.56c0.699-1.53,1.949-3.08,3.439-3.94c0.87-0.5,2.181-0.93,3.16-0.25
	C10.072,5.139,12.442,6.779,14.812,8.419z"/>
<linearGradient id="SVGID_5_" gradientUnits="userSpaceOnUse" x1="8.885" y1="13.8823" x2="55.2178" y2="36.2155" gradientTransform="matrix(1 0 0 -1 0.0376 47.1035)">
	<stop  offset="0" style="stop-color:#E6E7EE"/>
	<stop  offset="1" style="stop-color:#ABBDD1"/>
</linearGradient>
<path fill="url(#SVGID_5_)" d="M30.143,33.359c-1.012,5.869,3.209,7.88,7.959,4.649c0.881,0.609,1.771,1.22,2.649,1.83l-13.91,7.97
	L7.712,34.579V16.989v-4.5l7.101-4.07l13.92-7.97l19.129,13.24v17.59c-1.149-0.801-2.299-1.59-3.449-2.391
	c1.33-5.51-1.938-8.799-7.061-5.87C33.832,25.029,30.822,29.37,30.143,33.359z"/>
<line fill="none" stroke="#454447" stroke-width="0.5953" stroke-linecap="round" stroke-linejoin="round" x1="30.441" y1="23.659" x2="44.262" y2="15.749"/>
<line fill="none" stroke="#454447" stroke-width="0.5953" stroke-linecap="round" stroke-linejoin="round" x1="11.132" y1="14.859" x2="23.422" y2="23.359"/>
<line fill="none" stroke="#454447" stroke-width="0.5953" stroke-linecap="round" stroke-linejoin="round" x1="26.842" y1="43.659" x2="26.842" y2="29.879"/>
<line fill="none" stroke="#454447" stroke-width="0.8986" stroke-linecap="round" stroke-linejoin="round" x1="47.861" y1="31.279" x2="47.861" y2="13.689"/>
<polyline fill="none" stroke="#454447" stroke-width="0.8986" stroke-linecap="round" stroke-linejoin="round" points="
	26.842,47.809 40.752,39.84 40.762,39.84 "/>
<path fill="none" stroke="#454447" stroke-width="0.5953" stroke-linecap="round" stroke-linejoin="round" d="M38.102,38.01
	c-4.75,3.229-8.971,1.219-7.959-4.65c0.68-3.99,3.688-8.33,7.209-10.34c5.121-2.93,8.391,0.36,7.061,5.87"/>
<path fill="none" stroke="#454447" stroke-width="0.8986" stroke-linecap="round" stroke-linejoin="round" d="M14.812,8.419
	c-2.37-1.64-4.74-3.28-7.11-4.92c-0.979-0.68-2.29-0.25-3.16,0.25c-1.49,0.86-2.74,2.41-3.439,3.94c-0.38,0.83-0.62,1.64-0.65,2.56
	c-0.03,0.84,0.17,1.83,0.94,2.37c2.109,1.46,4.21,2.91,6.319,4.37"/>
<path fill="none" stroke="#454447" stroke-width="0.8986" stroke-linecap="round" stroke-linejoin="round" d="M44.092,42.148
	c-1.108-0.771-2.229-1.539-3.34-2.31c-0.88-0.61-1.77-1.221-2.649-1.83c-1.301-0.899-2.601-1.801-3.899-2.7
	c-0.78-0.539-0.97-1.529-0.95-2.369c0.029-0.92,0.279-1.729,0.66-2.562c0.689-1.528,1.949-3.08,3.439-3.938
	c0.871-0.5,2.18-0.931,3.149-0.25c1.3,0.899,2.609,1.8,3.91,2.699c1.15,0.801,2.3,1.59,3.449,2.391c0.83,0.57,1.65,1.14,2.479,1.72"
	/>
<path fill="none" stroke="#454447" stroke-width="0.8986" stroke-linecap="round" stroke-linejoin="round" d="M44.092,42.148
	c-0.77-0.579-1.09-1.771-0.76-3.31c0.449-2.131,2.062-4.43,3.971-5.521c1.239-0.71,2.3-0.761,3.039-0.319
	c0.04,0.021,0.07,0.049,0.11,0.069c0.8,0.56,1.159,1.771,0.819,3.351c-0.449,2.129-2.061,4.42-3.971,5.521
	c-1.328,0.761-2.46,0.771-3.189,0.229C44.102,42.159,44.092,42.148,44.092,42.148z"/>
<polyline fill="none" stroke="#454447" stroke-width="0.8986" stroke-linecap="round" stroke-linejoin="round" points="
	28.732,0.449 14.812,8.419 7.712,12.489 "/>
<line fill="none" stroke="#454447" stroke-width="0.8986" stroke-linecap="round" stroke-linejoin="round" x1="7.712" y1="34.579" x2="26.842" y2="47.809"/>
<polyline fill="none" stroke="#454447" stroke-width="0.8986" stroke-linecap="round" stroke-linejoin="round" points="
	7.712,34.579 7.712,16.989 7.712,12.489 "/>
<line fill="none" stroke="#454447" stroke-width="0.8986" stroke-linecap="round" stroke-linejoin="round" x1="47.861" y1="13.689" x2="28.732" y2="0.449"/>
</svg>
