<?xml version="1.0" encoding="utf-8"?>
<!-- Generator: Adobe Illustrator 13.0.0, SVG Export Plug-In . SVG Version: 6.00 Build 14948)  -->
<!DOCTYPE svg PUBLIC "-//W3C//DTD SVG 1.1 Basic//EN" "http://www.w3.org/Graphics/SVG/1.1/DTD/svg11-basic.dtd">
<svg version="1.1" baseProfile="basic" id="Слой_1"
	 xmlns="http://www.w3.org/2000/svg" xmlns:xlink="http://www.w3.org/1999/xlink" x="0px" y="0px" width="43.609px"
	 height="42.93px" viewBox="0 0 43.609 42.93" xml:space="preserve">
<linearGradient id="SVGID_1_" gradientUnits="userSpaceOnUse" x1="27.1072" y1="7.8557" x2="41.3337" y2="7.8557" gradientTransform="matrix(1 0 0 -1 0.0376 41.7749)">
	<stop  offset="0" style="stop-color:#F8F5EA"/>
	<stop  offset="1" style="stop-color:#F4EDCE"/>
</linearGradient>
<path fill="url(#SVGID_1_)" stroke="#454447" stroke-width="0.8986" stroke-linecap="round" stroke-linejoin="round" d="
	M41.372,30.988l-7.879,10.583l-6.348-4.733c2.62-3.519,5.258-7.037,7.877-10.569L41.372,30.988z"/>
<linearGradient id="SVGID_2_" gradientUnits="userSpaceOnUse" x1="19.3674" y1="27.7805" x2="29.9363" y2="27.7805" gradientTransform="matrix(1 0 0 -1 0.0376 41.7749)">
	<stop  offset="0" style="stop-color:#F8F5EA"/>
	<stop  offset="1" style="stop-color:#F4EDCE"/>
</linearGradient>
<path fill="url(#SVGID_2_)" d="M28.925,16.788c-0.896,1.256-2.357,2.125-4.235,2.125c-4.623,0-6.693-5.243-4.25-8.43
	c0.415-0.539,0.939-1.021,1.616-1.408c0,1.519,0,3.049,0,4.568c0,1.462,1.172,2.634,2.634,2.634c1.45,0,2.635-1.174,2.635-2.634
	c0-1.519,0-3.05,0-4.568C30.377,10.828,30.623,14.469,28.925,16.788z"/>
<linearGradient id="SVGID_3_" gradientUnits="userSpaceOnUse" x1="22.0178" y1="33.4104" x2="27.2869" y2="33.4104" gradientTransform="matrix(1 0 0 -1 0.0376 41.7749)">
	<stop  offset="0" style="stop-color:#E6E7EE"/>
	<stop  offset="1" style="stop-color:#ABBDD1"/>
</linearGradient>
<path fill="url(#SVGID_3_)" d="M27.324,9.075c0,1.519,0,3.049,0,4.568c0,1.462-1.185,2.634-2.635,2.634
	c-1.463,0-2.634-1.174-2.634-2.634c0-1.519,0-3.05,0-4.568c0-2.43,0-4.858,0-7.299c0-0.732,0.579-1.325,1.311-1.325
	c0.883,0,1.765,0,2.635,0c0.73,0,1.323,0.593,1.323,1.325C27.324,4.219,27.324,6.645,27.324,9.075z"/>
<linearGradient id="SVGID_4_" gradientUnits="userSpaceOnUse" x1="11.738" y1="11.6296" x2="25.5367" y2="28.1881" gradientTransform="matrix(1 0 0 -1 0.0376 41.7749)">
	<stop  offset="0" style="stop-color:#B0BFD1"/>
	<stop  offset="0.0947" style="stop-color:#BAC6D7"/>
	<stop  offset="0.4014" style="stop-color:#D5DAE7"/>
	<stop  offset="0.5762" style="stop-color:#E0E2EF"/>
	<stop  offset="1" style="stop-color:#AEBFD2"/>
</linearGradient>
<path fill="url(#SVGID_4_)" d="M37.385,23.093c-0.785,1.063-1.574,2.112-2.36,3.175c-2.62,3.533-5.257,7.051-7.878,10.569
	c-0.785,1.064-1.574,2.111-2.361,3.175c-7.753-5.77-15.523-11.55-23.277-17.319c-1.173-0.869-1.408-2.523-0.539-3.684
	c3.146-4.235,6.294-8.472,9.452-12.708c0.872-1.159,2.525-1.408,3.686-0.538c2.126,1.572,4.223,3.16,6.333,4.719
	c-2.443,3.188-0.374,8.43,4.25,8.43c1.878,0,3.34-0.869,4.235-2.125C31.741,18.886,34.554,20.998,37.385,23.093z"/>
<line fill="none" stroke="#010101" stroke-width="0.5953" stroke-linecap="round" stroke-linejoin="round" x1="35.564" y1="29.95" x2="30.84" y2="36.298"/>
<path fill="none" stroke="#010101" stroke-width="0.5953" stroke-linecap="round" stroke-linejoin="round" d="M22.052,9.068
	c-4.674,2.698-2.76,9.844,2.639,9.844c5.394,0,7.312-7.146,2.636-9.844"/>
<path fill="none" stroke="#010101" stroke-width="0.8986" stroke-linecap="round" stroke-linejoin="round" d="M22.052,13.638
	c0,1.455,1.179,2.637,2.639,2.637c1.455,0,2.636-1.182,2.636-2.637c0-3.957,0-7.913,0-11.869c0-0.729-0.592-1.319-1.318-1.319
	c-0.88,0-1.757,0-2.637,0c-0.729,0-1.319,0.59-1.319,1.319C22.052,5.724,22.052,9.681,22.052,13.638z"/>
<path fill="none" stroke="#010101" stroke-width="0.8986" d="M20.46,10.487c-2.116-1.575-4.232-3.152-6.347-4.724
	c-1.17-0.869-2.82-0.628-3.692,0.539c-3.148,4.232-6.297,8.465-9.449,12.695c-0.871,1.168-0.628,2.82,0.543,3.691
	c7.755,5.775,15.514,11.548,23.27,17.324c4.2-5.642,8.401-11.284,12.6-16.927c-2.821-2.1-5.642-4.2-8.462-6.298"/>
<line fill="none" stroke="#010101" stroke-width="0.5953" stroke-linecap="round" stroke-linejoin="round" x1="37.679" y1="31.525" x2="32.954" y2="37.87"/>
<line fill="none" stroke="#010101" stroke-width="0.5953" stroke-linecap="round" stroke-linejoin="round" x1="9.529" y1="15.503" x2="27.253" y2="28.697"/>
<polyline fill="none" stroke="#010101" stroke-width="0.2835" stroke-linecap="round" stroke-linejoin="round" points="
	27.149,36.837 33.496,41.563 41.371,30.985 35.024,26.259 "/>
</svg>
