<?xml version="1.0" encoding="utf-8"?>
<!-- Generator: Adobe Illustrator 13.0.0, SVG Export Plug-In . SVG Version: 6.00 Build 14948)  -->
<!DOCTYPE svg PUBLIC "-//W3C//DTD SVG 1.1 Basic//EN" "http://www.w3.org/Graphics/SVG/1.1/DTD/svg11-basic.dtd">
<svg version="1.1" baseProfile="basic" id="Слой_1"
	 xmlns="http://www.w3.org/2000/svg" xmlns:xlink="http://www.w3.org/1999/xlink" x="0px" y="0px" width="21.689px"
	 height="32.084px" viewBox="0 0 21.689 32.084" xml:space="preserve">
<linearGradient id="SVGID_1_" gradientUnits="userSpaceOnUse" x1="0.4114" y1="14.8872" x2="21.2019" y2="14.8872" gradientTransform="matrix(1 0 0 -1 0.0376 30.9287)">
	<stop  offset="0" style="stop-color:#E6E7EE"/>
	<stop  offset="1" style="stop-color:#ABBDD1"/>
</linearGradient>
<path fill="url(#SVGID_1_)" stroke="#231F20" stroke-width="0.8986" d="M0.449,4.606c0,7.624,0,15.247,0,22.87
	c0.713,1.926,2.232,3.445,4.158,4.158c4.158,0,8.315,0,12.475,0c1.926-0.713,3.445-2.232,4.158-4.158c0-7.623,0-15.246,0-22.87
	c-0.713-1.926-2.232-3.445-4.158-4.157c-4.158,0-8.315,0-12.475,0C2.681,1.161,1.162,2.681,0.449,4.606z"/>
<linearGradient id="SVGID_2_" gradientUnits="userSpaceOnUse" x1="3.5305" y1="14.8862" x2="18.0847" y2="14.8862" gradientTransform="matrix(1 0 0 -1 0.0376 30.9287)">
	<stop  offset="0" style="stop-color:#F8F5EA"/>
	<stop  offset="1" style="stop-color:#F4EDCE"/>
</linearGradient>
<path fill="url(#SVGID_2_)" d="M3.568,27.478c0,0.573,0.465,1.039,1.04,1.039c4.158,0,8.315,0,12.475,0
	c0.574,0,1.039-0.466,1.039-1.039c0-7.625,0-15.247,0-22.871c0-0.573-0.465-1.039-1.039-1.039c-4.158,0-8.315,0-12.475,0
	c-0.574,0-1.04,0.466-1.04,1.039C3.568,12.23,3.568,19.853,3.568,27.478z"/>
<path fill="none" stroke="#231F20" stroke-width="0.5953" stroke-linecap="round" stroke-linejoin="round" d="M3.568,27.478
	c0,0.573,0.465,1.039,1.04,1.039c4.158,0,8.315,0,12.475,0c0.574,0,1.039-0.466,1.039-1.039c0-7.625,0-15.247,0-22.871
	c0-0.573-0.465-1.039-1.039-1.039c-4.158,0-8.315,0-12.475,0c-0.574,0-1.04,0.466-1.04,1.039C3.568,12.23,3.568,19.853,3.568,27.478
	z"/>
<path fill="none" stroke="#231F20" stroke-width="0.5953" stroke-linecap="round" stroke-linejoin="round" d="M6.209,13.261
	c-1.026,1.712-1.026,3.85,0,5.563"/>
<path fill="none" stroke="#231F20" stroke-width="0.5953" stroke-linecap="round" stroke-linejoin="round" d="M15.479,18.822
	c1.026-1.712,1.026-3.85,0-5.563"/>
<path fill="none" stroke="#231F20" stroke-width="0.5953" stroke-linecap="round" stroke-linejoin="round" d="M14.41,18.181
	c0.79-1.315,0.79-2.962,0-4.278"/>
<path fill="none" stroke="#231F20" stroke-width="0.5953" stroke-linecap="round" stroke-linejoin="round" d="M7.279,13.902
	c-0.79,1.316-0.79,2.962,0,4.279"/>
<path fill="none" stroke="#231F20" stroke-width="0.5953" stroke-linecap="round" stroke-linejoin="round" d="M13.34,17.539
	c0.555-0.922,0.555-2.073,0-2.995"/>
<path fill="none" stroke="#231F20" stroke-width="0.5953" stroke-linecap="round" stroke-linejoin="round" d="M8.349,14.544
	c-0.554,0.922-0.554,2.073,0,2.995"/>
<circle fill="none" stroke="#231F20" stroke-width="0.5953" stroke-linecap="round" stroke-linejoin="round" cx="10.844" cy="16.042" r="1.664"/>
<line fill="none" stroke="#231F20" stroke-width="0.5953" stroke-linecap="round" stroke-linejoin="round" x1="4.607" y1="31.077" x2="4.607" y2="29.035"/>
<line fill="none" stroke="#454447" stroke-width="0.5953" stroke-linecap="round" stroke-linejoin="round" x1="3.048" y1="27.478" x2="1.006" y2="27.478"/>
<line fill="none" stroke="#231F20" stroke-width="0.5953" stroke-linecap="round" stroke-linejoin="round" x1="17.082" y1="31.077" x2="17.082" y2="29.035"/>
<line fill="none" stroke="#231F20" stroke-width="0.5953" stroke-linecap="round" stroke-linejoin="round" x1="18.641" y1="27.478" x2="20.683" y2="27.478"/>
<line fill="none" stroke="#231F20" stroke-width="0.5953" stroke-linecap="round" stroke-linejoin="round" x1="18.641" y1="4.606" x2="20.683" y2="4.606"/>
<line fill="none" stroke="#231F20" stroke-width="0.5953" stroke-linecap="round" stroke-linejoin="round" x1="17.082" y1="1.006" x2="17.082" y2="3.048"/>
<line fill="none" stroke="#231F20" stroke-width="0.5953" stroke-linecap="round" stroke-linejoin="round" x1="4.607" y1="1.006" x2="4.607" y2="3.048"/>
<line fill="none" stroke="#231F20" stroke-width="0.5953" stroke-linecap="round" stroke-linejoin="round" x1="3.048" y1="4.606" x2="1.006" y2="4.606"/>
</svg>
