<?xml version="1.0" encoding="utf-8"?>
<!-- Generator: Adobe Illustrator 13.0.0, SVG Export Plug-In . SVG Version: 6.00 Build 14948)  -->
<!DOCTYPE svg PUBLIC "-//W3C//DTD SVG 1.1 Basic//EN" "http://www.w3.org/Graphics/SVG/1.1/DTD/svg11-basic.dtd">
<svg version="1.1" baseProfile="basic" id="Слой_1"
	 xmlns="http://www.w3.org/2000/svg" xmlns:xlink="http://www.w3.org/1999/xlink" x="0px" y="0px" width="42.355px"
	 height="50.926px" viewBox="0 0 42.355 50.926" xml:space="preserve">
<linearGradient id="SVGID_1_" gradientUnits="userSpaceOnUse" x1="4.7527" y1="11.7749" x2="3.1265" y2="9.2728" gradientTransform="matrix(1 0 0 -1 0.0376 49.7715)">
	<stop  offset="0" style="stop-color:#E6E7EE"/>
	<stop  offset="1" style="stop-color:#ABBDD1"/>
</linearGradient>
<path fill="url(#SVGID_1_)" d="M3.939,37.385l1.724,1.191c-0.482,0.286-1.024,0.365-1.35,0.148c-0.03-0.02-0.05-0.039-0.079-0.059
	c-0.021-0.012-0.03-0.021-0.05-0.041c-0.148-0.166-0.246-0.434-0.246-0.787C3.939,37.69,3.939,37.534,3.939,37.385z"/>
<linearGradient id="SVGID_2_" gradientUnits="userSpaceOnUse" x1="25.2937" y1="47.4995" x2="24.103" y2="45.9571" gradientTransform="matrix(1 0 0 -1 0.0376 49.7715)">
	<stop  offset="0" style="stop-color:#E6E7EE"/>
	<stop  offset="1" style="stop-color:#ABBDD1"/>
</linearGradient>
<path fill="url(#SVGID_2_)" d="M25.085,3.881c0,0.147,0,0.305,0,0.453L23.33,3.122c0.03-0.01,0.05-0.02,0.08-0.04
	c0.424-0.236,0.837-0.306,1.152-0.188c0.01,0.01,0.02,0.01,0.028,0.02C24.887,3.053,25.085,3.368,25.085,3.881z"/>
<g>
	
		<linearGradient id="SVGID_3_" gradientUnits="userSpaceOnUse" x1="20.3469" y1="41.1655" x2="36.4685" y2="41.1655" gradientTransform="matrix(1 0 0 -1 0.0376 49.7715)">
		<stop  offset="0" style="stop-color:#F8F5EA"/>
		<stop  offset="1" style="stop-color:#F4EDCE"/>
	</linearGradient>
	<path fill="url(#SVGID_3_)" d="M36.506,12.237c-0.887,0.512-1.783,1.035-2.682,1.538c-0.059,0.069-0.127,0.138-0.195,0.197
		c-0.021,0.039-0.051,0.078-0.069,0.117L20.385,4.975c0.02-0.04,0.05-0.069,0.069-0.108c0.068-0.069,0.127-0.138,0.197-0.207
		c0.887-0.502,1.793-1.015,2.68-1.537l1.755,1.212L36.506,12.237z"/>
	
		<linearGradient id="SVGID_4_" gradientUnits="userSpaceOnUse" x1="19.5295" y1="39.7173" x2="33.5212" y2="39.7173" gradientTransform="matrix(1 0 0 -1 0.0376 49.7715)">
		<stop  offset="0" style="stop-color:#F8F5EA"/>
		<stop  offset="1" style="stop-color:#F4EDCE"/>
	</linearGradient>
	<path fill="url(#SVGID_4_)" d="M33.559,14.089c-0.188,0.296-0.354,0.592-0.541,0.888c-0.089,0.049-0.188,0.108-0.275,0.157
		L19.567,6.019c0.088-0.049,0.188-0.108,0.275-0.157c0.178-0.296,0.355-0.602,0.542-0.887L33.559,14.089z"/>
	
		<linearGradient id="SVGID_5_" gradientUnits="userSpaceOnUse" x1="7.6252" y1="36.1558" x2="32.7048" y2="36.1558" gradientTransform="matrix(1 0 0 -1 0.0376 49.7715)">
		<stop  offset="0" style="stop-color:#F8F5EA"/>
		<stop  offset="1" style="stop-color:#F4EDCE"/>
	</linearGradient>
	<path fill="url(#SVGID_5_)" d="M32.743,15.134c-3.47,1.98-6.918,3.952-10.387,5.942c-0.197-0.099-0.404-0.197-0.611-0.296
		c-0.068,0.01-0.128,0.02-0.197,0.03c-0.235,0.138-0.473,0.266-0.709,0.403L7.663,12.099c0.236-0.128,0.474-0.267,0.71-0.404
		c0.06-0.01,0.127-0.02,0.196-0.03c0.208,0.099,0.404,0.198,0.611,0.296C12.649,9.98,16.098,8,19.567,6.019L32.743,15.134z"/>
	
		<linearGradient id="SVGID_6_" gradientUnits="userSpaceOnUse" x1="3.9016" y1="30.2231" x2="20.8" y2="30.2231" gradientTransform="matrix(1 0 0 -1 0.0376 49.7715)">
		<stop  offset="0" style="stop-color:#F8F5EA"/>
		<stop  offset="1" style="stop-color:#F4EDCE"/>
	</linearGradient>
	<path fill="url(#SVGID_6_)" d="M20.838,21.213c-0.68,0.395-1.37,0.789-2.05,1.173c-0.867,0.493-1.675,1.685-1.675,2.71
		c0,0.641,0,1.271,0,1.9L3.939,17.883c0-0.63,0-1.261,0-1.892c0-1.034,0.808-2.217,1.674-2.72c0.68-0.384,1.36-0.778,2.05-1.172
		L20.838,21.213z"/>
	
		<linearGradient id="SVGID_7_" gradientUnits="userSpaceOnUse" x1="4.1477" y1="11.4307" x2="17.7756" y2="11.4307" gradientTransform="matrix(1 0 0 -1 0.0376 49.7715)">
		<stop  offset="0" style="stop-color:#F8F5EA"/>
		<stop  offset="1" style="stop-color:#F4EDCE"/>
	</linearGradient>
	<path fill="url(#SVGID_7_)" d="M17.813,42.252c0,0.178,0,0.363,0,0.541c-0.157,0.256-0.315,0.504-0.463,0.75L4.185,34.429
		c0.147-0.247,0.295-0.493,0.454-0.74c0-0.187,0-0.362,0-0.551L17.813,42.252z"/>
	
		<linearGradient id="SVGID_8_" gradientUnits="userSpaceOnUse" x1="3.9016" y1="19.7031" x2="17.7756" y2="19.7031" gradientTransform="matrix(1 0 0 -1 0.0376 49.7715)">
		<stop  offset="0" style="stop-color:#F8F5EA"/>
		<stop  offset="1" style="stop-color:#F4EDCE"/>
	</linearGradient>
	<path fill="url(#SVGID_8_)" d="M17.813,28.564c0,4.563,0,9.126,0,13.688L4.638,33.138c0-4.603,0-9.204,0-13.796
		c-0.207-0.099-0.414-0.196-0.611-0.295c-0.029-0.049-0.06-0.108-0.088-0.158c0-0.335,0-0.67,0-1.005l13.174,9.115
		c0,0.336,0,0.672,0,1.006c0.029,0.05,0.059,0.099,0.089,0.158C17.399,28.299,17.605,28.426,17.813,28.564z"/>
	
		<linearGradient id="SVGID_9_" gradientUnits="userSpaceOnUse" x1="3.9016" y1="9.3076" x2="17.3127" y2="9.3076" gradientTransform="matrix(1 0 0 -1 0.0376 49.7715)">
		<stop  offset="0" style="stop-color:#F8F5EA"/>
		<stop  offset="1" style="stop-color:#F4EDCE"/>
	</linearGradient>
	<path fill="url(#SVGID_9_)" d="M17.35,43.543c-0.051,0.088-0.1,0.168-0.148,0.246c-0.03,0.088-0.06,0.178-0.089,0.256
		c0,0.817,0,1.627,0,2.453L3.939,37.383c0-0.816,0-1.625,0-2.442c0.028-0.089,0.059-0.178,0.088-0.256
		c0.049-0.089,0.099-0.179,0.158-0.256L17.35,43.543z"/>
	
		<linearGradient id="SVGID_10_" gradientUnits="userSpaceOnUse" x1="17.0745" y1="28.6958" x2="41.8376" y2="28.6958" gradientTransform="matrix(1 0 0 -1 0.0376 49.7715)">
		<stop  offset="0" style="stop-color:#E6E7EE"/>
		<stop  offset="1" style="stop-color:#ABBDD1"/>
	</linearGradient>
	<path fill="url(#SVGID_10_)" d="M41.876,15.519h-0.028c-0.1-0.75-0.77-0.887-1.458-0.493c-0.818,0.464-1.638,0.937-2.466,1.409
		c-0.305,0.503-0.619,1.005-0.926,1.518c-0.197,0.108-0.385,0.217-0.581,0.335c-3.479,1.98-6.957,3.971-10.436,5.961
		c-0.315-0.147-0.621-0.295-0.938-0.443c-0.816,0.473-1.635,0.936-2.453,1.409c-0.769,0.443-1.487,1.487-1.487,2.403
		c0,0.868,0,1.725,0,2.582c-1.095-0.541-2.197-1.084-3.291-1.636c-0.208-0.138-0.414-0.265-0.611-0.403
		c-0.03-0.06-0.06-0.107-0.089-0.158c0-0.334,0-0.67,0-1.004c0-0.631,0-1.262,0-1.901c0-1.025,0.808-2.217,1.675-2.71
		c0.68-0.384,1.37-0.778,2.05-1.173c0.236-0.137,0.474-0.266,0.709-0.403c0.069-0.01,0.129-0.02,0.197-0.03
		c0.207,0.099,0.414,0.197,0.611,0.296c3.469-1.991,6.917-3.962,10.387-5.942c0.088-0.049,0.188-0.108,0.275-0.157
		c0.188-0.296,0.354-0.592,0.541-0.888c0.02-0.039,0.05-0.078,0.069-0.117c0.068-0.06,0.138-0.128,0.195-0.197
		c0.897-0.503,1.795-1.025,2.682-1.538c0.029-0.01,0.05-0.02,0.078-0.04c0.365-0.207,0.896-0.385,1.301-0.098
		c1.214,0.876,2.425,1.763,3.638,2.641C41.778,14.927,41.876,15.232,41.876,15.519z"/>
	
		<linearGradient id="SVGID_11_" gradientUnits="userSpaceOnUse" x1="24.949" y1="17.1719" x2="37.947" y2="17.1719" gradientTransform="matrix(1 0 0 -1 0.0376 49.7715)">
		<stop  offset="0" style="stop-color:#E6E7EE"/>
		<stop  offset="1" style="stop-color:#ABBDD1"/>
	</linearGradient>
	<path fill="url(#SVGID_11_)" d="M37.984,19.854c0,6.021,0,12.031,0,18.043c0,0.572-0.444,1.223-0.916,1.488
		c-0.236,0.138-0.483,0.275-0.72,0.414c-3.479,2-6.957,3.99-10.445,5.98c-0.463,0.266-0.916,0.139-0.916-0.434
		c0-6.021,0-12.031,0-18.043c0-0.571,0.443-1.223,0.916-1.487c3.725-2.139,7.449-4.267,11.165-6.396
		C37.531,19.154,37.984,19.282,37.984,19.854z M35.895,37.65V22.504l-3.379,1.932v15.145L35.895,37.65z M30.465,40.765V25.608
		l-3.38,1.941v15.146L30.465,40.765z"/>
	
		<linearGradient id="SVGID_12_" gradientUnits="userSpaceOnUse" x1="21.0657" y1="17.1699" x2="41.8279" y2="17.1699" gradientTransform="matrix(1 0 0 -1 0.0376 49.7715)">
		<stop  offset="0" style="stop-color:#E6E7EE"/>
		<stop  offset="1" style="stop-color:#ABBDD1"/>
	</linearGradient>
	<path fill="url(#SVGID_12_)" d="M41.866,18.317c0-0.867,0-1.725,0-2.582c0-0.079-0.01-0.148-0.019-0.217
		c-0.1-0.75-0.77-0.887-1.458-0.493c-0.818,0.464-1.638,0.937-2.466,1.409c-0.305,0.503-0.619,1.005-0.926,1.518
		c-0.197,0.108-0.385,0.217-0.581,0.335c-3.479,1.98-6.957,3.971-10.436,5.961c-0.315-0.147-0.621-0.295-0.938-0.443
		c-0.816,0.473-1.635,0.936-2.453,1.409c-0.769,0.443-1.487,1.488-1.487,2.404c0,0.867,0,1.725,0,2.582
		c0.314,0.157,0.621,0.307,0.936,0.452c0,4.908,0,9.806,0,14.714c-0.313,0.502-0.62,1.014-0.936,1.518c0,0.867,0,1.725,0,2.582
		c0,0.777,0.513,1.055,1.123,0.877c0.119-0.041,0.235-0.1,0.364-0.168c0.818-0.463,1.637-0.937,2.453-1.409
		c0.315-0.503,0.621-1.005,0.938-1.517c3.675-2.101,7.341-4.199,11.017-6.309c0.307,0.157,0.621,0.307,0.926,0.453
		c0.828-0.475,1.646-0.945,2.466-1.409c0.768-0.442,1.477-1.487,1.477-2.403c0-0.867,0-1.726,0-2.582
		c-0.305-0.156-0.62-0.306-0.926-0.453c0-4.906,0-9.804,0-14.711C41.246,19.332,41.561,18.819,41.866,18.317z M37.984,37.896
		c0,0.571-0.444,1.222-0.916,1.489c-0.236,0.137-0.483,0.275-0.72,0.412c-3.479,2-6.957,3.992-10.445,5.981
		c-0.463,0.267-0.916,0.14-0.916-0.435c0-6.02,0-12.03,0-18.043c0-0.57,0.443-1.221,0.916-1.486
		c3.725-2.139,7.449-4.267,11.165-6.396c0.463-0.266,0.916-0.138,0.916,0.433C37.984,25.874,37.984,31.885,37.984,37.896z"/>
	
		<linearGradient id="SVGID_13_" gradientUnits="userSpaceOnUse" x1="32.4783" y1="18.7295" x2="35.8572" y2="18.7295" gradientTransform="matrix(1 0 0 -1 0.0376 49.7715)">
		<stop  offset="0" style="stop-color:#F8F5EA"/>
		<stop  offset="1" style="stop-color:#F4EDCE"/>
	</linearGradient>
	<polygon fill="url(#SVGID_13_)" points="35.895,22.504 35.895,37.65 32.516,39.581 32.516,24.436 	"/>
	
		<linearGradient id="SVGID_14_" gradientUnits="userSpaceOnUse" x1="27.0466" y1="15.6196" x2="30.4275" y2="15.6196" gradientTransform="matrix(1 0 0 -1 0.0376 49.7715)">
		<stop  offset="0" style="stop-color:#F8F5EA"/>
		<stop  offset="1" style="stop-color:#F4EDCE"/>
	</linearGradient>
	<polygon fill="url(#SVGID_14_)" points="30.465,25.608 30.465,40.765 27.085,42.696 27.085,27.549 	"/>
	
		<linearGradient id="SVGID_15_" gradientUnits="userSpaceOnUse" x1="5.7141" y1="43.5718" x2="24.5251" y2="43.5718" gradientTransform="matrix(1 0 0 -1 0.0376 49.7715)">
		<stop  offset="0" style="stop-color:#E6E7EE"/>
		<stop  offset="1" style="stop-color:#ABBDD1"/>
	</linearGradient>
	<path fill="url(#SVGID_15_)" d="M21.045,0.57c1.172,0.769,2.346,1.557,3.519,2.325c-0.315-0.118-0.729-0.049-1.152,0.188
		c-0.03,0.02-0.05,0.03-0.08,0.04c-0.887,0.522-1.793,1.035-2.68,1.537c-0.069,0.069-0.128,0.138-0.197,0.207
		c-0.02,0.039-0.05,0.068-0.069,0.108c-0.188,0.286-0.364,0.591-0.542,0.887c-0.088,0.049-0.188,0.108-0.275,0.157
		C16.098,8,12.649,9.98,9.181,11.961c-1.134-0.749-2.268-1.498-3.4-2.256c-0.01,0-0.02-0.01-0.029-0.01
		c3.527-2.01,7.045-4.03,10.573-6.041c0.306-0.512,0.621-1.015,0.926-1.518c0.021-0.009,0.04-0.02,0.06-0.029
		c0.838-0.473,1.675-0.956,2.513-1.438C20.159,0.481,20.661,0.313,21.045,0.57z"/>
	
		<linearGradient id="SVGID_16_" gradientUnits="userSpaceOnUse" x1="19.6326" y1="-1.7725" x2="19.6326" y2="23.2607" gradientTransform="matrix(1 0 0 -1 0.0376 49.7715)">
		<stop  offset="0" style="stop-color:#E6E7EE"/>
		<stop  offset="1" style="stop-color:#ABBDD1"/>
	</linearGradient>
	<path fill="url(#SVGID_16_)" d="M22.227,50.342v0.011c-0.306,0.127-0.689,0.188-0.985-0.03c-1.241-0.826-2.483-1.646-3.725-2.464
		c-0.307-0.206-0.404-0.58-0.404-0.905c0-0.147,0-0.306,0-0.453c0-0.828,0-1.637,0-2.453c0.029-0.08,0.059-0.168,0.089-0.256
		c0.049-0.08,0.098-0.158,0.148-0.248c0.146-0.246,0.306-0.492,0.463-0.748c0-0.178,0-0.364,0-0.543c0-4.562,0-9.123,0-13.688
		c1.094,0.553,2.196,1.096,3.291,1.637c0.314,0.157,0.621,0.307,0.936,0.452c0,4.908,0,9.806,0,14.714
		c-0.313,0.502-0.62,1.014-0.936,1.518c0,0.867,0,1.725,0,2.582C21.104,50.243,21.617,50.521,22.227,50.342z"/>
	
		<linearGradient id="SVGID_17_" gradientUnits="userSpaceOnUse" x1="0.384" y1="35.5552" x2="9.1438" y2="35.5552" gradientTransform="matrix(1 0 0 -1 0.0376 49.7715)">
		<stop  offset="0" style="stop-color:#E6E7EE"/>
		<stop  offset="1" style="stop-color:#ABBDD1"/>
	</linearGradient>
	<path fill="url(#SVGID_17_)" d="M9.181,11.961c-0.207-0.098-0.404-0.197-0.611-0.296c-0.069,0.01-0.138,0.02-0.196,0.03
		c-0.236,0.137-0.474,0.275-0.71,0.404c-0.688,0.394-1.37,0.788-2.05,1.172c-0.867,0.503-1.674,1.686-1.674,2.72
		c0,0.631,0,1.261,0,1.892c0,0.335,0,0.67,0,1.005c0.029,0.049,0.059,0.108,0.088,0.158c-0.896-0.65-1.803-1.301-2.7-1.951
		c-0.207-0.147-0.413-0.306-0.621-0.453c-0.049-0.069-0.098-0.139-0.146-0.208c-0.051-0.108-0.089-0.217-0.139-0.325
		c0-0.887,0-1.764,0-2.642c0-0.995,0.779-2.128,1.606-2.601C2.866,10.383,3.694,9.9,4.531,9.427c0.118-0.009,0.246-0.02,0.364-0.04
		c0.089,0.01,0.178,0.02,0.266,0.03c0.197,0.099,0.395,0.187,0.592,0.275c0.01,0,0.02,0.01,0.029,0.01
		C6.914,10.463,8.047,11.212,9.181,11.961z"/>
	
		<linearGradient id="SVGID_18_" gradientUnits="userSpaceOnUse" x1="2.491" y1="11.8003" x2="2.491" y2="32.2989" gradientTransform="matrix(1 0 0 -1 0.0376 49.7715)">
		<stop  offset="0" style="stop-color:#E6E7EE"/>
		<stop  offset="1" style="stop-color:#ABBDD1"/>
	</linearGradient>
	<path fill="url(#SVGID_18_)" d="M4.185,34.429c-0.06,0.077-0.108,0.167-0.158,0.256c-0.029,0.078-0.06,0.167-0.088,0.256
		c0,0.817,0,1.626,0,2.442c0,0.148,0,0.308,0,0.453c0,0.355,0.098,0.621,0.246,0.789c-1.144-0.809-2.268-1.635-3.41-2.453
		C0.5,35.965,0.42,35.62,0.42,35.314c0-0.896,0-1.793,0.011-2.681c0.295-0.463,0.591-0.926,0.896-1.389c0-4.722,0-9.44,0-14.151
		c0.897,0.65,1.804,1.301,2.7,1.951c0.197,0.099,0.404,0.197,0.611,0.295c0,4.592,0,9.196,0,13.795c0,0.189,0,0.365,0,0.552
		C4.48,33.936,4.333,34.182,4.185,34.429z"/>
</g>
<path fill="none" stroke="#454447" stroke-width="0.5953" d="M37.068,19.42c-3.716,2.129-7.44,4.257-11.165,6.396
	c-0.473,0.267-0.916,0.916-0.916,1.487c0,6.012,0,12.021,0,18.043c0,0.572,0.453,0.699,0.916,0.434
	c3.488-1.99,6.967-3.98,10.445-5.98c0.235-0.139,0.482-0.276,0.72-0.414c0.472-0.268,0.916-0.916,0.916-1.488
	c0-6.012,0-12.022,0-18.043C37.984,19.282,37.531,19.154,37.068,19.42z"/>
<path fill="none" stroke="#454447" stroke-width="0.8986" stroke-linecap="round" stroke-linejoin="round" d="M41.735,15.161
	c-0.238-0.425-0.785-0.456-1.346-0.135c-0.818,0.464-1.638,0.937-2.466,1.409c-0.305,0.503-0.619,1.005-0.926,1.518
	c-0.197,0.108-0.385,0.217-0.581,0.335c-3.479,1.98-6.957,3.971-10.436,5.961c-0.315-0.147-0.621-0.295-0.938-0.443
	c-0.816,0.473-1.635,0.936-2.453,1.409c-0.769,0.443-1.487,1.487-1.487,2.403c0,0.868,0,1.725,0,2.582
	c0.314,0.158,0.621,0.307,0.936,0.453c0,4.908,0,9.807,0,14.713c-0.313,0.502-0.62,1.016-0.936,1.518c0,0.867,0,1.726,0,2.582
	c0,0.529,0.236,0.826,0.58,0.906"/>
<polygon fill="none" stroke="#454447" stroke-width="0.5953" points="32.516,39.581 35.895,37.65 35.895,22.504 32.516,24.436 "/>
<polygon fill="none" stroke="#454447" stroke-width="0.5953" points="27.085,42.696 30.465,40.765 30.465,25.608 27.085,27.549 "/>
<path fill="none" stroke="#454447" stroke-width="0.8986" stroke-linecap="round" stroke-linejoin="round" d="M24.592,2.905
	c0.235,0.16,0.388,0.457,0.388,0.906c0,0.147,0,0.305,0,0.453l0.609,0.422l10.945,7.561c0.03-0.01,0.049-0.02,0.079-0.04
	c0.365-0.207,0.896-0.385,1.301-0.098c1.212,0.876,2.424,1.763,3.636,2.641c0.258,0.187,0.354,0.493,0.354,0.779h-0.029
	c0.01,0.069,0.021,0.138,0.021,0.217c0,0.856,0,1.714,0,2.582c-0.306,0.502-0.621,1.015-0.926,1.518c0,4.907,0,9.805,0,14.713
	c0.305,0.146,0.62,0.295,0.926,0.453c0,0.855,0,1.713,0,2.58c0,0.916-0.709,1.962-1.479,2.404c-0.816,0.465-1.636,0.937-2.464,1.41
	c-0.306-0.148-0.621-0.297-0.926-0.453c-3.676,2.107-7.342,4.207-11.019,6.307c-0.313,0.512-0.62,1.014-0.936,1.518
	c-0.818,0.473-1.636,0.945-2.453,1.408c-0.129,0.068-0.247,0.129-0.365,0.168v0.01c-0.306,0.129-0.689,0.188-0.985-0.029
	c-1.241-0.828-2.483-1.646-3.726-2.463c-0.306-0.207-0.403-0.582-0.403-0.906c0-0.147,0-0.307,0-0.453L5.69,38.586h0.002
	c-0.483,0.285-1.025,0.365-1.351,0.147c-0.029-0.019-0.05-0.038-0.078-0.06c-0.021-0.01-0.03-0.02-0.051-0.039l0,0
	C3.07,37.827,1.946,37,0.803,36.182c-0.275-0.207-0.354-0.553-0.354-0.857c0-0.896,0-1.793,0.01-2.68
	c0.295-0.464,0.591-0.928,0.896-1.391c0-4.721,0-9.439,0-14.149c-0.207-0.148-0.413-0.306-0.621-0.453
	c-0.049-0.069-0.098-0.139-0.147-0.208c-0.05-0.108-0.089-0.217-0.138-0.325c0-0.887,0-1.764,0-2.642
	c0-0.995,0.779-2.128,1.606-2.601c0.838-0.483,1.666-0.966,2.503-1.439c0.117-0.009,0.246-0.02,0.363-0.04
	c0.09,0.01,0.179,0.02,0.267,0.03C5.385,9.526,5.582,9.614,5.78,9.702c3.527-2.01,7.045-4.03,10.573-6.041
	c0.306-0.512,0.621-1.015,0.926-1.518c0.02-0.009,0.04-0.02,0.059-0.029c0.838-0.473,1.676-0.956,2.514-1.438
	c0.336-0.188,0.838-0.355,1.222-0.099C22.247,1.349,23.418,2.137,24.592,2.905z"/>
<g opacity="0.5">
	<path fill="none" stroke="#000000" stroke-width="0.5953" d="M17.113,46.499c0-0.826,0-1.636,0-2.453
		c0.029-0.078,0.059-0.168,0.089-0.256c0.049-0.078,0.098-0.158,0.148-0.246c0.146-0.246,0.306-0.494,0.463-0.75
		c0-0.178,0-0.363,0-0.541c0-4.563,0-9.125,0-13.688"/>
	<path fill="none" stroke="#000000" stroke-width="0.5953" d="M36.584,12.197c-0.028,0.02-0.049,0.03-0.078,0.04
		c-0.887,0.512-1.783,1.035-2.682,1.538c-0.059,0.069-0.127,0.138-0.195,0.197c-0.021,0.039-0.051,0.078-0.069,0.117
		c-0.188,0.296-0.354,0.592-0.541,0.888c-0.089,0.049-0.188,0.108-0.275,0.157c-3.47,1.98-6.918,3.952-10.387,5.942
		c-0.197-0.099-0.404-0.197-0.611-0.296c-0.068,0.01-0.128,0.02-0.197,0.03c-0.235,0.138-0.473,0.266-0.709,0.403
		c-0.68,0.395-1.369,0.789-2.05,1.173c-0.867,0.493-1.675,1.685-1.675,2.71c0,0.641,0,1.271,0,1.9c0,0.336,0,0.672,0,1.006
		c0.029,0.049,0.059,0.099,0.089,0.158c0.197,0.139,0.403,0.266,0.611,0.402c1.094,0.553,2.197,1.096,3.291,1.637"/>
	
		<line fill="none" stroke="#000000" stroke-width="0.5953" stroke-linecap="round" stroke-linejoin="round" x1="4.638" y1="33.138" x2="17.813" y2="42.252"/>
	
		<linearGradient id="SVGID_19_" gradientUnits="userSpaceOnUse" x1="1.2893" y1="31.7007" x2="3.9895" y2="31.7007" gradientTransform="matrix(1 0 0 -1 0.0376 49.7715)">
		<stop  offset="0" style="stop-color:#F8F5EA"/>
		<stop  offset="1" style="stop-color:#F4EDCE"/>
	</linearGradient>
	<path fill="url(#SVGID_19_)" stroke="#000000" stroke-width="0.5953" d="M4.027,19.046c-0.896-0.65-1.803-1.301-2.7-1.951"/>
	<line fill="none" stroke="#000000" stroke-width="0.5953" x1="3.939" y1="17.883" x2="17.113" y2="26.999"/>
	
		<linearGradient id="SVGID_20_" gradientUnits="userSpaceOnUse" x1="5.7141" y1="38.9438" x2="9.1438" y2="38.9438" gradientTransform="matrix(1 0 0 -1 0.0376 49.7715)">
		<stop  offset="0" style="stop-color:#F8F5EA"/>
		<stop  offset="1" style="stop-color:#F4EDCE"/>
	</linearGradient>
	<path fill="url(#SVGID_20_)" stroke="#000000" stroke-width="0.5953" d="M5.752,9.694c0.01,0,0.02,0.01,0.029,0.01
		c1.133,0.759,2.267,1.507,3.4,2.256"/>
	<line fill="none" stroke="#000000" stroke-width="0.5953" x1="19.567" y1="6.019" x2="32.743" y2="15.134"/>
	<line fill="none" stroke="#000000" stroke-width="0.5953" x1="7.663" y1="12.099" x2="20.838" y2="21.213"/>
	<line fill="none" stroke="#000000" stroke-width="0.5953" x1="23.331" y1="3.122" x2="24.979" y2="4.264"/>
	<path fill="none" stroke="#000000" stroke-width="0.5953" d="M5.663,38.577l-1.724-1.193c0-0.816,0-1.625,0-2.442
		c0.028-0.089,0.059-0.178,0.088-0.256c0.049-0.089,0.099-0.179,0.158-0.256c0.147-0.247,0.295-0.493,0.454-0.74
		c0-0.187,0-0.362,0-0.551c0-4.603,0-9.204,0-13.796c-0.207-0.099-0.414-0.196-0.611-0.295c-0.029-0.049-0.059-0.108-0.088-0.158
		c0-0.335,0-0.67,0-1.005c0-0.63,0-1.261,0-1.892c0-1.034,0.808-2.217,1.674-2.72c0.68-0.384,1.36-0.778,2.05-1.172
		c0.236-0.128,0.474-0.267,0.71-0.404c0.06-0.01,0.127-0.02,0.196-0.03c0.208,0.099,0.404,0.198,0.611,0.296
		C12.649,9.98,16.098,8,19.567,6.019c0.088-0.049,0.188-0.108,0.275-0.157c0.178-0.296,0.355-0.602,0.542-0.887
		c0.02-0.04,0.05-0.069,0.069-0.108c0.068-0.069,0.127-0.138,0.197-0.207c0.887-0.502,1.793-1.015,2.68-1.537
		c0.03-0.01,0.05-0.02,0.08-0.04c0.424-0.236,0.837-0.306,1.152-0.188c0.01,0.01,0.02,0.01,0.028,0.02
		c0.037,0.017,0.072,0.037,0.105,0.06"/>
</g>
</svg>
