<?xml version="1.0" encoding="utf-8"?>
<!-- Generator: Adobe Illustrator 13.0.0, SVG Export Plug-In . SVG Version: 6.00 Build 14948)  -->
<!DOCTYPE svg PUBLIC "-//W3C//DTD SVG 1.1 Basic//EN" "http://www.w3.org/Graphics/SVG/1.1/DTD/svg11-basic.dtd">
<svg version="1.1" baseProfile="basic" id="Слой_1"
	 xmlns="http://www.w3.org/2000/svg" xmlns:xlink="http://www.w3.org/1999/xlink" x="0px" y="0px" width="82.277px"
	 height="60.049px" viewBox="0 0 82.277 60.049" xml:space="preserve">
<linearGradient id="SVGID_1_" gradientUnits="userSpaceOnUse" x1="38.6887" y1="-0.7129" x2="4.0069" y2="24.8609" gradientTransform="matrix(1 0 0 -1 0.0376 58.8936)">
	<stop  offset="0" style="stop-color:#E6E7EE"/>
	<stop  offset="1" style="stop-color:#ABBDD1"/>
</linearGradient>
<polygon fill="url(#SVGID_1_)" points="33.539,50.769 33.539,59.599 7.329,41.47 7.329,33.05 33.219,50.949 "/>
<linearGradient id="SVGID_2_" gradientUnits="userSpaceOnUse" x1="33.5017" y1="15.5698" x2="74.9221" y2="15.5698" gradientTransform="matrix(1 0 0 -1 0.0376 58.8936)">
	<stop  offset="0" style="stop-color:#E6E7EE"/>
	<stop  offset="1" style="stop-color:#ABBDD1"/>
</linearGradient>
<polygon fill="url(#SVGID_2_)" points="74.959,27.049 74.959,35.89 33.539,59.599 33.539,50.769 "/>
<linearGradient id="SVGID_3_" gradientUnits="userSpaceOnUse" x1="0.4119" y1="33.1943" x2="81.7913" y2="33.1943" gradientTransform="matrix(1 0 0 -1 0.0376 58.8936)">
	<stop  offset="0" style="stop-color:#E6E7EE"/>
	<stop  offset="1" style="stop-color:#ABBDD1"/>
</linearGradient>
<path fill="url(#SVGID_3_)" d="M81.829,23.109l-6.87,3.94l-41.42,23.72l-0.32,0.181L7.329,33.05l-6.88-4.761l48.608-27.84
	L81.829,23.109z M33.539,46.619l41.42-23.71L48.739,4.779L7.329,28.489L33.539,46.619z"/>
<linearGradient id="SVGID_4_" gradientUnits="userSpaceOnUse" x1="29.3113" y1="28.7344" x2="65.803" y2="28.7344" gradientTransform="matrix(1 0 0 -1 0.0376 58.8936)">
	<stop  offset="0" style="stop-color:#E6E7EE"/>
	<stop  offset="1" style="stop-color:#ABBDD1"/>
</linearGradient>
<polygon fill="url(#SVGID_4_)" points="65.84,22.519 33.789,40.869 29.349,37.8 61.399,19.449 "/>
<linearGradient id="SVGID_5_" gradientUnits="userSpaceOnUse" x1="16.4119" y1="37.6543" x2="52.8928" y2="37.6543" gradientTransform="matrix(1 0 0 -1 0.0376 58.8936)">
	<stop  offset="0" style="stop-color:#E6E7EE"/>
	<stop  offset="1" style="stop-color:#ABBDD1"/>
</linearGradient>
<polygon fill="url(#SVGID_5_)" points="52.93,13.599 20.879,31.949 16.449,28.879 48.499,10.529 "/>
<linearGradient id="SVGID_6_" gradientUnits="userSpaceOnUse" x1="7.2917" y1="33.1943" x2="74.9221" y2="33.1943" gradientTransform="matrix(1 0 0 -1 0.0376 58.8936)">
	<stop  offset="0" style="stop-color:#F8F5EA"/>
	<stop  offset="1" style="stop-color:#F4EDCE"/>
</linearGradient>
<path fill="url(#SVGID_6_)" d="M74.959,22.909l-41.42,23.71l-26.21-18.13l41.409-23.71L74.959,22.909z M33.789,40.869l32.051-18.35
	l-4.44-3.07L29.349,37.8L33.789,40.869z M20.879,31.949l32.05-18.35l-4.431-3.07l-32.05,18.35L20.879,31.949z"/>
<polyline fill="none" stroke="#454447" stroke-width="0.8986" stroke-linecap="round" stroke-linejoin="round" points="7.329,33.05 
	7.329,41.47 33.539,59.599 74.959,35.89 74.959,27.049 "/>
<polygon fill="none" stroke="#454447" stroke-width="0.8986" stroke-linecap="round" stroke-linejoin="round" points="7.329,33.05 
	33.219,50.949 33.539,50.769 74.959,27.049 81.829,23.109 49.059,0.449 0.449,28.289 "/>
<polygon fill="none" stroke="#454447" stroke-width="0.5953" stroke-linecap="round" stroke-linejoin="round" points="7.329,28.489 
	33.539,46.619 74.959,22.909 48.739,4.779 "/>
<line fill="none" stroke="#454447" stroke-width="0.5953" stroke-linecap="round" stroke-linejoin="round" x1="33.539" y1="50.769" x2="33.539" y2="59.599"/>
<polygon fill="none" stroke="#454447" stroke-width="0.5953" stroke-linecap="round" stroke-linejoin="round" points="
	20.879,31.949 52.93,13.599 48.499,10.529 16.449,28.879 "/>
<polygon fill="none" stroke="#454447" stroke-width="0.5953" stroke-linecap="round" stroke-linejoin="round" points="
	33.789,40.869 65.84,22.519 61.399,19.449 29.349,37.8 "/>
</svg>
