<?xml version="1.0" encoding="utf-8"?>
<!-- Generator: Adobe Illustrator 13.0.0, SVG Export Plug-In . SVG Version: 6.00 Build 14948)  -->
<!DOCTYPE svg PUBLIC "-//W3C//DTD SVG 1.1 Basic//EN" "http://www.w3.org/Graphics/SVG/1.1/DTD/svg11-basic.dtd">
<svg version="1.1" baseProfile="basic" id="Слой_1"
	 xmlns="http://www.w3.org/2000/svg" xmlns:xlink="http://www.w3.org/1999/xlink" x="0px" y="0px" width="59.589px"
	 height="59.088px" viewBox="0 0 59.589 59.088" xml:space="preserve">
<linearGradient id="SVGID_1_" gradientUnits="userSpaceOnUse" x1="53.6909" y1="37.6436" x2="57.0112" y2="37.6436" gradientTransform="matrix(1 0 0 -1 0.0376 57.9326)">
	<stop  offset="0" style="stop-color:#F8F5EA"/>
	<stop  offset="1" style="stop-color:#F4EDCE"/>
</linearGradient>
<polygon fill="url(#SVGID_1_)" points="57.048,18.129 57.048,20.539 53.729,22.449 53.729,20.029 "/>
<linearGradient id="SVGID_2_" gradientUnits="userSpaceOnUse" x1="49.1616" y1="44.5586" x2="59.1011" y2="44.5586" gradientTransform="matrix(1 0 0 -1 0.0376 57.9326)">
	<stop  offset="0" style="stop-color:#F8F5EA"/>
	<stop  offset="1" style="stop-color:#F4EDCE"/>
</linearGradient>
<polygon fill="url(#SVGID_2_)" points="59.139,6.719 59.139,16.929 57.048,18.129 53.729,20.029 53.729,16.079 49.199,12.949 
	49.199,12.409 "/>
<linearGradient id="SVGID_3_" gradientUnits="userSpaceOnUse" x1="48.8726" y1="50.2979" x2="59.1011" y2="50.2979" gradientTransform="matrix(1 0 0 -1 0.0376 57.9326)">
	<stop  offset="0" style="stop-color:#F8F5EA"/>
	<stop  offset="1" style="stop-color:#F4EDCE"/>
</linearGradient>
<polygon fill="url(#SVGID_3_)" points="57.048,2.859 59.139,6.719 49.199,12.409 49.199,7.729 48.91,7.529 "/>
<linearGradient id="SVGID_4_" gradientUnits="userSpaceOnUse" x1="46.9624" y1="53.9434" x2="57.0112" y2="53.9434" gradientTransform="matrix(1 0 0 -1 0.0376 57.9326)">
	<stop  offset="0" style="stop-color:#F8F5EA"/>
	<stop  offset="1" style="stop-color:#F4EDCE"/>
</linearGradient>
<polygon fill="url(#SVGID_4_)" points="57.048,0.449 57.048,2.859 48.91,7.529 47,6.209 "/>
<linearGradient id="SVGID_5_" gradientUnits="userSpaceOnUse" x1="14.9912" y1="1.9033" x2="19.1216" y2="1.9033" gradientTransform="matrix(1 0 0 -1 0.0376 57.9326)">
	<stop  offset="0" style="stop-color:#E6E7EE"/>
	<stop  offset="1" style="stop-color:#ABBDD1"/>
</linearGradient>
<polygon fill="url(#SVGID_5_)" points="19.159,56.269 15.029,58.64 15.029,53.419 "/>
<linearGradient id="SVGID_6_" gradientUnits="userSpaceOnUse" x1="0.4116" y1="9.0625" x2="10.4712" y2="9.0625" gradientTransform="matrix(1 0 0 -1 0.0376 57.9326)">
	<stop  offset="0" style="stop-color:#F8F5EA"/>
	<stop  offset="1" style="stop-color:#F4EDCE"/>
</linearGradient>
<polygon fill="url(#SVGID_6_)" points="2.539,49.349 10.509,44.79 10.509,47.2 0.449,52.95 0.449,50.54 "/>
<linearGradient id="SVGID_7_" gradientUnits="userSpaceOnUse" x1="2.5015" y1="15.9736" x2="10.4712" y2="15.9736" gradientTransform="matrix(1 0 0 -1 0.0376 57.9326)">
	<stop  offset="0" style="stop-color:#F8F5EA"/>
	<stop  offset="1" style="stop-color:#F4EDCE"/>
</linearGradient>
<polygon fill="url(#SVGID_7_)" points="10.509,34.569 10.509,44.79 2.539,49.349 2.539,39.129 "/>
<linearGradient id="SVGID_8_" gradientUnits="userSpaceOnUse" x1="0.4116" y1="23.6084" x2="10.4712" y2="23.6084" gradientTransform="matrix(1 0 0 -1 0.0376 57.9326)">
	<stop  offset="0" style="stop-color:#F8F5EA"/>
	<stop  offset="1" style="stop-color:#F4EDCE"/>
</linearGradient>
<polygon fill="url(#SVGID_8_)" points="10.509,29.519 10.509,34.569 2.539,39.129 0.449,35.269 "/>
<linearGradient id="SVGID_9_" gradientUnits="userSpaceOnUse" x1="0.4116" y1="26.7437" x2="10.4712" y2="26.7437" gradientTransform="matrix(1 0 0 -1 0.0376 57.9326)">
	<stop  offset="0" style="stop-color:#F8F5EA"/>
	<stop  offset="1" style="stop-color:#F4EDCE"/>
</linearGradient>
<polygon fill="url(#SVGID_9_)" points="0.449,32.86 10.509,27.109 10.509,29.519 0.449,35.269 "/>
<linearGradient id="SVGID_10_" gradientUnits="userSpaceOnUse" x1="10.4712" y1="16.5283" x2="19.5112" y2="16.5283" gradientTransform="matrix(1 0 0 -1 0.0376 57.9326)">
	<stop  offset="0" style="stop-color:#E6E7EE"/>
	<stop  offset="1" style="stop-color:#ABBDD1"/>
</linearGradient>
<polygon fill="url(#SVGID_10_)" points="19.549,35.649 19.549,56.54 19.159,56.269 15.029,53.419 15.029,58.64 10.509,55.509 
	10.509,47.2 10.509,44.79 10.509,34.569 10.509,29.519 10.509,27.109 10.509,24.169 15.029,27.299 15.029,32.519 "/>
<linearGradient id="SVGID_11_" gradientUnits="userSpaceOnUse" x1="23.5415" y1="16.4531" x2="31.6108" y2="16.4531" gradientTransform="matrix(1 0 0 -1 0.0376 57.9326)">
	<stop  offset="0" style="stop-color:#F8F5EA"/>
	<stop  offset="1" style="stop-color:#F4EDCE"/>
</linearGradient>
<polygon fill="url(#SVGID_11_)" points="31.648,33.37 31.648,44.969 23.579,49.589 23.579,37.989 "/>
<linearGradient id="SVGID_12_" gradientUnits="userSpaceOnUse" x1="35.4214" y1="23.2534" x2="43.4917" y2="23.2534" gradientTransform="matrix(1 0 0 -1 0.0376 57.9326)">
	<stop  offset="0" style="stop-color:#F8F5EA"/>
	<stop  offset="1" style="stop-color:#F4EDCE"/>
</linearGradient>
<polygon fill="url(#SVGID_12_)" points="43.529,26.569 43.529,38.169 35.458,42.79 35.458,31.19 "/>
<linearGradient id="SVGID_13_" gradientUnits="userSpaceOnUse" x1="19.5112" y1="21.6235" x2="53.6909" y2="21.6235" gradientTransform="matrix(1 0 0 -1 0.0376 57.9326)">
	<stop  offset="0" style="stop-color:#E6E7EE"/>
	<stop  offset="1" style="stop-color:#ABBDD1"/>
</linearGradient>
<path fill="url(#SVGID_13_)" d="M53.729,22.449v14.52l-34.18,19.57v-20.89l34.18-19.57v3.95V22.449z M43.529,38.169v-11.6
	l-8.07,4.622v11.6L43.529,38.169z M31.648,44.969v-11.6l-8.069,4.618v11.602L31.648,44.969z"/>
<linearGradient id="SVGID_14_" gradientUnits="userSpaceOnUse" x1="14.9912" y1="33.6338" x2="53.6909" y2="33.6338" gradientTransform="matrix(1 0 0 -1 0.0376 57.9326)">
	<stop  offset="0" style="stop-color:#E6E7EE"/>
	<stop  offset="1" style="stop-color:#ABBDD1"/>
</linearGradient>
<polygon fill="url(#SVGID_14_)" points="53.729,16.079 19.549,35.649 15.029,32.519 49.199,12.949 "/>
<linearGradient id="SVGID_15_" gradientUnits="userSpaceOnUse" x1="14.9912" y1="37.8096" x2="49.1616" y2="37.8096" gradientTransform="matrix(1 0 0 -1 0.0376 57.9326)">
	<stop  offset="0" style="stop-color:#E6E7EE"/>
	<stop  offset="1" style="stop-color:#ABBDD1"/>
</linearGradient>
<polygon fill="url(#SVGID_15_)" points="49.199,12.409 49.199,12.949 15.029,32.519 15.029,27.299 49.199,7.729 "/>
<linearGradient id="SVGID_16_" gradientUnits="userSpaceOnUse" x1="10.4712" y1="41.9834" x2="49.1616" y2="41.9834" gradientTransform="matrix(1 0 0 -1 0.0376 57.9326)">
	<stop  offset="0" style="stop-color:#E6E7EE"/>
	<stop  offset="1" style="stop-color:#ABBDD1"/>
</linearGradient>
<polygon fill="url(#SVGID_16_)" points="48.91,7.529 49.199,7.729 15.029,27.299 10.509,24.169 44.68,4.599 47,6.209 "/>
<line fill="none" stroke="#454447" stroke-width="0.5953" stroke-linecap="round" stroke-linejoin="round" x1="49.199" y1="7.729" x2="15.029" y2="27.299"/>
<line fill="none" stroke="#454447" stroke-width="0.5953" stroke-linecap="round" stroke-linejoin="round" x1="49.199" y1="12.949" x2="15.029" y2="32.519"/>
<line fill="none" stroke="#454447" stroke-width="0.5953" stroke-linecap="round" stroke-linejoin="round" x1="53.729" y1="16.079" x2="19.549" y2="35.649"/>
<line fill="none" stroke="#454447" stroke-width="0.5953" stroke-linecap="round" stroke-linejoin="round" x1="53.729" y1="20.029" x2="57.048" y2="18.129"/>
<line fill="none" stroke="#454447" stroke-width="0.5953" stroke-linecap="round" stroke-linejoin="round" x1="48.91" y1="7.529" x2="57.048" y2="2.859"/>
<polyline fill="none" stroke="#454447" stroke-width="0.8986" stroke-linecap="round" stroke-linejoin="round" points="47,6.209 
	57.048,0.449 57.048,2.859 59.139,6.719 59.139,16.929 57.048,18.129 57.048,20.539 53.729,22.449 "/>
<polyline fill="none" stroke="#454447" stroke-width="0.5953" stroke-linecap="round" stroke-linejoin="round" points="
	49.089,12.469 49.199,12.409 59.139,6.719 "/>
<line fill="none" stroke="#454447" stroke-width="0.8986" stroke-linecap="round" stroke-linejoin="round" x1="19.159" y1="56.269" x2="15.029" y2="58.64"/>
<polyline fill="none" stroke="#454447" stroke-width="0.8986" stroke-linecap="round" stroke-linejoin="round" points="10.509,47.2 
	0.449,52.95 0.449,50.54 2.539,49.349 2.539,39.129 0.449,35.269 0.449,32.86 10.509,27.109 "/>
<line fill="none" stroke="#454447" stroke-width="0.5953" stroke-linecap="round" stroke-linejoin="round" x1="10.509" y1="44.79" x2="2.539" y2="49.349"/>
<line fill="none" stroke="#454447" stroke-width="0.5953" stroke-linecap="round" stroke-linejoin="round" x1="10.509" y1="29.519" x2="0.449" y2="35.269"/>
<line fill="none" stroke="#454447" stroke-width="0.5953" stroke-linecap="round" stroke-linejoin="round" x1="10.509" y1="34.569" x2="2.539" y2="39.129"/>
<polyline fill="none" stroke="#454447" stroke-width="0.5953" stroke-linecap="round" stroke-linejoin="round" points="
	10.509,24.169 15.029,27.299 15.029,32.519 19.549,35.649 19.549,56.54 "/>
<polygon fill="none" stroke="#454447" stroke-width="0.8986" stroke-linecap="round" stroke-linejoin="round" points="
	43.529,38.169 43.529,26.569 35.458,31.19 35.458,42.79 "/>
<polygon fill="none" stroke="#454447" stroke-width="0.8986" stroke-linecap="round" stroke-linejoin="round" points="19.549,56.54 
	53.729,36.969 53.729,22.449 53.729,20.029 53.729,16.079 49.199,12.949 49.199,12.409 49.199,7.729 48.91,7.529 47,6.209 
	44.68,4.599 10.509,24.169 10.509,27.109 10.509,29.519 10.509,34.569 10.509,44.79 10.509,47.2 10.509,55.509 15.029,58.64 
	15.029,53.419 19.159,56.269 "/>
<polygon fill="none" stroke="#454447" stroke-width="0.8986" stroke-linecap="round" stroke-linejoin="round" points="
	31.648,44.969 31.648,33.37 23.579,37.989 23.579,49.589 "/>
</svg>
