<?xml version="1.0" encoding="utf-8"?>
<!-- Generator: Adobe Illustrator 13.0.0, SVG Export Plug-In . SVG Version: 6.00 Build 14948)  -->
<!DOCTYPE svg PUBLIC "-//W3C//DTD SVG 1.1 Basic//EN" "http://www.w3.org/Graphics/SVG/1.1/DTD/svg11-basic.dtd">
<svg version="1.1" baseProfile="basic" id="Слой_1"
	 xmlns="http://www.w3.org/2000/svg" xmlns:xlink="http://www.w3.org/1999/xlink" x="0px" y="0px" width="33.584px"
	 height="65.023px" viewBox="0 0 33.584 65.023" xml:space="preserve">
<linearGradient id="SVGID_1_" gradientUnits="userSpaceOnUse" x1="0.4116" y1="31.3562" x2="33.0967" y2="31.3562" gradientTransform="matrix(1 0 0 -1 0.0376 63.8677)">
	<stop  offset="0" style="stop-color:#E6E7EE"/>
	<stop  offset="1" style="stop-color:#ABBDD1"/>
</linearGradient>
<polygon fill="url(#SVGID_1_)" points="33.134,45.854 33.134,0.449 0.449,19.167 0.449,64.574 "/>
<linearGradient id="SVGID_2_" gradientUnits="userSpaceOnUse" x1="2.9565" y1="31.3577" x2="30.5537" y2="31.3577" gradientTransform="matrix(1 0 0 -1 0.0376 63.8677)">
	<stop  offset="0" style="stop-color:#F8F5EA"/>
	<stop  offset="1" style="stop-color:#F4EDCE"/>
</linearGradient>
<polygon fill="url(#SVGID_2_)" points="30.591,44.379 30.591,4.837 2.994,20.642 2.994,60.183 "/>
<polygon fill="none" stroke="#454447" stroke-width="0.5953" stroke-linecap="round" stroke-linejoin="round" points="
	30.591,44.379 30.591,4.837 2.994,20.642 2.994,60.183 "/>
<polygon fill="none" stroke="#454447" stroke-width="0.8986" stroke-linecap="round" stroke-linejoin="round" points="
	33.134,45.854 33.134,0.449 0.449,19.167 0.449,64.574 "/>
<path fill="none" stroke="#454447" stroke-width="0.5953" stroke-linecap="round" stroke-linejoin="round" d="M11.775,38.679
	c-0.877,0.502-1.617,1.555-1.824,2.532c-0.29,1.364,0.582,2.133,1.824,1.422c0.875-0.502,1.613-1.555,1.822-2.532
	C13.888,38.737,13.014,37.968,11.775,38.679z"/>
<path fill="none" stroke="#454447" stroke-width="0.5953" stroke-linecap="round" stroke-linejoin="round" d="M26.827,35.332
	c-0.875,0.502-1.615,1.553-1.824,2.533c-0.29,1.364,0.584,2.132,1.824,1.42c0.877-0.5,1.615-1.553,1.824-2.531
	C28.94,35.387,28.067,34.621,26.827,35.332z"/>
<path fill="none" stroke="#454447" stroke-width="0.5953" stroke-linecap="round" stroke-linejoin="round" d="M11.775,22.861
	c-0.877,0.502-1.617,1.555-1.824,2.536c-0.29,1.361,0.582,2.132,1.824,1.42c0.875-0.5,1.613-1.553,1.822-2.532
	C13.888,22.919,13.014,22.151,11.775,22.861z"/>
<path fill="none" stroke="#454447" stroke-width="0.5953" stroke-linecap="round" stroke-linejoin="round" d="M21.81,17.114
	c-0.877,0.503-1.615,1.555-1.824,2.536c-0.289,1.362,0.584,2.13,1.824,1.42c0.877-0.503,1.615-1.554,1.824-2.532
	C23.924,17.172,23.05,16.404,21.81,17.114z"/>
<linearGradient id="SVGID_3_" gradientUnits="userSpaceOnUse" x1="14.8994" y1="15.572" x2="18.6592" y2="15.572" gradientTransform="matrix(1 0 0 -1 0.0376 63.8677)">
	<stop  offset="0" style="stop-color:#E6E7EE"/>
	<stop  offset="1" style="stop-color:#ABBDD1"/>
</linearGradient>
<path fill="url(#SVGID_3_)" d="M16.817,46.32c-0.877,0.5-1.615,1.551-1.824,2.531c-0.29,1.363,0.582,2.132,1.824,1.422
	c0.875-0.502,1.616-1.556,1.823-2.533C18.933,46.375,18.058,45.607,16.817,46.32z"/>
<linearGradient id="SVGID_4_" gradientUnits="userSpaceOnUse" x1="19.918" y1="50.0789" x2="23.6777" y2="50.0789" gradientTransform="matrix(1 0 0 -1 0.0376 63.8677)">
	<stop  offset="0" style="stop-color:#E6E7EE"/>
	<stop  offset="1" style="stop-color:#ABBDD1"/>
</linearGradient>
<path fill="url(#SVGID_4_)" d="M21.835,11.812c-0.877,0.502-1.615,1.553-1.824,2.534c-0.289,1.361,0.584,2.13,1.824,1.42
	c0.877-0.502,1.615-1.554,1.824-2.534C23.948,11.868,23.075,11.1,21.835,11.812z"/>
<linearGradient id="SVGID_5_" gradientUnits="userSpaceOnUse" x1="19.918" y1="18.446" x2="23.6777" y2="18.446" gradientTransform="matrix(1 0 0 -1 0.0376 63.8677)">
	<stop  offset="0" style="stop-color:#E6E7EE"/>
	<stop  offset="1" style="stop-color:#ABBDD1"/>
</linearGradient>
<path fill="url(#SVGID_5_)" d="M21.835,43.445c-0.877,0.502-1.615,1.555-1.824,2.533c-0.289,1.36,0.584,2.132,1.824,1.42
	c0.877-0.5,1.615-1.554,1.824-2.532C23.948,43.501,23.075,42.734,21.835,43.445z"/>
<linearGradient id="SVGID_6_" gradientUnits="userSpaceOnUse" x1="4.8643" y1="30.9138" x2="8.6235" y2="30.9138" gradientTransform="matrix(1 0 0 -1 0.0376 63.8677)">
	<stop  offset="0" style="stop-color:#E6E7EE"/>
	<stop  offset="1" style="stop-color:#ABBDD1"/>
</linearGradient>
<path fill="url(#SVGID_6_)" d="M6.781,30.976c-0.875,0.503-1.615,1.555-1.824,2.533c-0.288,1.362,0.583,2.134,1.824,1.421
	c0.875-0.5,1.615-1.554,1.824-2.532C8.896,31.034,8.022,30.266,6.781,30.976z"/>
<linearGradient id="SVGID_7_" gradientUnits="userSpaceOnUse" x1="9.8823" y1="17.9719" x2="13.6406" y2="17.9719" gradientTransform="matrix(1 0 0 -1 0.0376 63.8677)">
	<stop  offset="0" style="stop-color:#E6E7EE"/>
	<stop  offset="1" style="stop-color:#ABBDD1"/>
</linearGradient>
<path fill="url(#SVGID_7_)" d="M11.8,43.918c-0.877,0.503-1.617,1.557-1.824,2.534c-0.29,1.363,0.582,2.132,1.824,1.422
	c0.875-0.503,1.613-1.555,1.822-2.534C13.913,43.976,13.039,43.208,11.8,43.918z"/>
<linearGradient id="SVGID_8_" gradientUnits="userSpaceOnUse" x1="4.8643" y1="36.1873" x2="8.6235" y2="36.1873" gradientTransform="matrix(1 0 0 -1 0.0376 63.8677)">
	<stop  offset="0" style="stop-color:#E6E7EE"/>
	<stop  offset="1" style="stop-color:#ABBDD1"/>
</linearGradient>
<path fill="url(#SVGID_8_)" d="M6.781,25.704c-0.875,0.502-1.615,1.554-1.824,2.532c-0.288,1.366,0.583,2.132,1.824,1.422
	c0.875-0.502,1.615-1.554,1.824-2.534C8.896,25.762,8.022,24.994,6.781,25.704z"/>
<linearGradient id="SVGID_9_" gradientUnits="userSpaceOnUse" x1="19.918" y1="34.2634" x2="23.6777" y2="34.2634" gradientTransform="matrix(1 0 0 -1 0.0376 63.8677)">
	<stop  offset="0" style="stop-color:#E6E7EE"/>
	<stop  offset="1" style="stop-color:#ABBDD1"/>
</linearGradient>
<path fill="url(#SVGID_9_)" d="M21.835,27.628c-0.877,0.501-1.615,1.555-1.824,2.532c-0.289,1.366,0.584,2.134,1.824,1.422
	c0.877-0.501,1.615-1.554,1.824-2.532C23.948,27.686,23.075,26.916,21.835,27.628z"/>
<linearGradient id="SVGID_10_" gradientUnits="userSpaceOnUse" x1="24.9355" y1="47.6814" x2="28.6943" y2="47.6814" gradientTransform="matrix(1 0 0 -1 0.0376 63.8677)">
	<stop  offset="0" style="stop-color:#E6E7EE"/>
	<stop  offset="1" style="stop-color:#ABBDD1"/>
</linearGradient>
<path fill="url(#SVGID_10_)" d="M26.853,14.21c-0.875,0.501-1.615,1.555-1.824,2.533c-0.291,1.363,0.584,2.131,1.824,1.421
	c0.877-0.502,1.614-1.553,1.823-2.534C28.966,14.267,28.093,13.499,26.853,14.21z"/>
<linearGradient id="SVGID_11_" gradientUnits="userSpaceOnUse" x1="9.8823" y1="12.6995" x2="13.6406" y2="12.6995" gradientTransform="matrix(1 0 0 -1 0.0376 63.8677)">
	<stop  offset="0" style="stop-color:#E6E7EE"/>
	<stop  offset="1" style="stop-color:#ABBDD1"/>
</linearGradient>
<path fill="url(#SVGID_11_)" d="M11.8,49.191c-0.877,0.502-1.617,1.555-1.824,2.533c-0.29,1.363,0.582,2.133,1.824,1.42
	c0.875-0.5,1.613-1.552,1.822-2.531C13.913,49.249,13.039,48.48,11.8,49.191z"/>
<linearGradient id="SVGID_12_" gradientUnits="userSpaceOnUse" x1="14.8994" y1="47.2058" x2="18.6592" y2="47.2058" gradientTransform="matrix(1 0 0 -1 0.0376 63.8677)">
	<stop  offset="0" style="stop-color:#E6E7EE"/>
	<stop  offset="1" style="stop-color:#ABBDD1"/>
</linearGradient>
<path fill="url(#SVGID_12_)" d="M16.817,14.685c-0.877,0.501-1.615,1.554-1.824,2.531c-0.29,1.366,0.582,2.133,1.824,1.423
	c0.875-0.502,1.616-1.555,1.823-2.534C18.933,14.741,18.058,13.974,16.817,14.685z"/>
<linearGradient id="SVGID_13_" gradientUnits="userSpaceOnUse" x1="14.8994" y1="26.1165" x2="18.6592" y2="26.1165" gradientTransform="matrix(1 0 0 -1 0.0376 63.8677)">
	<stop  offset="0" style="stop-color:#E6E7EE"/>
	<stop  offset="1" style="stop-color:#ABBDD1"/>
</linearGradient>
<path fill="url(#SVGID_13_)" d="M16.817,35.773c-0.877,0.503-1.615,1.556-1.824,2.535c-0.29,1.362,0.582,2.131,1.824,1.42
	c0.875-0.502,1.616-1.556,1.823-2.533C18.933,35.832,18.058,35.064,16.817,35.773z"/>
<linearGradient id="SVGID_14_" gradientUnits="userSpaceOnUse" x1="9.8823" y1="44.3308" x2="13.6406" y2="44.3308" gradientTransform="matrix(1 0 0 -1 0.0376 63.8677)">
	<stop  offset="0" style="stop-color:#E6E7EE"/>
	<stop  offset="1" style="stop-color:#ABBDD1"/>
</linearGradient>
<path fill="url(#SVGID_14_)" d="M11.8,17.559c-0.877,0.502-1.617,1.553-1.824,2.533c-0.29,1.362,0.582,2.133,1.824,1.421
	c0.875-0.503,1.613-1.554,1.822-2.534C13.913,17.615,13.039,16.849,11.8,17.559z"/>
<linearGradient id="SVGID_15_" gradientUnits="userSpaceOnUse" x1="24.9355" y1="42.408" x2="28.6943" y2="42.408" gradientTransform="matrix(1 0 0 -1 0.0376 63.8677)">
	<stop  offset="0" style="stop-color:#E6E7EE"/>
	<stop  offset="1" style="stop-color:#ABBDD1"/>
</linearGradient>
<path fill="url(#SVGID_15_)" d="M26.853,19.482c-0.875,0.501-1.615,1.554-1.824,2.533c-0.291,1.363,0.584,2.131,1.824,1.421
	c0.877-0.502,1.614-1.556,1.823-2.534C28.966,19.541,28.093,18.771,26.853,19.482z"/>
<path fill="none" stroke="#454447" stroke-width="0.8986" stroke-linecap="round" stroke-linejoin="round" d="M16.792,46.351
	c-0.877,0.501-1.615,1.553-1.824,2.532c-0.29,1.363,0.582,2.132,1.824,1.422c0.875-0.504,1.615-1.557,1.822-2.534
	C18.907,46.408,18.033,45.64,16.792,46.351z"/>
<path fill="none" stroke="#454447" stroke-width="0.8986" stroke-linecap="round" stroke-linejoin="round" d="M21.81,11.844
	c-0.877,0.503-1.615,1.554-1.824,2.534c-0.289,1.362,0.584,2.13,1.824,1.42c0.877-0.502,1.615-1.553,1.824-2.533
	C23.924,11.9,23.05,11.132,21.81,11.844z"/>
<path fill="none" stroke="#454447" stroke-width="0.5953" stroke-linecap="round" stroke-linejoin="round" d="M16.792,19.989
	c-0.877,0.501-1.615,1.554-1.824,2.534c-0.29,1.361,0.582,2.13,1.824,1.42c0.875-0.502,1.615-1.554,1.822-2.534
	C18.907,20.047,18.033,19.278,16.792,19.989z"/>
<path fill="none" stroke="#454447" stroke-width="0.8986" stroke-linecap="round" stroke-linejoin="round" d="M21.81,43.476
	c-0.877,0.503-1.615,1.556-1.824,2.533c-0.289,1.362,0.584,2.133,1.824,1.421c0.877-0.501,1.615-1.555,1.824-2.532
	C23.924,43.535,23.05,42.767,21.81,43.476z"/>
<path fill="none" stroke="#454447" stroke-width="0.5953" stroke-linecap="round" stroke-linejoin="round" d="M6.756,41.552
	c-0.875,0.503-1.615,1.556-1.824,2.533c-0.288,1.364,0.583,2.133,1.824,1.422c0.875-0.502,1.615-1.553,1.824-2.532
	C8.871,41.61,7.997,40.841,6.756,41.552z"/>
<path fill="none" stroke="#454447" stroke-width="0.8986" stroke-linecap="round" stroke-linejoin="round" d="M6.756,31.008
	c-0.875,0.503-1.615,1.556-1.824,2.535c-0.288,1.361,0.583,2.131,1.824,1.42c0.875-0.502,1.615-1.555,1.824-2.532
	C8.871,31.066,7.997,30.298,6.756,31.008z"/>
<path fill="none" stroke="#454447" stroke-width="0.8986" stroke-linecap="round" stroke-linejoin="round" d="M11.775,43.951
	c-0.877,0.502-1.617,1.555-1.824,2.534c-0.29,1.364,0.582,2.132,1.824,1.422c0.875-0.503,1.613-1.556,1.822-2.534
	C13.888,44.009,13.014,43.241,11.775,43.951z"/>
<path fill="none" stroke="#454447" stroke-width="0.8986" stroke-linecap="round" stroke-linejoin="round" d="M6.756,25.736
	c-0.875,0.502-1.615,1.554-1.824,2.532C4.644,29.634,5.516,30.4,6.756,29.69c0.875-0.502,1.615-1.555,1.824-2.534
	C8.871,25.794,7.997,25.026,6.756,25.736z"/>
<path fill="none" stroke="#454447" stroke-width="0.5953" stroke-linecap="round" stroke-linejoin="round" d="M6.756,20.464
	c-0.875,0.501-1.615,1.555-1.824,2.532c-0.288,1.366,0.583,2.134,1.824,1.422c0.875-0.503,1.615-1.554,1.824-2.534
	C8.871,20.52,7.997,19.752,6.756,20.464z"/>
<path fill="none" stroke="#454447" stroke-width="0.5953" stroke-linecap="round" stroke-linejoin="round" d="M26.827,40.605
	c-0.875,0.499-1.615,1.552-1.824,2.532c-0.29,1.363,0.584,2.132,1.824,1.42c0.877-0.501,1.615-1.555,1.824-2.532
	C28.94,40.662,28.067,39.891,26.827,40.605z"/>
<path fill="none" stroke="#454447" stroke-width="0.5953" stroke-linecap="round" stroke-linejoin="round" d="M21.81,32.932
	c-0.877,0.503-1.615,1.556-1.824,2.531c-0.289,1.365,0.584,2.135,1.824,1.425c0.877-0.504,1.615-1.556,1.824-2.536
	C23.924,32.99,23.05,32.222,21.81,32.932z"/>
<path fill="none" stroke="#454447" stroke-width="0.8986" stroke-linecap="round" stroke-linejoin="round" d="M21.81,27.66
	c-0.877,0.501-1.615,1.554-1.824,2.532c-0.289,1.366,0.584,2.134,1.824,1.422c0.877-0.501,1.615-1.554,1.824-2.532
	C23.924,27.718,23.05,26.948,21.81,27.66z"/>
<path fill="none" stroke="#454447" stroke-width="0.5953" stroke-linecap="round" stroke-linejoin="round" d="M21.81,22.388
	c-0.877,0.501-1.615,1.553-1.824,2.531c-0.289,1.364,0.584,2.133,1.824,1.422c0.877-0.501,1.615-1.554,1.824-2.531
	C23.924,22.444,23.05,21.676,21.81,22.388z"/>
<path fill="none" stroke="#454447" stroke-width="0.5953" stroke-linecap="round" stroke-linejoin="round" d="M21.81,38.205
	c-0.877,0.502-1.615,1.555-1.824,2.533c-0.289,1.364,0.584,2.133,1.824,1.42c0.877-0.5,1.615-1.553,1.824-2.531
	C23.924,38.262,23.05,37.494,21.81,38.205z"/>
<path fill="none" stroke="#454447" stroke-width="0.5953" stroke-linecap="round" stroke-linejoin="round" d="M11.775,33.408
	c-0.877,0.5-1.617,1.553-1.824,2.531c-0.29,1.365,0.582,2.133,1.824,1.422c0.875-0.501,1.613-1.554,1.822-2.532
	C13.888,33.464,13.014,32.697,11.775,33.408z"/>
<path fill="none" stroke="#454447" stroke-width="0.8986" stroke-linecap="round" stroke-linejoin="round" d="M26.827,14.243
	c-0.875,0.501-1.615,1.554-1.824,2.533c-0.29,1.363,0.584,2.131,1.824,1.421c0.877-0.502,1.615-1.553,1.824-2.534
	C28.94,14.299,28.067,13.531,26.827,14.243z"/>
<path fill="none" stroke="#454447" stroke-width="0.8986" stroke-linecap="round" stroke-linejoin="round" d="M11.775,49.222
	c-0.877,0.504-1.617,1.557-1.824,2.534c-0.29,1.363,0.582,2.132,1.824,1.42c0.875-0.502,1.613-1.553,1.822-2.532
	C13.888,49.281,13.014,48.513,11.775,49.222z"/>
<path fill="none" stroke="#454447" stroke-width="0.5953" stroke-linecap="round" stroke-linejoin="round" d="M26.827,8.971
	c-0.875,0.501-1.615,1.554-1.824,2.531c-0.29,1.364,0.584,2.132,1.824,1.422c0.877-0.502,1.615-1.554,1.824-2.533
	C28.94,9.027,28.067,8.259,26.827,8.971z"/>
<path fill="none" stroke="#454447" stroke-width="0.5953" stroke-linecap="round" stroke-linejoin="round" d="M6.756,46.826
	c-0.875,0.501-1.615,1.552-1.824,2.533c-0.288,1.363,0.583,2.131,1.824,1.421c0.875-0.503,1.615-1.556,1.824-2.534
	C8.871,46.882,7.997,46.115,6.756,46.826z"/>
<path fill="none" stroke="#454447" stroke-width="0.8986" stroke-linecap="round" stroke-linejoin="round" d="M16.792,14.717
	c-0.877,0.501-1.615,1.555-1.824,2.532c-0.29,1.366,0.582,2.132,1.824,1.422c0.875-0.502,1.615-1.554,1.822-2.533
	C18.907,14.773,18.033,14.006,16.792,14.717z"/>
<path fill="none" stroke="#454447" stroke-width="0.8986" stroke-linecap="round" stroke-linejoin="round" d="M16.792,35.806
	c-0.877,0.502-1.615,1.555-1.824,2.532c-0.29,1.363,0.582,2.133,1.824,1.42c0.875-0.5,1.615-1.553,1.822-2.531
	C18.907,35.863,18.033,35.094,16.792,35.806z"/>
<path fill="none" stroke="#454447" stroke-width="0.8986" stroke-linecap="round" stroke-linejoin="round" d="M11.775,17.591
	c-0.877,0.502-1.617,1.554-1.824,2.534c-0.29,1.362,0.582,2.132,1.824,1.42c0.875-0.502,1.613-1.553,1.822-2.534
	C13.888,17.647,13.014,16.881,11.775,17.591z"/>
<path fill="none" stroke="#454447" stroke-width="0.5953" stroke-linecap="round" stroke-linejoin="round" d="M16.792,25.26
	c-0.877,0.502-1.615,1.555-1.824,2.534c-0.29,1.362,0.582,2.13,1.824,1.42c0.875-0.5,1.615-1.555,1.822-2.531
	C18.907,25.319,18.033,24.551,16.792,25.26z"/>
<path fill="none" stroke="#454447" stroke-width="0.5953" stroke-linecap="round" stroke-linejoin="round" d="M16.792,30.533
	c-0.877,0.503-1.615,1.556-1.824,2.535c-0.29,1.361,0.582,2.131,1.824,1.42c0.875-0.501,1.615-1.554,1.822-2.533
	C18.907,30.591,18.033,29.823,16.792,30.533z"/>
<path fill="none" stroke="#454447" stroke-width="0.8986" stroke-linecap="round" stroke-linejoin="round" d="M26.827,19.515
	c-0.875,0.501-1.615,1.554-1.824,2.532c-0.29,1.364,0.584,2.132,1.824,1.421c0.877-0.502,1.615-1.555,1.824-2.533
	C28.94,19.573,28.067,18.802,26.827,19.515z"/>
<path fill="none" stroke="#454447" stroke-width="0.5953" stroke-linecap="round" stroke-linejoin="round" d="M26.827,24.787
	c-0.875,0.502-1.615,1.555-1.824,2.534c-0.29,1.362,0.584,2.13,1.824,1.42c0.877-0.501,1.615-1.554,1.824-2.534
	C28.94,24.844,28.067,24.077,26.827,24.787z"/>
<path fill="none" stroke="#454447" stroke-width="0.5953" stroke-linecap="round" stroke-linejoin="round" d="M26.827,30.059
	c-0.875,0.502-1.615,1.553-1.824,2.533c-0.29,1.363,0.584,2.132,1.824,1.421c0.877-0.501,1.615-1.555,1.824-2.533
	C28.94,30.117,28.067,29.349,26.827,30.059z"/>
<path fill="none" stroke="#454447" stroke-width="0.5953" stroke-linecap="round" stroke-linejoin="round" d="M16.792,41.078
	c-0.877,0.502-1.615,1.553-1.824,2.534c-0.29,1.364,0.582,2.132,1.824,1.42c0.875-0.501,1.615-1.554,1.822-2.532
	C18.907,41.135,18.033,40.368,16.792,41.078z"/>
<path fill="none" stroke="#454447" stroke-width="0.5953" stroke-linecap="round" stroke-linejoin="round" d="M6.756,52.097
	c-0.875,0.502-1.615,1.555-1.824,2.532c-0.288,1.363,0.583,2.131,1.824,1.422c0.875-0.503,1.615-1.556,1.824-2.534
	C8.871,52.156,7.997,51.385,6.756,52.097z"/>
<path fill="none" stroke="#454447" stroke-width="0.5953" stroke-linecap="round" stroke-linejoin="round" d="M6.756,36.28
	c-0.875,0.503-1.615,1.556-1.824,2.534c-0.288,1.36,0.583,2.132,1.824,1.42c0.875-0.5,1.615-1.553,1.824-2.532
	C8.871,36.337,7.997,35.57,6.756,36.28z"/>
<path fill="none" stroke="#454447" stroke-width="0.5953" stroke-linecap="round" stroke-linejoin="round" d="M11.775,28.135
	c-0.877,0.501-1.617,1.554-1.824,2.534c-0.29,1.363,0.582,2.131,1.824,1.42c0.875-0.501,1.613-1.554,1.822-2.531
	C13.888,28.193,13.014,27.423,11.775,28.135z"/>
</svg>
