<?xml version="1.0" encoding="utf-8"?>
<!-- Generator: Adobe Illustrator 13.0.0, SVG Export Plug-In . SVG Version: 6.00 Build 14948)  -->
<!DOCTYPE svg PUBLIC "-//W3C//DTD SVG 1.1 Basic//EN" "http://www.w3.org/Graphics/SVG/1.1/DTD/svg11-basic.dtd">
<svg version="1.1" baseProfile="basic" id="Слой_1"
	 xmlns="http://www.w3.org/2000/svg" xmlns:xlink="http://www.w3.org/1999/xlink" x="0px" y="0px" width="32.736px"
	 height="33.227px" viewBox="0 0 32.736 33.227" xml:space="preserve">
<linearGradient id="SVGID_1_" gradientUnits="userSpaceOnUse" x1="4.9104" y1="25.4397" x2="28.2962" y2="4.8023" gradientTransform="matrix(1 0 0 -1 0.0376 32.0718)">
	<stop  offset="0" style="stop-color:#E6E7EE"/>
	<stop  offset="1" style="stop-color:#ABBDD1"/>
</linearGradient>
<path fill="url(#SVGID_1_)" d="M27.287,19.554c-1.128,0.716-1.715,2.038-1.491,3.354c-3.228,4.907-9.681,6.521-14.836,3.703
	c-5.154-2.814-7.288-9.115-4.9-14.483c2.385-5.368,8.489-8.007,14.035-6.067C25.639,8.001,28.768,13.87,27.287,19.554z"/>
<path fill="none" stroke="#454447" stroke-width="0.8986" stroke-linecap="round" stroke-linejoin="round" d="M28.613,9.713
	c-1.418-2.483-3.191-4.188-5.729-5.511"/>
<path fill="none" stroke="#454447" stroke-width="0.8986" stroke-linecap="round" stroke-linejoin="round" d="M8.875,2.326
	c-2.918,1.52-4.957,3.48-6.589,6.337"/>
<path fill="none" stroke="#454447" stroke-width="0.8986" stroke-linecap="round" stroke-linejoin="round" d="M30.451,8.663
	c-1.633-2.855-3.672-4.817-6.588-6.337"/>
<path fill="none" stroke="#454447" stroke-width="0.8986" stroke-linecap="round" stroke-linejoin="round" d="M7.896,0.449
	C4.6,2.168,2.294,4.386,0.449,7.613"/>
<path fill="none" stroke="#454447" stroke-width="0.8986" stroke-linecap="round" stroke-linejoin="round" d="M32.287,7.613
	c-1.845-3.228-4.149-5.444-7.447-7.163"/>
<linearGradient id="SVGID_2_" gradientUnits="userSpaceOnUse" x1="12.509" y1="19.429" x2="24.7433" y2="6.414" gradientTransform="matrix(1 0 0 -1 0.0376 32.0718)">
	<stop  offset="0" style="stop-color:#ABBDD1"/>
	<stop  offset="0.5659" style="stop-color:#E6E7EE"/>
	<stop  offset="1" style="stop-color:#ABBDD1"/>
</linearGradient>
<circle fill="url(#SVGID_2_)" cx="16.369" cy="16.709" r="2.821"/>
<linearGradient id="SVGID_3_" gradientUnits="userSpaceOnUse" x1="34.3357" y1="5.7458" x2="12.9887" y2="5.7458" gradientTransform="matrix(1 0 0 -1 0.0376 32.0718)">
	<stop  offset="0" style="stop-color:#FFF7ED"/>
	<stop  offset="1" style="stop-color:#F3E8BF"/>
</linearGradient>
<path fill="url(#SVGID_3_)" d="M31.129,23.94c1.733-2.254-0.881-5.261-3.354-3.856c-2.476,1.403-1.234,5.188,1.59,4.857
	c0.015,0.063,0.027,0.129,0.037,0.194c0.041,0.279,0.039,0.566-0.027,0.838c-0.063,0.259-0.187,0.504-0.337,0.727
	c-0.313,0.468-0.749,0.838-1.216,1.151c-0.338,0.228-0.691,0.423-1.057,0.601c-0.277,0.135-0.563,0.26-0.85,0.373
	c-0.404,0.16-0.815,0.302-1.232,0.428c-0.776,0.233-1.57,0.414-2.374,0.532c-0.644,0.095-1.292,0.15-1.938,0.099
	c-0.33-0.027-0.66-0.082-0.979-0.176c-0.243-0.071-0.479-0.165-0.701-0.287c-0.07-0.04-0.141-0.082-0.207-0.127
	c0-0.261,0-0.522,0-0.783c-1.433,0.257-2.801,0.257-4.231,0c0,1.003,0,2.007,0,3.009c0,0.779,0.632,1.41,1.41,1.41
	c0.47,0,0.94,0,1.411,0c0.778,0,1.41-0.631,1.41-1.41c0-0.011,0-0.021,0-0.034c0.271,0.101,0.551,0.18,0.832,0.239
	c0.563,0.119,1.143,0.163,1.718,0.154c0.728-0.012,1.447-0.11,2.163-0.242c1.719-0.318,3.408-0.836,4.943-1.673
	c0.704-0.385,1.375-0.836,1.932-1.412c0.354-0.37,0.664-0.791,0.895-1.25c0.201-0.398,0.345-0.825,0.405-1.265
	c0.065-0.469,0.038-0.95-0.057-1.416C31.27,24.39,31.206,24.162,31.129,23.94z"/>
<path fill="none" stroke="#454447" stroke-width="0.8986" stroke-linecap="round" stroke-linejoin="round" d="M27.287,19.554
	c-1.128,0.716-1.715,2.038-1.491,3.354c-3.228,4.907-9.681,6.521-14.836,3.703c-5.154-2.814-7.288-9.115-4.9-14.483
	c2.385-5.368,8.489-8.007,14.035-6.067C25.639,8.001,28.768,13.87,27.287,19.554z"/>
<circle fill="none" stroke="#454447" stroke-width="0.5953" stroke-linecap="round" stroke-linejoin="round" cx="16.369" cy="16.709" r="2.821"/>
<path fill="none" stroke="#454447" stroke-width="0.5953" stroke-linecap="round" stroke-linejoin="round" d="M31.129,23.94
	c1.733-2.254-0.881-5.261-3.354-3.856c-2.476,1.403-1.234,5.188,1.59,4.857c0.015,0.063,0.027,0.129,0.037,0.194
	c0.041,0.279,0.039,0.566-0.027,0.838c-0.063,0.259-0.187,0.504-0.337,0.727c-0.313,0.468-0.749,0.838-1.216,1.151
	c-0.338,0.228-0.691,0.423-1.057,0.601c-0.277,0.135-0.563,0.26-0.85,0.373c-0.404,0.16-0.815,0.302-1.232,0.428
	c-0.776,0.233-1.57,0.414-2.374,0.532c-0.644,0.095-1.292,0.15-1.938,0.099c-0.33-0.027-0.66-0.082-0.979-0.176
	c-0.243-0.071-0.479-0.165-0.701-0.287c-0.07-0.04-0.141-0.082-0.207-0.127c0-0.261,0-0.522,0-0.783
	c-1.433,0.257-2.801,0.257-4.231,0c0,1.003,0,2.007,0,3.009c0,0.779,0.632,1.41,1.41,1.41c0.47,0,0.94,0,1.411,0
	c0.778,0,1.41-0.631,1.41-1.41c0-0.011,0-0.021,0-0.034c0.271,0.101,0.551,0.18,0.832,0.239c0.563,0.119,1.143,0.163,1.718,0.154
	c0.728-0.012,1.447-0.11,2.163-0.242c1.719-0.318,3.408-0.836,4.943-1.673c0.704-0.385,1.375-0.836,1.932-1.412
	c0.354-0.37,0.664-0.791,0.895-1.25c0.201-0.398,0.345-0.825,0.405-1.265c0.065-0.469,0.038-0.95-0.057-1.416
	C31.27,24.39,31.206,24.162,31.129,23.94z"/>
<path fill="none" stroke="#454447" stroke-width="0.8986" stroke-linecap="round" stroke-linejoin="round" d="M9.852,4.202
	C7.316,5.524,5.542,7.229,4.123,9.713"/>
</svg>
