<?xml version="1.0" encoding="utf-8"?>
<!-- Generator: Adobe Illustrator 13.0.0, SVG Export Plug-In . SVG Version: 6.00 Build 14948)  -->
<!DOCTYPE svg PUBLIC "-//W3C//DTD SVG 1.1 Basic//EN" "http://www.w3.org/Graphics/SVG/1.1/DTD/svg11-basic.dtd">
<svg version="1.1" baseProfile="basic" id="Слой_1"
	 xmlns="http://www.w3.org/2000/svg" xmlns:xlink="http://www.w3.org/1999/xlink" x="0px" y="0px" width="49.242px"
	 height="38.35px" viewBox="0 0 49.242 38.35" xml:space="preserve">
<linearGradient id="SVGID_1_" gradientUnits="userSpaceOnUse" x1="45.8633" y1="28.321" x2="47.9023" y2="28.321" gradientTransform="matrix(1 0 0 -1 0.0376 37.1938)">
	<stop  offset="0" style="stop-color:#F8F5EA"/>
	<stop  offset="1" style="stop-color:#F4EDCE"/>
</linearGradient>
<path fill="url(#SVGID_1_)" d="M47.939,1.354c0-0.563-0.457-1.019-1.021-1.019S45.9,0.791,45.9,1.354v16.057h2.039V1.354
	L47.939,1.354z"/>
<path fill="none" stroke="#454447" stroke-width="0.6739" stroke-linecap="round" stroke-linejoin="round" d="M47.939,1.354
	c0-0.563-0.457-1.019-1.021-1.019S45.9,0.791,45.9,1.354v16.057h2.039V1.354L47.939,1.354z"/>
<linearGradient id="SVGID_2_" gradientUnits="userSpaceOnUse" x1="12.2842" y1="7.5491" x2="18.9146" y2="7.5491" gradientTransform="matrix(1 0 0 -1 0.0376 37.1938)">
	<stop  offset="0" style="stop-color:#F8F5EA"/>
	<stop  offset="1" style="stop-color:#F4EDCE"/>
</linearGradient>
<polygon fill="url(#SVGID_2_)" points="18.952,30.219 18.952,33.5 12.322,29.06 12.322,25.79 "/>
<linearGradient id="SVGID_3_" gradientUnits="userSpaceOnUse" x1="3.7446" y1="13.2493" x2="10.3843" y2="13.2493" gradientTransform="matrix(1 0 0 -1 0.0376 37.1938)">
	<stop  offset="0" style="stop-color:#F8F5EA"/>
	<stop  offset="1" style="stop-color:#F4EDCE"/>
</linearGradient>
<polygon fill="url(#SVGID_3_)" points="10.422,24.52 10.422,27.8 3.782,23.36 3.782,20.09 "/>
<linearGradient id="SVGID_4_" gradientUnits="userSpaceOnUse" x1="0.4116" y1="9.7542" x2="22.2344" y2="9.7542" gradientTransform="matrix(1 0 0 -1 0.0376 37.1938)">
	<stop  offset="0" style="stop-color:#ABBDD1"/>
	<stop  offset="0.6758" style="stop-color:#E6E7EE"/>
	<stop  offset="1" style="stop-color:#ABBDD1"/>
</linearGradient>
<path fill="url(#SVGID_4_)" d="M10.422,27.8V24.52l-6.64-4.431v3.271L10.422,27.8z M18.952,33.5v-3.28l-6.63-4.43v3.271L18.952,33.5
	z M20.922,30.86c0.59,1.069,1.35,1.989,1.35,3.358c0,1.23,0,2.45,0,3.681c-7.27-4.859-14.54-9.72-21.8-14.579
	c0-0.812,0-1.631,0-2.44c0-0.399-0.16-2.02,0.37-2.33c0.91-0.52,1.82-1.05,2.73-1.569l0.26,0.46c0.32,0.12,0.57,0.33,0.85,0.521
	c0.25,0.16,0.5,0.33,0.74,0.49c0.5,0.33,0.99,0.66,1.48,0.989c1.02,0.689,2.04,1.37,3.06,2.051c2.04,1.359,4.08,2.72,6.12,4.08
	c0.51,0.35,2.56,1.63,3,2.119C19.572,28.24,20.582,30.229,20.922,30.86z"/>
<linearGradient id="SVGID_5_" gradientUnits="userSpaceOnUse" x1="31.5938" y1="36.4128" x2="45.3273" y2="12.6257" gradientTransform="matrix(1 0 0 -1 0.0376 37.1938)">
	<stop  offset="0" style="stop-color:#ABBDD1"/>
	<stop  offset="0.6758" style="stop-color:#E6E7EE"/>
	<stop  offset="1" style="stop-color:#ABBDD1"/>
</linearGradient>
<path fill="url(#SVGID_5_)" d="M26.111,3.969c0.421-0.239,0.841-0.489,1.261-0.729c0.461-0.261,0.95-0.46,1.42-0.69
	c0.61-0.29,1.101-0.75,1.86-0.27c1.021,0.63,1.988,1.33,2.988,1.989c1.99,1.341,3.98,2.67,5.98,4c0.99,0.67,1.99,1.33,2.98,1.989
	c0.479,0.32,2.539,1.631,2.948,2.062c0.521,0.56,1.472,2.449,1.82,3.09c0.399,0.72,1.42,2.33,1.42,3.26c0,1.311,0,2.61,0,3.92
	c-1.358,0.78-2.72,1.57-4.08,2.351c0-1.3,0-2.601,0-3.909c0-0.931-0.819-2.17-1.209-2.881c-0.511-0.92-1-1.859-1.521-2.771
	c-0.58-1.01-1.5-1.449-2.371-2.029c-0.879-0.591-1.75-1.17-2.629-1.761c-1.75-1.17-3.5-2.34-5.262-3.51
	c-0.869-0.59-1.75-1.17-2.619-1.76c-0.43-0.29-0.859-0.57-1.289-0.86c-0.451-0.3-0.871-0.63-1.352-0.89L26.111,3.969z"/>
<linearGradient id="SVGID_6_" gradientUnits="userSpaceOnUse" x1="21.5366" y1="27.9255" x2="33.3538" y2="7.4577" gradientTransform="matrix(1 0 0 -1 0.0376 37.1938)">
	<stop  offset="0" style="stop-color:#9EB1C4"/>
	<stop  offset="0.0714" style="stop-color:#ABBDD1"/>
	<stop  offset="0.1599" style="stop-color:#B4C3D6"/>
	<stop  offset="0.4913" style="stop-color:#D1D7E7"/>
	<stop  offset="0.6758" style="stop-color:#DCE0EF"/>
	<stop  offset="0.7609" style="stop-color:#D5DAE9"/>
	<stop  offset="0.8931" style="stop-color:#C0CBDD"/>
	<stop  offset="1" style="stop-color:#ABBDD1"/>
</linearGradient>
<path fill="url(#SVGID_6_)" d="M8.102,15.17c4.93-2.85,9.87-5.7,14.81-8.55c0-0.41-0.07-0.771,0.38-1.021
	c0.94-0.551,1.88-1.091,2.819-1.631l0.351,0.602c0.479,0.26,0.899,0.59,1.351,0.89c0.431,0.29,0.86,0.57,1.291,0.86
	c0.869,0.59,1.75,1.17,2.619,1.76c1.76,1.17,3.51,2.34,5.26,3.51c0.881,0.591,1.75,1.17,2.631,1.761
	c0.869,0.58,1.789,1.021,2.369,2.029c0.521,0.91,1.011,1.851,1.521,2.771c0.389,0.711,1.209,1.95,1.209,2.881
	c0,1.31,0,2.609,0,3.909c-0.16-0.101-0.311-0.21-0.47-0.311c-5.96,3.44-11.931,6.88-17.89,10.32c0-1.11,0-2.21,0-3.32
	c0-0.93-0.82-2.17-1.211-2.88c-0.511-0.92-1-1.859-1.52-2.771c-0.58-1.011-1.5-1.449-2.38-2.029c-0.87-0.59-1.75-1.181-2.63-1.761
	c-1.75-1.17-3.5-2.351-5.25-3.521c-0.88-0.58-1.75-1.17-2.63-1.75c-0.43-0.29-0.86-0.58-1.29-0.87
	C8.992,15.76,8.572,15.42,8.102,15.17z"/>
<linearGradient id="SVGID_7_" gradientUnits="userSpaceOnUse" x1="9.5562" y1="22.6433" x2="22.8935" y2="-0.4577" gradientTransform="matrix(1 0 0 -1 0.0376 37.1938)">
	<stop  offset="0" style="stop-color:#ABBDD1"/>
	<stop  offset="0.6758" style="stop-color:#E6E7EE"/>
	<stop  offset="1" style="stop-color:#ABBDD1"/>
</linearGradient>
<path fill="url(#SVGID_7_)" d="M26.352,34.95c0,0.199,0,0.399,0,0.59c-1.359,0.79-2.72,1.57-4.08,2.359c0-1.229,0-2.449,0-3.681
	c0-1.369-0.76-2.289-1.35-3.358c-0.34-0.631-1.35-2.62-1.84-3.171c-0.44-0.489-2.49-1.771-3-2.119c-2.04-1.36-4.08-2.721-6.12-4.08
	c-1.02-0.681-2.04-1.36-3.06-2.051c-0.49-0.329-0.98-0.659-1.48-0.989c-0.24-0.16-0.49-0.33-0.74-0.49
	c-0.28-0.189-0.53-0.399-0.85-0.521l-0.26-0.46c0.45-0.261,0.9-0.521,1.35-0.779c0.51-0.29,1.04-0.511,1.57-0.761
	c0.52-0.26,0.95-0.63,1.61-0.271c0.47,0.25,0.89,0.59,1.34,0.88c0.43,0.29,0.86,0.58,1.29,0.87c0.88,0.58,1.75,1.17,2.63,1.75
	c1.75,1.17,3.5,2.351,5.25,3.521c0.88,0.58,1.76,1.171,2.63,1.761c0.88,0.58,1.8,1.021,2.38,2.029
	c0.52,0.91,1.009,1.851,1.519,2.771c0.392,0.71,1.211,1.95,1.211,2.88C26.352,32.74,26.352,33.84,26.352,34.95z"/>
<path fill="none" stroke="#454447" stroke-width="0.8985" stroke-linecap="round" stroke-linejoin="round" d="M8.102,15.17
	c-0.66-0.359-1.09,0.011-1.61,0.271c-0.53,0.25-1.06,0.471-1.57,0.761c-0.45,0.26-0.9,0.521-1.35,0.779
	c-0.91,0.521-1.82,1.051-2.73,1.569c-0.53,0.312-0.37,1.931-0.37,2.33c0,0.811,0,1.63,0,2.44c7.26,4.859,14.53,9.72,21.8,14.579
	c1.36-0.789,2.72-1.569,4.08-2.359c0-0.189,0-0.391,0-0.59c5.961-3.44,11.931-6.88,17.891-10.32c0.16,0.101,0.31,0.21,0.47,0.311
	c1.36-0.779,2.722-1.569,4.08-2.351c0-1.31,0-2.609,0-3.92c0-0.93-1.021-2.54-1.42-3.26c-0.351-0.641-1.3-2.53-1.819-3.09
	c-0.41-0.431-2.47-1.74-2.949-2.062c-0.99-0.659-1.99-1.319-2.98-1.989c-2-1.33-3.99-2.659-5.98-4c-1-0.659-1.969-1.359-2.988-1.989
	c-0.762-0.48-1.25-0.021-1.86,0.27c-0.47,0.23-0.959,0.431-1.42,0.69c-0.42,0.239-0.84,0.489-1.261,0.729
	c-0.938,0.54-1.879,1.08-2.819,1.631c-0.45,0.25-0.38,0.609-0.38,1.021C17.972,9.469,13.032,12.32,8.102,15.17z"/>
<path fill="none" stroke="#454447" stroke-width="0.5943" stroke-linecap="round" stroke-linejoin="round" d="M26.352,34.95
	c0-1.11,0-2.21,0-3.32c0-0.93-0.819-2.17-1.211-2.88c-0.51-0.92-1-1.859-1.519-2.771c-0.58-1.011-1.5-1.449-2.38-2.029
	c-0.87-0.59-1.75-1.181-2.63-1.761c-1.75-1.17-3.5-2.351-5.25-3.521c-0.88-0.58-1.75-1.17-2.63-1.75c-0.43-0.29-0.86-0.58-1.29-0.87
	c-0.45-0.29-0.87-0.63-1.34-0.88"/>
<path fill="none" stroke="#454447" stroke-width="0.5943" stroke-linecap="round" stroke-linejoin="round" d="M22.272,37.899
	c0-1.229,0-2.449,0-3.681c0-1.369-0.76-2.289-1.35-3.358c-0.34-0.631-1.35-2.62-1.84-3.171c-0.44-0.489-2.49-1.771-3-2.119
	c-2.04-1.36-4.08-2.721-6.12-4.08c-1.02-0.681-2.04-1.36-3.06-2.051c-0.49-0.329-0.98-0.659-1.48-0.989
	c-0.24-0.16-0.49-0.33-0.74-0.49c-0.28-0.189-0.53-0.399-0.85-0.521"/>
<polygon fill="none" stroke="#454447" stroke-width="0.5943" stroke-linecap="round" stroke-linejoin="round" points="12.322,29.06 
	18.952,33.5 18.952,30.219 12.322,25.79 "/>
<polygon fill="none" stroke="#454447" stroke-width="0.5943" stroke-linecap="round" stroke-linejoin="round" points="3.782,23.36 
	10.422,27.8 10.422,24.52 3.782,20.09 "/>
<path fill="none" stroke="#454447" stroke-width="0.8985" stroke-linecap="round" stroke-linejoin="round" d="M44.711,24.939
	c0-1.3,0-2.601,0-3.909c0-0.931-0.82-2.17-1.209-2.881c-0.511-0.92-1-1.859-1.521-2.771c-0.58-1.01-1.5-1.449-2.369-2.029
	c-0.881-0.591-1.75-1.17-2.631-1.761c-1.75-1.17-3.5-2.34-5.26-3.51c-0.869-0.59-1.75-1.17-2.619-1.76
	c-0.431-0.29-0.86-0.57-1.291-0.86c-0.449-0.3-0.869-0.63-1.351-0.89"/>
</svg>
