<?xml version="1.0" encoding="utf-8"?>
<!-- Generator: Adobe Illustrator 13.0.0, SVG Export Plug-In . SVG Version: 6.00 Build 14948)  -->
<!DOCTYPE svg PUBLIC "-//W3C//DTD SVG 1.1 Basic//EN" "http://www.w3.org/Graphics/SVG/1.1/DTD/svg11-basic.dtd">
<svg version="1.1" baseProfile="basic" id="Слой_1"
	 xmlns="http://www.w3.org/2000/svg" xmlns:xlink="http://www.w3.org/1999/xlink" x="0px" y="0px" width="48.417px"
	 height="32.225px" viewBox="0 0 48.417 32.225" xml:space="preserve">
<linearGradient id="SVGID_1_" gradientUnits="userSpaceOnUse" x1="0.3872" y1="13.9192" x2="47.769" y2="13.9192" gradientTransform="matrix(1 0 0 -1 0.0376 31.0698)">
	<stop  offset="0" style="stop-color:#E6E7EE"/>
	<stop  offset="1" style="stop-color:#ABBDD1"/>
</linearGradient>
<polygon fill="url(#SVGID_1_)" stroke="#454447" stroke-width="0.8504" stroke-linecap="round" stroke-linejoin="round" points="
	0.425,17.511 21.802,31.8 47.806,16.789 26.429,2.501 "/>
<g>
	
		<linearGradient id="SVGID_2_" gradientUnits="userSpaceOnUse" x1="30.5288" y1="11.467" x2="33.478" y2="11.467" gradientTransform="matrix(1 0 0 -1 0.0376 31.0698)">
		<stop  offset="0" style="stop-color:#F8F5EA"/>
		<stop  offset="1" style="stop-color:#F4EDCE"/>
	</linearGradient>
	<path fill="url(#SVGID_2_)" stroke="#454447" stroke-width="0.5669" stroke-linecap="round" stroke-linejoin="round" d="
		M33.516,18.823c0,0.609,0,1.22,0,1.829c-0.64,0.381-1.29,0.75-1.938,1.12c0-0.609,0-1.22,0-1.83c0-0.771-0.472-1.04-1.011-1.39
		l1.938-1.12C33.046,17.783,33.516,18.054,33.516,18.823z"/>
	
		<linearGradient id="SVGID_3_" gradientUnits="userSpaceOnUse" x1="26.6694" y1="9.2366" x2="29.6206" y2="9.2366" gradientTransform="matrix(1 0 0 -1 0.0376 31.0698)">
		<stop  offset="0" style="stop-color:#F8F5EA"/>
		<stop  offset="1" style="stop-color:#F4EDCE"/>
	</linearGradient>
	<path fill="url(#SVGID_3_)" stroke="#454447" stroke-width="0.5669" stroke-linecap="round" stroke-linejoin="round" d="
		M29.658,21.054c0,0.609,0,1.22,0,1.84c-0.65,0.37-1.291,0.739-1.941,1.109c0-0.609,0-1.22,0-1.83c0-0.771-0.479-1.04-1.01-1.39
		l1.939-1.12C29.175,20.014,29.658,20.283,29.658,21.054z"/>
	
		<linearGradient id="SVGID_4_" gradientUnits="userSpaceOnUse" x1="22.8096" y1="7.0017" x2="25.7495" y2="7.0017" gradientTransform="matrix(1 0 0 -1 0.0376 31.0698)">
		<stop  offset="0" style="stop-color:#F8F5EA"/>
		<stop  offset="1" style="stop-color:#F4EDCE"/>
	</linearGradient>
	<path fill="url(#SVGID_4_)" stroke="#454447" stroke-width="0.5669" stroke-linecap="round" stroke-linejoin="round" d="
		M25.787,23.283c0,0.609,0,1.22,0,1.829c-0.641,0.381-1.29,0.75-1.939,1.131c0-0.62,0-1.229,0-1.841c0-0.771-0.47-1.04-1-1.39
		l1.939-1.12C25.317,22.243,25.787,22.514,25.787,23.283z"/>
	
		<linearGradient id="SVGID_5_" gradientUnits="userSpaceOnUse" x1="17.9883" y1="7.116" x2="20.8784" y2="7.116" gradientTransform="matrix(1 0 0 -1 0.0376 31.0698)">
		<stop  offset="0" style="stop-color:#F8F5EA"/>
		<stop  offset="1" style="stop-color:#F4EDCE"/>
	</linearGradient>
	<path fill="url(#SVGID_5_)" stroke="#454447" stroke-width="0.5669" stroke-linecap="round" stroke-linejoin="round" d="
		M20.916,22.963c-0.56,0.33-1.09,0.53-1.09,1.341c0,0.609,0,1.229,0,1.84c-0.6-0.399-1.2-0.801-1.8-1.2c0-0.619,0-1.229,0-1.851
		c0-0.8,0.53-1.01,1.08-1.329L20.916,22.963z"/>
	
		<linearGradient id="SVGID_6_" gradientUnits="userSpaceOnUse" x1="15.1396" y1="14.6462" x2="17.8975" y2="14.6462" gradientTransform="matrix(1 0 0 -1 0.0376 31.0698)">
		<stop  offset="0" style="stop-color:#F8F5EA"/>
		<stop  offset="1" style="stop-color:#F4EDCE"/>
	</linearGradient>
	<path fill="url(#SVGID_6_)" stroke="#454447" stroke-width="0.5669" stroke-linecap="round" stroke-linejoin="round" d="
		M17.556,15.843c0.29,0.19,0.46,0.37,0.34,0.75c-0.11,0.341-0.34,0.45-0.64,0.561c-0.51,0.189-1.23,0.16-1.7-0.149
		c-0.29-0.199-0.46-0.37-0.34-0.75c0.11-0.34,0.34-0.449,0.64-0.561C16.366,15.503,17.086,15.533,17.556,15.843z"/>
	
		<linearGradient id="SVGID_7_" gradientUnits="userSpaceOnUse" x1="14.3984" y1="9.5168" x2="17.2886" y2="9.5168" gradientTransform="matrix(1 0 0 -1 0.0376 31.0698)">
		<stop  offset="0" style="stop-color:#F8F5EA"/>
		<stop  offset="1" style="stop-color:#F4EDCE"/>
	</linearGradient>
	<path fill="url(#SVGID_7_)" stroke="#454447" stroke-width="0.5669" stroke-linecap="round" stroke-linejoin="round" d="
		M17.326,20.563c-0.56,0.33-1.09,0.54-1.09,1.34c0,0.61,0,1.229,0,1.841c-0.6-0.4-1.2-0.801-1.8-1.2c0-0.62,0-1.229,0-1.851
		c0-0.8,0.52-1.01,1.08-1.33L17.326,20.563z"/>
	
		<linearGradient id="SVGID_8_" gradientUnits="userSpaceOnUse" x1="10.8086" y1="11.9167" x2="13.6885" y2="11.9167" gradientTransform="matrix(1 0 0 -1 0.0376 31.0698)">
		<stop  offset="0" style="stop-color:#F8F5EA"/>
		<stop  offset="1" style="stop-color:#F4EDCE"/>
	</linearGradient>
	<path fill="url(#SVGID_8_)" stroke="#454447" stroke-width="0.5669" stroke-linecap="round" stroke-linejoin="round" d="
		M13.726,18.163c-0.56,0.33-1.08,0.54-1.08,1.34c0,0.609,0,1.229,0,1.84c-0.6-0.399-1.2-0.8-1.8-1.199c0-0.62,0-1.229,0-1.851
		c0-0.8,0.52-1.01,1.08-1.33L13.726,18.163z"/>
	
		<linearGradient id="SVGID_9_" gradientUnits="userSpaceOnUse" x1="10.9595" y1="14.4768" x2="33.4702" y2="14.4768" gradientTransform="matrix(1 0 0 -1 0.0376 31.0698)">
		<stop  offset="0" style="stop-color:#F8F5EA"/>
		<stop  offset="1" style="stop-color:#F4EDCE"/>
	</linearGradient>
	<path fill="url(#SVGID_9_)" stroke="#454447" stroke-width="0.5669" stroke-linecap="round" stroke-linejoin="round" d="
		M17.256,17.153c0.3-0.109,0.53-0.22,0.64-0.561c0.12-0.38-0.05-0.56-0.34-0.75c-0.47-0.31-1.19-0.34-1.7-0.149
		c-0.3,0.11-0.53,0.221-0.64,0.561c-0.12,0.38,0.05,0.551,0.34,0.75C16.026,17.313,16.746,17.343,17.256,17.153z M26.707,20.783
		l-1.92,1.109l-1.939,1.12l-1,0.569l-0.93-0.62l-3.59-2.399l-1.81-1.2l-1.79-1.199l-1.8-1.2l-0.93-0.62l11.67-6.739l10.84,7.25
		l-1,0.58l-1.939,1.12l-1.921,1.109L26.707,20.783z"/>
</g>
<linearGradient id="SVGID_10_" gradientUnits="userSpaceOnUse" x1="19.4336" y1="9.3059" x2="19.4336" y2="4.9124" gradientTransform="matrix(1 0 0 -1 0.0376 31.0698)">
	<stop  offset="0" style="stop-color:#F8F5EA"/>
	<stop  offset="0.511" style="stop-color:#F3E39B"/>
</linearGradient>
<path fill="url(#SVGID_10_)" stroke="#454447" stroke-width="0.5669" stroke-linecap="round" stroke-linejoin="round" d="
	M20.916,22.963c-0.56,0.33-1.09,0.53-1.09,1.341c0,0.609,0,1.229,0,1.84c-0.6-0.399-1.2-0.801-1.8-1.2c0-0.619,0-1.229,0-1.851
	c0-0.8,0.53-1.01,1.08-1.329"/>
<linearGradient id="SVGID_11_" gradientUnits="userSpaceOnUse" x1="12.2485" y1="13.4954" x2="12.2485" y2="10.6624" gradientTransform="matrix(1 0 0 -1 0.0376 31.0698)">
	<stop  offset="0" style="stop-color:#F8F5EA"/>
	<stop  offset="0.511" style="stop-color:#F3E39B"/>
</linearGradient>
<path fill="url(#SVGID_11_)" stroke="#454447" stroke-width="0.5669" stroke-linecap="round" stroke-linejoin="round" d="
	M13.726,18.163c-0.56,0.33-1.08,0.54-1.08,1.34c0,0.609,0,1.229,0,1.84c-0.6-0.399-1.2-0.8-1.8-1.199c0-0.62,0-1.229,0-1.851
	c0-0.8,0.52-1.01,1.08-1.33"/>
<linearGradient id="SVGID_12_" gradientUnits="userSpaceOnUse" x1="24.2793" y1="8.7463" x2="24.2793" y2="5.2463" gradientTransform="matrix(1 0 0 -1 0.0376 31.0698)">
	<stop  offset="0" style="stop-color:#F8F5EA"/>
	<stop  offset="0.511" style="stop-color:#F3E39B"/>
</linearGradient>
<path fill="url(#SVGID_12_)" stroke="#454447" stroke-width="0.5669" stroke-linecap="round" stroke-linejoin="round" d="
	M24.787,21.894c0.53,0.351,1,0.62,1,1.391c0,0.609,0,1.22,0,1.83c-0.641,0.38-1.29,0.75-1.939,1.13c0-0.62,0-1.229,0-1.841
	c0-0.771-0.47-1.039-1-1.39"/>
<linearGradient id="SVGID_13_" gradientUnits="userSpaceOnUse" x1="28.144" y1="11.4065" x2="28.144" y2="6.9964" gradientTransform="matrix(1 0 0 -1 0.0376 31.0698)">
	<stop  offset="0" style="stop-color:#F8F5EA"/>
	<stop  offset="0.511" style="stop-color:#F3E39B"/>
</linearGradient>
<path fill="url(#SVGID_13_)" stroke="#454447" stroke-width="0.5669" stroke-linecap="round" stroke-linejoin="round" d="
	M28.646,19.663c0.529,0.351,1.012,0.62,1.012,1.391c0,0.609,0,1.22,0,1.84c-0.65,0.37-1.291,0.739-1.941,1.109
	c0-0.609,0-1.22,0-1.83c0-0.771-0.479-1.04-1.01-1.39"/>
<linearGradient id="SVGID_14_" gradientUnits="userSpaceOnUse" x1="15.8438" y1="11.4954" x2="15.8438" y2="7.6624" gradientTransform="matrix(1 0 0 -1 0.0376 31.0698)">
	<stop  offset="0" style="stop-color:#F8F5EA"/>
	<stop  offset="0.511" style="stop-color:#F3E39B"/>
</linearGradient>
<path fill="url(#SVGID_14_)" stroke="#454447" stroke-width="0.5669" stroke-linecap="round" stroke-linejoin="round" d="
	M17.326,20.563c-0.56,0.33-1.09,0.54-1.09,1.34c0,0.61,0,1.229,0,1.841c-0.6-0.4-1.2-0.801-1.8-1.2c0-0.62,0-1.229,0-1.851
	c0-0.8,0.52-1.01,1.08-1.33"/>
<linearGradient id="SVGID_15_" gradientUnits="userSpaceOnUse" x1="32.0034" y1="13.7463" x2="32.0034" y2="9.2463" gradientTransform="matrix(1 0 0 -1 0.0376 31.0698)">
	<stop  offset="0" style="stop-color:#F8F5EA"/>
	<stop  offset="0.511" style="stop-color:#F3E39B"/>
</linearGradient>
<path fill="url(#SVGID_15_)" stroke="#454447" stroke-width="0.5669" stroke-linecap="round" stroke-linejoin="round" d="
	M32.505,17.434c0.541,0.351,1.011,0.62,1.011,1.391c0,0.609,0,1.22,0,1.829c-0.64,0.381-1.29,0.75-1.938,1.12c0-0.609,0-1.22,0-1.83
	c0-0.771-0.472-1.04-1.011-1.39"/>
<g>
	
		<linearGradient id="SVGID_16_" gradientUnits="userSpaceOnUse" x1="-1605.9731" y1="24.6965" x2="-1603.9331" y2="24.6965" gradientTransform="matrix(-1 0 0 -1 -1558.501 31.0698)">
		<stop  offset="0" style="stop-color:#F8F5EA"/>
		<stop  offset="1" style="stop-color:#F4EDCE"/>
	</linearGradient>
	<path fill="url(#SVGID_16_)" d="M45.432,1.354c0-0.563,0.457-1.018,1.021-1.018s1.02,0.455,1.02,1.018v11.058h-2.039L45.432,1.354
		L45.432,1.354z"/>
	<path fill="none" stroke="#454447" stroke-width="0.6739" stroke-linecap="round" stroke-linejoin="round" d="M45.432,1.354
		c0-0.563,0.457-1.018,1.021-1.018s1.02,0.455,1.02,1.018v11.058h-2.039L45.432,1.354L45.432,1.354z"/>
	
		<linearGradient id="SVGID_17_" gradientUnits="userSpaceOnUse" x1="-1606.0161" y1="382.2473" x2="-1597.855" y2="382.2473" gradientTransform="matrix(-1 0 0 1 -1558.501 -367.5166)">
		<stop  offset="0" style="stop-color:#F8F5EA"/>
		<stop  offset="1" style="stop-color:#F4EDCE"/>
	</linearGradient>
	<path fill="url(#SVGID_17_)" d="M39.854,15.784c-0.483,0.286-0.646,0.911-0.356,1.396c0.287,0.484,0.912,0.646,1.396,0.357
		l6.621-4.002l-1.04-1.754L39.854,15.784z"/>
	<path fill="none" stroke="#454447" stroke-width="0.6739" stroke-linecap="round" stroke-linejoin="round" d="M39.854,15.784
		c-0.483,0.286-0.646,0.911-0.356,1.396c0.287,0.484,0.912,0.646,1.396,0.357l6.621-4.002l-1.04-1.754L39.854,15.784z"/>
	
		<linearGradient id="SVGID_18_" gradientUnits="userSpaceOnUse" x1="-1606.0596" y1="19.467" x2="-1603.797" y2="17.2041" gradientTransform="matrix(-1 0 0 -1 -1558.501 31.0698)">
		<stop  offset="0" style="stop-color:#F8F5EA"/>
		<stop  offset="1" style="stop-color:#F4EDCE"/>
	</linearGradient>
	<circle fill="url(#SVGID_18_)" cx="46.453" cy="12.708" r="1.628"/>
	
		<circle fill="none" stroke="#454447" stroke-width="0.6739" stroke-linecap="round" stroke-linejoin="round" cx="46.453" cy="12.708" r="1.628"/>
	<line fill="none" stroke="#454447" stroke-width="0.8504" x1="39.498" y1="17.181" x2="31.578" y2="21.773"/>
</g>
<linearGradient id="SVGID_19_" gradientUnits="userSpaceOnUse" x1="10.9585" y1="14.4763" x2="33.4683" y2="14.4763" gradientTransform="matrix(1 0 0 -1 0.0376 31.0698)">
	<stop  offset="0" style="stop-color:#F8F5EA"/>
	<stop  offset="1" style="stop-color:#F4EDCE"/>
</linearGradient>
<polygon fill="url(#SVGID_19_)" stroke="#454447" stroke-width="0.5669" stroke-linecap="round" stroke-linejoin="round" points="
	32.505,17.434 33.505,16.854 22.666,9.604 10.996,16.343 11.926,16.963 13.726,18.163 15.516,19.363 17.326,20.563 20.916,22.963 
	21.846,23.583 22.846,23.014 24.787,21.894 26.707,20.783 28.646,19.663 30.567,18.554 "/>
<path fill="#454447" d="M17.556,15.843c-0.47-0.31-1.19-0.34-1.7-0.149c-0.3,0.11-0.53,0.221-0.64,0.561
	c-0.12,0.38,0.05,0.551,0.34,0.75c0.47,0.311,1.19,0.34,1.7,0.149c0.3-0.109,0.53-0.22,0.64-0.561
	C18.016,16.213,17.846,16.033,17.556,15.843z"/>
</svg>
