<?xml version="1.0" encoding="utf-8"?>
<!-- Generator: Adobe Illustrator 13.0.0, SVG Export Plug-In . SVG Version: 6.00 Build 14948)  -->
<!DOCTYPE svg PUBLIC "-//W3C//DTD SVG 1.1 Basic//EN" "http://www.w3.org/Graphics/SVG/1.1/DTD/svg11-basic.dtd">
<svg version="1.1" baseProfile="basic" xmlns="http://www.w3.org/2000/svg" xmlns:xlink="http://www.w3.org/1999/xlink" x="0px"
	 y="0px" width="47.168px" height="34.402px" viewBox="0 0 47.168 34.402" xml:space="preserve">
<g id="Default">
</g>
<g id="Make2D_visible_lines">
	<g id="mobile-term_2_">
		<linearGradient id="SVGID_1_" gradientUnits="userSpaceOnUse" x1="0.4507" y1="17.2012" x2="46.7188" y2="17.2012">
			<stop  offset="0" style="stop-color:#E5E7EF"/>
			<stop  offset="1" style="stop-color:#ACBDD2"/>
		</linearGradient>
		<path fill="url(#SVGID_1_)" stroke="#454447" stroke-width="0.8985" d="M31.532,24.945c-4.863,2.809-9.729,5.618-14.593,8.427
			c-0.147,0.085-0.304,0.16-0.462,0.227c-0.165,0.066-0.332,0.123-0.504,0.17c-0.362,0.101-0.738,0.158-1.115,0.177
			c-0.387,0.02-0.773,0-1.156-0.064c-0.36-0.06-0.712-0.157-1.048-0.298c-0.544-0.229-1.083-0.465-1.619-0.711
			c-0.494-0.227-0.984-0.46-1.471-0.701c-0.948-0.47-1.884-0.967-2.801-1.497c-1.783-1.029-3.503-2.173-5.119-3.452
			c-0.065-0.053-0.132-0.109-0.193-0.167c-0.062-0.059-0.12-0.12-0.177-0.184c-0.107-0.122-0.202-0.253-0.283-0.394
			c-0.155-0.271-0.255-0.575-0.28-0.887c-0.086-1.067-0.173-2.135-0.26-3.202c0.07-0.868,0.141-1.735,0.212-2.603
			c0.006-0.083,0.021-0.167,0.04-0.249c0.019-0.083,0.046-0.166,0.077-0.246c0.065-0.165,0.156-0.319,0.264-0.461
			c0.115-0.152,0.251-0.289,0.397-0.413c0.167-0.14,0.349-0.262,0.538-0.372c4.875-2.813,9.748-5.628,14.622-8.442
			c0.491-0.281,0.967-0.591,1.422-0.929c0.092-0.068,0.162-0.157,0.207-0.263c0.005-0.014,0.013-0.034,0.023-0.062
			c0.192-0.545,0.47-1.045,0.822-1.487c0.069-0.089,0.138-0.179,0.202-0.271c0.192-0.28,0.4-0.551,0.617-0.813
			c0.229-0.275,0.468-0.542,0.719-0.797c0.515-0.531,1.071-1.021,1.657-1.473c0.629-0.485,1.291-0.928,1.974-1.331
			c0.73-0.431,1.485-0.818,2.258-1.167c0.206-0.093,0.418-0.173,0.633-0.241c0.223-0.071,0.449-0.129,0.678-0.175
			c0.478-0.097,0.963-0.144,1.45-0.146c0.485-0.001,0.972,0.044,1.449,0.137c0.441,0.087,0.878,0.218,1.293,0.399
			c0.637,0.278,1.269,0.563,1.895,0.859c0.588,0.275,1.17,0.559,1.746,0.85c1.162,0.585,2.308,1.202,3.435,1.851
			c2.133,1.234,4.198,2.588,6.158,4.083c0.089,0.068,0.175,0.14,0.258,0.215c0.079,0.072,0.155,0.149,0.229,0.228
			c0.142,0.155,0.27,0.323,0.376,0.504c0.202,0.34,0.332,0.725,0.362,1.121c0.084,1.028,0.168,2.057,0.25,3.085
			c0.007,0.088,0.007,0.177,0,0.265c-0.082,1.028-0.166,2.056-0.25,3.084c-0.008,0.1-0.021,0.2-0.043,0.299
			c-0.019,0.099-0.046,0.196-0.077,0.292c-0.063,0.195-0.151,0.38-0.257,0.555c-0.23,0.376-0.544,0.699-0.897,0.959
			c-0.595,0.438-1.215,0.843-1.855,1.211c-0.269,0.154-0.54,0.304-0.815,0.447c-0.287,0.151-0.578,0.296-0.874,0.435
			c-0.596,0.281-1.204,0.54-1.823,0.776c-1.31,0.501-2.659,0.903-4.025,1.221c-0.199,0.046-0.396,0.095-0.593,0.146
			c-0.198,0.053-0.395,0.109-0.589,0.167c-0.371,0.112-0.738,0.237-1.101,0.375C32.831,24.274,32.166,24.581,31.532,24.945z"/>
		<linearGradient id="SVGID_2_" gradientUnits="userSpaceOnUse" x1="13.0024" y1="13.6494" x2="17.6226" y2="13.6494">
			<stop  offset="0" style="stop-color:#F7F5EB"/>
			<stop  offset="1" style="stop-color:#F3ECCE"/>
		</linearGradient>
		<path fill="url(#SVGID_2_)" stroke="#454447" stroke-width="0.3962" d="M14.248,12.646c0.05-0.028,0.099-0.052,0.151-0.075
			c0.055-0.024,0.111-0.045,0.169-0.064c0.12-0.038,0.243-0.065,0.37-0.082c0.119-0.015,0.241-0.021,0.362-0.012
			c0.105,0.008,0.211,0.025,0.312,0.06c0.565,0.199,1.114,0.433,1.648,0.704c0.028,0.016,0.056,0.031,0.082,0.049
			c0.025,0.016,0.049,0.033,0.072,0.052c0.041,0.035,0.08,0.075,0.111,0.12c0.061,0.085,0.097,0.186,0.097,0.289
			c0,0.055,0,0.113,0,0.168c0,0.027-0.005,0.051-0.014,0.075c-0.019,0.051-0.051,0.096-0.09,0.134
			c-0.021,0.024-0.048,0.046-0.073,0.065c-0.016,0.012-0.029,0.022-0.045,0.032c-0.015,0.01-0.028,0.018-0.043,0.027
			c-0.297,0.172-0.596,0.344-0.894,0.515c-0.081,0.048-0.17,0.083-0.261,0.111c-0.049,0.015-0.098,0.026-0.148,0.037
			c-0.025,0.005-0.05,0.01-0.075,0.014c-0.025,0.004-0.051,0.007-0.077,0.011c-0.18,0.02-0.364,0.019-0.547-0.008
			c-0.086-0.013-0.171-0.031-0.255-0.056c-0.038-0.012-0.077-0.024-0.116-0.039c-0.036-0.014-0.07-0.03-0.105-0.047
			c-0.532-0.271-1.084-0.505-1.648-0.702c-0.052-0.018-0.104-0.04-0.149-0.069c-0.019-0.011-0.035-0.023-0.05-0.039
			c-0.006-0.005-0.013-0.012-0.016-0.019c-0.005-0.004-0.007-0.011-0.009-0.016c-0.003-0.011-0.004-0.022-0.005-0.035
			c0-0.069,0-0.139,0-0.208c0-0.022,0.005-0.044,0.008-0.065c0.005-0.022,0.008-0.044,0.016-0.065
			c0.016-0.044,0.04-0.086,0.067-0.124c0.068-0.092,0.162-0.164,0.262-0.222C13.653,12.989,13.951,12.818,14.248,12.646z"/>
		<linearGradient id="SVGID_3_" gradientUnits="userSpaceOnUse" x1="17.8979" y1="19.9624" x2="22.5171" y2="19.9624">
			<stop  offset="0" style="stop-color:#F7F5EB"/>
			<stop  offset="1" style="stop-color:#F3ECCE"/>
		</linearGradient>
		<path fill="url(#SVGID_3_)" stroke="#454447" stroke-width="0.3962" d="M18.171,20.061c-0.07-0.047-0.139-0.102-0.193-0.169
			c-0.021-0.027-0.04-0.057-0.055-0.089c-0.007-0.014-0.013-0.029-0.016-0.043c-0.006-0.015-0.007-0.029-0.009-0.053
			c0-0.059,0-0.118-0.001-0.177c0-0.026,0.002-0.051,0.006-0.077c0.005-0.026,0.011-0.05,0.018-0.075
			c0.017-0.051,0.039-0.099,0.069-0.144c0.065-0.098,0.158-0.177,0.259-0.235c0.298-0.171,0.596-0.343,0.892-0.516
			c0.053-0.028,0.105-0.054,0.159-0.074c0.059-0.022,0.117-0.04,0.177-0.053c0.128-0.029,0.258-0.042,0.387-0.039
			c0.127,0.004,0.251,0.021,0.372,0.057c0.11,0.032,0.219,0.077,0.317,0.142c0.565,0.367,1.113,0.766,1.639,1.192
			c0.024,0.02,0.05,0.043,0.074,0.064c0.021,0.022,0.043,0.045,0.064,0.069c0.038,0.047,0.075,0.099,0.102,0.152
			c0.053,0.101,0.085,0.213,0.085,0.327c0,0.067,0,0.135,0,0.204c0,0.046-0.007,0.092-0.018,0.136
			c-0.017,0.063-0.048,0.122-0.089,0.171c-0.023,0.027-0.049,0.051-0.074,0.074c-0.013,0.011-0.028,0.021-0.043,0.032
			c-0.015,0.011-0.03,0.021-0.047,0.03c-0.298,0.172-0.595,0.344-0.893,0.515c-0.105,0.061-0.222,0.095-0.34,0.112
			c-0.138,0.021-0.276,0.017-0.414-0.003c-0.146-0.022-0.29-0.063-0.426-0.12c-0.066-0.028-0.131-0.061-0.192-0.096
			c-0.06-0.036-0.117-0.075-0.171-0.118C19.287,20.83,18.739,20.431,18.171,20.061z"/>
		<linearGradient id="SVGID_4_" gradientUnits="userSpaceOnUse" x1="20.8726" y1="18.2451" x2="25.4927" y2="18.2451">
			<stop  offset="0" style="stop-color:#F7F5EB"/>
			<stop  offset="1" style="stop-color:#F3ECCE"/>
		</linearGradient>
		<path fill="url(#SVGID_4_)" stroke="#454447" stroke-width="0.3962" d="M22.788,19.54c-0.525-0.428-1.073-0.826-1.641-1.196
			c-0.071-0.048-0.139-0.102-0.193-0.169c-0.021-0.027-0.04-0.057-0.055-0.09c-0.007-0.013-0.013-0.028-0.017-0.042
			c-0.005-0.015-0.007-0.029-0.008-0.053c0-0.059,0-0.118-0.002-0.178c0-0.024,0.003-0.05,0.007-0.077
			c0.004-0.024,0.009-0.05,0.019-0.075c0.016-0.05,0.038-0.099,0.067-0.143c0.066-0.098,0.157-0.176,0.26-0.235
			c0.298-0.172,0.595-0.344,0.894-0.516c0.051-0.028,0.103-0.052,0.157-0.073c0.057-0.021,0.117-0.041,0.177-0.054
			c0.126-0.029,0.258-0.042,0.387-0.038c0.125,0.003,0.251,0.021,0.371,0.057c0.111,0.031,0.22,0.078,0.317,0.14
			c0.566,0.37,1.113,0.768,1.64,1.193c0.024,0.021,0.049,0.042,0.073,0.064c0.022,0.023,0.044,0.047,0.065,0.07
			c0.038,0.047,0.075,0.098,0.102,0.152c0.053,0.1,0.085,0.213,0.085,0.327c0,0.067,0,0.136,0,0.204
			c0,0.047-0.008,0.092-0.018,0.137c-0.017,0.063-0.048,0.122-0.09,0.172c-0.022,0.026-0.046,0.05-0.073,0.073
			c-0.013,0.011-0.028,0.022-0.043,0.033c-0.016,0.009-0.03,0.021-0.046,0.029c-0.299,0.171-0.596,0.344-0.894,0.516
			c-0.105,0.061-0.221,0.095-0.343,0.112c-0.135,0.019-0.273,0.017-0.412-0.003c-0.146-0.022-0.29-0.063-0.426-0.121
			c-0.065-0.027-0.131-0.06-0.193-0.097C22.898,19.621,22.84,19.583,22.788,19.54z"/>
		<linearGradient id="SVGID_5_" gradientUnits="userSpaceOnUse" x1="10.0269" y1="15.3677" x2="14.647" y2="15.3677">
			<stop  offset="0" style="stop-color:#F7F5EB"/>
			<stop  offset="1" style="stop-color:#F3ECCE"/>
		</linearGradient>
		<path fill="url(#SVGID_5_)" stroke="#454447" stroke-width="0.3962" d="M11.273,14.364c0.048-0.028,0.099-0.053,0.15-0.075
			c0.055-0.024,0.111-0.044,0.169-0.063c0.119-0.039,0.245-0.066,0.37-0.081c0.121-0.017,0.241-0.021,0.363-0.012
			c0.104,0.007,0.212,0.025,0.311,0.06c0.565,0.198,1.116,0.434,1.648,0.704c0.028,0.015,0.057,0.031,0.083,0.048
			c0.024,0.016,0.049,0.034,0.071,0.053c0.042,0.035,0.08,0.075,0.113,0.12c0.059,0.085,0.095,0.186,0.095,0.291
			c0,0.056,0,0.112,0,0.168c0,0.025-0.005,0.05-0.014,0.075c-0.02,0.05-0.05,0.095-0.09,0.133c-0.023,0.023-0.048,0.044-0.073,0.066
			c-0.015,0.011-0.029,0.021-0.044,0.031c-0.016,0.009-0.029,0.018-0.045,0.027c-0.296,0.172-0.595,0.344-0.892,0.515
			c-0.082,0.047-0.171,0.084-0.262,0.111c-0.049,0.014-0.098,0.028-0.148,0.037c-0.023,0.006-0.048,0.01-0.072,0.014
			c-0.028,0.004-0.054,0.008-0.077,0.01c-0.183,0.023-0.367,0.019-0.548-0.008c-0.087-0.013-0.173-0.031-0.257-0.056
			c-0.038-0.011-0.077-0.023-0.116-0.039c-0.035-0.014-0.07-0.03-0.105-0.047c-0.532-0.271-1.081-0.505-1.648-0.702
			c-0.052-0.018-0.104-0.039-0.149-0.069c-0.017-0.012-0.035-0.023-0.051-0.04c-0.006-0.006-0.012-0.013-0.016-0.019
			c-0.004-0.005-0.006-0.01-0.008-0.015c-0.001-0.012-0.004-0.023-0.005-0.036c0-0.069,0-0.139,0-0.208
			c0-0.022,0.004-0.044,0.007-0.066c0.005-0.022,0.009-0.043,0.017-0.064c0.017-0.045,0.042-0.087,0.068-0.125
			c0.067-0.093,0.162-0.163,0.261-0.221C10.677,14.708,10.975,14.535,11.273,14.364z"/>
		<linearGradient id="SVGID_6_" gradientUnits="userSpaceOnUse" x1="14.9233" y1="21.6807" x2="19.5415" y2="21.6807">
			<stop  offset="0" style="stop-color:#F7F5EB"/>
			<stop  offset="1" style="stop-color:#F3ECCE"/>
		</linearGradient>
		<path fill="url(#SVGID_6_)" stroke="#454447" stroke-width="0.3962" d="M14.923,21.247c0-0.026,0.001-0.052,0.007-0.076
			c0.002-0.026,0.009-0.051,0.017-0.076c0.016-0.051,0.04-0.099,0.068-0.144c0.065-0.098,0.158-0.176,0.259-0.234
			c0.298-0.172,0.596-0.343,0.895-0.516c0.05-0.029,0.103-0.054,0.156-0.075c0.059-0.021,0.117-0.04,0.177-0.053
			c0.128-0.029,0.259-0.042,0.387-0.038c0.127,0.003,0.252,0.021,0.372,0.056c0.112,0.032,0.219,0.078,0.317,0.141
			c0.566,0.369,1.113,0.766,1.639,1.192c0.024,0.021,0.051,0.042,0.074,0.064s0.043,0.046,0.064,0.071
			c0.038,0.046,0.075,0.097,0.102,0.151c0.054,0.101,0.085,0.212,0.085,0.327c0,0.067,0,0.136,0,0.204
			c0,0.046-0.005,0.093-0.018,0.136c-0.016,0.063-0.047,0.123-0.09,0.172c-0.021,0.027-0.046,0.052-0.072,0.073
			c-0.015,0.011-0.029,0.021-0.044,0.033c-0.015,0.01-0.03,0.02-0.046,0.029c-0.297,0.172-0.596,0.343-0.894,0.516
			c-0.104,0.059-0.221,0.094-0.34,0.112c-0.138,0.019-0.276,0.016-0.413-0.004c-0.147-0.021-0.292-0.062-0.429-0.12
			c-0.064-0.028-0.128-0.06-0.19-0.096c-0.059-0.035-0.116-0.075-0.169-0.118c-0.526-0.427-1.073-0.826-1.642-1.195
			c-0.07-0.046-0.139-0.102-0.193-0.17c-0.021-0.027-0.04-0.057-0.056-0.088c-0.006-0.015-0.011-0.029-0.016-0.044
			c-0.003-0.014-0.007-0.029-0.008-0.052c0-0.004,0-0.008,0-0.011C14.923,21.358,14.923,21.303,14.923,21.247z"/>
		<linearGradient id="SVGID_7_" gradientUnits="userSpaceOnUse" x1="7.0522" y1="17.085" x2="11.6704" y2="17.085">
			<stop  offset="0" style="stop-color:#F7F5EB"/>
			<stop  offset="1" style="stop-color:#F3ECCE"/>
		</linearGradient>
		<path fill="url(#SVGID_7_)" stroke="#454447" stroke-width="0.3962" d="M8.93,18.16c-0.534-0.271-1.086-0.505-1.65-0.701
			c-0.051-0.018-0.103-0.04-0.147-0.068c-0.019-0.012-0.036-0.024-0.052-0.041c-0.006-0.005-0.012-0.012-0.016-0.018
			c-0.004-0.006-0.007-0.011-0.009-0.034c-0.001-0.075-0.004-0.15-0.004-0.226c0-0.022,0.004-0.044,0.007-0.065
			c0.005-0.021,0.01-0.044,0.018-0.065c0.016-0.043,0.039-0.086,0.066-0.125c0.067-0.092,0.165-0.163,0.261-0.22
			c0.3-0.172,0.597-0.345,0.894-0.517c0.049-0.026,0.099-0.052,0.15-0.074c0.057-0.023,0.113-0.045,0.17-0.064
			c0.12-0.038,0.245-0.065,0.37-0.081c0.12-0.016,0.241-0.021,0.361-0.013c0.107,0.009,0.211,0.026,0.313,0.061
			c0.565,0.197,1.113,0.433,1.647,0.705c0.029,0.015,0.057,0.03,0.083,0.046c0.025,0.017,0.048,0.035,0.071,0.052
			c0.042,0.037,0.08,0.077,0.113,0.12c0.059,0.085,0.095,0.187,0.094,0.291c0,0.056,0,0.113,0,0.168c0,0.025-0.004,0.05-0.013,0.075
			c-0.017,0.051-0.05,0.094-0.088,0.134c-0.021,0.023-0.05,0.045-0.075,0.065c-0.014,0.011-0.029,0.021-0.044,0.031
			c-0.013,0.009-0.028,0.018-0.043,0.026c-0.298,0.172-0.596,0.345-0.893,0.516c-0.084,0.048-0.172,0.083-0.261,0.112
			c-0.05,0.014-0.1,0.025-0.15,0.036c-0.023,0.005-0.049,0.01-0.072,0.014c-0.027,0.004-0.053,0.008-0.077,0.01
			c-0.183,0.021-0.367,0.019-0.547-0.008C9.32,18.29,9.234,18.272,9.15,18.248c-0.038-0.012-0.077-0.025-0.116-0.041
			C8.998,18.193,8.963,18.178,8.93,18.16z"/>
		<path fill="none" stroke="#454447" stroke-width="0.5943" stroke-linecap="round" stroke-linejoin="round" d="M1.149,23.639
			c3.148,2.509,6.94,4.7,11.289,6.517c0.354,0.148,0.746,0.257,1.166,0.325c0.422,0.069,0.856,0.093,1.291,0.074
			c0.87-0.041,1.698-0.26,2.317-0.618c4.904-2.832,9.81-5.663,14.715-8.494c1.18-0.682,2.572-1.213,4.122-1.572
			c3.788-0.878,7.053-2.297,9.562-4.159"/>
		<linearGradient id="SVGID_8_" gradientUnits="userSpaceOnUse" x1="19.9751" y1="8.8833" x2="23.9712" y2="8.8833">
			<stop  offset="0" style="stop-color:#F7F5EB"/>
			<stop  offset="1" style="stop-color:#F3ECCE"/>
		</linearGradient>
		<path fill="url(#SVGID_8_)" stroke="#454447" stroke-width="0.3962" d="M23.195,10.154c-0.472,0.099-0.943,0.199-1.416,0.297
			c-0.176,0.037-0.355,0.052-0.534,0.045c-0.177-0.007-0.353-0.032-0.522-0.082c-0.148-0.044-0.292-0.105-0.414-0.196
			c-0.051-0.037-0.099-0.079-0.136-0.127c-0.031-0.041-0.058-0.085-0.071-0.134c-0.084-0.31-0.126-0.627-0.126-0.948
			c0-0.067,0-0.135,0-0.201c0-0.286,0.031-0.569,0.093-0.848c0.018-0.083,0.056-0.163,0.104-0.234
			c0.054-0.077,0.123-0.143,0.201-0.198c0.087-0.063,0.183-0.111,0.283-0.15c0.111-0.042,0.228-0.07,0.344-0.088
			c0.247-0.038,0.501-0.027,0.744,0.035c0.11,0.028,0.219,0.066,0.319,0.121c0.091,0.047,0.176,0.106,0.249,0.177
			c0.441,0.438,0.904,0.854,1.388,1.249c0.021,0.017,0.043,0.036,0.063,0.055s0.037,0.039,0.054,0.06
			c0.034,0.039,0.062,0.082,0.085,0.126c0.046,0.086,0.069,0.182,0.069,0.278c0,0.066,0,0.133,0,0.199
			c0,0.037-0.008,0.071-0.019,0.102c-0.016,0.038-0.036,0.072-0.061,0.103c-0.028,0.036-0.063,0.069-0.099,0.098
			c-0.019,0.016-0.039,0.032-0.062,0.046c-0.022,0.015-0.047,0.03-0.069,0.044C23.516,10.064,23.36,10.122,23.195,10.154z"/>
		<linearGradient id="SVGID_9_" gradientUnits="userSpaceOnUse" x1="28.396" y1="14.1045" x2="33.6382" y2="14.1045">
			<stop  offset="0" style="stop-color:#F7F5EB"/>
			<stop  offset="1" style="stop-color:#F3ECCE"/>
		</linearGradient>
		<path fill="url(#SVGID_9_)" stroke="#454447" stroke-width="0.3962" d="M32.981,13.78c0.048,0.016,0.095,0.035,0.142,0.056
			c0.045,0.02,0.089,0.043,0.131,0.07c0.076,0.046,0.149,0.102,0.208,0.169c0.057,0.061,0.103,0.13,0.132,0.205
			c0.029,0.071,0.045,0.148,0.045,0.225c0,0.066,0,0.133,0,0.199c0,0.037-0.008,0.07-0.019,0.103
			c-0.016,0.038-0.038,0.071-0.063,0.103c-0.028,0.036-0.062,0.068-0.098,0.098c-0.021,0.016-0.041,0.032-0.063,0.046
			c-0.021,0.016-0.045,0.03-0.068,0.044c-0.106,0.061-0.222,0.105-0.34,0.139c-0.067,0.018-0.136,0.033-0.203,0.045
			c-0.035,0.005-0.069,0.011-0.104,0.015c-0.037,0.005-0.071,0.008-0.107,0.011c-1.051,0.076-2.102,0.068-3.151-0.026
			c-0.134-0.012-0.267-0.036-0.395-0.073c-0.114-0.034-0.224-0.077-0.328-0.137c-0.085-0.05-0.163-0.109-0.225-0.187
			c-0.024-0.031-0.046-0.065-0.06-0.101c-0.013-0.032-0.021-0.066-0.021-0.1c0-0.067,0-0.134,0-0.201
			c0.001-0.117,0.033-0.229,0.097-0.326c0.173-0.272,0.344-0.545,0.516-0.817c0.08-0.122,0.188-0.22,0.314-0.291
			c0.051-0.028,0.102-0.054,0.156-0.076c0.057-0.023,0.117-0.042,0.175-0.06c0.126-0.034,0.256-0.054,0.386-0.061
			c0.135-0.007,0.269,0,0.4,0.02c0.126,0.02,0.248,0.052,0.365,0.1C31.521,13.265,32.247,13.534,32.981,13.78z"/>
		<path fill="none" stroke="#454447" stroke-width="0.5943" stroke-linecap="round" stroke-linejoin="round" d="M3.132,19.914
			c0.095,0.054,0.189,0.109,0.284,0.166c0.411,0.241,0.832,0.506,1.262,0.794c1.707,1.159,3.57,2.234,5.577,3.22
			c0.5,0.249,1.003,0.518,1.514,0.807c0.507,0.29,1.02,0.598,1.534,0.928c0.062,0.04,0.127,0.078,0.191,0.115
			c0.031,0.019,0.065,0.036,0.098,0.054c0.033,0.019,0.068,0.036,0.102,0.053c0.067,0.034,0.137,0.066,0.207,0.096
			c0.068,0.031,0.139,0.06,0.211,0.086c0.071,0.027,0.145,0.053,0.219,0.077c0.035,0.011,0.072,0.023,0.11,0.034
			c0.036,0.011,0.075,0.021,0.111,0.031c0.074,0.02,0.149,0.037,0.224,0.052c0.073,0.016,0.147,0.028,0.223,0.039
			c0.036,0.005,0.074,0.011,0.111,0.015c0.018,0.002,0.038,0.004,0.056,0.006c0.02,0.002,0.037,0.004,0.058,0.006
			c0.072,0.005,0.146,0.009,0.219,0.009c0.072,0.002,0.144,0,0.215-0.004c0.069-0.005,0.14-0.011,0.207-0.02
			c0.018-0.003,0.035-0.005,0.052-0.008s0.033-0.006,0.05-0.008c0.034-0.006,0.067-0.013,0.099-0.021
			c0.065-0.014,0.129-0.032,0.19-0.052c0.061-0.019,0.119-0.042,0.177-0.067c0.057-0.024,0.11-0.052,0.163-0.083
			c4.393-2.537,8.787-5.073,13.18-7.609"/>
		<path fill="none" stroke="#454447" stroke-width="0.5943" stroke-linecap="round" stroke-linejoin="round" d="M27.916,17.038
			c0.307-0.006,0.612-0.017,0.917-0.033c1.062-0.054,2.121-0.158,3.172-0.304c0.307-0.042,0.61-0.088,0.911-0.14
			c0.227-0.04,0.451-0.083,0.677-0.126c0.653-0.127,1.283-0.295,1.884-0.502c0.186-0.064,0.372-0.126,0.562-0.186
			c2.649-0.832,5.004-1.942,6.969-3.287c0.591-0.404,1.142-0.826,1.649-1.265c0.059-0.051,0.115-0.103,0.164-0.155
			c0.016-0.015,0.031-0.031,0.046-0.047"/>
		<linearGradient id="SVGID_10_" gradientUnits="userSpaceOnUse" x1="22.1567" y1="12.3623" x2="27.8276" y2="12.3623">
			<stop  offset="0" style="stop-color:#F7F5EB"/>
			<stop  offset="1" style="stop-color:#F3ECCE"/>
		</linearGradient>
		<path fill="url(#SVGID_10_)" stroke="#454447" stroke-width="0.3962" d="M27.828,12.567c0,0.096-0.021,0.192-0.052,0.282
			c-0.037,0.099-0.09,0.189-0.151,0.274c-0.071,0.095-0.156,0.181-0.247,0.257c-0.049,0.042-0.102,0.082-0.154,0.119
			c-0.058,0.041-0.116,0.078-0.177,0.112c-0.208,0.12-0.431,0.213-0.66,0.285c-0.253,0.08-0.513,0.133-0.777,0.165
			c-0.273,0.034-0.551,0.045-0.826,0.034c-0.273-0.011-0.544-0.044-0.809-0.101c-0.251-0.054-0.497-0.129-0.733-0.231
			c-0.207-0.088-0.402-0.199-0.58-0.337c-0.147-0.116-0.28-0.252-0.375-0.414c-0.078-0.135-0.13-0.288-0.129-0.445
			c0-0.067,0-0.133,0-0.202c0-0.06,0.006-0.119,0.016-0.178c0.01-0.061,0.025-0.12,0.043-0.178c0.04-0.121,0.101-0.235,0.172-0.34
			c0.08-0.114,0.174-0.216,0.279-0.308c0.113-0.102,0.239-0.189,0.373-0.266c0.212-0.122,0.439-0.215,0.674-0.287
			c0.257-0.078,0.523-0.13,0.789-0.158c0.276-0.028,0.554-0.033,0.831-0.012c0.271,0.019,0.54,0.062,0.803,0.131
			c0.24,0.064,0.473,0.149,0.695,0.264c0.192,0.101,0.378,0.224,0.537,0.375c0.14,0.131,0.26,0.284,0.341,0.455
			c0.075,0.157,0.118,0.33,0.118,0.503C27.828,12.434,27.828,12.5,27.828,12.567z"/>
		<linearGradient id="SVGID_11_" gradientUnits="userSpaceOnUse" x1="10.8325" y1="19.1777" x2="15.7632" y2="19.1777">
			<stop  offset="0" style="stop-color:#F7F5EB"/>
			<stop  offset="1" style="stop-color:#F3ECCE"/>
		</linearGradient>
		<path fill="url(#SVGID_11_)" stroke="#454447" stroke-width="0.3962" d="M10.833,19.052c0-0.058,0-0.114,0-0.172
			c0-0.025,0.001-0.051,0.005-0.075c0.004-0.025,0.011-0.051,0.019-0.076c0.015-0.05,0.039-0.098,0.069-0.141
			c0.066-0.098,0.159-0.176,0.257-0.234c0.299-0.17,0.597-0.343,0.895-0.515c0.048-0.028,0.1-0.052,0.15-0.071
			c0.057-0.022,0.113-0.041,0.17-0.054c0.122-0.03,0.25-0.044,0.375-0.044c0.128,0,0.256,0.014,0.379,0.043
			c0.114,0.028,0.225,0.068,0.327,0.126c0.644,0.373,1.287,0.745,1.933,1.117c0.027,0.016,0.054,0.033,0.08,0.051
			c0.024,0.018,0.048,0.036,0.07,0.056c0.042,0.037,0.077,0.08,0.109,0.126c0.057,0.086,0.093,0.188,0.093,0.293
			c0,0.057,0,0.114,0,0.171c0,0.028-0.008,0.058-0.017,0.085c-0.014,0.032-0.031,0.061-0.054,0.088
			c-0.024,0.031-0.054,0.06-0.084,0.083c-0.017,0.016-0.032,0.027-0.053,0.041c-0.018,0.013-0.038,0.025-0.058,0.037
			c-0.298,0.172-0.596,0.343-0.895,0.515c-0.111,0.065-0.232,0.108-0.358,0.137c-0.142,0.034-0.285,0.049-0.434,0.049
			c-0.143,0-0.286-0.016-0.425-0.049c-0.064-0.016-0.129-0.035-0.191-0.059c-0.057-0.022-0.112-0.047-0.164-0.078
			c-0.646-0.372-1.29-0.744-1.936-1.117c-0.071-0.042-0.142-0.093-0.194-0.16c-0.022-0.026-0.04-0.056-0.053-0.088
			c-0.006-0.013-0.009-0.028-0.012-0.043C10.833,19.08,10.833,19.066,10.833,19.052z"/>
		<linearGradient id="SVGID_12_" gradientUnits="userSpaceOnUse" x1="16.7837" y1="15.7422" x2="21.7129" y2="15.7422">
			<stop  offset="0" style="stop-color:#F7F5EB"/>
			<stop  offset="1" style="stop-color:#F3ECCE"/>
		</linearGradient>
		<path fill="url(#SVGID_12_)" stroke="#454447" stroke-width="0.3962" d="M21.712,16.217c0.002,0.029-0.006,0.058-0.018,0.085
			c-0.012,0.032-0.03,0.061-0.052,0.087c-0.025,0.031-0.053,0.059-0.084,0.084c-0.018,0.014-0.035,0.027-0.052,0.039
			c-0.02,0.013-0.039,0.024-0.06,0.038c-0.296,0.17-0.594,0.343-0.892,0.514c-0.112,0.063-0.235,0.108-0.361,0.137
			c-0.141,0.034-0.286,0.049-0.432,0.049c-0.143-0.001-0.286-0.016-0.425-0.049c-0.066-0.016-0.13-0.034-0.191-0.058
			c-0.059-0.023-0.113-0.048-0.164-0.079c-0.646-0.372-1.29-0.744-1.937-1.117c-0.071-0.042-0.143-0.093-0.193-0.16
			c-0.022-0.026-0.041-0.056-0.053-0.087c-0.006-0.014-0.012-0.028-0.014-0.043c-0.002-0.013-0.003-0.029-0.003-0.042
			c0-0.058,0-0.114,0-0.172c0-0.025,0.002-0.05,0.004-0.076c0.005-0.025,0.012-0.05,0.019-0.074c0.017-0.052,0.039-0.1,0.069-0.144
			c0.064-0.097,0.157-0.174,0.259-0.232c0.298-0.172,0.595-0.344,0.893-0.516c0.049-0.027,0.1-0.052,0.151-0.072
			c0.056-0.021,0.113-0.039,0.17-0.054c0.122-0.03,0.248-0.044,0.375-0.044c0.126-0.002,0.254,0.014,0.379,0.043
			c0.113,0.028,0.224,0.068,0.324,0.126c0.646,0.372,1.29,0.745,1.935,1.116c0.027,0.016,0.055,0.033,0.08,0.052
			c0.023,0.017,0.047,0.037,0.068,0.055c0.042,0.039,0.081,0.08,0.112,0.127c0.056,0.086,0.093,0.188,0.091,0.292
			C21.712,16.103,21.712,16.16,21.712,16.217z"/>
		<linearGradient id="SVGID_13_" gradientUnits="userSpaceOnUse" x1="13.8081" y1="17.46" x2="18.7368" y2="17.46">
			<stop  offset="0" style="stop-color:#F7F5EB"/>
			<stop  offset="1" style="stop-color:#F3ECCE"/>
		</linearGradient>
		<path fill="url(#SVGID_13_)" stroke="#454447" stroke-width="0.3962" d="M18.737,17.935c0,0.029-0.005,0.059-0.016,0.085
			c-0.014,0.032-0.032,0.061-0.053,0.088c-0.024,0.031-0.054,0.059-0.084,0.084c-0.018,0.013-0.035,0.026-0.053,0.039
			c-0.019,0.014-0.038,0.025-0.06,0.037c-0.296,0.172-0.594,0.343-0.893,0.515c-0.111,0.064-0.232,0.108-0.36,0.138
			c-0.14,0.032-0.285,0.047-0.432,0.047c-0.143,0-0.286-0.016-0.425-0.048c-0.066-0.016-0.13-0.036-0.191-0.059
			c-0.057-0.021-0.111-0.047-0.166-0.078c-0.644-0.372-1.288-0.743-1.934-1.116c-0.071-0.042-0.142-0.093-0.194-0.16
			c-0.022-0.027-0.042-0.055-0.053-0.088c-0.006-0.013-0.01-0.028-0.014-0.043c-0.002-0.014-0.003-0.028-0.003-0.042
			c0-0.057,0-0.115,0-0.172c0-0.025,0.001-0.051,0.004-0.075c0.005-0.026,0.012-0.05,0.021-0.076
			c0.014-0.05,0.038-0.097,0.067-0.142c0.064-0.097,0.157-0.174,0.261-0.232c0.295-0.172,0.594-0.345,0.89-0.516
			c0.05-0.027,0.101-0.052,0.152-0.072c0.056-0.022,0.113-0.04,0.169-0.053c0.124-0.03,0.248-0.044,0.376-0.044
			c0.128-0.001,0.255,0.013,0.379,0.044c0.113,0.027,0.224,0.068,0.325,0.126c0.645,0.372,1.289,0.744,1.935,1.116
			c0.027,0.016,0.054,0.033,0.079,0.051c0.023,0.018,0.048,0.037,0.068,0.057c0.043,0.038,0.08,0.08,0.112,0.126
			c0.057,0.085,0.091,0.188,0.091,0.292C18.737,17.821,18.737,17.878,18.737,17.935z"/>
		<linearGradient id="SVGID_14_" gradientUnits="userSpaceOnUse" x1="23.1787" y1="8.4551" x2="42.7817" y2="8.4551">
			<stop  offset="0" style="stop-color:#F7F5EB"/>
			<stop  offset="1" style="stop-color:#F3ECCE"/>
		</linearGradient>
		<path fill="url(#SVGID_14_)" stroke="#454447" stroke-width="0.3962" d="M34.478,13.788c0.071,0.031,0.144,0.059,0.219,0.083
			c0.076,0.025,0.155,0.047,0.233,0.064c0.168,0.038,0.338,0.059,0.511,0.068c0.339,0.018,0.682-0.016,1.01-0.11
			c0.229-0.066,0.456-0.137,0.685-0.209c0.236-0.076,0.472-0.155,0.699-0.232c0.424-0.145,0.818-0.285,1.222-0.446
			c0.764-0.308,1.562-0.698,2.324-1.148c0.156-0.091,0.306-0.172,0.43-0.253c0.125-0.081,0.225-0.163,0.348-0.256
			c0.123-0.093,0.268-0.198,0.413-0.306c0.279-0.211,0.281-0.477,0.004-0.689c-3.627-2.778-7.887-5.239-12.699-7.333
			c-0.389-0.155-0.808-0.154-1.194,0.003c-2.274,1.009-4.104,2.285-5.393,3.764c-0.175,0.2-0.14,0.426,0.099,0.604
			c0.413,0.307,0.829,0.608,1.25,0.903c0.421,0.295,0.846,0.584,1.25,0.858c0.402,0.274,0.786,0.533,1.197,0.788
			c0.411,0.254,0.853,0.504,1.296,0.762c0.505,0.292,1.017,0.588,1.505,0.854c0.489,0.265,0.957,0.5,1.452,0.746
			c0.497,0.246,1.021,0.504,1.55,0.755C33.414,13.306,33.944,13.55,34.478,13.788z"/>
	</g>
</g>
</svg>
