<?xml version="1.0" encoding="utf-8"?>
<!-- Generator: Adobe Illustrator 13.0.0, SVG Export Plug-In . SVG Version: 6.00 Build 14948)  -->
<!DOCTYPE svg PUBLIC "-//W3C//DTD SVG 1.1 Basic//EN" "http://www.w3.org/Graphics/SVG/1.1/DTD/svg11-basic.dtd">
<svg version="1.1" baseProfile="basic" id="Слой_1"
	 xmlns="http://www.w3.org/2000/svg" xmlns:xlink="http://www.w3.org/1999/xlink" x="0px" y="0px" width="31.311px"
	 height="31.557px" viewBox="0 0 31.311 31.557" xml:space="preserve">
<path fill="none" stroke="#231F20" stroke-width="0.8986" stroke-linecap="round" d="M7.208,0.449
	c4.665,4.665,12.229,4.665,16.896,0"/>
<path fill="none" stroke="#231F20" stroke-width="0.8986" stroke-linecap="round" d="M3.828,3.23
	c2.874,2.873,5.869,4.32,9.906,4.788"/>
<linearGradient id="SVGID_1_" gradientUnits="userSpaceOnUse" x1="13.3469" y1="18.1375" x2="17.8875" y2="18.1375" gradientTransform="matrix(1 0 0 -1 0.0376 30.4009)">
	<stop  offset="0" style="stop-color:#F8F5EA"/>
	<stop  offset="1" style="stop-color:#F4EDCE"/>
</linearGradient>
<circle fill="url(#SVGID_1_)" cx="15.655" cy="12.263" r="2.27"/>
<linearGradient id="SVGID_2_" gradientUnits="userSpaceOnUse" x1="10.8381" y1="7.1472" x2="20.3933" y2="7.1472" gradientTransform="matrix(1 0 0 -1 0.0376 30.4009)">
	<stop  offset="0" style="stop-color:#F8F5EA"/>
	<stop  offset="1" style="stop-color:#F4EDCE"/>
</linearGradient>
<path fill="url(#SVGID_2_)" d="M10.876,17.161c0,1.673,0,3.345,0,5.017c0,0.593,0.245,0.838,0.836,0.838
	c0.592,0,0.836-0.245,0.836-0.838c0-1.113,0-2.229,0-3.344c0-0.17,0.07-0.239,0.239-0.239s0.239,0.069,0.239,0.239
	c0,3.742,0,7.486,0,11.229c0,0.846,0.35,1.194,1.195,1.194c0.845,0,1.193-0.35,1.193-1.194c0-2.15,0-4.301,0-6.451
	c0-0.168,0.07-0.238,0.239-0.238c0.168,0,0.239,0.07,0.239,0.238c0,2.15,0,4.301,0,6.451c0,0.846,0.35,1.194,1.194,1.194
	s1.193-0.35,1.193-1.194c0-3.742,0-7.486,0-11.229c0-0.17,0.07-0.239,0.239-0.239s0.238,0.069,0.238,0.239c0,1.114,0,2.229,0,3.344
	c0,0.593,0.245,0.838,0.837,0.838s0.836-0.245,0.836-0.838c0-1.672,0-3.344,0-5.017c0-1.056-0.855-1.911-1.911-1.911
	c-1.911,0-3.823,0-5.734,0C11.732,15.25,10.876,16.105,10.876,17.161z"/>
<circle fill="none" stroke="#231F20" stroke-width="0.5953" stroke-linecap="round" stroke-linejoin="round" cx="15.655" cy="12.263" r="2.27"/>
<path fill="none" stroke="#231F20" stroke-width="0.5953" stroke-linecap="round" stroke-linejoin="round" d="M10.876,17.161
	c0,1.673,0,3.345,0,5.017c0,0.593,0.245,0.838,0.836,0.838c0.592,0,0.836-0.245,0.836-0.838c0-1.113,0-2.229,0-3.344
	c0-0.17,0.07-0.239,0.239-0.239s0.239,0.069,0.239,0.239c0,3.742,0,7.486,0,11.229c0,0.846,0.35,1.194,1.195,1.194
	c0.845,0,1.193-0.35,1.193-1.194c0-2.15,0-4.301,0-6.451c0-0.168,0.07-0.238,0.239-0.238c0.168,0,0.239,0.07,0.239,0.238
	c0,2.15,0,4.301,0,6.451c0,0.846,0.35,1.194,1.194,1.194s1.193-0.35,1.193-1.194c0-3.742,0-7.486,0-11.229
	c0-0.17,0.07-0.239,0.239-0.239s0.238,0.069,0.238,0.239c0,1.114,0,2.229,0,3.344c0,0.593,0.245,0.838,0.837,0.838
	s0.836-0.245,0.836-0.838c0-1.672,0-3.344,0-5.017c0-1.056-0.855-1.911-1.911-1.911c-1.911,0-3.823,0-5.734,0
	C11.732,15.25,10.876,16.105,10.876,17.161z"/>
<path fill="none" stroke="#231F20" stroke-width="0.8986" stroke-linecap="round" d="M20.291,11.805
	c4.231-0.936,7.505-2.729,10.569-5.793"/>
<path fill="none" stroke="#231F20" stroke-width="0.8986" stroke-linecap="round" d="M0.449,6.012
	c3.064,3.063,6.338,4.857,10.569,5.793"/>
<path fill="none" stroke="#231F20" stroke-width="0.8986" stroke-linecap="round" d="M17.575,8.019
	c4.037-0.468,7.032-1.915,9.906-4.788"/>
<path fill="none" stroke="#231F20" stroke-width="0.8986" stroke-linecap="round" d="M22.521,15.578
	c3.059-0.827,5.756-2.1,8.34-3.932"/>
<path fill="none" stroke="#231F20" stroke-width="0.8986" stroke-linecap="round" d="M0.449,11.646
	c2.584,1.832,5.281,3.104,8.339,3.932"/>
</svg>
