<?xml version="1.0" encoding="utf-8"?>
<!-- Generator: Adobe Illustrator 13.0.0, SVG Export Plug-In . SVG Version: 6.00 Build 14948)  -->
<!DOCTYPE svg PUBLIC "-//W3C//DTD SVG 1.1 Basic//EN" "http://www.w3.org/Graphics/SVG/1.1/DTD/svg11-basic.dtd">
<svg version="1.1" baseProfile="basic" xmlns="http://www.w3.org/2000/svg" xmlns:xlink="http://www.w3.org/1999/xlink" x="0px"
	 y="0px" width="42.864px" height="45.043px" viewBox="0 0 42.864 45.043" xml:space="preserve">
<g id="Default">
</g>
<g id="Make2D_visible_lines">
	<line opacity="0.5" fill="none" stroke="#1A171B" x1="27.581" y1="37.734" x2="27.583" y2="37.732"/>
	<line opacity="0.5" fill="none" stroke="#1A171B" x1="27.583" y1="37.732" x2="27.59" y2="37.73"/>
	<polyline opacity="0.5" fill="none" stroke="#1A171B" points="27.612,37.782 27.613,37.782 27.612,37.782 	"/>
	<polyline opacity="0.5" fill="none" stroke="#1A171B" points="27.612,37.782 27.613,37.782 27.612,37.782 	"/>
	<polyline opacity="0.5" fill="none" stroke="#1A171B" points="27.612,37.782 27.613,37.782 27.612,37.782 	"/>
	<linearGradient id="SVGID_1_" gradientUnits="userSpaceOnUse" x1="0.4253" y1="17.2539" x2="25.3696" y2="17.2539">
		<stop  offset="0" style="stop-color:#E6E8EF"/>
		<stop  offset="1" style="stop-color:#ABBDD2"/>
	</linearGradient>
	<path fill="url(#SVGID_1_)" stroke="#444346" stroke-width="0.8504" d="M2.132,33.918c-0.781,0.613-1.707-0.632-1.707-1.457
		c0-5.623,0-11.488,0-17.112c0-0.119,0.01-0.236,0.027-0.354c0.018-0.122,0.045-0.243,0.08-0.363
		c0.071-0.246,0.174-0.482,0.303-0.705c0.249-0.431,0.593-0.81,1.024-1.062c7.034-4.06,14.069-8.122,21.104-12.184
		c0.066-0.039,0.134-0.073,0.205-0.104c0.069-0.031,0.141-0.057,0.213-0.079c0.133-0.04,0.271-0.065,0.409-0.071
		c0.271-0.012,0.545,0.05,0.78,0.186c0.108,0.063,0.216,0.126,0.325,0.189l0,0c0.317,0.184,0.475,0.56,0.475,1.049
		c0,5.624,0,11.249,0,16.872c-0.021,0.583-0.189,1.141-0.496,1.637"/>
	<linearGradient id="SVGID_2_" gradientUnits="userSpaceOnUse" x1="2.1323" y1="32.4565" x2="42.4385" y2="32.4565">
		<stop  offset="0" style="stop-color:#E6E8EF"/>
		<stop  offset="1" style="stop-color:#ABBDD2"/>
	</linearGradient>
	<path fill="url(#SVGID_2_)" stroke="#444346" stroke-width="0.8504" d="M23.909,20.69c1.041-0.527,2.207-0.527,3.247,0
		c4.871,2.813,9.741,5.623,14.61,8.436c0.424,0.245,0.673,0.572,0.673,0.938c0,0.219,0,0.438,0,0.656
		c0,0.066-0.005,0.133-0.014,0.199c-0.01,0.066-0.024,0.134-0.044,0.198c-0.039,0.131-0.097,0.255-0.17,0.372
		c-0.156,0.244-0.382,0.442-0.634,0.588c-7.035,4.062-14.069,8.124-21.104,12.186c-0.102,0.06-0.208,0.108-0.318,0.151
		c-0.116,0.045-0.235,0.083-0.355,0.114c-0.249,0.06-0.505,0.09-0.762,0.09c-0.497,0-0.998-0.109-1.431-0.355
		c-4.87-2.813-9.74-5.624-14.611-8.437c-0.066-0.038-0.131-0.08-0.192-0.126c-0.062-0.044-0.121-0.093-0.176-0.145
		c-0.101-0.095-0.191-0.202-0.266-0.316c-0.146-0.23-0.229-0.498-0.229-0.771c0-0.219,0-0.438,0-0.655
		c0-0.366,0.248-0.694,0.672-0.938C4.698,31.781,22.015,21.785,23.909,20.69z"/>
	<path fill="none" stroke="#444346" stroke-width="0.5943" stroke-linecap="round" stroke-linejoin="round" d="M5.239,34.281
		c-0.475-0.275-0.475-0.663,0-0.938c6.494-3.749,12.987-7.498,19.481-11.249c0.52-0.263,1.103-0.263,1.624,0
		c2.706,1.564,5.411,3.126,8.116,4.689c0.476,0.272,0.476,0.661,0,0.936c-6.493,3.748-12.986,7.499-19.48,11.247
		c-0.521,0.265-1.103,0.265-1.624,0C10.651,37.406,7.945,35.844,5.239,34.281z"/>
	<path opacity="0.5" stroke="#FFFFFF" stroke-width="0.1417" d="M6.255,33.93c-0.042-0.021-0.072-0.058-0.084-0.106
		c0-0.004,0-0.008,0-0.01c0.005-0.054,0.036-0.097,0.084-0.117c0.44-0.256,0.881-0.511,1.323-0.766c0.13-0.063,0.276-0.063,0.405,0
		c0.441,0.255,0.883,0.51,1.323,0.766c0.048,0.021,0.079,0.063,0.084,0.117c0,0.006,0,0.01-0.001,0.016
		c-0.013,0.045-0.042,0.079-0.083,0.101c-0.44,0.255-0.882,0.51-1.323,0.764c-0.129,0.065-0.275,0.065-0.405,0
		C7.136,34.439,6.695,34.185,6.255,33.93z"/>
	<g opacity="0.5">
		<path d="M9.753,33.534c-0.06,0-0.117-0.014-0.171-0.041l-0.293-0.171l-1.026-0.593l0.003-0.001l-0.003-0.11l0.37-0.213
			l0.953-0.549c0.052-0.026,0.109-0.042,0.167-0.042s0.116,0.015,0.171,0.042l0.735,0.424l0.584,0.338h-0.001l0.001,0.11
			L9.92,33.495C9.869,33.521,9.812,33.534,9.753,33.534L9.753,33.534z"/>
		<g>
			<path fill="#FFFFFF" d="M9.753,31.743c0.069,0,0.138,0.017,0.203,0.05c0.44,0.254,0.881,0.509,1.323,0.764
				c0.048,0.021,0.079,0.064,0.084,0.117c-0.001,0.005-0.001,0.012-0.001,0.017c-0.013,0.046-0.042,0.08-0.083,0.101
				c-0.441,0.254-0.882,0.51-1.323,0.765c-0.065,0.033-0.134,0.049-0.203,0.049s-0.138-0.016-0.203-0.049
				c-0.441-0.255-0.882-0.511-1.323-0.765c-0.041-0.021-0.071-0.058-0.084-0.105c0-0.005,0-0.009,0-0.012
				c0.005-0.053,0.036-0.096,0.084-0.117c0.441-0.255,0.882-0.51,1.323-0.764C9.615,31.76,9.684,31.743,9.753,31.743 M9.753,31.885
				c-0.047,0-0.094,0.012-0.139,0.035l-1.206,0.696l-0.11,0.063l0.868,0.491l0.455,0.263c0.038,0.019,0.085,0.03,0.132,0.03
				c0.048,0,0.095-0.011,0.14-0.034l0.321-0.187l0.994-0.575l-0.47-0.26l-0.853-0.492C9.847,31.896,9.8,31.885,9.753,31.885
				L9.753,31.885z"/>
		</g>
	</g>
	<g opacity="0.5">
		<path d="M11.726,32.395c-0.06,0-0.117-0.014-0.171-0.041l-0.658-0.381l-0.662-0.382l0.003-0.002l-0.003-0.109l0.662-0.382
			l0.662-0.382c0.05-0.025,0.108-0.039,0.167-0.039c0.059,0,0.117,0.014,0.172,0.04l1.318,0.761l-0.002,0.002l0.002,0.11
			l-0.772,0.446l-0.55,0.319C11.841,32.381,11.784,32.395,11.726,32.395L11.726,32.395z"/>
		<g>
			<path fill="#FFFFFF" d="M11.725,30.605c0.069,0,0.138,0.016,0.203,0.048c0.441,0.255,0.882,0.51,1.323,0.764
				c0.047,0.021,0.079,0.064,0.084,0.117c0,0.007-0.001,0.012-0.001,0.018c-0.012,0.045-0.042,0.08-0.083,0.1
				c-0.441,0.256-0.882,0.51-1.323,0.765c-0.065,0.033-0.134,0.049-0.203,0.049s-0.138-0.016-0.203-0.049
				c-0.441-0.255-0.882-0.509-1.323-0.765c-0.042-0.02-0.071-0.057-0.083-0.106c0-0.003,0-0.006,0-0.011
				c0.005-0.053,0.036-0.096,0.084-0.117c0.441-0.254,0.882-0.509,1.323-0.764C11.587,30.621,11.656,30.605,11.725,30.605
				 M11.725,30.747c-0.048,0-0.095,0.011-0.14,0.034l-1.315,0.76l0.825,0.465l0.499,0.288c0.038,0.019,0.084,0.03,0.132,0.03
				c0.048,0,0.095-0.011,0.14-0.034l0.317-0.184l0.999-0.577l-1.021-0.578l-0.302-0.175C11.82,30.758,11.773,30.747,11.725,30.747
				L11.725,30.747z"/>
		</g>
	</g>
	<g opacity="0.5">
		<path d="M13.698,31.258c-0.059,0-0.116-0.015-0.171-0.042l-1.321-0.764l0.003-0.001l-0.003-0.111l0.662-0.38l0.663-0.383
			c0.052-0.025,0.109-0.041,0.167-0.041s0.116,0.015,0.171,0.042l0.728,0.421l0.591,0.34l-0.002,0.002l0.002,0.11l-1.322,0.766
			C13.814,31.243,13.757,31.258,13.698,31.258L13.698,31.258z"/>
		<g>
			<path fill="#FFFFFF" d="M13.698,29.466c0.069,0,0.138,0.017,0.203,0.05c0.441,0.255,0.881,0.508,1.323,0.764
				c0.048,0.021,0.079,0.065,0.084,0.117c0,0.005,0,0.011-0.001,0.017c-0.012,0.045-0.042,0.081-0.083,0.101
				c-0.441,0.254-0.882,0.509-1.323,0.765c-0.065,0.033-0.134,0.05-0.203,0.05s-0.138-0.017-0.203-0.05
				c-0.441-0.256-0.883-0.511-1.324-0.765c-0.041-0.02-0.071-0.059-0.083-0.106c0-0.005,0-0.007,0-0.011
				c0.005-0.052,0.035-0.096,0.083-0.117c0.441-0.256,0.883-0.509,1.324-0.764C13.56,29.482,13.629,29.466,13.698,29.466
				 M13.698,29.607c-0.047,0-0.094,0.012-0.138,0.034l-0.531,0.306l-0.786,0.454l1.324,0.754c0.038,0.019,0.084,0.031,0.131,0.031
				s0.094-0.012,0.139-0.035c0.435-0.252,0.875-0.507,1.316-0.761l-0.8-0.451l-0.522-0.301
				C13.792,29.619,13.745,29.607,13.698,29.607L13.698,29.607z"/>
		</g>
	</g>
	<g opacity="0.5">
		<path d="M19.615,27.839c-0.058,0-0.116-0.014-0.17-0.041l-1.32-0.763l0.004-0.001l-0.004-0.11l1.324-0.764
			c0.05-0.025,0.109-0.039,0.167-0.039c0.059,0,0.117,0.014,0.172,0.042l1.319,0.762l-0.002,0.001l0.002,0.11l-1.323,0.764
			C19.73,27.826,19.673,27.839,19.615,27.839L19.615,27.839z"/>
		<g>
			<path fill="#FFFFFF" d="M19.615,26.05c0.068,0,0.138,0.016,0.203,0.048c0.44,0.256,0.882,0.511,1.323,0.765
				c0.048,0.021,0.079,0.064,0.084,0.117c0,0.007,0,0.011,0,0.018c-0.013,0.044-0.042,0.08-0.083,0.1
				c-0.441,0.255-0.883,0.509-1.323,0.765c-0.065,0.033-0.134,0.049-0.203,0.049c-0.069,0-0.138-0.016-0.203-0.049
				c-0.441-0.256-0.882-0.51-1.323-0.765c-0.041-0.02-0.071-0.058-0.083-0.106c0-0.004-0.001-0.008-0.001-0.011
				c0.005-0.053,0.036-0.096,0.083-0.117c0.441-0.254,0.882-0.509,1.323-0.765C19.478,26.066,19.546,26.05,19.615,26.05
				 M19.615,26.192c-0.048,0-0.096,0.011-0.141,0.033c-0.432,0.251-0.873,0.506-1.314,0.76l0.34,0.185l0.983,0.568
				c0.037,0.019,0.084,0.03,0.132,0.03c0.047,0,0.094-0.011,0.139-0.034l0.952-0.55l0.364-0.21
				c-0.441-0.243-0.883-0.498-1.324-0.754C19.71,26.203,19.663,26.192,19.615,26.192L19.615,26.192z"/>
		</g>
	</g>
	<g opacity="0.5">
		<path d="M17.642,28.979c-0.058,0-0.116-0.015-0.17-0.042l-1.319-0.762l0.002-0.001l-0.002-0.111l1.323-0.763
			c0.051-0.026,0.109-0.041,0.167-0.041c0.06,0,0.117,0.014,0.171,0.042l1.32,0.762h-0.001l0.001,0.112l-1.324,0.763
			C17.758,28.965,17.701,28.979,17.642,28.979L17.642,28.979z"/>
		<g>
			<path fill="#FFFFFF" d="M17.643,27.188c0.069,0,0.138,0.017,0.203,0.049c0.441,0.255,0.883,0.509,1.323,0.764
				c0.048,0.023,0.079,0.065,0.084,0.117c0,0.006,0,0.012,0,0.018c-0.013,0.044-0.042,0.08-0.083,0.102
				c-0.44,0.253-0.882,0.508-1.323,0.763c-0.065,0.034-0.134,0.05-0.203,0.05s-0.138-0.017-0.203-0.05
				c-0.441-0.255-0.882-0.51-1.323-0.763c-0.042-0.021-0.071-0.06-0.083-0.107c0-0.004-0.001-0.007-0.001-0.012
				c0.005-0.052,0.036-0.094,0.084-0.117c0.44-0.255,0.882-0.509,1.323-0.764C17.505,27.205,17.574,27.188,17.643,27.188
				 M17.643,27.33c-0.048,0-0.095,0.011-0.14,0.034l-0.607,0.351l-0.708,0.409l1.323,0.754c0.039,0.02,0.085,0.031,0.132,0.031
				s0.093-0.012,0.137-0.035l1.318-0.76L18.4,27.721l-0.626-0.361C17.737,27.341,17.69,27.33,17.643,27.33L17.643,27.33z"/>
		</g>
	</g>
	<g opacity="0.5">
		<path d="M15.67,30.116c-0.06,0-0.117-0.014-0.171-0.041l-1.32-0.762l0.002-0.002l-0.002-0.109l0.661-0.382l0.663-0.382
			c0.051-0.025,0.108-0.039,0.167-0.039c0.059,0,0.117,0.014,0.172,0.04l0.586,0.339l0.732,0.423l-0.002,0.001l0.002,0.11
			l-0.839,0.485l-0.484,0.278C15.786,30.103,15.729,30.116,15.67,30.116L15.67,30.116z"/>
		<g>
			<path fill="#FFFFFF" d="M15.67,28.328c0.069,0,0.138,0.016,0.203,0.048c0.441,0.254,0.882,0.511,1.323,0.764
				c0.048,0.023,0.078,0.064,0.083,0.117c0,0.006,0,0.012,0,0.018c-0.013,0.045-0.042,0.08-0.083,0.1
				c-0.441,0.255-0.882,0.51-1.323,0.765c-0.065,0.033-0.134,0.049-0.203,0.049s-0.138-0.017-0.203-0.049
				c-0.441-0.255-0.882-0.51-1.323-0.765c-0.042-0.02-0.071-0.057-0.083-0.105c0-0.005,0-0.008,0-0.012
				c0.005-0.053,0.035-0.094,0.083-0.117c0.441-0.253,0.882-0.51,1.323-0.764C15.532,28.344,15.601,28.328,15.67,28.328
				 M15.67,28.469c-0.048,0-0.095,0.011-0.14,0.034l-0.54,0.312l-0.775,0.448l0.662,0.371l0.662,0.382
				c0.038,0.019,0.084,0.03,0.132,0.03c0.048,0,0.095-0.011,0.14-0.034l1.316-0.76l-0.789-0.444l-0.535-0.309
				C15.765,28.48,15.718,28.469,15.67,28.469L15.67,28.469z"/>
		</g>
	</g>
	<g opacity="0.5">
		<path d="M21.588,26.701c-0.06,0-0.117-0.015-0.172-0.042l-0.556-0.321l-0.764-0.442l0.002-0.001l-0.002-0.109l0.41-0.238
			l0.913-0.526c0.052-0.026,0.109-0.04,0.168-0.04c0.058,0,0.116,0.014,0.17,0.042l1.32,0.763h-0.002l0.002,0.11l-1.323,0.764
			C21.704,26.686,21.646,26.701,21.588,26.701L21.588,26.701z"/>
		<g>
			<path fill="#FFFFFF" d="M21.587,24.911c0.069,0,0.138,0.016,0.203,0.049c0.441,0.253,0.882,0.509,1.323,0.764
				c0.048,0.022,0.079,0.065,0.083,0.118c0,0.005,0,0.012,0,0.017c-0.012,0.044-0.042,0.079-0.083,0.099
				c-0.441,0.255-0.882,0.511-1.323,0.765c-0.065,0.033-0.134,0.05-0.203,0.05s-0.138-0.017-0.203-0.05
				c-0.441-0.254-0.881-0.51-1.323-0.765c-0.042-0.02-0.07-0.057-0.083-0.104c0-0.004,0-0.008,0-0.011
				c0.005-0.053,0.037-0.096,0.084-0.118c0.442-0.255,0.882-0.511,1.323-0.764C21.45,24.927,21.519,24.911,21.587,24.911
				 M21.587,25.053c-0.048,0-0.095,0.011-0.14,0.034l-0.856,0.494l-0.46,0.266l0.553,0.308l0.77,0.444
				c0.039,0.02,0.085,0.031,0.132,0.031c0.047,0,0.093-0.012,0.138-0.034l0.977-0.565l0.34-0.196l-0.239-0.126l-1.083-0.625
				C21.682,25.064,21.635,25.053,21.587,25.053L21.587,25.053z"/>
		</g>
	</g>
	<g opacity="0.5">
		<path d="M23.56,25.563c-0.059,0-0.116-0.015-0.171-0.042l-0.438-0.253l-0.881-0.511l0.003-0.002l-0.003-0.109l1.322-0.764
			c0.051-0.026,0.109-0.04,0.167-0.04c0.058,0,0.117,0.014,0.17,0.041l1.319,0.763l-0.002,0.001l0.002,0.11l-0.882,0.511
			l-0.441,0.254C23.676,25.548,23.618,25.563,23.56,25.563L23.56,25.563z"/>
		<g>
			<path fill="#FFFFFF" d="M23.56,23.771c0.069,0,0.138,0.016,0.203,0.049c0.441,0.256,0.882,0.511,1.323,0.764
				c0.048,0.023,0.08,0.064,0.084,0.117c0,0.008,0,0.012,0,0.019c-0.012,0.044-0.042,0.079-0.084,0.099
				c-0.44,0.257-0.881,0.51-1.323,0.766c-0.065,0.033-0.134,0.05-0.203,0.05s-0.138-0.017-0.203-0.05
				c-0.441-0.256-0.882-0.509-1.323-0.766c-0.042-0.02-0.071-0.057-0.084-0.105c0-0.003,0-0.007,0-0.012
				c0.005-0.053,0.036-0.094,0.084-0.117c0.44-0.253,0.882-0.508,1.323-0.764C23.422,23.788,23.491,23.771,23.56,23.771
				 M23.56,23.913c-0.048,0-0.094,0.011-0.139,0.034c-0.434,0.252-0.875,0.507-1.316,0.76l0.774,0.437l0.549,0.318
				c0.038,0.019,0.084,0.031,0.131,0.031s0.094-0.012,0.139-0.035l0.504-0.291l0.812-0.471c-0.44-0.242-0.881-0.497-1.323-0.753
				C23.654,23.924,23.607,23.913,23.56,23.913L23.56,23.913z"/>
		</g>
	</g>
	<g opacity="0.5">
		<path d="M25.533,24.424c-0.06,0-0.117-0.015-0.171-0.042l-1.32-0.764l0.003-0.001l-0.003-0.107l0.662-0.383l0.662-0.381
			c0.051-0.026,0.108-0.042,0.168-0.042c0.059,0,0.116,0.015,0.171,0.042l0.658,0.38l0.661,0.383l-0.005,0.001l0.005,0.107
			l-1.322,0.765C25.649,24.409,25.592,24.424,25.533,24.424L25.533,24.424z"/>
		<g>
			<path fill="#FFFFFF" d="M25.532,22.634c0.069,0,0.138,0.017,0.204,0.05c0.441,0.255,0.881,0.508,1.322,0.764
				c0.048,0.021,0.08,0.064,0.084,0.117c-0.001,0.005-0.001,0.011-0.001,0.017c-0.012,0.043-0.042,0.081-0.083,0.099
				c-0.441,0.255-0.881,0.511-1.322,0.765c-0.065,0.033-0.134,0.05-0.204,0.05c-0.069,0-0.138-0.017-0.203-0.05
				c-0.441-0.254-0.882-0.51-1.323-0.765c-0.041-0.018-0.071-0.058-0.083-0.106c0-0.003,0-0.006,0-0.009
				c0.005-0.053,0.036-0.096,0.084-0.117c0.44-0.256,0.882-0.509,1.323-0.764C25.394,22.65,25.463,22.634,25.532,22.634
				 M25.532,22.775c-0.047,0-0.094,0.012-0.139,0.035l-0.518,0.298l-0.798,0.461l0.276,0.147l1.046,0.604
				c0.038,0.02,0.085,0.031,0.132,0.031c0.048,0,0.095-0.012,0.139-0.035l0.824-0.477l0.492-0.284l-0.808-0.454l-0.515-0.297
				C25.627,22.787,25.58,22.775,25.532,22.775L25.532,22.775z"/>
		</g>
	</g>
	<g opacity="0.5">
		<path d="M27.505,25.563c-0.06,0-0.117-0.015-0.172-0.042l-0.438-0.253l-0.882-0.511l0.002-0.001l-0.002-0.11l1.323-0.764
			c0.051-0.026,0.109-0.04,0.168-0.04c0.058,0,0.116,0.014,0.17,0.041l1.32,0.763l-0.002,0.001l0.002,0.11l-0.836,0.483
			l-0.488,0.281C27.621,25.548,27.563,25.563,27.505,25.563L27.505,25.563z"/>
		<g>
			<path fill="#FFFFFF" d="M27.505,23.771c0.069,0,0.138,0.016,0.203,0.049c0.441,0.256,0.882,0.511,1.324,0.764
				c0.048,0.023,0.078,0.064,0.083,0.117c0,0.008,0,0.012-0.001,0.019c-0.012,0.044-0.042,0.079-0.083,0.099
				c-0.441,0.257-0.883,0.51-1.324,0.766c-0.065,0.033-0.134,0.05-0.203,0.05c-0.069,0-0.138-0.017-0.203-0.05
				c-0.441-0.256-0.882-0.509-1.323-0.766c-0.042-0.02-0.071-0.057-0.083-0.105c0-0.003,0-0.007-0.001-0.012
				c0.005-0.053,0.036-0.094,0.084-0.117c0.441-0.253,0.881-0.508,1.323-0.764C27.367,23.788,27.436,23.771,27.505,23.771
				 M27.505,23.913c-0.048,0-0.095,0.011-0.139,0.034c-0.435,0.252-0.875,0.507-1.316,0.76l0.79,0.446l0.534,0.309
				c0.038,0.019,0.084,0.031,0.132,0.031c0.047,0,0.094-0.012,0.138-0.034l0.6-0.347l0.717-0.415
				c-0.441-0.242-0.882-0.497-1.324-0.753C27.599,23.924,27.552,23.913,27.505,23.913L27.505,23.913z"/>
		</g>
	</g>
	<g opacity="0.5">
		<path d="M25.533,26.701c-0.06,0-0.117-0.015-0.172-0.042l-0.659-0.38l-0.661-0.383l0.003-0.001l-0.003-0.109l1.323-0.764
			c0.052-0.026,0.109-0.04,0.168-0.04c0.059,0,0.116,0.014,0.171,0.042l1.319,0.763h-0.002l0.002,0.11l-0.661,0.383L25.7,26.66
			C25.648,26.686,25.591,26.701,25.533,26.701L25.533,26.701z"/>
		<g>
			<path fill="#FFFFFF" d="M25.532,24.911c0.069,0,0.138,0.016,0.204,0.049c0.441,0.253,0.881,0.509,1.322,0.764
				c0.048,0.022,0.08,0.065,0.084,0.118c-0.001,0.005-0.001,0.012-0.001,0.017c-0.012,0.044-0.042,0.079-0.083,0.099
				c-0.441,0.255-0.881,0.511-1.322,0.765c-0.065,0.033-0.134,0.05-0.204,0.05c-0.069,0-0.138-0.017-0.203-0.05
				c-0.441-0.254-0.882-0.51-1.323-0.765c-0.041-0.02-0.071-0.057-0.083-0.104c0-0.004,0-0.008,0-0.011
				c0.005-0.053,0.036-0.096,0.084-0.118c0.44-0.255,0.882-0.511,1.323-0.764C25.394,24.927,25.463,24.911,25.532,24.911
				 M25.532,25.053c-0.047,0-0.095,0.011-0.14,0.034c-0.37,0.212-0.748,0.431-1.125,0.649l-0.19,0.11l0.192,0.099l1.131,0.654
				c0.038,0.019,0.085,0.031,0.132,0.031s0.094-0.012,0.139-0.035l0.844-0.488l0.472-0.273l-0.391-0.214l-0.931-0.537
				C25.627,25.064,25.58,25.053,25.532,25.053L25.532,25.053z"/>
		</g>
	</g>
	<g opacity="0.5">
		<path d="M23.56,27.839c-0.059,0-0.117-0.014-0.171-0.041l-1.32-0.763l0.003-0.001l-0.003-0.11l1.323-0.764
			c0.05-0.025,0.107-0.039,0.167-0.039c0.06,0,0.117,0.014,0.171,0.04l1.319,0.763l-0.002,0.001l0.002,0.11l-1.323,0.764
			C23.677,27.826,23.618,27.839,23.56,27.839L23.56,27.839z"/>
		<g>
			<path fill="#FFFFFF" d="M23.56,26.05c0.069,0,0.138,0.016,0.203,0.048c0.441,0.256,0.882,0.511,1.323,0.765
				c0.048,0.021,0.08,0.064,0.084,0.117c0,0.007,0,0.011,0,0.018c-0.012,0.044-0.042,0.08-0.084,0.1
				c-0.44,0.255-0.881,0.509-1.323,0.765c-0.065,0.033-0.134,0.049-0.203,0.049s-0.138-0.016-0.203-0.049
				c-0.441-0.256-0.882-0.51-1.323-0.765c-0.042-0.02-0.071-0.058-0.084-0.106c0-0.004,0-0.008,0-0.011
				c0.005-0.053,0.036-0.096,0.084-0.117c0.44-0.254,0.882-0.509,1.323-0.765C23.422,26.066,23.491,26.05,23.56,26.05 M23.56,26.192
				c-0.048,0-0.096,0.011-0.14,0.033l-1.314,0.76l0.551,0.308l0.772,0.446c0.037,0.019,0.084,0.03,0.131,0.03
				c0.048,0,0.095-0.011,0.14-0.034L24.45,27.3l0.564-0.326l-1.323-0.754C23.655,26.203,23.608,26.192,23.56,26.192L23.56,26.192z"
				/>
		</g>
	</g>
	<g opacity="0.5">
		<path d="M17.643,31.258c-0.058,0-0.116-0.015-0.171-0.042l-1.319-0.764l0.003-0.001l-0.003-0.111l0.719-0.415l0.604-0.348
			c0.052-0.025,0.109-0.041,0.167-0.041c0.059,0,0.116,0.015,0.171,0.042l0.716,0.414l0.604,0.347l-0.002,0.002l0.002,0.11
			l-1.323,0.766C17.759,31.243,17.701,31.258,17.643,31.258L17.643,31.258z"/>
		<g>
			<path fill="#FFFFFF" d="M17.643,29.466c0.069,0,0.138,0.017,0.203,0.05c0.441,0.255,0.883,0.508,1.323,0.764
				c0.048,0.021,0.079,0.065,0.084,0.117c0,0.005,0,0.011,0,0.017c-0.013,0.045-0.042,0.081-0.083,0.101
				c-0.44,0.254-0.882,0.509-1.323,0.765c-0.065,0.033-0.134,0.05-0.203,0.05s-0.138-0.017-0.203-0.05
				c-0.441-0.256-0.882-0.511-1.323-0.765c-0.042-0.02-0.071-0.059-0.083-0.106c0-0.005-0.001-0.007-0.001-0.011
				c0.005-0.052,0.036-0.096,0.084-0.117c0.44-0.256,0.882-0.509,1.323-0.764C17.505,29.482,17.574,29.466,17.643,29.466
				 M17.643,29.607c-0.047,0-0.094,0.012-0.139,0.035l-0.512,0.295l-0.804,0.464l1.323,0.754c0.038,0.019,0.084,0.031,0.132,0.031
				c0.047,0,0.094-0.012,0.138-0.035l1.317-0.761l-0.788-0.444l-0.536-0.309C17.736,29.619,17.689,29.607,17.643,29.607
				L17.643,29.607z"/>
		</g>
	</g>
	<g opacity="0.5">
		<path d="M19.615,30.116c-0.058,0-0.116-0.014-0.17-0.041l-1.32-0.762l0.002-0.002l-0.002-0.109l0.662-0.382l0.662-0.382
			c0.05-0.025,0.109-0.039,0.167-0.039c0.059,0,0.117,0.014,0.172,0.04l0.585,0.339l0.733,0.423l-0.002,0.001l0.002,0.11
			l-0.839,0.485l-0.484,0.278C19.731,30.103,19.673,30.116,19.615,30.116L19.615,30.116z"/>
		<g>
			<path fill="#FFFFFF" d="M19.615,28.328c0.068,0,0.138,0.016,0.203,0.048c0.44,0.254,0.882,0.511,1.323,0.764
				c0.048,0.023,0.079,0.064,0.084,0.117c0,0.006,0,0.012,0,0.018c-0.013,0.045-0.042,0.08-0.083,0.1
				c-0.441,0.255-0.883,0.51-1.323,0.765c-0.065,0.033-0.134,0.049-0.203,0.049c-0.069,0-0.138-0.016-0.203-0.049
				c-0.441-0.255-0.882-0.51-1.323-0.765c-0.041-0.02-0.071-0.057-0.083-0.105c0-0.005-0.001-0.008-0.001-0.012
				c0.005-0.053,0.036-0.094,0.083-0.117c0.441-0.253,0.882-0.51,1.323-0.764C19.478,28.344,19.546,28.328,19.615,28.328
				 M19.615,28.469c-0.048,0-0.095,0.012-0.141,0.034l-0.526,0.304l-0.79,0.456l1.324,0.753c0.038,0.019,0.084,0.03,0.132,0.03
				c0.047,0,0.094-0.011,0.139-0.034l1.316-0.76l-0.834-0.47l-0.489-0.283C19.71,28.481,19.663,28.469,19.615,28.469L19.615,28.469z
				"/>
		</g>
	</g>
	<g opacity="0.5">
		<path d="M21.587,28.979c-0.058,0-0.116-0.015-0.17-0.042l-1.32-0.762l0.002-0.001l-0.002-0.111l0.882-0.509L21.42,27.3
			c0.051-0.026,0.109-0.041,0.167-0.041c0.06,0,0.117,0.014,0.171,0.042l1.32,0.762h-0.001l0.001,0.112l-1.324,0.763
			C21.703,28.965,21.646,28.979,21.587,28.979L21.587,28.979z"/>
		<g>
			<path fill="#FFFFFF" d="M21.587,27.188c0.069,0,0.138,0.017,0.203,0.049c0.441,0.255,0.882,0.509,1.323,0.764
				c0.048,0.023,0.079,0.065,0.083,0.117c0,0.006,0,0.012,0,0.018c-0.012,0.044-0.042,0.08-0.083,0.102
				C22.672,28.49,22.231,28.745,21.79,29c-0.065,0.034-0.134,0.051-0.203,0.051S21.45,29.034,21.384,29
				c-0.441-0.255-0.881-0.51-1.323-0.763c-0.042-0.021-0.07-0.06-0.083-0.107c0-0.004,0-0.007,0-0.012
				c0.005-0.052,0.037-0.094,0.084-0.117c0.442-0.255,0.882-0.509,1.323-0.764C21.45,27.205,21.519,27.188,21.587,27.188
				 M21.587,27.33c-0.047,0-0.095,0.011-0.14,0.034l-1.316,0.76l1.021,0.579l0.303,0.175c0.039,0.02,0.085,0.031,0.132,0.031
				s0.093-0.012,0.137-0.035l1.318-0.76l-0.679-0.382l-0.645-0.373C21.682,27.341,21.635,27.33,21.587,27.33L21.587,27.33z"/>
		</g>
	</g>
	<g opacity="0.5">
		<path d="M15.67,32.395c-0.059,0-0.116-0.014-0.171-0.041l-0.659-0.381l-0.66-0.382l0.003-0.002l-0.003-0.11l0.66-0.38l0.662-0.383
			c0.05-0.024,0.109-0.038,0.167-0.038c0.06,0,0.117,0.014,0.172,0.04l0.657,0.381l0.662,0.382l-0.002,0.001l0.002,0.11
			l-0.662,0.382l-0.662,0.383C15.787,32.381,15.729,32.395,15.67,32.395L15.67,32.395z"/>
		<g>
			<path fill="#FFFFFF" d="M15.67,30.605c0.069,0,0.138,0.016,0.203,0.048c0.441,0.255,0.882,0.51,1.323,0.764
				c0.048,0.021,0.078,0.064,0.083,0.117c0,0.007,0,0.012,0,0.018c-0.013,0.045-0.042,0.08-0.083,0.1
				c-0.441,0.256-0.882,0.51-1.323,0.765c-0.065,0.033-0.134,0.049-0.203,0.049s-0.138-0.017-0.203-0.049
				c-0.441-0.255-0.882-0.509-1.323-0.765c-0.042-0.02-0.071-0.057-0.083-0.106c0-0.003,0-0.006,0-0.011
				c0.005-0.053,0.035-0.096,0.083-0.117c0.441-0.254,0.882-0.509,1.323-0.764C15.532,30.621,15.601,30.605,15.67,30.605
				 M15.67,30.747c-0.048,0-0.095,0.011-0.14,0.034l-1.315,0.76l0.832,0.469l0.492,0.284c0.038,0.019,0.084,0.03,0.132,0.03
				c0.048,0,0.095-0.011,0.14-0.034l0.499-0.289l0.817-0.472l-1.323-0.753C15.765,30.758,15.718,30.747,15.67,30.747L15.67,30.747z"
				/>
		</g>
	</g>
	<g opacity="0.5">
		<path d="M13.698,33.534c-0.06,0-0.117-0.014-0.171-0.041l-1.32-0.764l0.003-0.001l-0.003-0.11l1.324-0.763
			c0.052-0.026,0.109-0.042,0.167-0.042s0.116,0.015,0.171,0.042l0.735,0.424l0.584,0.338h-0.001l0.001,0.11l-1.323,0.766
			C13.814,33.521,13.757,33.534,13.698,33.534L13.698,33.534z"/>
		<g>
			<path fill="#FFFFFF" d="M13.698,31.743c0.069,0,0.138,0.017,0.203,0.05c0.441,0.254,0.881,0.509,1.323,0.764
				c0.048,0.021,0.079,0.064,0.084,0.117c0,0.005,0,0.012-0.001,0.017c-0.012,0.046-0.042,0.08-0.083,0.101
				c-0.441,0.254-0.882,0.51-1.323,0.765c-0.065,0.033-0.134,0.049-0.203,0.049s-0.138-0.016-0.203-0.049
				c-0.441-0.255-0.883-0.511-1.324-0.765c-0.041-0.021-0.071-0.058-0.083-0.105c0-0.005,0-0.009,0-0.012
				c0.005-0.053,0.035-0.096,0.083-0.117c0.441-0.255,0.883-0.51,1.324-0.764C13.56,31.76,13.629,31.743,13.698,31.743
				 M13.698,31.885c-0.047,0-0.094,0.012-0.138,0.034l-1.318,0.76l1.037,0.588l0.287,0.166c0.038,0.019,0.084,0.03,0.132,0.03
				c0.047,0,0.095-0.011,0.14-0.034l0.422-0.245l0.893-0.516l-0.389-0.214l-0.934-0.539C13.792,31.896,13.745,31.885,13.698,31.885
				L13.698,31.885z"/>
		</g>
	</g>
	<g opacity="0.5">
		<path d="M11.726,34.672c-0.06,0-0.117-0.014-0.171-0.041l-0.659-0.38l-0.661-0.382l0.004-0.002l-0.004-0.109l0.661-0.383
			l0.662-0.383c0.051-0.024,0.108-0.037,0.167-0.037c0.059,0,0.116,0.013,0.171,0.04l0.658,0.38l0.662,0.383v0.11l-0.662,0.383
			l-0.662,0.381C11.842,34.658,11.784,34.672,11.726,34.672L11.726,34.672z"/>
		<g>
			<path fill="#FFFFFF" d="M11.725,32.883c0.069,0,0.138,0.016,0.203,0.048c0.441,0.255,0.882,0.51,1.323,0.766
				c0.047,0.021,0.079,0.063,0.084,0.117c0,0.006-0.001,0.01-0.001,0.016c-0.012,0.045-0.042,0.079-0.083,0.101
				c-0.441,0.255-0.882,0.51-1.323,0.764c-0.065,0.033-0.134,0.049-0.203,0.049s-0.138-0.016-0.203-0.049
				c-0.441-0.254-0.882-0.509-1.323-0.764c-0.042-0.021-0.071-0.058-0.083-0.106c0-0.004,0-0.008,0-0.01
				c0.005-0.054,0.036-0.097,0.084-0.117c0.441-0.256,0.882-0.511,1.323-0.766C11.587,32.899,11.656,32.883,11.725,32.883
				 M11.725,33.025c-0.048,0-0.095,0.011-0.14,0.033l-1.314,0.761l0.34,0.185l0.982,0.566c0.038,0.019,0.084,0.03,0.132,0.03
				c0.048,0,0.095-0.011,0.14-0.034l0.979-0.565l0.337-0.195l-1.323-0.754C11.821,33.036,11.773,33.025,11.725,33.025L11.725,33.025
				z"/>
		</g>
	</g>
	<g opacity="0.5">
		<path d="M9.753,35.811c-0.059,0-0.116-0.015-0.171-0.042l-0.526-0.303l-0.793-0.458l0.003-0.002l-0.003-0.11l1.322-0.766
			c0.052-0.025,0.109-0.039,0.167-0.039s0.116,0.014,0.171,0.041l1.319,0.764l-0.002,0.001l0.002,0.111l-0.793,0.458L9.92,35.771
			C9.869,35.796,9.812,35.811,9.753,35.811L9.753,35.811z"/>
		<g>
			<path fill="#FFFFFF" d="M9.753,34.021c0.069,0,0.138,0.016,0.203,0.049c0.44,0.256,0.881,0.511,1.323,0.765
				c0.048,0.022,0.079,0.064,0.084,0.117c-0.001,0.007-0.001,0.012-0.001,0.018c-0.013,0.045-0.042,0.079-0.083,0.1
				c-0.441,0.256-0.882,0.509-1.323,0.764c-0.065,0.033-0.134,0.05-0.203,0.05s-0.138-0.017-0.203-0.05
				c-0.441-0.255-0.882-0.508-1.323-0.764c-0.041-0.021-0.071-0.057-0.084-0.106c0-0.003,0-0.008,0-0.011
				c0.005-0.053,0.036-0.095,0.084-0.117c0.441-0.254,0.882-0.509,1.323-0.765C9.615,34.037,9.684,34.021,9.753,34.021
				 M9.753,34.162c-0.047,0-0.095,0.011-0.14,0.034l-1.315,0.761l0.793,0.447l0.529,0.306c0.038,0.019,0.085,0.031,0.132,0.031
				s0.094-0.012,0.139-0.035l0.605-0.35l0.711-0.41c-0.441-0.243-0.883-0.498-1.323-0.754C9.848,34.173,9.801,34.162,9.753,34.162
				L9.753,34.162z"/>
		</g>
	</g>
	<g opacity="0.5">
		<path d="M29.478,26.701c-0.06,0-0.117-0.015-0.172-0.042l-0.659-0.38l-0.661-0.383l0.003-0.001l-0.003-0.109l1.323-0.764
			c0.051-0.026,0.109-0.04,0.168-0.04c0.058,0,0.116,0.014,0.17,0.042l0.937,0.541l0.383,0.222h-0.002l0.002,0.11L29.923,26.5
			l-0.278,0.16C29.594,26.686,29.536,26.701,29.478,26.701L29.478,26.701z"/>
		<g>
			<path fill="#FFFFFF" d="M29.477,24.911c0.069,0,0.138,0.016,0.203,0.049c0.441,0.253,0.881,0.509,1.323,0.764
				c0.047,0.022,0.078,0.065,0.084,0.118c0,0.005,0,0.012-0.001,0.017c-0.013,0.044-0.042,0.079-0.083,0.099
				c-0.442,0.255-0.882,0.511-1.323,0.765c-0.065,0.033-0.134,0.05-0.203,0.05s-0.138-0.017-0.203-0.05
				c-0.441-0.254-0.882-0.51-1.324-0.765c-0.041-0.02-0.071-0.057-0.083-0.104c0-0.004,0-0.008-0.001-0.011
				c0.005-0.053,0.037-0.096,0.084-0.118c0.441-0.255,0.882-0.511,1.324-0.764C29.339,24.927,29.408,24.911,29.477,24.911
				 M29.477,25.053c-0.047,0-0.094,0.011-0.139,0.034l-0.942,0.544l-0.374,0.216l0.481,0.266l0.842,0.486
				c0.038,0.02,0.085,0.031,0.132,0.031c0.047,0,0.094-0.012,0.139-0.035l0.719-0.415l0.598-0.346l-0.489-0.271l-0.833-0.481
				C29.572,25.064,29.525,25.053,29.477,25.053L29.477,25.053z"/>
		</g>
	</g>
	<g opacity="0.5">
		<path d="M27.505,27.839c-0.059,0-0.117-0.014-0.171-0.041l-1.32-0.763l0.003-0.001l-0.003-0.11l1.323-0.764
			c0.05-0.025,0.108-0.039,0.167-0.039s0.117,0.014,0.172,0.04l1.319,0.763l-0.002,0.001l0.002,0.11l-1.324,0.764
			C27.622,27.826,27.563,27.839,27.505,27.839L27.505,27.839z"/>
		<g>
			<path fill="#FFFFFF" d="M27.505,26.05c0.069,0,0.138,0.016,0.203,0.048c0.441,0.256,0.882,0.511,1.324,0.765
				c0.048,0.021,0.078,0.064,0.083,0.117c0,0.007,0,0.011-0.001,0.018c-0.012,0.044-0.042,0.08-0.083,0.1
				c-0.441,0.255-0.883,0.509-1.324,0.765c-0.065,0.033-0.134,0.049-0.203,0.049c-0.069,0-0.138-0.016-0.203-0.049
				c-0.441-0.256-0.882-0.51-1.323-0.765c-0.042-0.02-0.071-0.058-0.083-0.106c0-0.004,0-0.008-0.001-0.011
				c0.005-0.053,0.036-0.096,0.084-0.117c0.441-0.254,0.881-0.509,1.323-0.765C27.367,26.066,27.436,26.05,27.505,26.05
				 M27.505,26.192c-0.048,0-0.096,0.011-0.141,0.033l-1.314,0.76l0.471,0.261l0.853,0.493c0.037,0.019,0.084,0.03,0.132,0.03
				c0.047,0,0.094-0.011,0.139-0.034l0.895-0.518l0.422-0.243c-0.441-0.243-0.883-0.498-1.324-0.754
				C27.6,26.203,27.553,26.192,27.505,26.192L27.505,26.192z"/>
		</g>
	</g>
	<g opacity="0.5">
		<path d="M25.533,28.979c-0.06,0-0.117-0.015-0.172-0.042l-1.319-0.762l0.002-0.001l-0.002-0.111l1.322-0.763
			c0.052-0.026,0.109-0.041,0.168-0.041c0.059,0,0.116,0.014,0.171,0.042l0.658,0.38l0.662,0.382h-0.001l0.001,0.112L25.7,28.938
			C25.648,28.965,25.591,28.979,25.533,28.979L25.533,28.979z"/>
		<g>
			<path fill="#FFFFFF" d="M25.532,27.188c0.069,0,0.138,0.016,0.204,0.049c0.441,0.255,0.881,0.509,1.322,0.764
				c0.048,0.023,0.08,0.065,0.084,0.117c-0.001,0.006-0.001,0.012-0.001,0.018c-0.012,0.044-0.042,0.08-0.083,0.102
				c-0.441,0.253-0.881,0.508-1.322,0.763c-0.065,0.034-0.134,0.05-0.204,0.05c-0.069,0-0.138-0.017-0.203-0.05
				c-0.441-0.255-0.882-0.51-1.323-0.763c-0.041-0.021-0.071-0.06-0.083-0.107c0-0.004,0-0.007,0-0.012
				c0.005-0.052,0.036-0.094,0.084-0.117c0.44-0.255,0.882-0.509,1.323-0.764C25.394,27.205,25.463,27.188,25.532,27.188
				 M25.532,27.33c-0.048,0-0.095,0.011-0.14,0.034l-0.594,0.344l-0.721,0.416l1.322,0.754c0.039,0.02,0.085,0.031,0.132,0.031
				c0.047,0,0.094-0.012,0.139-0.035l0.158-0.092l1.158-0.668l-0.661-0.373l-0.661-0.382C25.627,27.341,25.581,27.33,25.532,27.33
				L25.532,27.33z"/>
		</g>
	</g>
	<g opacity="0.5">
		<path d="M19.615,32.395c-0.059,0-0.116-0.014-0.171-0.041l-0.658-0.381l-0.662-0.382l0.003-0.002l-0.003-0.109l0.662-0.382
			l0.662-0.382c0.05-0.025,0.109-0.039,0.167-0.039s0.117,0.014,0.172,0.04l0.657,0.381l0.661,0.38l-0.003,0.002l0.003,0.11
			l-0.661,0.382l-0.662,0.383C19.731,32.381,19.674,32.395,19.615,32.395L19.615,32.395z"/>
		<g>
			<path fill="#FFFFFF" d="M19.615,30.605c0.068,0,0.138,0.016,0.203,0.048c0.44,0.255,0.882,0.51,1.323,0.764
				c0.048,0.021,0.079,0.064,0.084,0.117c0,0.007,0,0.012,0,0.018c-0.013,0.045-0.042,0.08-0.083,0.1
				c-0.441,0.256-0.883,0.51-1.323,0.765c-0.065,0.033-0.134,0.049-0.203,0.049c-0.069,0-0.138-0.016-0.203-0.049
				c-0.441-0.255-0.882-0.509-1.323-0.765c-0.041-0.02-0.071-0.057-0.083-0.106c0-0.003-0.001-0.006-0.001-0.011
				c0.005-0.053,0.036-0.096,0.083-0.117c0.441-0.254,0.882-0.509,1.323-0.764C19.478,30.621,19.546,30.605,19.615,30.605
				 M19.615,30.747c-0.048,0-0.095,0.011-0.141,0.034L18.16,31.54l0.818,0.462l0.505,0.292c0.038,0.019,0.084,0.03,0.132,0.03
				c0.047,0,0.094-0.011,0.139-0.034l0.587-0.34l0.728-0.421l-1.323-0.753C19.71,30.758,19.663,30.747,19.615,30.747L19.615,30.747z
				"/>
		</g>
	</g>
	<g opacity="0.5">
		<path d="M21.587,31.258c-0.059,0-0.116-0.015-0.171-0.042l-0.24-0.139l-1.08-0.625l0.002-0.001l-0.002-0.111l0.662-0.38
			l0.662-0.383c0.051-0.025,0.109-0.041,0.167-0.041c0.058,0,0.116,0.015,0.17,0.042l0.716,0.414l0.604,0.347l-0.002,0.002
			l0.002,0.11l-1.323,0.766C21.703,31.243,21.646,31.258,21.587,31.258L21.587,31.258z"/>
		<g>
			<path fill="#FFFFFF" d="M21.587,29.466c0.069,0,0.138,0.017,0.203,0.05c0.441,0.255,0.882,0.508,1.323,0.764
				c0.048,0.021,0.079,0.065,0.083,0.117c0,0.005,0,0.011,0,0.017c-0.012,0.045-0.042,0.081-0.083,0.101
				c-0.441,0.254-0.882,0.509-1.323,0.765c-0.065,0.033-0.134,0.05-0.203,0.05s-0.138-0.017-0.203-0.05
				c-0.441-0.256-0.881-0.511-1.323-0.765c-0.042-0.02-0.07-0.059-0.083-0.106c0-0.005,0-0.007,0-0.011
				c0.005-0.052,0.037-0.096,0.084-0.117c0.442-0.256,0.882-0.509,1.323-0.764C21.45,29.482,21.519,29.466,21.587,29.466
				 M21.587,29.607c-0.047,0-0.094,0.012-0.139,0.035l-0.481,0.277l-0.836,0.482c0.442,0.243,0.882,0.498,1.324,0.754
				c0.038,0.019,0.084,0.031,0.132,0.031s0.094-0.012,0.138-0.034c0.435-0.252,0.876-0.507,1.317-0.761l-0.798-0.45l-0.525-0.303
				C21.681,29.619,21.635,29.607,21.587,29.607L21.587,29.607z"/>
		</g>
	</g>
	<g opacity="0.5">
		<path d="M23.56,30.116c-0.059,0-0.117-0.014-0.171-0.041l-0.48-0.277l-0.839-0.485l0.002-0.002l-0.002-0.109l0.732-0.423
			l0.59-0.341c0.051-0.025,0.108-0.039,0.167-0.039s0.117,0.014,0.172,0.04l0.728,0.42l0.59,0.342l-0.002,0.001l0.002,0.11
			l-1.323,0.763C23.676,30.103,23.618,30.116,23.56,30.116L23.56,30.116z"/>
		<g>
			<path fill="#FFFFFF" d="M23.56,28.328c0.069,0,0.138,0.016,0.203,0.048c0.441,0.254,0.882,0.511,1.323,0.764
				c0.048,0.023,0.08,0.064,0.084,0.117c0,0.006,0,0.012,0,0.018c-0.012,0.045-0.042,0.08-0.084,0.1
				c-0.44,0.255-0.881,0.51-1.323,0.765c-0.065,0.033-0.134,0.049-0.203,0.049s-0.138-0.016-0.203-0.049
				c-0.441-0.255-0.882-0.51-1.323-0.765c-0.042-0.02-0.071-0.057-0.084-0.105c0-0.005,0-0.008,0-0.012
				c0.005-0.053,0.036-0.094,0.084-0.117c0.44-0.253,0.882-0.51,1.323-0.764C23.422,28.344,23.491,28.328,23.56,28.328
				 M23.56,28.469c-0.048,0-0.095,0.011-0.139,0.034l-0.583,0.337l-0.732,0.423l0.91,0.514l0.413,0.239
				c0.038,0.019,0.084,0.03,0.132,0.03c0.048,0,0.095-0.011,0.14-0.034l1.315-0.761l-0.7-0.393l-0.623-0.359
				C23.655,28.48,23.607,28.469,23.56,28.469L23.56,28.469z"/>
		</g>
	</g>
	<g opacity="0.5">
		<path d="M17.643,33.534c-0.059,0-0.116-0.014-0.171-0.041l-1.319-0.764l0.003-0.001l-0.003-0.11l0.303-0.174l1.02-0.588
			c0.051-0.026,0.109-0.042,0.167-0.042c0.058,0,0.116,0.015,0.171,0.042l1.016,0.587l0.303,0.174l-0.002,0.001l0.002,0.11
			l-1.323,0.766C17.759,33.521,17.702,33.534,17.643,33.534L17.643,33.534z"/>
		<g>
			<path fill="#FFFFFF" d="M17.643,31.743c0.069,0,0.138,0.017,0.203,0.05c0.441,0.254,0.883,0.509,1.323,0.764
				c0.048,0.021,0.079,0.064,0.084,0.117c0,0.005,0,0.012,0,0.017c-0.013,0.046-0.042,0.08-0.083,0.101
				c-0.44,0.254-0.882,0.51-1.323,0.765c-0.065,0.033-0.134,0.049-0.203,0.049s-0.138-0.017-0.203-0.049
				c-0.441-0.255-0.882-0.511-1.323-0.765c-0.042-0.021-0.071-0.058-0.083-0.105c0-0.005-0.001-0.009-0.001-0.012
				c0.005-0.053,0.036-0.096,0.084-0.117c0.44-0.255,0.882-0.51,1.323-0.764C17.505,31.76,17.574,31.743,17.643,31.743
				 M17.643,31.885c-0.047,0-0.094,0.012-0.139,0.035l-1.316,0.76l0.871,0.492l0.452,0.262c0.038,0.019,0.085,0.03,0.132,0.03
				s0.094-0.011,0.139-0.034l0.327-0.19l0.989-0.571l-1.323-0.753C17.736,31.896,17.689,31.885,17.643,31.885L17.643,31.885z"/>
		</g>
	</g>
	<g opacity="0.5">
		<path d="M15.671,34.672c-0.06,0-0.117-0.014-0.171-0.041l-1.32-0.762l0.004-0.002l-0.004-0.109l0.931-0.539l0.393-0.228
			c0.05-0.024,0.108-0.037,0.167-0.037c0.059,0,0.116,0.013,0.171,0.04l0.388,0.224l0.931,0.539l-0.001,0.001l0.001,0.11
			l-1.323,0.763C15.787,34.658,15.729,34.672,15.671,34.672L15.671,34.672z"/>
		<g>
			<path fill="#FFFFFF" d="M15.67,32.883c0.069,0,0.138,0.016,0.203,0.048c0.441,0.255,0.882,0.51,1.323,0.766
				c0.048,0.021,0.078,0.063,0.083,0.117c0,0.006,0,0.01,0,0.016c-0.013,0.045-0.042,0.079-0.083,0.101
				c-0.441,0.255-0.882,0.51-1.323,0.764c-0.065,0.033-0.134,0.049-0.203,0.049s-0.138-0.016-0.203-0.049
				c-0.441-0.254-0.882-0.509-1.323-0.764c-0.042-0.021-0.071-0.058-0.083-0.106c0-0.004,0-0.008,0-0.01
				c0.005-0.054,0.035-0.097,0.083-0.117c0.441-0.256,0.882-0.511,1.323-0.766C15.532,32.899,15.601,32.883,15.67,32.883
				 M15.67,33.025c-0.048,0-0.095,0.011-0.14,0.033l-0.196,0.114l-1.118,0.647l1.323,0.751c0.038,0.019,0.084,0.03,0.132,0.03
				c0.048,0,0.095-0.011,0.14-0.034l0.997-0.575l0.319-0.184l-1.323-0.754C15.766,33.036,15.718,33.025,15.67,33.025L15.67,33.025z"
				/>
		</g>
	</g>
	<g opacity="0.5">
		<path d="M13.698,35.811c-0.059,0-0.116-0.015-0.171-0.042l-0.551-0.318l-0.769-0.443l0.003-0.002l-0.003-0.11l0.354-0.205
			l0.969-0.561c0.051-0.025,0.108-0.039,0.167-0.039c0.059,0,0.116,0.014,0.171,0.041l1.318,0.764l-0.002,0.001l0.002,0.111
			l-0.793,0.458l-0.529,0.305C13.814,35.796,13.756,35.811,13.698,35.811L13.698,35.811z"/>
		<g>
			<path fill="#FFFFFF" d="M13.698,34.02c0.069,0,0.138,0.017,0.203,0.049c0.441,0.256,0.881,0.511,1.323,0.765
				c0.048,0.022,0.079,0.064,0.084,0.117c0,0.007,0,0.012-0.001,0.018c-0.012,0.045-0.042,0.079-0.083,0.1
				c-0.441,0.256-0.882,0.509-1.323,0.764c-0.065,0.033-0.134,0.05-0.203,0.05s-0.138-0.017-0.203-0.05
				c-0.441-0.255-0.883-0.508-1.324-0.764c-0.041-0.021-0.071-0.057-0.083-0.106c0-0.003,0-0.008,0-0.011
				c0.005-0.053,0.035-0.095,0.083-0.117c0.441-0.254,0.883-0.509,1.324-0.765C13.56,34.037,13.629,34.02,13.698,34.02
				 M13.698,34.162c-0.048,0-0.094,0.011-0.139,0.034c-0.434,0.252-0.876,0.507-1.317,0.761l0.766,0.431l0.558,0.322
				c0.038,0.019,0.084,0.031,0.132,0.031s0.094-0.012,0.139-0.035l0.546-0.315l0.77-0.444c-0.441-0.243-0.882-0.498-1.323-0.754
				C13.792,34.173,13.745,34.162,13.698,34.162L13.698,34.162z"/>
		</g>
	</g>
	<g opacity="0.5">
		<path d="M11.726,36.949c-0.06,0-0.117-0.014-0.171-0.042l-0.863-0.498l-0.457-0.263l0.002-0.002l-0.002-0.11l0.584-0.337
			l0.739-0.427c0.05-0.025,0.108-0.039,0.167-0.039c0.059,0,0.116,0.014,0.17,0.042l0.951,0.548l0.37,0.214l-0.002,0.002l0.002,0.11
			l-0.289,0.167l-1.035,0.596C11.842,36.935,11.784,36.949,11.726,36.949L11.726,36.949z"/>
		<g>
			<path fill="#FFFFFF" d="M11.725,35.16c0.069,0,0.138,0.017,0.203,0.049c0.441,0.254,0.882,0.51,1.323,0.765
				c0.047,0.021,0.079,0.064,0.084,0.117c0,0.004-0.001,0.012-0.001,0.016c-0.012,0.046-0.042,0.081-0.083,0.101
				c-0.441,0.255-0.882,0.511-1.323,0.764c-0.065,0.033-0.134,0.049-0.203,0.049s-0.138-0.016-0.203-0.049
				c-0.441-0.253-0.882-0.509-1.323-0.764c-0.042-0.02-0.071-0.057-0.083-0.104c0-0.006,0-0.01,0-0.012
				c0.005-0.053,0.036-0.096,0.084-0.117c0.441-0.255,0.882-0.511,1.323-0.765C11.587,35.176,11.656,35.16,11.725,35.16
				 M11.725,35.302c-0.047,0-0.094,0.011-0.139,0.034l-0.783,0.453l-0.533,0.308l0.401,0.22l0.921,0.532
				c0.038,0.019,0.085,0.03,0.132,0.03c0.048,0,0.095-0.011,0.14-0.034l0.924-0.533l0.392-0.226l-0.498-0.276l-0.825-0.476
				C11.82,35.313,11.773,35.302,11.725,35.302L11.725,35.302z"/>
		</g>
	</g>
	<g opacity="0.5">
		<path d="M31.45,27.839c-0.06,0-0.117-0.014-0.171-0.041l-1.32-0.763l0.003-0.001l-0.003-0.11l1.323-0.764
			c0.05-0.025,0.108-0.039,0.167-0.039c0.059,0,0.117,0.014,0.172,0.042l1.319,0.762l-0.002,0.001l0.002,0.11l-1.324,0.764
			C31.565,27.826,31.508,27.839,31.45,27.839L31.45,27.839z"/>
		<g>
			<path fill="#FFFFFF" d="M31.449,26.05c0.069,0,0.138,0.016,0.204,0.048c0.44,0.256,0.882,0.511,1.323,0.765
				c0.048,0.021,0.079,0.064,0.084,0.117c-0.001,0.007-0.001,0.011-0.001,0.018c-0.012,0.044-0.042,0.08-0.083,0.1
				c-0.441,0.255-0.882,0.509-1.323,0.765c-0.065,0.033-0.134,0.049-0.204,0.049c-0.069,0-0.138-0.017-0.203-0.049
				c-0.44-0.256-0.882-0.51-1.323-0.765c-0.042-0.02-0.07-0.058-0.083-0.106c0-0.004,0-0.008-0.001-0.011
				c0.005-0.053,0.037-0.096,0.084-0.117c0.441-0.254,0.883-0.509,1.323-0.765C31.312,26.066,31.38,26.05,31.449,26.05
				 M31.449,26.192c-0.048,0-0.095,0.011-0.141,0.033c-0.422,0.246-0.854,0.495-1.287,0.744l0.319,0.205l0.977,0.564
				c0.037,0.019,0.084,0.03,0.131,0.03c0.048,0,0.095-0.011,0.14-0.034l0.893-0.517l0.422-0.244
				c-0.441-0.243-0.883-0.498-1.323-0.754C31.545,26.203,31.498,26.192,31.449,26.192L31.449,26.192z"/>
		</g>
	</g>
	<g opacity="0.5">
		<path d="M29.478,28.979c-0.058,0-0.116-0.015-0.17-0.042l-0.116-0.068l-1.204-0.694l0.002-0.001l-0.002-0.111l0.441-0.254
			l0.883-0.509c0.05-0.026,0.107-0.041,0.167-0.041c0.059,0,0.116,0.014,0.171,0.042l1.319,0.762h-0.001l0.001,0.112l-1.323,0.764
			C29.593,28.965,29.536,28.979,29.478,28.979L29.478,28.979z"/>
		<g>
			<path fill="#FFFFFF" d="M29.477,27.188c0.069,0,0.138,0.017,0.203,0.049c0.441,0.255,0.881,0.509,1.323,0.764
				c0.047,0.023,0.078,0.065,0.084,0.117c0,0.006,0,0.012-0.001,0.018c-0.013,0.044-0.042,0.08-0.083,0.102
				C30.562,28.49,30.121,28.745,29.68,29c-0.065,0.034-0.134,0.051-0.203,0.051S29.339,29.034,29.274,29
				c-0.441-0.255-0.882-0.51-1.324-0.763c-0.041-0.021-0.071-0.06-0.083-0.107c0-0.004,0-0.007-0.001-0.012
				c0.005-0.052,0.037-0.094,0.084-0.117c0.441-0.255,0.882-0.509,1.324-0.764C29.339,27.205,29.408,27.188,29.477,27.188
				 M29.477,27.33c-0.047,0-0.094,0.011-0.139,0.034l-0.655,0.378l-0.662,0.382l1.2,0.682l0.124,0.071
				c0.039,0.02,0.085,0.032,0.132,0.032s0.093-0.012,0.138-0.035l0.115-0.067c0.4-0.231,0.801-0.463,1.203-0.693l-0.072-0.032
				l-1.252-0.723C29.572,27.341,29.525,27.33,29.477,27.33L29.477,27.33z"/>
		</g>
	</g>
	<g opacity="0.5">
		<path d="M27.504,30.116c-0.058,0-0.116-0.014-0.17-0.041l-1.318-0.762l0.002-0.002l-0.002-0.109l0.602-0.349l0.72-0.415
			c0.05-0.025,0.109-0.039,0.167-0.039c0.06,0,0.117,0.014,0.172,0.04l0.658,0.38l0.662,0.382l-0.002,0.001l0.002,0.11l-1.324,0.763
			C27.621,30.103,27.564,30.116,27.504,30.116L27.504,30.116z"/>
		<g>
			<path fill="#FFFFFF" d="M27.505,28.328c0.069,0,0.138,0.016,0.203,0.048c0.441,0.254,0.882,0.511,1.324,0.764
				c0.048,0.023,0.078,0.064,0.083,0.117c0,0.006,0,0.012-0.001,0.018c-0.012,0.045-0.042,0.08-0.083,0.1
				c-0.441,0.255-0.883,0.51-1.324,0.765c-0.065,0.033-0.134,0.049-0.203,0.049c-0.069,0-0.138-0.017-0.203-0.049
				c-0.441-0.255-0.882-0.51-1.323-0.765c-0.042-0.02-0.071-0.057-0.083-0.105c0-0.005,0-0.008-0.001-0.012
				c0.005-0.053,0.036-0.094,0.084-0.117c0.441-0.253,0.881-0.51,1.323-0.764C27.367,28.344,27.436,28.328,27.505,28.328
				 M27.505,28.469c-0.048,0-0.095,0.011-0.14,0.034l-0.603,0.348l-0.713,0.412l0.52,0.289l0.803,0.464
				c0.038,0.019,0.084,0.03,0.132,0.03c0.047,0,0.094-0.011,0.139-0.034l1.317-0.761l-0.779-0.438l-0.544-0.314
				C27.6,28.48,27.553,28.469,27.505,28.469L27.505,28.469z"/>
		</g>
	</g>
	<g opacity="0.5">
		<path d="M17.643,35.811c-0.058,0-0.116-0.015-0.171-0.042l-0.551-0.318l-0.769-0.443l0.003-0.002l-0.003-0.11l0.354-0.205
			l0.969-0.561c0.051-0.025,0.108-0.039,0.167-0.039c0.059,0,0.116,0.014,0.17,0.041l0.965,0.559l0.355,0.205l-0.002,0.001
			l0.002,0.111l-0.769,0.443l-0.555,0.32C17.758,35.796,17.7,35.811,17.643,35.811L17.643,35.811z"/>
		<g>
			<path fill="#FFFFFF" d="M17.643,34.02c0.069,0,0.138,0.017,0.203,0.049c0.441,0.256,0.883,0.511,1.323,0.765
				c0.048,0.022,0.079,0.064,0.084,0.117c0,0.007,0,0.012,0,0.018c-0.013,0.045-0.042,0.079-0.083,0.1
				c-0.44,0.256-0.882,0.509-1.323,0.764c-0.065,0.033-0.134,0.05-0.203,0.05s-0.138-0.017-0.203-0.05
				c-0.441-0.255-0.882-0.508-1.323-0.764c-0.042-0.021-0.071-0.057-0.083-0.106c0-0.003-0.001-0.008-0.001-0.011
				c0.005-0.053,0.036-0.095,0.084-0.117c0.44-0.254,0.882-0.509,1.323-0.765C17.505,34.037,17.574,34.02,17.643,34.02
				 M17.643,34.162c-0.048,0-0.095,0.011-0.14,0.034l-1.315,0.761l0.804,0.453l0.519,0.299c0.039,0.019,0.085,0.031,0.132,0.031
				c0.047,0,0.094-0.012,0.138-0.034L18.31,35.4l0.787-0.455l-1.323-0.754C17.737,34.173,17.69,34.162,17.643,34.162L17.643,34.162z
				"/>
		</g>
	</g>
	<g opacity="0.5">
		<path d="M15.67,36.949c-0.06,0-0.117-0.014-0.171-0.042l-0.863-0.498l-0.457-0.263l0.003-0.002l-0.003-0.11l0.584-0.337
			l0.739-0.427c0.05-0.025,0.108-0.039,0.167-0.039c0.059,0,0.116,0.014,0.171,0.042l0.878,0.507l0.441,0.255l-0.002,0.002
			l0.002,0.11l-0.331,0.191l-0.992,0.571C15.786,36.935,15.729,36.949,15.67,36.949L15.67,36.949z"/>
		<g>
			<path fill="#FFFFFF" d="M15.67,35.16c0.069,0,0.138,0.016,0.203,0.049c0.441,0.254,0.882,0.51,1.323,0.765
				c0.048,0.021,0.078,0.064,0.083,0.117c0,0.004,0,0.012,0,0.016c-0.013,0.046-0.042,0.081-0.083,0.101
				c-0.441,0.255-0.882,0.511-1.323,0.764c-0.065,0.033-0.134,0.049-0.203,0.049s-0.138-0.017-0.203-0.049
				c-0.441-0.253-0.882-0.509-1.323-0.764c-0.042-0.02-0.071-0.057-0.083-0.104c0-0.006,0-0.01,0-0.012
				c0.005-0.053,0.035-0.096,0.083-0.117c0.441-0.255,0.882-0.511,1.323-0.765C15.532,35.176,15.601,35.16,15.67,35.16
				 M15.67,35.302c-0.047,0-0.094,0.011-0.139,0.034l-0.957,0.553l-0.359,0.208l0.254,0.135l1.069,0.617
				c0.038,0.019,0.084,0.03,0.132,0.03c0.048,0,0.095-0.011,0.14-0.034l0.935-0.539l0.381-0.22l-0.498-0.276l-0.825-0.477
				C15.765,35.313,15.718,35.302,15.67,35.302L15.67,35.302z"/>
		</g>
	</g>
	<g opacity="0.5">
		<path d="M13.698,38.089c-0.059,0-0.116-0.015-0.17-0.042l-0.766-0.442l-0.555-0.319l0.002-0.001l-0.002-0.113l1.324-0.765
			c0.05-0.025,0.108-0.039,0.167-0.039s0.116,0.014,0.171,0.041c0.438,0.254,0.877,0.51,1.32,0.763h-0.001l0.001,0.114l-0.344,0.197
			l-0.979,0.566C13.813,38.075,13.756,38.089,13.698,38.089L13.698,38.089z"/>
		<g>
			<path fill="#FFFFFF" d="M13.698,36.297c0.069,0,0.138,0.017,0.203,0.05c0.441,0.256,0.881,0.511,1.323,0.764
				c0.048,0.022,0.079,0.065,0.084,0.119c0,0.005,0,0.011-0.001,0.017c-0.012,0.045-0.042,0.079-0.083,0.101
				c-0.441,0.255-0.882,0.508-1.323,0.764c-0.065,0.033-0.134,0.05-0.203,0.05s-0.138-0.017-0.203-0.05
				c-0.441-0.256-0.883-0.509-1.324-0.764c-0.041-0.021-0.071-0.059-0.083-0.107c0-0.003,0-0.007,0-0.01
				c0.005-0.054,0.035-0.097,0.083-0.119c0.441-0.253,0.883-0.508,1.324-0.764C13.56,36.313,13.629,36.297,13.698,36.297
				 M13.698,36.438c-0.047,0-0.094,0.012-0.138,0.034c-0.435,0.252-0.877,0.508-1.318,0.761l0.558,0.312l0.767,0.442
				c0.038,0.019,0.084,0.031,0.131,0.031s0.094-0.012,0.139-0.035l0.852-0.492l0.465-0.268c-0.441-0.244-0.882-0.499-1.323-0.755
				C13.792,36.45,13.745,36.438,13.698,36.438L13.698,36.438z"/>
		</g>
	</g>
	<g opacity="0.5">
		<path d="M19.615,34.672c-0.059,0-0.116-0.014-0.171-0.041l-1.32-0.763l0.003-0.001l-0.003-0.109l7.241-4.181
			c0.052-0.025,0.109-0.039,0.167-0.039c0.06,0,0.117,0.014,0.171,0.041l0.659,0.38l0.661,0.382l-0.002,0.002l0.002,0.11l-5.3,3.061
			l-1.94,1.12C19.73,34.658,19.673,34.672,19.615,34.672L19.615,34.672z"/>
		<g>
			<path fill="#FFFFFF" d="M25.532,29.466c0.069,0,0.138,0.017,0.204,0.05c0.441,0.255,0.881,0.508,1.322,0.764
				c0.048,0.021,0.08,0.065,0.084,0.117c-0.001,0.005-0.001,0.011-0.001,0.017c-0.012,0.045-0.042,0.081-0.083,0.101
				c-2.413,1.394-4.827,2.787-7.24,4.18c-0.065,0.033-0.134,0.049-0.203,0.049c-0.069,0-0.138-0.016-0.203-0.049
				c-0.441-0.254-0.882-0.509-1.323-0.764c-0.041-0.021-0.071-0.056-0.083-0.101c0-0.005,0-0.009,0-0.014
				c0.005-0.053,0.036-0.099,0.083-0.119c2.414-1.395,4.827-2.788,7.24-4.181C25.394,29.482,25.463,29.466,25.532,29.466
				 M18.005,33.813c0,0,0,0.001,0,0.002V33.813 M25.532,29.607c-0.047,0-0.094,0.012-0.139,0.035l-7.234,4.177l0.33,0.178
				l0.994,0.574c0.038,0.019,0.084,0.03,0.132,0.03c0.047,0,0.094-0.011,0.139-0.034l7.233-4.176l-0.822-0.464l-0.5-0.289
				C25.626,29.619,25.58,29.607,25.532,29.607L25.532,29.607z"/>
		</g>
	</g>
	<linearGradient id="SVGID_3_" gradientUnits="userSpaceOnUse" x1="24.2832" y1="35.3491" x2="32.1904" y2="35.3491">
		<stop  offset="0" style="stop-color:#F7F4EA"/>
		<stop  offset="1" style="stop-color:#F4EDCE"/>
	</linearGradient>
	<path fill="url(#SVGID_3_)" stroke="#444346" stroke-width="0.5669" d="M27.073,37.512c0.322,0.163,0.684,0.163,1.006,0
		c1.301-0.751,2.603-1.501,3.903-2.252c0.076-0.044,0.135-0.101,0.169-0.158c0.02-0.032,0.032-0.065,0.037-0.101
		c0.007-0.055-0.004-0.111-0.034-0.164c-0.035-0.06-0.095-0.114-0.172-0.159c-0.86-0.496-1.72-0.993-2.581-1.491
		c-0.322-0.163-0.685-0.163-1.007,0c-1.301,0.752-2.602,1.503-3.903,2.253c-0.076,0.044-0.135,0.099-0.169,0.158
		c-0.021,0.031-0.032,0.065-0.037,0.101c-0.006,0.054,0.004,0.111,0.034,0.162c0.035,0.061,0.095,0.117,0.172,0.162
		C25.353,36.519,26.212,37.015,27.073,37.512z"/>
	<linearGradient id="SVGID_4_" gradientUnits="userSpaceOnUse" x1="2.3848" y1="16.6709" x2="23.7466" y2="16.6709">
		<stop  offset="0" style="stop-color:#F7F4EA"/>
		<stop  offset="1" style="stop-color:#F4EDCE"/>
	</linearGradient>
	<path fill="url(#SVGID_4_)" stroke="#444346" stroke-width="0.5669" d="M2.385,30.063c0,0.05,0.003,0.099,0.011,0.146
		c0.008,0.043,0.018,0.085,0.034,0.125c0.013,0.034,0.031,0.067,0.054,0.097c0.02,0.026,0.043,0.049,0.072,0.064
		c0.158,0.09,0.361,0.065,0.574-0.058c6.602-3.813,13.204-7.624,19.806-11.436c0.488-0.317,0.78-0.822,0.812-1.405
		c0-4.749,0-9.497,0-14.246c0-0.244-0.08-0.435-0.238-0.526C23.481,2.81,23.45,2.8,23.418,2.795
		c-0.037-0.006-0.075-0.004-0.111,0.002c-0.043,0.006-0.084,0.018-0.125,0.033c-0.046,0.017-0.089,0.04-0.132,0.064
		C16.448,6.706,9.846,10.517,3.244,14.327C3.186,14.362,3.132,14.4,3.08,14.442c-0.057,0.046-0.11,0.097-0.161,0.149
		c-0.106,0.114-0.198,0.239-0.276,0.375c-0.15,0.259-0.254,0.55-0.258,0.852C2.385,20.566,2.385,25.314,2.385,30.063z"/>
</g>
</svg>
