<?xml version="1.0" encoding="utf-8"?>
<!-- Generator: Adobe Illustrator 13.0.0, SVG Export Plug-In . SVG Version: 6.00 Build 14948)  -->
<!DOCTYPE svg PUBLIC "-//W3C//DTD SVG 1.1 Basic//EN" "http://www.w3.org/Graphics/SVG/1.1/DTD/svg11-basic.dtd">
<svg version="1.1" baseProfile="basic" id="Слой_1"
	 xmlns="http://www.w3.org/2000/svg" xmlns:xlink="http://www.w3.org/1999/xlink" x="0px" y="0px" width="70.396px"
	 height="71.063px" viewBox="0 0 70.396 71.063" xml:space="preserve">
<linearGradient id="SVGID_1_" gradientUnits="userSpaceOnUse" x1="29.51" y1="15.3225" x2="40.8113" y2="15.3225" gradientTransform="matrix(1 0 0 -1 0.0376 69.9067)">
	<stop  offset="0" style="stop-color:#F8F5EA"/>
	<stop  offset="1" style="stop-color:#F4EDCE"/>
</linearGradient>
<circle fill="url(#SVGID_1_)" cx="35.198" cy="54.584" r="5.65"/>
<path fill="none" stroke="#231F20" stroke-width="0.8986" stroke-linecap="round" d="M8.171,5.714
	c14.928,14.929,39.127,14.929,54.053,0"/>
<path fill="none" stroke="#231F20" stroke-width="0.8986" stroke-linecap="round" d="M0.449,10.979
	c19.191,19.19,50.307,19.19,69.498,0"/>
<path fill="none" stroke="#231F20" stroke-width="0.8986" stroke-linecap="round" d="M15.892,0.449
	c10.663,10.663,27.947,10.663,38.609,0"/>
<path fill="none" stroke="#231F20" stroke-width="0.8986" stroke-linecap="round" d="M0.449,22.765
	c20.814,14.761,48.681,14.761,69.498,0"/>
<circle fill="none" stroke="#231F20" stroke-width="0.5953" stroke-linecap="round" stroke-linejoin="round" cx="35.198" cy="54.584" r="5.65"/>
<line fill="none" stroke="#231F20" stroke-width="0.5953" stroke-linecap="round" stroke-linejoin="round" x1="35.198" y1="38.407" x2="35.198" y2="46.204"/>
<line fill="none" stroke="#231F20" stroke-width="0.5953" stroke-linecap="round" stroke-linejoin="round" x1="29.006" y1="39.638" x2="31.991" y2="46.842"/>
<line fill="none" stroke="#231F20" stroke-width="0.5953" stroke-linecap="round" stroke-linejoin="round" x1="23.758" y1="43.144" x2="29.272" y2="48.66"/>
<line fill="none" stroke="#231F20" stroke-width="0.5953" stroke-linecap="round" stroke-linejoin="round" x1="20.251" y1="48.395" x2="27.454" y2="51.379"/>
<line fill="none" stroke="#231F20" stroke-width="0.5953" stroke-linecap="round" stroke-linejoin="round" x1="19.019" y1="54.585" x2="26.817" y2="54.585"/>
<line fill="none" stroke="#231F20" stroke-width="0.5953" stroke-linecap="round" stroke-linejoin="round" x1="20.251" y1="60.777" x2="27.454" y2="57.792"/>
<line fill="none" stroke="#231F20" stroke-width="0.5953" stroke-linecap="round" stroke-linejoin="round" x1="23.758" y1="66.024" x2="29.272" y2="60.51"/>
<line fill="none" stroke="#231F20" stroke-width="0.5953" stroke-linecap="round" stroke-linejoin="round" x1="29.006" y1="69.531" x2="31.991" y2="62.329"/>
<line fill="none" stroke="#231F20" stroke-width="0.5953" stroke-linecap="round" stroke-linejoin="round" x1="35.198" y1="70.764" x2="35.198" y2="62.964"/>
<line fill="none" stroke="#231F20" stroke-width="0.5953" stroke-linecap="round" stroke-linejoin="round" x1="41.389" y1="69.531" x2="38.403" y2="62.329"/>
<line fill="none" stroke="#231F20" stroke-width="0.5953" stroke-linecap="round" stroke-linejoin="round" x1="46.637" y1="66.024" x2="41.125" y2="60.51"/>
<line fill="none" stroke="#231F20" stroke-width="0.5953" stroke-linecap="round" stroke-linejoin="round" x1="50.146" y1="60.777" x2="42.942" y2="57.792"/>
<line fill="none" stroke="#231F20" stroke-width="0.5953" stroke-linecap="round" stroke-linejoin="round" x1="51.377" y1="54.585" x2="43.581" y2="54.585"/>
<line fill="none" stroke="#231F20" stroke-width="0.5953" stroke-linecap="round" stroke-linejoin="round" x1="50.146" y1="48.395" x2="42.942" y2="51.379"/>
<line fill="none" stroke="#231F20" stroke-width="0.5953" stroke-linecap="round" stroke-linejoin="round" x1="46.637" y1="43.144" x2="41.125" y2="48.66"/>
<line fill="none" stroke="#231F20" stroke-width="0.5953" stroke-linecap="round" stroke-linejoin="round" x1="41.389" y1="39.638" x2="38.403" y2="46.842"/>
</svg>
