<?xml version="1.0" encoding="utf-8"?>
<!-- Generator: Adobe Illustrator 13.0.0, SVG Export Plug-In . SVG Version: 6.00 Build 14948)  -->
<!DOCTYPE svg PUBLIC "-//W3C//DTD SVG 1.1 Basic//EN" "http://www.w3.org/Graphics/SVG/1.1/DTD/svg11-basic.dtd">
<svg version="1.1" baseProfile="basic" id="Слой_1"
	 xmlns="http://www.w3.org/2000/svg" xmlns:xlink="http://www.w3.org/1999/xlink" x="0px" y="0px" width="44.105px"
	 height="40.09px" viewBox="0 0 44.105 40.09" xml:space="preserve">
<line fill="none" stroke="#1B181C" x1="29.64" y1="0.5" x2="29.64" y2="0.5"/>
<linearGradient id="SVGID_1_" gradientUnits="userSpaceOnUse" x1="14.76" y1="15.73" x2="29.2712" y2="15.73" gradientTransform="matrix(1 0 0 -1 0.0376 38.9355)">
	<stop  offset="0" style="stop-color:#F8F5EA"/>
	<stop  offset="1" style="stop-color:#F4EDCE"/>
</linearGradient>
<path fill="url(#SVGID_1_)" d="M29.308,20.541c0,1.78,0,3.549,0,5.32c0,0.54-0.44,0.97-0.971,0.97c-4.188,0-8.38,0-12.569,0
	c-0.54,0-0.971-0.43-0.971-0.97c0-1.771,0-3.54,0-5.32c0-0.53,0.431-0.96,0.971-0.96c4.189,0,8.381,0,12.569,0
	C28.867,19.581,29.308,20.011,29.308,20.541z"/>
<linearGradient id="SVGID_2_" gradientUnits="userSpaceOnUse" x1="28.9705" y1="24.6196" x2="32.8396" y2="24.6196" gradientTransform="matrix(1 0 0 -1 0.0376 38.9355)">
	<stop  offset="0" style="stop-color:#F8F5EA"/>
	<stop  offset="1" style="stop-color:#F4EDCE"/>
</linearGradient>
<path fill="url(#SVGID_2_)" d="M30.938,12.381c1.069,0,1.939,0.87,1.939,1.931c0,1.069-0.87,1.939-1.939,1.939
	c-1.07,0-1.931-0.87-1.931-1.939C29.008,13.251,29.867,12.381,30.938,12.381z"/>
<linearGradient id="SVGID_3_" gradientUnits="userSpaceOnUse" x1="28.9705" y1="6.8394" x2="32.8396" y2="6.8394" gradientTransform="matrix(1 0 0 -1 0.0376 38.9355)">
	<stop  offset="0" style="stop-color:#F8F5EA"/>
	<stop  offset="1" style="stop-color:#F4EDCE"/>
</linearGradient>
<path fill="url(#SVGID_3_)" d="M30.938,30.161c1.069,0,1.939,0.871,1.939,1.93c0,1.07-0.87,1.941-1.939,1.941
	c-1.07,0-1.931-0.871-1.931-1.941C29.008,31.032,29.867,30.161,30.938,30.161z"/>
<linearGradient id="SVGID_4_" gradientUnits="userSpaceOnUse" x1="11.1907" y1="6.8394" x2="15.0608" y2="6.8394" gradientTransform="matrix(1 0 0 -1 0.0376 38.9355)">
	<stop  offset="0" style="stop-color:#F8F5EA"/>
	<stop  offset="1" style="stop-color:#F4EDCE"/>
</linearGradient>
<path fill="url(#SVGID_4_)" d="M13.158,30.161c1.07,0,1.94,0.871,1.94,1.93c0,1.07-0.87,1.941-1.94,1.941s-1.93-0.871-1.93-1.941
	C11.228,31.032,12.088,30.161,13.158,30.161z"/>
<linearGradient id="SVGID_5_" gradientUnits="userSpaceOnUse" x1="11.1907" y1="24.6196" x2="15.0608" y2="24.6196" gradientTransform="matrix(1 0 0 -1 0.0376 38.9355)">
	<stop  offset="0" style="stop-color:#F8F5EA"/>
	<stop  offset="1" style="stop-color:#F4EDCE"/>
</linearGradient>
<path fill="url(#SVGID_5_)" d="M15.098,14.312c0,1.069-0.87,1.939-1.94,1.939s-1.93-0.87-1.93-1.939c0-1.061,0.859-1.931,1.93-1.931
	S15.098,13.251,15.098,14.312z"/>
<linearGradient id="SVGID_6_" gradientUnits="userSpaceOnUse" x1="1.9456" y1="20.3799" x2="1.9456" y2="11.126" gradientTransform="matrix(1 0 0 -1 0.0376 38.9355)">
	<stop  offset="0" style="stop-color:#B0BFD1"/>
	<stop  offset="0.0947" style="stop-color:#BAC6D7"/>
	<stop  offset="0.4014" style="stop-color:#D5DAE7"/>
	<stop  offset="0.5762" style="stop-color:#E0E2EF"/>
	<stop  offset="1" style="stop-color:#AEBFD2"/>
</linearGradient>
<path fill="url(#SVGID_6_)" d="M3.678,25.932c0,0.061,0,0.109,0,0.17c0,0.09,0,0.189,0,0.279c0,0.109,0,0.229,0,0.34
	c0,0.021,0,0.08,0,0.109c-0.16,0.28-0.32,0.562-0.49,0.84c-0.8,0-1.61,0-2.41,0c-0.16-0.278-0.33-0.56-0.49-0.84
	c0-0.029,0-0.09,0-0.109c0-0.109,0-0.229,0-0.34c0-0.149,0-0.301,0-0.449c0-0.311,0-0.609,0-0.91c0-0.609,0-1.21,0-1.82
	c0-1.209,0-2.42,0-3.629c0.16-0.28,0.33-0.55,0.49-0.83c0.8,0,1.61,0,2.41,0c0.17,0.28,0.33,0.55,0.49,0.83c0,0.24,0,0.49,0,0.729
	c0,0.971,0,1.931,0,2.901c0,0.609,0,1.209,0,1.819C3.678,25.321,3.678,25.622,3.678,25.932z"/>
<linearGradient id="SVGID_7_" gradientUnits="userSpaceOnUse" x1="4.4856" y1="20.3799" x2="4.4856" y2="11.1244" gradientTransform="matrix(1 0 0 -1 0.0376 38.9355)">
	<stop  offset="0" style="stop-color:#B0BFD1"/>
	<stop  offset="0.0947" style="stop-color:#BAC6D7"/>
	<stop  offset="0.4014" style="stop-color:#D5DAE7"/>
	<stop  offset="0.5762" style="stop-color:#E0E2EF"/>
	<stop  offset="1" style="stop-color:#AEBFD2"/>
</linearGradient>
<path fill="url(#SVGID_7_)" d="M5.368,20.301c0,1.94,0,3.86,0,5.801H3.678c0-0.061,0-0.109,0-0.17c0-0.311,0-0.609,0-0.91
	c0-0.609,0-1.21,0-1.82c0-0.97,0-1.93,0-2.9L5.368,20.301L5.368,20.301z"/>
<linearGradient id="SVGID_8_" gradientUnits="userSpaceOnUse" x1="6.9001" y1="20.3794" x2="6.9001" y2="11.1249" gradientTransform="matrix(1 0 0 -1 0.0376 38.9355)">
	<stop  offset="0" style="stop-color:#B0BFD1"/>
	<stop  offset="0.0947" style="stop-color:#BAC6D7"/>
	<stop  offset="0.4014" style="stop-color:#D5DAE7"/>
	<stop  offset="0.5762" style="stop-color:#E0E2EF"/>
	<stop  offset="1" style="stop-color:#AEBFD2"/>
</linearGradient>
<path fill="url(#SVGID_8_)" d="M8.328,21.952c0.061,0.199,0.11,0.399,0.14,0.609c0.03,0.21,0.04,0.42,0.04,0.63
	c0,0.22-0.01,0.438-0.04,0.649c-0.029,0.209-0.079,0.41-0.14,0.609c-0.06,0.19-0.13,0.381-0.22,0.561
	c-0.09,0.171-0.19,0.33-0.3,0.48c-0.11,0.139-0.24,0.279-0.37,0.399c-0.141,0.118-0.29,0.22-0.45,0.31s-0.33,0.17-0.5,0.23
	s-0.35,0.1-0.53,0.14c-0.2,0.011-0.39,0.011-0.59,0.021c0-0.159,0-0.33,0-0.489c0-1.94,0-3.86,0-5.801c0-0.159,0-0.319,0-0.479
	c0.2,0,0.39,0.01,0.59,0.02c0.181,0.04,0.36,0.08,0.54,0.141c0.17,0.06,0.33,0.13,0.49,0.22c0.16,0.09,0.31,0.2,0.44,0.32
	c0.14,0.12,0.27,0.25,0.38,0.398c0.109,0.15,0.21,0.312,0.3,0.48C8.198,21.581,8.268,21.76,8.328,21.952z"/>
<linearGradient id="SVGID_9_" gradientUnits="userSpaceOnUse" x1="42.0808" y1="20.3799" x2="42.0808" y2="11.125" gradientTransform="matrix(1 0 0 -1 0.0376 38.9355)">
	<stop  offset="0" style="stop-color:#B0BFD1"/>
	<stop  offset="0.0947" style="stop-color:#BAC6D7"/>
	<stop  offset="0.4014" style="stop-color:#D5DAE7"/>
	<stop  offset="0.5762" style="stop-color:#E0E2EF"/>
	<stop  offset="1" style="stop-color:#AEBFD2"/>
</linearGradient>
<path fill="url(#SVGID_9_)" d="M43.808,25.021c0,0.3,0,0.601,0,0.91c0,0.149,0,0.3,0,0.448c0,0.111,0,0.23,0,0.34
	c0,0.021,0,0.08,0,0.111c-0.159,0.279-0.319,0.561-0.479,0.84c-0.811,0-1.609,0-2.42,0c-0.16-0.279-0.32-0.561-0.479-0.84
	c0-0.24,0-0.49,0-0.729c0-1.45,0-2.181,0-2.899c0-0.971,0-1.931,0-2.901c0-0.239,0-0.489,0-0.729c0.159-0.28,0.319-0.55,0.479-0.83
	c0.811,0,1.609,0,2.42,0c0.16,0.28,0.32,0.55,0.479,0.83c0,1.209,0,2.42,0,3.629C43.808,23.812,43.808,24.411,43.808,25.021z"/>
<linearGradient id="SVGID_10_" gradientUnits="userSpaceOnUse" x1="39.5408" y1="20.3799" x2="39.5408" y2="11.1244" gradientTransform="matrix(1 0 0 -1 0.0376 38.9355)">
	<stop  offset="0" style="stop-color:#B0BFD1"/>
	<stop  offset="0.0947" style="stop-color:#BAC6D7"/>
	<stop  offset="0.4014" style="stop-color:#D5DAE7"/>
	<stop  offset="0.5762" style="stop-color:#E0E2EF"/>
	<stop  offset="1" style="stop-color:#AEBFD2"/>
</linearGradient>
<path fill="url(#SVGID_10_)" d="M40.428,23.202c0,0.719,0,1.449,0,2.899h-1.7c0-1.94,0-3.86,0-5.801h1.7
	C40.428,21.271,40.428,22.231,40.428,23.202z"/>
<linearGradient id="SVGID_11_" gradientUnits="userSpaceOnUse" x1="37.1199" y1="20.3799" x2="37.1199" y2="11.1261" gradientTransform="matrix(1 0 0 -1 0.0376 38.9355)">
	<stop  offset="0" style="stop-color:#B0BFD1"/>
	<stop  offset="0.0947" style="stop-color:#BAC6D7"/>
	<stop  offset="0.4014" style="stop-color:#D5DAE7"/>
	<stop  offset="0.5762" style="stop-color:#E0E2EF"/>
	<stop  offset="1" style="stop-color:#AEBFD2"/>
</linearGradient>
<path fill="url(#SVGID_11_)" d="M38.728,26.102c0,0.158,0,0.33,0,0.488c-0.19-0.01-0.38-0.01-0.579-0.02h-0.011
	c-0.171-0.039-0.352-0.08-0.521-0.14c-0.18-0.062-0.35-0.142-0.51-0.229c-0.15-0.091-0.3-0.191-0.439-0.311
	c-0.141-0.12-0.26-0.262-0.37-0.4c-0.119-0.15-0.22-0.31-0.3-0.48c-0.09-0.18-0.17-0.368-0.229-0.559
	c-0.062-0.201-0.101-0.4-0.13-0.611c-0.03-0.209-0.051-0.43-0.051-0.648c0-0.21,0.021-0.42,0.051-0.63
	c0.029-0.21,0.068-0.41,0.14-0.61c0.051-0.189,0.131-0.369,0.211-0.55c0.09-0.17,0.189-0.329,0.31-0.479
	c0.11-0.149,0.229-0.279,0.37-0.399s0.289-0.23,0.449-0.32c0.15-0.09,0.32-0.16,0.49-0.22c0.17-0.061,0.35-0.101,0.53-0.141h0.011
	c0.199-0.01,0.389-0.02,0.579-0.02c0,0.16,0,0.32,0,0.479C38.728,22.241,38.728,24.161,38.728,26.102z"/>
<linearGradient id="SVGID_12_" gradientUnits="userSpaceOnUse" x1="5.9192" y1="15.7349" x2="38.1111" y2="15.7349" gradientTransform="matrix(1 0 0 -1 0.0376 38.9355)">
	<stop  offset="0" style="stop-color:#E6E7EE"/>
	<stop  offset="1" style="stop-color:#ABBDD1"/>
</linearGradient>
<path opacity="0.7" fill="url(#SVGID_12_)" d="M35.777,21.952c0.051-0.191,0.131-0.371,0.211-0.551c0.09-0.17,0.188-0.33,0.31-0.48
	c0.11-0.148,0.229-0.278,0.37-0.398s0.289-0.23,0.449-0.32c0.15-0.09,0.32-0.16,0.49-0.22c0.17-0.061,0.35-0.101,0.53-0.141h0.011
	c-1.602-7.609-8.312-13.08-16.102-13.08s-14.5,5.471-16.09,13.08c0.181,0.04,0.36,0.08,0.54,0.141c0.17,0.06,0.33,0.13,0.49,0.22
	c0.16,0.09,0.31,0.2,0.44,0.32c0.14,0.12,0.27,0.25,0.38,0.398c0.109,0.15,0.21,0.312,0.3,0.48c0.09,0.18,0.16,0.359,0.22,0.551
	c0.061,0.199,0.11,0.399,0.14,0.609c0.03,0.21,0.04,0.42,0.04,0.63c0,0.22-0.01,0.438-0.04,0.649
	c-0.029,0.209-0.079,0.41-0.14,0.609c-0.06,0.19-0.13,0.381-0.22,0.561c-0.09,0.171-0.19,0.33-0.3,0.48
	c-0.11,0.139-0.24,0.279-0.37,0.399c-0.141,0.118-0.29,0.22-0.45,0.31s-0.33,0.17-0.5,0.23s-0.35,0.1-0.53,0.14
	c1.59,7.62,8.311,13.07,16.09,13.07c7.78,0,14.5-5.45,16.091-13.07c-0.171-0.04-0.352-0.079-0.521-0.14
	c-0.18-0.061-0.35-0.141-0.51-0.23c-0.15-0.09-0.3-0.189-0.439-0.31c-0.141-0.12-0.26-0.261-0.37-0.399
	c-0.119-0.15-0.22-0.311-0.3-0.48c-0.09-0.18-0.17-0.369-0.229-0.561c-0.062-0.199-0.101-0.4-0.13-0.609
	c-0.03-0.211-0.051-0.43-0.051-0.649c0-0.21,0.021-0.42,0.051-0.63C35.667,22.351,35.707,22.151,35.777,21.952z M33.298,30.401
	c0.86,1.2,0.681,2.859-0.42,3.85s-2.771,0.99-3.87,0c-2.09,1.312-4.5,2.01-6.96,2.01s-4.869-0.698-6.949-2.01
	c-0.08,0.07-0.16,0.142-0.25,0.201c-1.2,0.859-2.86,0.68-3.851-0.42c-0.99-1.101-0.99-2.771,0-3.871c-1.33-2.119-2-4.539-2-6.959
	c0-2.41,0.67-4.821,2-6.951c-0.069-0.08-0.13-0.16-0.189-0.24c-0.83-1.159-0.7-2.739,0.3-3.75c0.6-0.6,1.2-0.85,2.05-0.85
	c0.78,0,1.36,0.22,1.94,0.74c2.08-1.311,4.489-2,6.949-2s4.87,0.689,6.96,2c0.07-0.07,0.15-0.13,0.24-0.19
	c0.529-0.38,1.039-0.55,1.689-0.55c0.85,0,1.45,0.25,2.051,0.85c1.09,1.091,1.14,2.841,0.109,3.99c1.34,2.13,2.01,4.541,2.01,6.951
	c0,2.42-0.67,4.84-2.01,6.959C33.168,30.241,33.238,30.321,33.298,30.401z"/>
<linearGradient id="SVGID_13_" gradientUnits="userSpaceOnUse" x1="8.9592" y1="15.73" x2="35.0701" y2="15.73" gradientTransform="matrix(1 0 0 -1 0.0376 38.9355)">
	<stop  offset="0" style="stop-color:#E6E7EE"/>
	<stop  offset="1" style="stop-color:#ABBDD1"/>
</linearGradient>
<path opacity="0.7" fill="url(#SVGID_13_)" d="M13.158,16.251c1.07,0,1.94-0.87,1.94-1.939c0-1.061-0.87-1.931-1.94-1.931
	s-1.93,0.87-1.93,1.931C11.228,15.381,12.088,16.251,13.158,16.251z M13.158,34.032c1.07,0,1.94-0.871,1.94-1.941
	c0-1.059-0.87-1.93-1.94-1.93s-1.93,0.871-1.93,1.93C11.228,33.161,12.088,34.032,13.158,34.032z M32.878,14.312
	c0-1.061-0.87-1.931-1.939-1.931c-1.07,0-1.931,0.87-1.931,1.931c0,1.069,0.859,1.939,1.931,1.939
	C32.009,16.251,32.878,15.381,32.878,14.312z M30.938,34.032c1.069,0,1.939-0.871,1.939-1.941c0-1.059-0.87-1.93-1.939-1.93
	c-1.07,0-1.931,0.871-1.931,1.93C29.008,33.161,29.867,34.032,30.938,34.032z M11.108,12.261c0.6-0.6,1.2-0.85,2.05-0.85
	c0.78,0,1.36,0.22,1.94,0.74c2.08-1.311,4.489-2,6.949-2s4.87,0.689,6.96,2c0.07-0.07,0.15-0.13,0.24-0.19
	c0.529-0.38,1.039-0.55,1.689-0.55c0.85,0,1.45,0.25,2.051,0.85c1.09,1.091,1.14,2.841,0.109,3.99c1.34,2.13,2.01,4.541,2.01,6.951
	c0,2.42-0.67,4.84-2.01,6.959c0.069,0.08,0.141,0.16,0.199,0.24c0.86,1.2,0.681,2.859-0.42,3.85s-2.771,0.99-3.87,0
	c-2.09,1.312-4.5,2.01-6.96,2.01s-4.869-0.698-6.949-2.01c-0.08,0.07-0.16,0.142-0.25,0.201c-1.2,0.859-2.86,0.68-3.851-0.42
	c-0.99-1.101-0.99-2.771,0-3.871c-1.33-2.119-2-4.539-2-6.959c0-2.41,0.67-4.821,2-6.951c-0.069-0.08-0.13-0.16-0.189-0.24
	C9.978,14.852,10.108,13.271,11.108,12.261z M29.308,25.861c0-1.771,0-3.54,0-5.32c0-0.53-0.44-0.96-0.971-0.96
	c-4.188,0-8.38,0-12.569,0c-0.54,0-0.971,0.43-0.971,0.96c0,1.78,0,3.549,0,5.32c0,0.54,0.431,0.97,0.971,0.97
	c4.189,0,8.381,0,12.569,0C28.867,26.831,29.308,26.401,29.308,25.861z"/>
<path fill="none" stroke="#231F20" stroke-width="0.8986" stroke-linecap="round" stroke-linejoin="round" d="M38.148,19.852v-0.011
	c-1.602-7.609-8.312-13.08-16.102-13.08s-14.5,5.471-16.09,13.08v0.011"/>
<line fill="none" stroke="#231F20" stroke-width="0.5953" stroke-linecap="round" stroke-linejoin="round" x1="5.368" y1="20.301" x2="3.678" y2="20.301"/>
<line fill="none" stroke="#231F20" stroke-width="0.5953" stroke-linecap="round" stroke-linejoin="round" x1="5.368" y1="26.102" x2="3.678" y2="26.102"/>
<path fill="none" stroke="#231F20" stroke-width="0.5953" stroke-linecap="round" stroke-linejoin="round" d="M5.958,26.571
	c0.181-0.039,0.36-0.08,0.53-0.14c0.17-0.062,0.34-0.142,0.5-0.229c0.16-0.09,0.31-0.191,0.45-0.311c0.13-0.12,0.26-0.262,0.37-0.4
	c0.109-0.15,0.21-0.31,0.3-0.48c0.09-0.18,0.16-0.368,0.22-0.559c0.061-0.201,0.11-0.4,0.14-0.611c0.03-0.209,0.04-0.43,0.04-0.648
	c0-0.21-0.01-0.42-0.04-0.63c-0.029-0.21-0.079-0.41-0.14-0.61c-0.06-0.189-0.13-0.369-0.22-0.55c-0.09-0.17-0.19-0.329-0.3-0.479
	c-0.11-0.149-0.24-0.279-0.38-0.399c-0.131-0.12-0.28-0.23-0.44-0.32c-0.16-0.09-0.32-0.16-0.49-0.22
	c-0.18-0.061-0.359-0.101-0.54-0.141c-0.2-0.01-0.39-0.02-0.59-0.02c0,0.16,0,0.32,0,0.479c0,1.94,0,3.86,0,5.801
	c0,0.158,0,0.33,0,0.488C5.568,26.581,5.758,26.581,5.958,26.571z"/>
<path fill="none" stroke="#231F20" stroke-width="0.5953" stroke-linecap="round" stroke-linejoin="round" d="M38.148,26.571
	c0-0.01,0-0.01,0-0.021"/>
<path fill="none" stroke="#231F20" stroke-width="0.8986" stroke-linecap="round" stroke-linejoin="round" d="M5.958,26.551
	c0,0.011,0,0.011,0,0.021c1.59,7.619,8.311,13.069,16.09,13.069c7.78,0,14.5-5.45,16.091-13.069"/>
<path fill="none" stroke="#231F20" stroke-width="0.5953" stroke-linecap="round" stroke-linejoin="round" d="M38.138,26.571
	c-0.171-0.039-0.352-0.08-0.521-0.14c-0.18-0.062-0.35-0.142-0.51-0.229c-0.15-0.091-0.3-0.191-0.439-0.311
	c-0.141-0.12-0.26-0.262-0.37-0.4c-0.119-0.15-0.22-0.31-0.3-0.48c-0.09-0.18-0.17-0.368-0.229-0.559
	c-0.062-0.201-0.101-0.4-0.13-0.611c-0.03-0.209-0.051-0.43-0.051-0.648c0-0.21,0.021-0.42,0.051-0.63
	c0.029-0.21,0.068-0.41,0.14-0.61c0.051-0.189,0.131-0.369,0.211-0.55c0.09-0.17,0.189-0.329,0.31-0.479
	c0.11-0.149,0.229-0.279,0.37-0.399s0.289-0.23,0.449-0.32c0.15-0.09,0.32-0.16,0.49-0.22c0.17-0.061,0.35-0.101,0.53-0.141h0.011
	c0.199-0.01,0.389-0.02,0.579-0.02c0,0.16,0,0.32,0,0.479c0,1.94,0,3.86,0,5.801c0,0.158,0,0.33,0,0.488
	c-0.19-0.01-0.38-0.01-0.579-0.02H38.138z"/>
<path fill="none" stroke="#231F20" stroke-width="0.5953" stroke-linecap="round" stroke-linejoin="round" d="M30.938,30.161
	c-1.07,0-1.931,0.871-1.931,1.93c0,1.07,0.859,1.941,1.931,1.941c1.07,0,1.939-0.871,1.939-1.941
	C32.878,31.032,32.008,30.161,30.938,30.161z"/>
<path fill="none" stroke="#231F20" stroke-width="0.5953" stroke-linecap="round" stroke-linejoin="round" d="M30.938,16.251
	c1.069,0,1.939-0.87,1.939-1.939c0-1.061-0.87-1.931-1.939-1.931c-1.07,0-1.931,0.87-1.931,1.931
	C29.008,15.381,29.867,16.251,30.938,16.251z"/>
<path fill="none" stroke="#231F20" stroke-width="0.5953" stroke-linecap="round" stroke-linejoin="round" d="M13.158,16.251
	c1.07,0,1.94-0.87,1.94-1.939c0-1.061-0.87-1.931-1.94-1.931s-1.93,0.87-1.93,1.931C11.228,15.381,12.088,16.251,13.158,16.251z"/>
<path fill="none" stroke="#231F20" stroke-width="0.5953" stroke-linecap="round" stroke-linejoin="round" d="M13.158,30.161
	c-1.07,0-1.93,0.871-1.93,1.93c0,1.07,0.859,1.941,1.93,1.941s1.94-0.871,1.94-1.941C15.098,31.032,14.228,30.161,13.158,30.161z"/>
<path fill="none" stroke="#231F20" stroke-width="0.5953" stroke-linecap="round" stroke-linejoin="round" d="M8.998,23.202
	c0,2.42,0.67,4.84,2,6.959c-0.99,1.1-0.99,2.771,0,3.871s2.65,1.279,3.851,0.42c0.09-0.061,0.17-0.131,0.25-0.201
	c2.08,1.312,4.489,2.01,6.949,2.01s4.87-0.698,6.96-2.01c1.101,0.99,2.771,0.99,3.87,0c1.101-0.99,1.28-2.648,0.42-3.85
	c-0.06-0.08-0.13-0.16-0.199-0.24c1.34-2.119,2.01-4.539,2.01-6.959c0-2.41-0.67-4.821-2.01-6.951
	c1.029-1.149,0.979-2.899-0.109-3.99c-0.601-0.6-1.201-0.85-2.051-0.85c-0.65,0-1.16,0.17-1.689,0.55
	c-0.09,0.061-0.17,0.12-0.24,0.19c-2.09-1.311-4.5-2-6.96-2s-4.869,0.689-6.949,2c-0.58-0.521-1.16-0.74-1.94-0.74
	c-0.85,0-1.45,0.25-2.05,0.85c-1,1.011-1.13,2.591-0.3,3.75c0.06,0.08,0.12,0.16,0.189,0.24C9.668,18.381,8.998,20.792,8.998,23.202
	z"/>
<path fill="none" stroke="#231F20" stroke-width="0.8986" stroke-linecap="round" stroke-linejoin="round" d="M15.768,26.831
	c-0.54,0-0.971-0.43-0.971-0.97c0-1.771,0-3.54,0-5.32c0-0.53,0.431-0.96,0.971-0.96c4.189,0,8.381,0,12.569,0
	c0.529,0,0.971,0.43,0.971,0.96c0,1.78,0,3.549,0,5.32c0,0.54-0.44,0.97-0.971,0.97C24.148,26.831,19.958,26.831,15.768,26.831z"/>
<path fill="none" stroke="#231F20" stroke-width="0.5953" stroke-linecap="round" stroke-linejoin="round" d="M43.808,26.852
	c0,0,0,0,0-0.021c-0.159,0.28-0.319,0.562-0.479,0.84c-0.811,0-1.609,0-2.42,0c-0.16-0.278-0.32-0.56-0.479-0.84
	c0-0.24,0-0.49,0-0.729c0-1.45,0-2.182,0-2.9c0-0.97,0-1.93,0-2.9c0-0.239,0-0.489,0-0.729c0.159-0.28,0.319-0.55,0.479-0.83
	c0.811,0,1.609,0,2.42,0c0.16,0.28,0.32,0.55,0.479,0.83c0,1.21,0,2.419,0,3.63c0,0.609,0,1.209,0,1.819c0,0.3,0,0.601,0,0.91
	c0,0.149,0,0.3,0,0.448c0,0.111,0,0.23,0,0.341c0,0.021,0,0.079,0,0.11"/>
<path fill="none" stroke="#231F20" stroke-width="0.5953" stroke-linecap="round" stroke-linejoin="round" d="M3.678,26.852
	c0,0,0,0,0-0.021c-0.16,0.28-0.32,0.562-0.48,0.84c-0.81,0-1.61,0-2.42,0c-0.16-0.278-0.32-0.56-0.48-0.84c0-0.24,0-0.49,0-0.729
	c0-1.45,0-2.182,0-2.9c0-0.97,0-1.93,0-2.9c0-0.239,0-0.489,0-0.729c0.16-0.28,0.32-0.55,0.48-0.83c0.81,0,1.61,0,2.42,0
	c0.16,0.28,0.32,0.55,0.48,0.83c0,1.21,0,2.419,0,3.63c0,0.609,0,1.209,0,1.819c0,0.3,0,0.601,0,0.91c0,0.149,0,0.3,0,0.448
	c0,0.111,0,0.23,0,0.341c0,0.021,0,0.079,0,0.11"/>
<line fill="none" stroke="#231F20" stroke-width="0.5953" stroke-linecap="round" stroke-linejoin="round" x1="40.428" y1="26.102" x2="38.728" y2="26.102"/>
<line fill="none" stroke="#231F20" stroke-width="0.5953" stroke-linecap="round" stroke-linejoin="round" x1="43.328" y1="25.441" x2="40.908" y2="25.441"/>
<line fill="none" stroke="#231F20" stroke-width="0.5953" stroke-linecap="round" stroke-linejoin="round" x1="0.778" y1="20.971" x2="3.188" y2="20.971"/>
<line fill="none" stroke="#231F20" stroke-width="0.5953" stroke-linecap="round" stroke-linejoin="round" x1="43.328" y1="20.971" x2="40.908" y2="20.971"/>
<line fill="none" stroke="#231F20" stroke-width="0.5953" stroke-linecap="round" stroke-linejoin="round" x1="0.778" y1="25.441" x2="3.188" y2="25.441"/>
<line fill="none" stroke="#231F20" stroke-width="0.5953" stroke-linecap="round" stroke-linejoin="round" x1="40.428" y1="20.301" x2="38.728" y2="20.301"/>
</svg>
