<?xml version="1.0" encoding="utf-8"?>
<!-- Generator: Adobe Illustrator 13.0.0, SVG Export Plug-In . SVG Version: 6.00 Build 14948)  -->
<!DOCTYPE svg PUBLIC "-//W3C//DTD SVG 1.1 Basic//EN" "http://www.w3.org/Graphics/SVG/1.1/DTD/svg11-basic.dtd">
<svg version="1.1" baseProfile="basic" xmlns="http://www.w3.org/2000/svg" xmlns:xlink="http://www.w3.org/1999/xlink" x="0px"
	 y="0px" width="44.761px" height="50.86px" viewBox="0 0 44.761 50.86" xml:space="preserve">
<g id="Default">
</g>
<g id="Make2D_visible_lines">
	<g>
		<linearGradient id="SVGID_1_" gradientUnits="userSpaceOnUse" x1="43.6899" y1="21.6362" x2="-1.4768" y2="17.2612">
			<stop  offset="0" style="stop-color:#E6E8EF"/>
			<stop  offset="1" style="stop-color:#ABBDD2"/>
		</linearGradient>
		<path fill="url(#SVGID_1_)" d="M43.996,14.375c-0.1-0.149-0.23-0.27-0.37-0.39c-0.16-0.15-0.34-0.28-0.53-0.38
			c-4.47-2.58-8.95-5.17-13.43-7.75c-7.24,4.05-17.74,13.95-17.74,13.95c-1.53,1.529-3.61,1.859-4.56,1.96
			c-0.99,0.1-2-0.061-2.9-0.5c-0.65-0.32-3.76-2.771-2.37-5.44c-0.28,0.271-0.57,0.55-0.85,0.83c-0.25,0.25-0.46,0.54-0.61,0.86
			c-0.13,0.29-0.21,0.59-0.21,0.91v2.02c0,0.05,0,0.1,0.01,0.15c0.01,0.06,0.02,0.109,0.04,0.16c0.03,0.109,0.09,0.22,0.16,0.31
			c0.16,0.22,0.38,0.39,0.61,0.53c6.36,3.67,12.74,7.35,19.11,11.02c0.61,0.351,1.21,0.7,1.82,1.05c0.14,0.08,0.28,0.15,0.44,0.21
			c0.15,0.061,0.31,0.11,0.47,0.15c0.36,0.08,0.72,0.12,1.08,0.12c0.37,0,0.72-0.04,1.07-0.12c0.32-0.08,0.64-0.19,0.92-0.36
			c5.65-3.26,11.29-6.51,16.94-9.77c0.09-0.061,0.18-0.11,0.27-0.17c0.09-0.061,0.17-0.13,0.26-0.21c0.14-0.12,0.28-0.26,0.39-0.42
			c0.19-0.271,0.32-0.59,0.32-0.91v-6.851C44.335,14.995,44.206,14.655,43.996,14.375z"/>
	</g>
	<linearGradient id="SVGID_2_" gradientUnits="userSpaceOnUse" x1="44.5054" y1="35.4399" x2="0.7402" y2="35.4399">
		<stop  offset="0" style="stop-color:#E6E8EF"/>
		<stop  offset="1" style="stop-color:#ABBDD2"/>
	</linearGradient>
	<path fill="url(#SVGID_2_)" d="M0.635,21.065c0.16,0.22,0.38,0.39,0.61,0.53c6.36,3.67,12.74,7.35,19.11,11.02
		c0.61,0.351,1.21,0.7,1.82,1.05c0.14,0.08,0.28,0.15,0.44,0.21c0.15,0.061,0.31,0.11,0.47,0.15c0.36,0.08,0.72,0.12,1.08,0.12
		c0.37,0,0.72-0.04,1.07-0.12c0.32-0.08,0.64-0.19,0.92-0.36c5.65-3.26,11.29-6.51,16.94-9.77c0.09-0.061,0.18-0.11,0.27-0.17
		c0.09-0.061,0.17-0.13,0.26-0.21c0.14-0.12,0.28-0.26,0.39-0.42c0.19-0.271,0.32-0.59,0.32-0.91v17.79l-17.31,9.979
		c-0.28,0.16-0.59,0.28-0.92,0.351c-0.34,0.09-0.7,0.13-1.06,0.13c-0.37,0-0.73-0.04-1.09-0.13c-0.16-0.03-0.32-0.08-0.47-0.141
		c-0.15-0.06-0.3-0.13-0.44-0.21l-22.62-13.39v-16.12c0,0.05,0,0.1,0.01,0.15c0.01,0.06,0.02,0.109,0.04,0.16
		C0.505,20.865,0.565,20.975,0.635,21.065z"/>
	<linearGradient id="SVGID_3_" gradientUnits="userSpaceOnUse" x1="3.0254" y1="36.3799" x2="9.7954" y2="36.3799">
		<stop  offset="0" style="stop-color:#F7F4EA"/>
		<stop  offset="1" style="stop-color:#F4EDCE"/>
	</linearGradient>
	<polygon fill="url(#SVGID_3_)" stroke="#444346" stroke-width="0.5669" points="3.025,33.605 9.795,37.445 9.795,39.155 
		3.025,35.315 	"/>
	<linearGradient id="SVGID_4_" gradientUnits="userSpaceOnUse" x1="3.0254" y1="32.6602" x2="9.7954" y2="32.6602">
		<stop  offset="0" style="stop-color:#F7F4EA"/>
		<stop  offset="1" style="stop-color:#F4EDCE"/>
	</linearGradient>
	<polygon fill="url(#SVGID_4_)" stroke="#444346" stroke-width="0.5669" points="9.795,35.435 3.025,31.595 3.025,29.885 
		9.795,33.725 	"/>
	<linearGradient id="SVGID_5_" gradientUnits="userSpaceOnUse" x1="3.0254" y1="29.0596" x2="9.7954" y2="29.0596">
		<stop  offset="0" style="stop-color:#F7F4EA"/>
		<stop  offset="1" style="stop-color:#F4EDCE"/>
	</linearGradient>
	<polygon fill="url(#SVGID_5_)" stroke="#444346" stroke-width="0.5669" points="9.795,31.834 3.025,27.995 3.025,26.285 
		9.795,30.125 	"/>
	<linearGradient id="SVGID_6_" gradientUnits="userSpaceOnUse" x1="15.4453" y1="43.3047" x2="22.2153" y2="43.3047">
		<stop  offset="0" style="stop-color:#F7F4EA"/>
		<stop  offset="1" style="stop-color:#F4EDCE"/>
	</linearGradient>
	<polygon fill="url(#SVGID_6_)" stroke="#444346" stroke-width="0.5669" points="15.445,40.525 22.215,44.365 22.215,46.084 
		15.445,42.235 	"/>
	<linearGradient id="SVGID_7_" gradientUnits="userSpaceOnUse" x1="15.4453" y1="39.585" x2="22.2153" y2="39.585">
		<stop  offset="0" style="stop-color:#F7F4EA"/>
		<stop  offset="1" style="stop-color:#F4EDCE"/>
	</linearGradient>
	<polygon fill="url(#SVGID_7_)" stroke="#444346" stroke-width="0.5669" points="22.215,42.365 15.445,38.525 15.445,36.805 
		22.215,40.655 	"/>
	<linearGradient id="SVGID_8_" gradientUnits="userSpaceOnUse" x1="15.4453" y1="35.9849" x2="22.2153" y2="35.9849">
		<stop  offset="0" style="stop-color:#F7F4EA"/>
		<stop  offset="1" style="stop-color:#F4EDCE"/>
	</linearGradient>
	<polygon fill="url(#SVGID_8_)" stroke="#444346" stroke-width="0.5669" points="22.215,38.765 15.445,34.915 15.445,33.205 
		22.215,37.055 	"/>
	<linearGradient id="SVGID_9_" gradientUnits="userSpaceOnUse" x1="21.7153" y1="25.4502" x2="26.6353" y2="25.4502">
		<stop  offset="0" style="stop-color:#F7F4EA"/>
		<stop  offset="1" style="stop-color:#F4EDCE"/>
	</linearGradient>
	<path fill="url(#SVGID_9_)" stroke="#444346" stroke-width="0.5669" d="M21.715,25.925c0.79-0.78,1.66-1.62,2.46-2.37
		c0.82,0.47,1.64,0.95,2.46,1.42c-0.86,0.8-1.62,1.54-2.46,2.37C23.355,26.875,22.535,26.405,21.715,25.925z"/>
	<linearGradient id="SVGID_10_" gradientUnits="userSpaceOnUse" x1="17.9756" y1="23.2949" x2="22.8955" y2="23.2949">
		<stop  offset="0" style="stop-color:#F7F4EA"/>
		<stop  offset="1" style="stop-color:#F4EDCE"/>
	</linearGradient>
	<path fill="url(#SVGID_10_)" stroke="#444346" stroke-width="0.5669" d="M17.976,23.775c0.79-0.79,1.66-1.63,2.46-2.38
		c0.82,0.479,1.64,0.95,2.46,1.42c-0.86,0.8-1.62,1.54-2.46,2.38C19.615,24.715,18.795,24.245,17.976,23.775z"/>
	<linearGradient id="SVGID_11_" gradientUnits="userSpaceOnUse" x1="14.2852" y1="21.1602" x2="19.1953" y2="21.1602">
		<stop  offset="0" style="stop-color:#F7F4EA"/>
		<stop  offset="1" style="stop-color:#F4EDCE"/>
	</linearGradient>
	<path fill="url(#SVGID_11_)" stroke="#444346" stroke-width="0.5669" d="M16.746,19.265c0.81,0.47,1.63,0.95,2.45,1.42
		c-0.85,0.8-1.61,1.54-2.45,2.37c-0.82-0.471-1.64-0.94-2.46-1.42C15.065,20.855,15.936,20.015,16.746,19.265z"/>
	<linearGradient id="SVGID_12_" gradientUnits="userSpaceOnUse" x1="18.3154" y1="17.4399" x2="23.2256" y2="17.4399">
		<stop  offset="0" style="stop-color:#F7F4EA"/>
		<stop  offset="1" style="stop-color:#F4EDCE"/>
	</linearGradient>
	<path fill="url(#SVGID_12_)" stroke="#444346" stroke-width="0.5669" d="M18.315,17.785c0.78-0.7,1.65-1.45,2.45-2.109
		c0.82,0.47,1.64,0.949,2.46,1.42c-0.85,0.699-1.62,1.359-2.46,2.109C19.945,18.725,19.135,18.255,18.315,17.785z"/>
	<linearGradient id="SVGID_13_" gradientUnits="userSpaceOnUse" x1="25.7456" y1="22.0098" x2="30.6655" y2="22.0098">
		<stop  offset="0" style="stop-color:#F7F4EA"/>
		<stop  offset="1" style="stop-color:#F4EDCE"/>
	</linearGradient>
	<path fill="url(#SVGID_13_)" stroke="#444346" stroke-width="0.5669" d="M28.206,20.245c0.82,0.48,1.63,0.95,2.46,1.42
		c-0.85,0.7-1.62,1.36-2.46,2.11c-0.82-0.47-1.64-0.95-2.46-1.42C26.535,21.655,27.405,20.905,28.206,20.245z"/>
	<linearGradient id="SVGID_14_" gradientUnits="userSpaceOnUse" x1="29.4053" y1="18.5298" x2="34.3252" y2="18.5298">
		<stop  offset="0" style="stop-color:#F7F4EA"/>
		<stop  offset="1" style="stop-color:#F4EDCE"/>
	</linearGradient>
	<path fill="url(#SVGID_14_)" stroke="#444346" stroke-width="0.5669" d="M29.405,18.745c0.8-0.62,1.66-1.27,2.46-1.85
		c0.82,0.47,1.63,0.939,2.46,1.41c-0.85,0.62-1.63,1.21-2.46,1.859C31.045,19.695,30.226,19.225,29.405,18.745z"/>
	<linearGradient id="SVGID_15_" gradientUnits="userSpaceOnUse" x1="25.6655" y1="16.3701" x2="30.5752" y2="16.3701">
		<stop  offset="0" style="stop-color:#F7F4EA"/>
		<stop  offset="1" style="stop-color:#F4EDCE"/>
	</linearGradient>
	<path fill="url(#SVGID_15_)" stroke="#444346" stroke-width="0.5669" d="M28.125,14.735c0.82,0.47,1.63,0.94,2.45,1.42
		c-0.84,0.61-1.62,1.2-2.45,1.851c-0.82-0.471-1.64-0.94-2.46-1.421C26.456,15.965,27.325,15.315,28.125,14.735z"/>
	<linearGradient id="SVGID_16_" gradientUnits="userSpaceOnUse" x1="21.9756" y1="14.2397" x2="26.8853" y2="14.2397">
		<stop  offset="0" style="stop-color:#F7F4EA"/>
		<stop  offset="1" style="stop-color:#F4EDCE"/>
	</linearGradient>
	<path fill="url(#SVGID_16_)" stroke="#444346" stroke-width="0.5669" d="M21.976,14.455c0.79-0.62,1.65-1.27,2.45-1.85
		c0.82,0.47,1.64,0.939,2.46,1.42c-0.84,0.61-1.62,1.2-2.46,1.85C23.605,15.405,22.785,14.925,21.976,14.455z"/>
	<linearGradient id="SVGID_17_" gradientUnits="userSpaceOnUse" x1="18.1855" y1="7.2437" x2="20.7754" y2="7.2437">
		<stop  offset="0" style="stop-color:#E6E8EF"/>
		<stop  offset="1" style="stop-color:#ABBDD2"/>
	</linearGradient>
	<path fill="url(#SVGID_17_)" stroke="#444346" stroke-width="0.8504" d="M19.775,6.334c0.48-0.39,0.88-0.3,0.97,0.2
		c0.01,0.061,0.02,0.12,0.03,0.181c-0.13,0.55-0.22,1.109-0.25,1.68c-0.01,0-0.03,0-0.04,0c-0.87-0.04-1.7-0.271-2.3-0.8
		c0.01-0.011,0.01-0.011,0.01-0.011c0.06-0.05,0.13-0.109,0.2-0.159C18.855,7.065,19.315,6.695,19.775,6.334z"/>
	<linearGradient id="SVGID_18_" gradientUnits="userSpaceOnUse" x1="3.4253" y1="8.5054" x2="24.2056" y2="8.5054">
		<stop  offset="0" style="stop-color:#E6E8EF"/>
		<stop  offset="1" style="stop-color:#ABBDD2"/>
	</linearGradient>
	<path fill="url(#SVGID_18_)" d="M5.005,16.584c-0.32,0.011-0.61-0.06-0.86-0.21c-0.25-0.14-0.45-0.359-0.58-0.619
		c-0.09-0.221-0.14-0.461-0.14-0.7c0.01-0.16,0.03-0.32,0.07-0.48c0.04-0.149,0.09-0.3,0.16-0.439c0.03-0.051,0.05-0.101,0.08-0.141
		c0.09-0.17,0.21-0.33,0.34-0.46c2.26-3.069,4.89-5.83,7.83-8.26c1.97-1.52,3.98-2.77,5.97-3.68c0.84-0.391,1.67-0.721,2.5-0.99
		c0.13-0.061,0.26-0.1,0.4-0.13c0.17-0.03,0.36-0.05,0.55-0.05c0.17,0,0.34,0.01,0.51,0.02c0.28,0.04,0.56,0.09,0.83,0.16
		c0.34,0.1,0.65,0.229,0.9,0.37c0.25,0.14,0.43,0.3,0.54,0.46c0.03,0.05,0.06,0.1,0.07,0.14c0.03,0.08,0.04,0.16,0.02,0.23
		c-0.02,0.069-0.05,0.14-0.11,0.2c-0.06,0.06-0.14,0.119-0.23,0.17c-0.03,0.01-0.05,0.02-0.08,0.04c-0.11,0.04-0.22,0.079-0.34,0.1
		c-0.02,0.01-0.04,0.02-0.06,0.02c-2.78,0.91-5.67,2.511-8.47,4.671c-2.78,2.26-5.46,5.079-7.83,8.26
		c-0.1,0.16-0.21,0.319-0.34,0.46c-0.03,0.03-0.07,0.069-0.1,0.1c-0.12,0.12-0.26,0.24-0.4,0.34c-0.15,0.101-0.3,0.19-0.46,0.25
		C5.525,16.525,5.255,16.575,5.005,16.584z"/>
	<linearGradient id="SVGID_19_" gradientUnits="userSpaceOnUse" x1="3.2012" y1="10.7808" x2="25.1294" y2="10.7808">
		<stop  offset="0" style="stop-color:#E6E8EF"/>
		<stop  offset="1" style="stop-color:#ABBDD2"/>
	</linearGradient>
	<path fill="url(#SVGID_19_)" d="M4.146,16.375c0.25,0.15,0.54,0.221,0.86,0.21c0.25-0.01,0.52-0.06,0.77-0.17
		c0.16-0.06,0.31-0.149,0.46-0.25c0.14-0.1,0.28-0.22,0.4-0.34c0.03-0.03,0.07-0.069,0.1-0.1c0.13-0.141,0.24-0.3,0.34-0.46
		c2.37-3.181,5.05-6,7.83-8.26c2.8-2.16,5.69-3.761,8.47-4.671c0.02,0,0.04-0.01,0.06-0.02c0.12-0.021,0.23-0.06,0.34-0.1
		c0.03-0.021,0.05-0.03,0.08-0.04c0.09-0.051,0.17-0.11,0.23-0.17c0.06-0.061,0.09-0.131,0.11-0.2c0.02-0.07,0.01-0.15-0.02-0.23
		l0.01-0.01c0.28,0.479,0.49,0.979,0.65,1.51c0.26,0.88,0.35,1.82,0.26,2.78c-0.05,0.31-0.13,0.5-0.25,0.7
		c-0.21,0.35-0.56,0.68-0.99,0.97c-0.45,0.28-0.98,0.5-1.55,0.66c-0.57,0.149-1.19,0.22-1.78,0.21c0.03-0.57,0.12-1.13,0.25-1.68
		c-0.01-0.061-0.02-0.12-0.03-0.181c-0.09-0.5-0.49-0.59-0.97-0.2c-0.46,0.36-0.92,0.73-1.38,1.091c-0.07,0.05-0.14,0.109-0.2,0.159
		c0,0,0,0-0.01,0.011c-0.92,0.729-1.85,1.47-2.78,2.199c-1,0.801-2,1.591-3,2.381c-0.46,0.359-0.91,0.72-1.37,1.09
		c-0.48,0.38-0.76,1-0.67,1.51c0.01,0.06,0.02,0.12,0.03,0.17c0.17,0.2,0.35,0.4,0.52,0.59c0.27,0.311,0.39,0.7,0.34,1.11
		c-0.02,0.13-0.05,0.25-0.08,0.38c-0.09,0.3-0.23,0.58-0.41,0.84c-0.41,0.63-1,1.12-1.66,1.48c-0.67,0.37-1.41,0.6-2.16,0.64
		c-0.69,0.05-1.4-0.06-2.03-0.44c-0.36-0.21-0.65-0.489-0.86-0.819c-0.12-0.181-0.23-0.37-0.33-0.57c-0.1-0.2-0.18-0.399-0.25-0.61
		c-0.14-0.399-0.23-0.81-0.26-1.229c-0.05-0.62,0.03-1.25,0.26-1.82v-0.01c0.05-0.13,0.1-0.24,0.17-0.36l0.01,0.011
		c-0.07,0.14-0.12,0.29-0.16,0.439c-0.04,0.16-0.06,0.32-0.07,0.48c0,0.239,0.05,0.479,0.14,0.7
		C3.695,16.015,3.896,16.235,4.146,16.375z"/>
	<linearGradient id="SVGID_20_" gradientUnits="userSpaceOnUse" x1="12.6123" y1="7.5146" x2="17.3623" y2="14.5146">
		<stop  offset="0" style="stop-color:#E6E8EF"/>
		<stop  offset="1" style="stop-color:#ABBDD2"/>
	</linearGradient>
	<path fill="url(#SVGID_20_)" d="M4.055,18.725c0.21,0.33,0.5,0.609,0.86,0.819c0.63,0.381,1.34,0.49,2.03,0.44
		c0.75-0.04,1.49-0.27,2.16-0.64c0.66-0.36,1.25-0.851,1.66-1.48c0.18-0.26,0.32-0.54,0.41-0.84c0.03-0.13,0.06-0.25,0.08-0.38
		c0.05-0.41-0.07-0.8-0.34-1.11c-0.17-0.189-0.35-0.39-0.52-0.59c-0.01-0.05-0.02-0.11-0.03-0.17c-0.09-0.51,0.19-1.13,0.67-1.51
		c0.46-0.37,0.91-0.73,1.37-1.09c1-0.79,2-1.58,3-2.381c0.93-0.729,1.86-1.47,2.78-2.199c0.6,0.529,1.43,0.76,2.3,0.8
		c0.01,0,0.03,0,0.04,0c0.59,0.01,1.21-0.061,1.78-0.21c0.57-0.16,1.1-0.38,1.55-0.66c0.43-0.29,0.78-0.62,0.99-0.97
		c0.12-0.2,0.2-0.391,0.25-0.7c0.09-0.96,0-1.9-0.26-2.78l0.01-0.01c1.61,0.93,3.21,1.85,4.82,2.79
		c-7.24,4.05-17.74,13.95-17.74,13.95c-1.53,1.529-3.61,1.859-4.56,1.96c-0.99,0.1-2-0.061-2.9-0.5c-0.65-0.32-3.76-2.771-2.37-5.44
		v-0.01c0.45-0.44,0.91-0.88,1.38-1.32c-0.23,0.57-0.31,1.2-0.26,1.82c0.03,0.42,0.12,0.83,0.26,1.229
		c0.07,0.211,0.15,0.41,0.25,0.61C3.825,18.355,3.936,18.544,4.055,18.725z"/>
	<linearGradient id="SVGID_21_" gradientUnits="userSpaceOnUse" x1="26.1152" y1="12.9302" x2="39.5552" y2="12.9302">
		<stop  offset="0" style="stop-color:#F7F4EA"/>
		<stop  offset="1" style="stop-color:#F4EDCE"/>
	</linearGradient>
	<path fill="url(#SVGID_21_)" stroke="#444346" stroke-width="0.5669" d="M29.715,8.855c3.54,2.05,6.29,3.63,9.84,5.68
		c-0.83,0.521-2.77,1.9-3.59,2.471c-3.56-2.051-6.3-3.631-9.85-5.681C26.916,10.775,28.905,9.355,29.715,8.855z"/>
	<line fill="none" stroke="#444346" stroke-width="0.8504" x1="24.835" y1="3.075" x2="24.845" y2="3.065"/>
	<line fill="none" stroke="#444346" stroke-width="0.8504" x1="3.646" y1="14.125" x2="3.655" y2="14.135"/>
	<line fill="none" stroke="#444346" stroke-width="0.8504" x1="24.175" y1="1.575" x2="24.186" y2="1.565"/>
	
		<line fill="none" stroke="#444346" stroke-width="0.5943" stroke-linecap="round" stroke-linejoin="round" x1="24.625" y1="35.846" x2="24.625" y2="48.552"/>
	
		<line fill="none" stroke="#444346" stroke-width="0.5943" stroke-linecap="round" stroke-linejoin="round" x1="41.206" y1="28.495" x2="41.206" y2="35.485"/>
	
		<line fill="none" stroke="#444346" stroke-width="0.5943" stroke-linecap="round" stroke-linejoin="round" x1="39.345" y1="29.715" x2="39.345" y2="36.705"/>
	
		<line fill="none" stroke="#444346" stroke-width="0.5943" stroke-linecap="round" stroke-linejoin="round" x1="37.485" y1="30.935" x2="37.485" y2="37.935"/>
	
		<line fill="none" stroke="#444346" stroke-width="0.5943" stroke-linecap="round" stroke-linejoin="round" x1="35.625" y1="32.165" x2="35.625" y2="39.155"/>
	
		<line fill="none" stroke="#444346" stroke-width="0.5943" stroke-linecap="round" stroke-linejoin="round" x1="33.765" y1="33.375" x2="33.765" y2="40.345"/>
	
		<line fill="none" stroke="#444346" stroke-width="0.5943" stroke-linecap="round" stroke-linejoin="round" x1="12.375" y1="30.975" x2="12.375" y2="41.084"/>
	<linearGradient id="SVGID_22_" gradientUnits="userSpaceOnUse" x1="3.0254" y1="32.6602" x2="9.7954" y2="32.6602">
		<stop  offset="0" style="stop-color:#F7F4EA"/>
		<stop  offset="1" style="stop-color:#F4EDCE"/>
	</linearGradient>
	<polygon fill="url(#SVGID_22_)" stroke="#444346" stroke-width="0.5669" points="3.025,31.595 9.795,35.435 9.795,33.725 
		3.025,29.885 	"/>
	<path fill="none" stroke="#444346" stroke-width="0.8504" d="M9.795,31.834"/>
	<linearGradient id="SVGID_23_" gradientUnits="userSpaceOnUse" x1="3.0254" y1="36.3799" x2="9.7954" y2="36.3799">
		<stop  offset="0" style="stop-color:#F7F4EA"/>
		<stop  offset="1" style="stop-color:#F4EDCE"/>
	</linearGradient>
	<polygon fill="url(#SVGID_23_)" stroke="#444346" stroke-width="0.5669" points="3.025,35.315 9.795,39.155 9.795,37.445 
		3.025,33.605 	"/>
	<linearGradient id="SVGID_24_" gradientUnits="userSpaceOnUse" x1="15.4453" y1="35.9849" x2="22.2153" y2="35.9849">
		<stop  offset="0" style="stop-color:#F7F4EA"/>
		<stop  offset="1" style="stop-color:#F4EDCE"/>
	</linearGradient>
	<polygon fill="url(#SVGID_24_)" stroke="#444346" stroke-width="0.5669" points="15.445,34.915 22.215,38.765 22.215,37.055 
		15.445,33.205 	"/>
	<path fill="none" stroke="#444346" stroke-width="0.8504" d="M44.335,22.165c0-2.17,0-4.35,0-6.529c0-0.051,0-0.101,0-0.15v-0.15
		c0-0.34-0.13-0.68-0.34-0.96c-0.1-0.149-0.23-0.27-0.37-0.39c-0.16-0.15-0.34-0.28-0.53-0.38c-4.47-2.58-8.95-5.17-13.43-7.75
		c-1.61-0.94-3.21-1.86-4.82-2.79"/>
	<path fill="none" stroke="#444346" stroke-width="0.5943" stroke-linecap="round" stroke-linejoin="round" d="M0.425,20.445
		c0,0.05,0,0.1,0.01,0.15c0.01,0.06,0.02,0.109,0.04,0.16c0.03,0.109,0.09,0.22,0.16,0.31c0.16,0.22,0.38,0.39,0.61,0.53
		c6.36,3.67,12.74,7.35,19.11,11.02c0.61,0.351,1.21,0.7,1.82,1.05c0.14,0.08,0.28,0.15,0.44,0.21c0.15,0.061,0.31,0.11,0.47,0.15
		c0.36,0.08,0.72,0.12,1.08,0.12c0.37,0,0.72-0.04,1.07-0.12c0.32-0.08,0.64-0.19,0.92-0.36c5.65-3.26,11.29-6.51,16.94-9.77
		c0.09-0.061,0.18-0.11,0.27-0.17c0.09-0.061,0.17-0.13,0.26-0.21c0.14-0.12,0.28-0.26,0.39-0.42c0.19-0.271,0.32-0.59,0.32-0.91"/>
	<path fill="none" stroke="#444346" stroke-width="0.8504" d="M2.095,15.825c-0.28,0.271-0.57,0.55-0.85,0.83
		c-0.25,0.25-0.46,0.54-0.61,0.86c-0.13,0.29-0.21,0.59-0.21,0.91c0,0.02,0,0.04,0,0.06c0,0.65,0,1.31,0,1.96"/>
	<path fill="none" stroke="#444346" stroke-width="0.8504" d="M3.476,14.495c-0.47,0.44-0.93,0.88-1.38,1.32"/>
	<path fill="none" stroke="#444346" stroke-width="0.8504" d="M0.425,36.565l22.62,13.39c0.14,0.08,0.29,0.15,0.44,0.21
		c0.15,0.061,0.31,0.11,0.47,0.141c0.36,0.09,0.72,0.13,1.09,0.13c0.36,0,0.72-0.04,1.06-0.13c0.33-0.07,0.64-0.19,0.92-0.351
		l17.31-9.979v-17.79v-0.021"/>
	<path fill="none" stroke="#444346" stroke-width="0.8504" d="M24.186,1.565c0.28,0.479,0.49,0.979,0.65,1.51
		c0.26,0.88,0.35,1.82,0.26,2.78c-0.05,0.31-0.13,0.5-0.25,0.7c-0.21,0.35-0.56,0.68-0.99,0.97c-0.45,0.28-0.98,0.5-1.55,0.66
		c-0.57,0.149-1.19,0.22-1.78,0.21c-0.01,0-0.03,0-0.04,0c-0.87-0.04-1.7-0.271-2.3-0.8"/>
	<path fill="none" stroke="#444346" stroke-width="0.5943" stroke-linecap="round" stroke-linejoin="round" d="M42.585,15.635
		c-5.95,3.489-11.35,9.04-17.05,14.25c-0.13,0.12-0.28,0.239-0.44,0.35c-0.16,0.11-0.33,0.2-0.5,0.29c-0.35,0.17-0.72,0.3-1.11,0.37
		c-0.35,0.06-0.71,0.07-1.06,0.02c-0.32-0.04-0.63-0.149-0.91-0.319c-1.22-0.78-2.44-1.561-3.67-2.34"/>
	<path fill="none" stroke="#444346" stroke-width="0.8504" d="M20.525,8.395c0.03-0.57,0.12-1.13,0.25-1.68
		c-0.01-0.061-0.02-0.12-0.03-0.181c-0.09-0.5-0.49-0.59-0.97-0.2c-0.46,0.36-0.92,0.73-1.38,1.091c-0.07,0.05-0.14,0.109-0.2,0.159
		c0,0,0,0-0.01,0.011c-0.92,0.729-1.85,1.47-2.78,2.199c-1,0.801-2,1.591-3,2.381c-0.46,0.359-0.91,0.72-1.37,1.09
		c-0.48,0.38-0.76,1-0.67,1.51c0.01,0.06,0.02,0.12,0.03,0.17c0.17,0.2,0.35,0.4,0.52,0.59c0.27,0.311,0.39,0.7,0.34,1.11
		c-0.02,0.13-0.05,0.25-0.08,0.38c-0.09,0.3-0.23,0.58-0.41,0.84c-0.41,0.63-1,1.12-1.66,1.48c-0.67,0.37-1.41,0.6-2.16,0.64
		c-0.69,0.05-1.4-0.06-2.03-0.44c-0.36-0.21-0.65-0.489-0.86-0.819c-0.12-0.181-0.23-0.37-0.33-0.57c-0.1-0.2-0.18-0.399-0.25-0.61
		c-0.14-0.399-0.23-0.81-0.26-1.229c-0.05-0.62,0.03-1.25,0.26-1.82v-0.01c0.05-0.13,0.1-0.24,0.17-0.36
		c0.02-0.029,0.04-0.069,0.06-0.1"/>
	<path fill="none" stroke="#444346" stroke-width="0.8504" d="M3.564,14.351c-0.026,0.074-0.049,0.148-0.068,0.224"/>
	<path fill="none" stroke="#444346" stroke-width="0.8504" d="M24.195,1.805c0.02-0.07,0.01-0.15-0.02-0.23
		c-0.01-0.04-0.04-0.09-0.07-0.14c-0.11-0.16-0.29-0.32-0.54-0.46c-0.25-0.141-0.56-0.271-0.9-0.37c-0.27-0.07-0.55-0.12-0.83-0.16
		c-0.17-0.01-0.34-0.02-0.51-0.02c-0.19,0-0.38,0.02-0.55,0.05c-0.14,0.03-0.27,0.069-0.4,0.13c-0.83,0.27-1.66,0.6-2.5,0.99
		c-1.99,0.91-4,2.16-5.97,3.68c-2.94,2.43-5.57,5.19-7.83,8.26c-0.13,0.13-0.25,0.29-0.34,0.46c-0.03,0.04-0.05,0.09-0.08,0.141
		c-0.035,0.069-0.065,0.142-0.091,0.216"/>
	<path fill="none" stroke="#444346" stroke-width="0.5943" stroke-linecap="round" stroke-linejoin="round" d="M3.564,14.351
		c-0.04,0.16-0.06,0.32-0.07,0.48c0,0.239,0.05,0.479,0.14,0.7c0.13,0.26,0.33,0.479,0.58,0.619c0.25,0.15,0.54,0.221,0.86,0.21
		c0.25-0.01,0.52-0.06,0.77-0.17c0.16-0.06,0.31-0.149,0.46-0.25c0.14-0.1,0.28-0.22,0.4-0.34c0.03-0.03,0.07-0.069,0.1-0.1
		c0.13-0.141,0.24-0.3,0.34-0.46c2.37-3.181,5.05-6,7.83-8.26c2.8-2.16,5.69-3.761,8.47-4.671c0.02,0,0.04-0.01,0.06-0.02
		c0.12-0.021,0.23-0.06,0.34-0.1c0.03-0.021,0.05-0.03,0.08-0.04c0.09-0.051,0.17-0.11,0.23-0.17c0.06-0.061,0.09-0.131,0.11-0.2"/>
	<linearGradient id="SVGID_25_" gradientUnits="userSpaceOnUse" x1="22.0054" y1="19.5698" x2="26.9155" y2="19.5698">
		<stop  offset="0" style="stop-color:#F7F4EA"/>
		<stop  offset="1" style="stop-color:#F4EDCE"/>
	</linearGradient>
	<path fill="url(#SVGID_25_)" stroke="#444346" stroke-width="0.5669" d="M26.916,19.225c-0.84,0.7-1.62,1.359-2.45,2.109
		c-0.82-0.47-1.64-0.949-2.46-1.42c0.79-0.699,1.66-1.449,2.46-2.109C25.285,18.285,26.105,18.755,26.916,19.225z"/>
	<path fill="none" stroke="#444346" stroke-width="0.5943" stroke-linecap="round" stroke-linejoin="round" d="M29.666,5.855
		c-7.24,4.05-17.74,13.95-17.74,13.95c-1.53,1.529-3.61,1.859-4.56,1.96c-0.99,0.1-2-0.061-2.9-0.5c-0.65-0.32-3.76-2.771-2.37-5.44
		v-0.01"/>
	<line fill="none" stroke="#444346" stroke-width="0.8504" x1="0.425" y1="20.445" x2="0.425" y2="36.565"/>
</g>
</svg>
