<?xml version="1.0" encoding="utf-8"?>
<!-- Generator: Adobe Illustrator 13.0.0, SVG Export Plug-In . SVG Version: 6.00 Build 14948)  -->
<!DOCTYPE svg PUBLIC "-//W3C//DTD SVG 1.1 Basic//EN" "http://www.w3.org/Graphics/SVG/1.1/DTD/svg11-basic.dtd">
<svg version="1.1" baseProfile="basic" id="Слой_1"
	 xmlns="http://www.w3.org/2000/svg" xmlns:xlink="http://www.w3.org/1999/xlink" x="0px" y="0px" width="40.447px"
	 height="26.539px" viewBox="0 0 40.447 26.539" xml:space="preserve">
<linearGradient id="SVGID_1_" gradientUnits="userSpaceOnUse" x1="0.3879" y1="12.1143" x2="39.9851" y2="12.1143" gradientTransform="matrix(1 0 0 -1 0.0376 25.3838)">
	<stop  offset="0" style="stop-color:#E6E7EE"/>
	<stop  offset="1" style="stop-color:#ABBDD1"/>
</linearGradient>
<path fill="url(#SVGID_1_)" stroke="#454447" stroke-width="0.8504" d="M40.022,14.979c0-0.676-0.46-1.278-1.244-1.729
	C30.784,8.651,23.79,4.63,17.795,1.181c-1.756-1.01-4.233-1.007-5.982,0.007C7.83,3.494,5.641,4.765,1.659,7.071
	c-0.778,0.45-1.233,1.052-1.233,1.724c0,0.922,0,1.844,0,2.765c0,0.676,0.461,1.279,1.245,1.73
	c5.996,3.446,12.989,7.471,20.982,12.067c1.757,1.011,4.234,1.008,5.983-0.006c3.981-2.309,6.172-3.578,10.152-5.885
	c0.778-0.451,1.233-1.052,1.233-1.726C40.022,16.82,40.022,15.9,40.022,14.979z"/>
<linearGradient id="SVGID_2_" gradientUnits="userSpaceOnUse" x1="22.6062" y1="5.5557" x2="28.5886" y2="5.5557" gradientTransform="matrix(1 0 0 -1 0.0376 25.3838)">
	<stop  offset="0" style="stop-color:#F8F5EA"/>
	<stop  offset="1" style="stop-color:#F4EDCE"/>
</linearGradient>
<polygon fill="url(#SVGID_2_)" stroke="#454447" stroke-width="0.5669" stroke-linecap="round" stroke-linejoin="round" points="
	25.642,21.555 28.627,19.824 25.63,18.102 22.644,19.83 "/>
<linearGradient id="SVGID_3_" gradientUnits="userSpaceOnUse" x1="30.9675" y1="10.4023" x2="36.95" y2="10.4023" gradientTransform="matrix(1 0 0 -1 0.0376 25.3838)">
	<stop  offset="0" style="stop-color:#F8F5EA"/>
	<stop  offset="1" style="stop-color:#F4EDCE"/>
</linearGradient>
<polygon fill="url(#SVGID_3_)" stroke="#454447" stroke-width="0.5669" stroke-linecap="round" stroke-linejoin="round" points="
	34.002,16.709 36.988,14.979 33.991,13.254 31.005,14.984 "/>
<linearGradient id="SVGID_4_" gradientUnits="userSpaceOnUse" x1="26.7859" y1="7.979" x2="32.7703" y2="7.979" gradientTransform="matrix(1 0 0 -1 0.0376 25.3838)">
	<stop  offset="0" style="stop-color:#F8F5EA"/>
	<stop  offset="1" style="stop-color:#F4EDCE"/>
</linearGradient>
<polygon fill="url(#SVGID_4_)" stroke="#454447" stroke-width="0.5669" stroke-linecap="round" stroke-linejoin="round" points="
	29.821,19.132 32.808,17.4 29.81,15.678 26.824,17.407 "/>
<linearGradient id="SVGID_5_" gradientUnits="userSpaceOnUse" x1="18.1067" y1="8.2808" x2="24.0906" y2="8.2808" gradientTransform="matrix(1 0 0 -1 0.0376 25.3838)">
	<stop  offset="0" style="stop-color:#F8F5EA"/>
	<stop  offset="1" style="stop-color:#F4EDCE"/>
</linearGradient>
<polygon fill="url(#SVGID_5_)" stroke="#454447" stroke-width="0.5669" stroke-linecap="round" stroke-linejoin="round" points="
	21.142,18.83 24.128,17.1 21.131,15.376 18.144,17.105 "/>
<linearGradient id="SVGID_6_" gradientUnits="userSpaceOnUse" x1="26.4675" y1="13.1274" x2="32.4519" y2="13.1274" gradientTransform="matrix(1 0 0 -1 0.0376 25.3838)">
	<stop  offset="0" style="stop-color:#F8F5EA"/>
	<stop  offset="1" style="stop-color:#F4EDCE"/>
</linearGradient>
<polygon fill="url(#SVGID_6_)" stroke="#454447" stroke-width="0.5669" stroke-linecap="round" stroke-linejoin="round" points="
	29.503,13.984 32.489,12.253 29.491,10.529 26.506,12.261 "/>
<linearGradient id="SVGID_7_" gradientUnits="userSpaceOnUse" x1="22.2878" y1="10.7036" x2="28.2722" y2="10.7036" gradientTransform="matrix(1 0 0 -1 0.0376 25.3838)">
	<stop  offset="0" style="stop-color:#F8F5EA"/>
	<stop  offset="1" style="stop-color:#F4EDCE"/>
</linearGradient>
<polygon fill="url(#SVGID_7_)" stroke="#454447" stroke-width="0.5669" stroke-linecap="round" stroke-linejoin="round" points="
	25.323,16.407 28.309,14.677 25.312,12.953 22.325,14.684 "/>
<linearGradient id="SVGID_8_" gradientUnits="userSpaceOnUse" x1="13.6077" y1="10.6147" x2="19.5911" y2="10.6147" gradientTransform="matrix(1 0 0 -1 0.0376 25.3838)">
	<stop  offset="0" style="stop-color:#F8F5EA"/>
	<stop  offset="1" style="stop-color:#F4EDCE"/>
</linearGradient>
<polygon fill="url(#SVGID_8_)" stroke="#454447" stroke-width="0.5669" stroke-linecap="round" stroke-linejoin="round" points="
	16.643,16.496 19.629,14.766 16.632,13.042 13.645,14.771 "/>
<linearGradient id="SVGID_9_" gradientUnits="userSpaceOnUse" x1="21.9695" y1="15.4619" x2="27.9519" y2="15.4619" gradientTransform="matrix(1 0 0 -1 0.0376 25.3838)">
	<stop  offset="0" style="stop-color:#F8F5EA"/>
	<stop  offset="1" style="stop-color:#F4EDCE"/>
</linearGradient>
<polygon fill="url(#SVGID_9_)" stroke="#454447" stroke-width="0.5669" stroke-linecap="round" stroke-linejoin="round" points="
	25.004,11.65 27.99,9.919 24.993,8.195 22.007,9.927 "/>
<linearGradient id="SVGID_10_" gradientUnits="userSpaceOnUse" x1="17.7883" y1="13.0376" x2="23.7722" y2="13.0376" gradientTransform="matrix(1 0 0 -1 0.0376 25.3838)">
	<stop  offset="0" style="stop-color:#F8F5EA"/>
	<stop  offset="1" style="stop-color:#F4EDCE"/>
</linearGradient>
<polygon fill="url(#SVGID_10_)" stroke="#454447" stroke-width="0.5669" stroke-linecap="round" stroke-linejoin="round" points="
	20.823,14.073 23.81,12.343 20.812,10.619 17.826,12.349 "/>
<line fill="none" stroke="#454447" stroke-width="0.8504" stroke-linecap="round" stroke-linejoin="round" x1="6.907" y1="6.106" x2="11.421" y2="3.49"/>
<linearGradient id="SVGID_11_" gradientUnits="userSpaceOnUse" x1="4.6213" y1="17.0898" x2="23.1628" y2="17.0898" gradientTransform="matrix(1 0 0 -1 0.0376 25.3838)">
	<stop  offset="0" style="stop-color:#F8F5EA"/>
	<stop  offset="1" style="stop-color:#F4EDCE"/>
</linearGradient>
<polygon fill="url(#SVGID_11_)" stroke="#454447" stroke-width="0.5669" stroke-linecap="round" stroke-linejoin="round" points="
	11.853,13.677 23.2,7.101 16.006,2.91 4.659,9.487 "/>
<path fill="none" stroke="#454447" stroke-width="0.5943" stroke-linecap="round" stroke-linejoin="round" d="M0.38,8.774
	c0.002,0.672,0.461,1.271,1.24,1.722c5.977,3.438,12.948,7.443,20.914,12.027c1.751,1.007,4.221,1.004,5.965-0.006
	c3.969-2.301,6.146-3.563,10.113-5.862c0.775-0.449,1.229-1.048,1.229-1.72"/>
</svg>
