<?xml version="1.0" encoding="utf-8"?>
<!-- Generator: Adobe Illustrator 13.0.0, SVG Export Plug-In . SVG Version: 6.00 Build 14948)  -->
<!DOCTYPE svg PUBLIC "-//W3C//DTD SVG 1.1 Basic//EN" "http://www.w3.org/Graphics/SVG/1.1/DTD/svg11-basic.dtd">
<svg version="1.1" baseProfile="basic" id="Слой_1"
	 xmlns="http://www.w3.org/2000/svg" xmlns:xlink="http://www.w3.org/1999/xlink" x="0px" y="0px" width="36.667px"
	 height="40.328px" viewBox="0 0 36.667 40.328" xml:space="preserve">
<linearGradient id="SVGID_1_" gradientUnits="userSpaceOnUse" x1="1.2974" y1="17.5903" x2="34.8101" y2="17.5903" gradientTransform="matrix(1 0 0 -1 0.0376 39.1729)">
	<stop  offset="0" style="stop-color:#F8F5EA"/>
	<stop  offset="1" style="stop-color:#F4EDCE"/>
</linearGradient>
<path fill="url(#SVGID_1_)" d="M34.427,17.438c-0.02-0.06-0.051-0.12-0.08-0.18c-0.43,0.54-0.949,1-1.539,1.319
	c-0.07,0.051-0.15,0.091-0.23,0.131c-0.27,0.14-0.561,0.25-0.85,0.329c0.07,0.78,0.1,1.561,0.1,2.352
	c-0.01,1.729-0.199,3.469-0.608,5.209c0.709-0.49,1.35-1.09,1.879-1.789C34.667,22.758,35.357,19.768,34.427,17.438z M4.147,19.858
	c0.05-0.689,0.12-1.37,0.21-2.05c-0.32-0.11-0.63-0.23-0.93-0.38c-0.42-0.21-0.8-0.46-1.14-0.76c-0.04-0.03-0.07-0.07-0.09-0.101
	c-0.17,0.26-0.31,0.54-0.43,0.83c-0.94,2.32-0.27,5.32,1.27,7.38c0.5,0.66,1.08,1.229,1.73,1.709c-0.07-0.27-0.13-0.539-0.19-0.81
	C4.147,23.698,4.038,21.758,4.147,19.858z"/>
<path fill="none" stroke="#212323" stroke-width="0.5953" stroke-linecap="round" stroke-linejoin="round" d="M34.347,17.258
	c0.029,0.06,0.061,0.12,0.08,0.18c0.93,2.33,0.24,5.32-1.33,7.371c-0.529,0.699-1.17,1.299-1.879,1.789"/>
<linearGradient id="SVGID_2_" gradientUnits="userSpaceOnUse" x1="37.0132" y1="21.5801" x2="1.6802" y2="32.2471" gradientTransform="matrix(1 0 0 -1 0.0376 39.1729)">
	<stop  offset="0" style="stop-color:#E6E7EE"/>
	<stop  offset="1" style="stop-color:#ABBDD1"/>
</linearGradient>
<path fill="url(#SVGID_2_)" d="M26.177,21.468c-0.459-0.28-0.99-0.141-1.26,0.319c-0.279,0.471-0.141,0.99,0.319,1.271
	c0.47,0.27,0.99,0.14,1.271-0.33C26.778,22.268,26.648,21.738,26.177,21.468z M13.658,21.499c-0.46-0.271-0.99-0.142-1.26,0.329
	c-0.28,0.46-0.14,0.99,0.32,1.261c0.47,0.279,0.99,0.14,1.27-0.319C14.268,22.298,14.127,21.777,13.658,21.499z M35.107,7.298
	c-1.439-2.471-4.27-3.8-7.389-5.141c-2.932-1.25-6.131-2.51-8.381-1.06c-0.871,0.56-1.59,1.52-2.121,2.47
	c-0.35-0.64-0.82-1.25-1.41-1.689c-0.99-0.761-2.33-1.04-3.63-1.061c-0.03,0-0.07,0-0.1,0c-2.31-0.01-4.5,0.78-6.41,2.04
	c-2.51,1.67-4.53,4.17-5.07,7.26c-0.41,2.311,0,4.95,1.6,6.45c0.02,0.03,0.05,0.07,0.09,0.101c0.34,0.3,0.72,0.55,1.14,0.76
	c0.3,0.149,0.61,0.271,0.93,0.38c0,0,0.01,0,0.02,0l1.01,0.05c0-1.02,0.17-2.02,0.56-3.02c0.82-2.09,2.61-4.141,4.72-4.37
	c0.65-0.07,1.34,0.04,1.97,0.21c-0.04,0.49-0.15,0.97-0.35,1.41c-0.3,0.72-0.81,1.35-1.41,1.84c0.78-0.03,1.62-0.19,2.26-0.641
	c1.03-0.72,1.53-2.18,1.62-3.449c0.39,0.62,0.72,1.279,0.98,1.97c0.3,0.77,0.51,1.58,0.64,2.4c0.11-0.71,0.25-1.421,0.42-2.12
	c0.16-0.641,0.35-1.271,0.56-1.9c0.2,1.15,0.76,2.48,1.77,3.03c0.75,0.41,1.75,0.39,2.602,0.21c-0.461-0.38-0.859-0.9-1.041-1.479
	c-0.17-0.54-0.148-1.14-0.02-1.689c1.01,1.3,2.188,2.58,3.67,3.31c1.189,0.59,2.59,0.82,3.66,1.55
	c1.239,0.851,2.051,2.391,2.52,3.87l1.211,0.05c0.289-0.079,0.58-0.189,0.85-0.329c0.08-0.04,0.16-0.08,0.23-0.131
	c0.59-0.319,1.109-0.779,1.539-1.319c0.931-1.12,1.521-2.61,1.75-4.11C36.427,11.058,36.068,8.928,35.107,7.298z"/>
<g>
	
		<linearGradient id="SVGID_3_" gradientUnits="userSpaceOnUse" x1="4.0708" y1="14.3154" x2="31.7905" y2="14.3154" gradientTransform="matrix(1 0 0 -1 0.0376 39.1729)">
		<stop  offset="0" style="stop-color:#F8F5EA"/>
		<stop  offset="1" style="stop-color:#F4EDCE"/>
	</linearGradient>
	<path fill="url(#SVGID_3_)" d="M24.337,13.568c1.189,0.59,2.59,0.82,3.66,1.55c1.239,0.851,2.051,2.391,2.52,3.87
		c0.031,0.101,0.061,0.19,0.09,0.29l1.131-0.08c0.061,0.729,0.09,1.45,0.09,2.19c-0.01,1.729-0.199,3.469-0.608,5.209
		c-0.091,0.381-0.19,0.771-0.302,1.15c-0.89,3.068-2.479,6.13-4.549,8.289c-2.541,2.671-5.811,3.971-8.871,3.83
		c-2.89-0.119-5.6-1.5-7.9-4.09c-2.16-2.41-3.95-5.87-4.83-9.291c-0.07-0.27-0.13-0.539-0.19-0.81c-0.43-1.979-0.54-3.92-0.43-5.82
		c0.05-0.689,0.12-1.37,0.21-2.05l1.03,0.03c0-1.011,0.17-2.011,0.56-3c0.82-2.09,2.61-4.141,4.72-4.37
		c0.65-0.07,1.34,0.04,1.97,0.21c-0.04,0.49-0.15,0.97-0.35,1.41c-0.3,0.72-0.81,1.35-1.41,1.84c0.78-0.03,1.62-0.19,2.26-0.641
		c1.03-0.72,1.53-2.18,1.62-3.449c0.39,0.62,0.72,1.279,0.98,1.97c0.3,0.77,0.51,1.58,0.64,2.4c0.11-0.71,0.25-1.421,0.42-2.12
		c0.16-0.641,0.35-1.271,0.56-1.9c0.2,1.15,0.76,2.48,1.771,3.03c0.75,0.41,1.75,0.39,2.601,0.21c-0.461-0.38-0.86-0.9-1.041-1.479
		c-0.17-0.54-0.149-1.14-0.021-1.689C21.677,11.558,22.857,12.838,24.337,13.568z"/>
</g>
<g>
	<path fill="none" stroke="#212323" stroke-width="0.8986" stroke-linecap="round" stroke-linejoin="round" d="M24.337,13.568
		c1.189,0.59,2.59,0.82,3.66,1.55c1.239,0.851,2.051,2.391,2.52,3.87c0.031,0.101,0.061,0.19,0.09,0.29l1.131-0.08
		c0.061,0.729,0.09,1.45,0.09,2.19c-0.01,1.729-0.199,3.469-0.608,5.209c-0.091,0.381-0.19,0.771-0.302,1.15
		c-0.89,3.068-2.479,6.13-4.549,8.289c-2.541,2.671-5.811,3.971-8.871,3.83c-2.89-0.119-5.6-1.5-7.9-4.09
		c-2.16-2.41-3.95-5.87-4.83-9.291c-0.07-0.27-0.13-0.539-0.19-0.81c-0.43-1.979-0.54-3.92-0.43-5.82
		c0.05-0.689,0.12-1.37,0.21-2.05l1.03,0.03c0-1.011,0.17-2.011,0.56-3c0.82-2.09,2.61-4.141,4.72-4.37
		c0.65-0.07,1.34,0.04,1.97,0.21c-0.04,0.49-0.15,0.97-0.35,1.41c-0.3,0.72-0.81,1.35-1.41,1.84c0.78-0.03,1.62-0.19,2.26-0.641
		c1.03-0.72,1.53-2.18,1.62-3.449c0.39,0.62,0.72,1.279,0.98,1.97c0.3,0.77,0.51,1.58,0.64,2.4c0.11-0.71,0.25-1.421,0.42-2.12
		c0.16-0.641,0.35-1.271,0.56-1.9c0.2,1.15,0.76,2.48,1.771,3.03c0.75,0.41,1.75,0.39,2.601,0.21c-0.461-0.38-0.86-0.9-1.041-1.479
		c-0.17-0.54-0.149-1.14-0.021-1.689C21.677,11.558,22.857,12.838,24.337,13.568z"/>
</g>
<path fill="#FFFFFF" d="M30.517,18.988l1.211,0.05c-0.359,0.12-0.74,0.19-1.121,0.24C30.578,19.178,30.548,19.088,30.517,18.988z"/>
<path fill="#FFFFFF" d="M24.158,19.558l-0.9,0.45C23.558,19.798,23.857,19.658,24.158,19.558z"/>
<path fill="none" stroke="#212323" stroke-width="0.5953" stroke-linecap="round" stroke-linejoin="round" d="M2.198,16.568
	c-0.17,0.26-0.31,0.54-0.43,0.83c-0.94,2.32-0.27,5.32,1.27,7.379c0.5,0.66,1.08,1.23,1.73,1.711"/>
<path fill="none" stroke="#212323" stroke-width="0.8986" stroke-linecap="round" stroke-linejoin="round" d="M30.607,19.278
	c0.381-0.05,0.762-0.12,1.121-0.24c0.289-0.079,0.58-0.189,0.85-0.329c0.08-0.04,0.16-0.08,0.23-0.131
	c0.59-0.319,1.109-0.779,1.539-1.319c0.931-1.12,1.521-2.61,1.75-4.11c0.33-2.09-0.029-4.22-0.99-5.85
	c-1.439-2.471-4.27-3.8-7.389-5.141c-2.932-1.25-6.131-2.51-8.381-1.06c-0.871,0.56-1.59,1.52-2.121,2.47
	c-0.35-0.64-0.82-1.25-1.41-1.689c-0.99-0.761-2.33-1.04-3.63-1.061c-0.03,0-0.07,0-0.1,0c-2.31-0.01-4.5,0.78-6.41,2.04
	c-2.51,1.67-4.53,4.17-5.07,7.26c-0.41,2.311,0,4.95,1.6,6.45c0.02,0.03,0.05,0.07,0.09,0.101c0.34,0.3,0.72,0.55,1.14,0.76
	c0.3,0.149,0.61,0.27,0.93,0.38c0,0,0.01,0,0.02,0c0.33,0.12,0.67,0.2,1.01,0.27"/>
<path fill="none" stroke="#212323" stroke-width="0.5953" stroke-linecap="round" stroke-linejoin="round" d="M13.798,32.518
	c2.19,3.03,6.821,2.971,9.401,0.381"/>
<path fill="none" stroke="#212323" stroke-width="0.5953" stroke-linecap="round" stroke-linejoin="round" d="M18.558,21.268
	c0.05,2.07-0.24,4.17-0.9,6.141c-0.24,0.75-0.54,1.471-0.89,2.181c0.81,0.31,1.71,0.46,2.58,0.39c0.371-0.02,0.729-0.09,1.09-0.189"
	/>
<linearGradient id="SVGID_4_" gradientUnits="userSpaceOnUse" x1="9.2173" y1="16.6338" x2="15.1802" y2="16.6338" gradientTransform="matrix(1 0 0 -1 0.0376 39.1729)">
	<stop  offset="0" style="stop-color:#F8F5EA"/>
	<stop  offset="1" style="stop-color:#F4EDCE"/>
</linearGradient>
<path fill="url(#SVGID_4_)" d="M15.098,21.318c0.43,1.869-0.31,3.82-2,4.119c-2.1,0.381-3.11-0.649-3.51-1.51
	c-0.43-0.91-0.56-2.24,0.33-3.29c0.31-0.36,0.67-0.66,1.07-0.86h0.01c0.89-0.46,2.65-0.16,3.74,0.561h0.01
	C14.897,20.648,15.018,20.979,15.098,21.318z"/>
<path fill="none" stroke="#212323" stroke-width="0.5953" stroke-linecap="round" stroke-linejoin="round" d="M15.778,5.268
	c-0.41,0.53-0.72,1.23-0.65,1.89c0.05,0.54,0.36,1.051,0.73,1.45"/>
<path fill="none" stroke="#212323" stroke-width="0.5953" stroke-linecap="round" stroke-linejoin="round" d="M17.818,5.198
	c0.78-0.199,1.641-0.26,2.4,0c1.029,0.34,1.879,1.229,2.398,2.181"/>
<path fill="none" stroke="#212323" stroke-width="0.5953" stroke-linecap="round" stroke-linejoin="round" d="M17.818,5.198
	c0.43-0.83,1.029-1.649,1.82-2.12c1.51-0.89,3.699-0.52,5.311,0.221"/>
<path fill="none" stroke="#212323" stroke-width="0.5953" stroke-linecap="round" stroke-linejoin="round" d="M11.638,8.028
	c0.24-0.89,0.74-1.83,1.52-2.33c0.75-0.47,1.75-0.55,2.62-0.43"/>
<path fill="none" stroke="#212323" stroke-width="0.5953" stroke-linecap="round" stroke-linejoin="round" d="M11.638,3.078
	c0.15-0.029,0.29-0.05,0.45-0.069c0.66-0.061,1.36,0.01,1.95,0.29c0.79,0.39,1.38,1.17,1.74,1.97"/>
<linearGradient id="SVGID_5_" gradientUnits="userSpaceOnUse" x1="22.1157" y1="16.9443" x2="27.9849" y2="16.9443" gradientTransform="matrix(1 0 0 -1 0.0376 39.1729)">
	<stop  offset="0" style="stop-color:#F8F5EA"/>
	<stop  offset="1" style="stop-color:#F4EDCE"/>
</linearGradient>
<path fill="url(#SVGID_5_)" d="M27.408,20.568c0.91,1.04,0.65,2.521,0.23,3.22c-0.74,1.239-2.11,1.54-3.471,1.149
	c-1.23-0.35-2.33-1.729-1.931-3.609c0.062-0.301,0.15-0.579,0.279-0.859c0.301-0.21,1.399-0.88,1.7-0.979
	C25.468,19.088,26.597,19.658,27.408,20.568z"/>
<path fill="none" stroke="#212323" stroke-width="0.5953" stroke-linecap="round" stroke-linejoin="round" d="M6.498,19.418
	c0.46-0.45,0.98-0.881,1.54-1.21c0.13-0.08,0.26-0.16,0.39-0.221c0.5-0.25,1.02-0.42,1.57-0.47c0.9-0.08,1.86,0.17,2.71,0.67
	c0.14,0.07,0.28,0.16,0.41,0.26c0.68,0.479,1.26,1.13,1.62,1.891h0.01c0.15,0.31,0.27,0.641,0.35,0.979
	c0.43,1.871-0.31,3.82-2,4.121c-2.1,0.379-3.11-0.65-3.51-1.511c-0.43-0.909-0.56-2.239,0.33-3.29c0.31-0.36,0.67-0.66,1.07-0.86
	h0.01c0.89-0.46,2.65-0.16,3.74,0.561"/>
<path fill="none" stroke="#212323" stroke-width="0.5953" stroke-linecap="round" stroke-linejoin="round" d="M22.517,20.468
	c-0.129,0.28-0.219,0.56-0.279,0.859c-0.4,1.881,0.699,3.261,1.93,3.61c1.36,0.39,2.73,0.09,3.472-1.15
	c0.42-0.699,0.68-2.18-0.229-3.22c-0.812-0.91-1.939-1.479-3.189-1.08C23.917,19.588,22.818,20.258,22.517,20.468z"/>
<path fill="none" stroke="#212323" stroke-width="0.5953" stroke-linecap="round" stroke-linejoin="round" d="M28.097,17.598
	c-0.27-0.08-0.539-0.13-0.819-0.15c-1.181-0.09-2.45,0.391-3.431,1.24c-0.1,0.08-0.189,0.17-0.279,0.26
	c-0.439,0.44-0.811,0.95-1.051,1.521"/>
<linearGradient id="SVGID_6_" gradientUnits="userSpaceOnUse" x1="12.2246" y1="16.8687" x2="14.1021" y2="16.8687" gradientTransform="matrix(1 0 0 -1 0.0376 39.1729)">
	<stop  offset="0" style="stop-color:#E6E7EE"/>
	<stop  offset="1" style="stop-color:#ABBDD1"/>
</linearGradient>
<path fill="url(#SVGID_6_)" d="M12.406,21.836c-0.28,0.46-0.14,0.99,0.32,1.262c0.47,0.278,0.99,0.139,1.27-0.32
	c0.28-0.471,0.14-0.99-0.33-1.271C13.206,21.236,12.676,21.367,12.406,21.836z"/>
<path fill="none" stroke="#454447" stroke-width="0.5953" stroke-linecap="round" stroke-linejoin="round" d="M12.397,21.828
	c-0.28,0.46-0.14,0.99,0.32,1.261c0.47,0.279,0.99,0.14,1.27-0.319c0.28-0.471,0.14-0.99-0.33-1.271
	C13.198,21.229,12.667,21.357,12.397,21.828z"/>
<linearGradient id="SVGID_7_" gradientUnits="userSpaceOnUse" x1="24.7563" y1="16.9307" x2="26.6294" y2="16.9307" gradientTransform="matrix(1 0 0 -1 0.0376 39.1729)">
	<stop  offset="0" style="stop-color:#E6E7EE"/>
	<stop  offset="1" style="stop-color:#ABBDD1"/>
</linearGradient>
<path fill="url(#SVGID_7_)" d="M24.937,21.77c-0.279,0.471-0.139,0.989,0.32,1.271c0.471,0.271,0.99,0.14,1.271-0.33
	c0.271-0.46,0.14-0.99-0.329-1.26C25.738,21.169,25.208,21.309,24.937,21.77z"/>
<path fill="none" stroke="#454447" stroke-width="0.5953" stroke-linecap="round" stroke-linejoin="round" d="M24.917,21.788
	c-0.279,0.471-0.141,0.989,0.319,1.271c0.47,0.271,0.99,0.141,1.271-0.33c0.271-0.459,0.141-0.989-0.33-1.26
	C25.718,21.188,25.187,21.328,24.917,21.788z"/>
</svg>
