<?xml version="1.0" encoding="utf-8"?>
<!-- Generator: Adobe Illustrator 13.0.0, SVG Export Plug-In . SVG Version: 6.00 Build 14948)  -->
<!DOCTYPE svg PUBLIC "-//W3C//DTD SVG 1.1 Basic//EN" "http://www.w3.org/Graphics/SVG/1.1/DTD/svg11-basic.dtd">
<svg version="1.1" baseProfile="basic" id="Слой_1"
	 xmlns="http://www.w3.org/2000/svg" xmlns:xlink="http://www.w3.org/1999/xlink" x="0px" y="0px" width="46.854px"
	 height="72.533px" viewBox="0 0 46.854 72.533" xml:space="preserve">
<linearGradient id="SVGID_1_" gradientUnits="userSpaceOnUse" x1="8.9319" y1="26.6641" x2="46.366" y2="26.6641" gradientTransform="matrix(1 0 0 -1 0.0376 71.3779)">
	<stop  offset="0" style="stop-color:#E6E7EE"/>
	<stop  offset="1" style="stop-color:#ABBDD1"/>
</linearGradient>
<polygon fill="url(#SVGID_1_)" points="33.928,25.022 21.444,32.7 8.969,40.378 8.969,72.084 21.444,64.407 33.928,56.722 
	46.403,49.043 46.403,17.344 "/>
<linearGradient id="SVGID_2_" gradientUnits="userSpaceOnUse" x1="24.8425" y1="23.7461" x2="30.2634" y2="23.7461" gradientTransform="matrix(1 0 0 -1 0.0376 71.3779)">
	<stop  offset="0" style="stop-color:#F8F5EA"/>
	<stop  offset="1" style="stop-color:#F4EDCE"/>
</linearGradient>
<path fill="url(#SVGID_2_)" d="M29.438,48.735c0.015-0.017,0.021-0.039,0.036-0.055c0.42-0.724,0.709-1.445,0.803-2.31
	c0.087-0.771-0.035-1.765-0.839-2.113c-0.759-0.335-1.591,0.101-2.162,0.528c-0.658,0.488-1.144,1.08-1.569,1.803
	c-0.42,0.725-0.717,1.438-0.804,2.301c-0.086,0.771,0.037,1.756,0.818,2.105c0.007,0.009,0.014,0.016,0.021,0.016
	c0.752,0.327,1.591-0.107,2.162-0.535C28.548,50.001,29.025,49.426,29.438,48.735z"/>
<path fill="none" stroke="#454447" stroke-width="0.8986" stroke-linecap="round" stroke-linejoin="round" d="M29.465,48.726
	c0.016-0.017,0.022-0.039,0.037-0.056c0.42-0.723,0.708-1.444,0.804-2.31c0.087-0.77-0.036-1.764-0.841-2.112
	c-0.759-0.335-1.59,0.101-2.161,0.528c-0.658,0.488-1.144,1.08-1.569,1.803c-0.42,0.724-0.716,1.438-0.803,2.301
	c-0.087,0.77,0.035,1.756,0.816,2.105c0.007,0.009,0.016,0.017,0.022,0.017c0.751,0.326,1.59-0.108,2.162-0.537
	C28.575,49.99,29.053,49.415,29.465,48.726z"/>
<path fill="none" stroke="#454447" stroke-width="0.8986" stroke-linecap="round" stroke-linejoin="round" d="M25.748,50.985
	c-0.947,1.726-1.888,3.451-2.835,5.184c-0.471,0.863-0.947,1.725-1.418,2.588c-0.014,0.031-0.036,0.063-0.051,0.094
	c-0.448,0.824-0.846,1.687-1.432,2.426c-0.571,0.722-1.549,1.646-2.575,1.562c-0.99-0.078-1.157-1.034-1.157-1.881
	c0-2.067,0-4.126,0-6.192c0-1.959,0-3.926,0-5.892c0-0.979,0-1.958,0-2.945c0-1.235,0.051-1.927,0.492-3.093
	c0.412-1.088,0.962-2.014,1.7-2.876c0.629-0.737,1.352-1.298,2.154-1.786c0.274-0.172,0.542-0.335,0.816-0.506
	c1.245-0.762,2.496-1.531,3.739-2.301c2.915-1.794,5.83-3.582,8.743-5.378c0.318-0.194,0.645-0.396,0.963-0.59
	c0.767-0.474,1.691-0.94,2.653-0.684c0.868,0.232,1.316,1.018,1.453,1.896c0.08,0.513,0.051,2.635,0.051,3.147
	c0,1.08,0,2.153,0,3.233c0,1.966,0,3.932,0,5.897c0,0.979,0,1.959,0,2.944c0,1.235,0.103,1.896-0.412,3.086
	c-0.499,1.157-1.496,2.417-2.676,2.875c-0.902,0.356-1.396,0.022-2.032-0.381c-0.107-0.07-0.217-0.147-0.34-0.218
	c-1.374-0.823-2.748-1.647-4.123-2.471c-0.007-0.009-0.014-0.009-0.021-0.017"/>
<polyline fill="none" stroke="#454447" stroke-width="0.5953" stroke-linecap="round" stroke-linejoin="round" points="
	12.933,15.805 17.192,24.253 21.444,32.7 21.444,37.666 21.444,58.851 21.444,64.399 "/>
<polyline fill="none" stroke="#454447" stroke-width="0.5953" stroke-linecap="round" stroke-linejoin="round" points="
	25.408,8.127 29.668,16.575 33.928,25.022 33.928,29.987 33.928,51.413 33.928,56.722 "/>
<line fill="none" stroke="#454447" stroke-width="0.8986" stroke-linecap="round" stroke-linejoin="round" x1="46.403" y1="49.043" x2="46.403" y2="17.344"/>
<polyline fill="none" stroke="#454447" stroke-width="0.8986" stroke-linecap="round" stroke-linejoin="round" points="
	0.449,23.483 4.709,31.931 8.969,40.378 "/>
<polyline fill="none" stroke="#454447" stroke-width="0.8986" stroke-linecap="round" stroke-linejoin="round" points="
	46.403,17.344 42.151,8.897 37.892,0.449 "/>
<line fill="none" stroke="#454447" stroke-width="0.8986" stroke-linecap="round" stroke-linejoin="round" x1="8.969" y1="40.378" x2="8.969" y2="72.084"/>
<polyline fill="none" stroke="#454447" stroke-width="0.5953" stroke-linecap="round" stroke-linejoin="round" points="
	4.709,31.931 17.192,24.253 29.668,16.575 42.151,8.897 "/>
<polyline fill="none" stroke="#454447" stroke-width="0.8986" stroke-linecap="round" stroke-linejoin="round" points="
	0.449,23.483 12.933,15.805 25.408,8.127 37.892,0.449 "/>
<polyline fill="none" stroke="#454447" stroke-width="0.8986" stroke-linecap="round" stroke-linejoin="round" points="
	8.969,72.084 21.444,64.407 33.928,56.722 46.403,49.043 "/>
<polyline fill="none" stroke="#454447" stroke-width="0.8986" stroke-linecap="round" stroke-linejoin="round" points="
	46.403,17.344 33.928,25.022 21.444,32.7 8.969,40.378 "/>
</svg>
