<?xml version="1.0" encoding="utf-8"?>
<!-- Generator: Adobe Illustrator 13.0.0, SVG Export Plug-In . SVG Version: 6.00 Build 14948)  -->
<!DOCTYPE svg PUBLIC "-//W3C//DTD SVG 1.1 Basic//EN" "http://www.w3.org/Graphics/SVG/1.1/DTD/svg11-basic.dtd">
<svg version="1.1" baseProfile="basic" xmlns="http://www.w3.org/2000/svg" xmlns:xlink="http://www.w3.org/1999/xlink" x="0px"
	 y="0px" width="40.126px" height="45.703px" viewBox="0 0 40.126 45.703" xml:space="preserve">
<g id="Default">
</g>
<g id="Make2D_visible_lines">
	<g id="scanner_5_">
		<linearGradient id="SVGID_1_" gradientUnits="userSpaceOnUse" x1="9.1978" y1="41.4028" x2="28.2276" y2="41.4028">
			<stop  offset="0" style="stop-color:#AEC0D4"/>
			<stop  offset="0.4676" style="stop-color:#E6E8EF"/>
			<stop  offset="1" style="stop-color:#ABBDD2"/>
		</linearGradient>
		<path fill="url(#SVGID_1_)" d="M27.78,37.552c0.04,0.044,0.075,0.075,0.106,0.115c0.032,0.031,0.06,0.071,0.087,0.106
			c0.056,0.072,0.099,0.151,0.139,0.23c0.071,0.143,0.11,0.297,0.115,0.467v0.008v0.012c0,0.369,0,0.742,0,1.109
			c0,0.227-0.155,0.44-0.433,0.604c-2.777,1.601-5.55,3.201-8.328,4.805c-0.277,0.159-0.649,0.246-1.042,0.246
			c-0.389,0-0.765-0.087-1.039-0.246c-2.777-1.604-5.555-3.204-8.329-4.805C8.782,40.04,8.627,39.826,8.627,39.6
			c0-0.371,0-0.744,0-1.117v-0.004v-0.008c0-0.047,0-0.083,0.008-0.119c0.004-0.039,0.008-0.075,0.019-0.114l1.114,0.048
			c1.229,0.301,2.504,0.828,3.788,1.568c1.462,0.845,2.932,1.966,4.327,3.301c0.321,0.305,0.764,0.305,1.085,0
			c1.399-1.335,2.865-2.456,4.331-3.301c1.216-0.701,2.433-1.216,3.601-1.521L27.78,37.552z"/>
		<linearGradient id="SVGID_2_" gradientUnits="userSpaceOnUse" x1="8.6035" y1="37.9678" x2="27.7807" y2="37.924">
			<stop  offset="0" style="stop-color:#E6E8EF"/>
			<stop  offset="1" style="stop-color:#ABBDD2"/>
		</linearGradient>
		<path fill="url(#SVGID_2_)" d="M19.063,32.561c0.004,0,0.012,0,0.016,0c0.376,0.07,0.712,0.158,1.049,0.249
			c0.376,0.11,0.753,0.237,1.117,0.377c0.765,0.296,1.502,0.657,2.211,1.065c1.573,0.903,3.007,2.035,4.323,3.3l-0.88,0.781
			c-1.168,0.305-2.385,0.819-3.601,1.521c-1.466,0.845-2.932,1.966-4.331,3.301c-0.321,0.305-0.764,0.305-1.085,0
			c-1.395-1.335-2.865-2.456-4.327-3.301c-1.284-0.74-2.56-1.268-3.788-1.568l-1.114-0.048c0.02-0.079,0.048-0.159,0.083-0.233
			c0.083-0.166,0.195-0.313,0.337-0.452c0.614-0.591,1.231-1.13,1.858-1.624c0.563-0.444,1.138-0.852,1.712-1.221
			c0.289-0.186,0.578-0.36,0.867-0.523c0.456-0.257,0.907-0.487,1.359-0.688c0,0.419,0,0.844,0,1.268h0.004
			c0,0.063,0.016,0.127,0.059,0.187c0.091,0.131,0.293,0.233,0.563,0.285c0.313,0.06,0.717,0.056,1.098-0.02
			c0.384-0.08,0.749-0.227,0.97-0.404c0.163-0.127,0.25-0.266,0.254-0.4v-0.135c0-0.566,0-1.137,0-1.703l0.064-0.016
			c-0.013,0-0.028,0-0.044,0v-0.009c0.183-0.023,0.369-0.04,0.567-0.04c0.209,0,0.423,0.017,0.641,0.049
			C19.051,32.557,19.059,32.561,19.063,32.561z"/>
		<linearGradient id="SVGID_3_" gradientUnits="userSpaceOnUse" x1="32.7021" y1="21.1323" x2="34.1709" y2="23.5556">
			<stop  offset="0" style="stop-color:#F7F4EA"/>
			<stop  offset="1" style="stop-color:#F4EDCE"/>
		</linearGradient>
		<path fill="url(#SVGID_3_)" d="M36.088,17.654c2.028,0.84,1.926,3.895,1.926,4.116c-2.893,1.673-5.246,3.043-8.139,4.712
			c0-1.264-0.574-2.77-1.513-3.967c-0.076-0.092-0.147-0.182-0.218-0.277C30.791,20.713,33.438,19.184,36.088,17.654z"/>
		<linearGradient id="SVGID_4_" gradientUnits="userSpaceOnUse" x1="0.085" y1="13.7734" x2="23.4608" y2="13.7734">
			<stop  offset="0" style="stop-color:#E6E8EF"/>
			<stop  offset="0.4471" style="stop-color:#B0C0D2"/>
			<stop  offset="0.476" style="stop-color:#B8C6D7"/>
			<stop  offset="0.6033" style="stop-color:#D5DBE8"/>
			<stop  offset="0.6758" style="stop-color:#E0E3EF"/>
			<stop  offset="1" style="stop-color:#AEBFD2"/>
		</linearGradient>
		<path fill="url(#SVGID_4_)" d="M14.486,19.228c-0.158-0.147-0.313-0.298-0.459-0.456c-0.238-0.254-0.468-0.522-0.678-0.805
			c-0.06-0.079-0.115-0.158-0.174-0.241c-0.044-0.059-0.087-0.123-0.131-0.183c-0.111-0.17-0.21-0.355-0.325-0.522
			c-0.063-0.095-0.139-0.19-0.214-0.276c-0.265-0.307-0.578-0.572-0.915-0.797c-0.127-0.084-0.253-0.163-0.384-0.238
			c-0.063-0.035-0.122-0.071-0.186-0.106c-0.103-0.06-0.206-0.119-0.309-0.179c-2.702-1.561-5.408-3.121-8.115-4.683
			c-0.071-0.04-0.143-0.083-0.214-0.124c-0.011-0.007-0.023-0.015-0.035-0.023c-0.186-0.106-0.368-0.226-0.543-0.352
			C1.412,9.948,1.048,9.6,0.791,9.18C0.683,9.002,0.596,8.815,0.533,8.617C0.48,8.435,0.449,8.248,0.449,8.063
			c0-1.608,0-3.222,0.004-4.83c0.008,0.154,0.035,0.306,0.08,0.451c0.063,0.199,0.15,0.389,0.258,0.563
			c0.182,0.297,0.416,0.555,0.673,0.784c0.111,0.1,0.226,0.189,0.34,0.277c0.175,0.131,0.357,0.25,0.543,0.356
			c0.012,0.008,0.024,0.017,0.035,0.021c0.071,0.043,0.143,0.082,0.214,0.122c2.81,1.621,5.618,3.245,8.424,4.861
			c0.064,0.036,0.123,0.072,0.186,0.107c0.131,0.075,0.257,0.155,0.384,0.241c0.337,0.227,0.65,0.488,0.915,0.797
			c0.076,0.087,0.151,0.178,0.214,0.273c0.115,0.17,0.214,0.353,0.325,0.523c0.043,0.063,0.087,0.122,0.131,0.186
			c0.059,0.08,0.114,0.163,0.174,0.242c0.21,0.281,0.44,0.546,0.678,0.799c0.468,0.5,0.982,0.952,1.525,1.364
			c0.459,0.353,0.943,0.673,1.442,0.97c0.143,0.088,0.29,0.172,0.432,0.258c0.277,0.159,0.554,0.317,0.833,0.477
			c1.041,0.602,2.087,1.204,3.129,1.807c0.464,0.27,0.932,0.538,1.395,0.804l0.143,0.048c-0.086,0.262-0.135,0.522-0.135,0.756
			c0,1.301-0.123,2.663-0.123,3.963l-0.717,0.031c-1.534-1.01-3.292-2.246-4.525-2.956c-0.15-0.087-0.301-0.174-0.451-0.265
			c-0.5-0.301-0.983-0.627-1.446-0.979C15.168,19.837,14.815,19.545,14.486,19.228z"/>
		<linearGradient id="SVGID_5_" gradientUnits="userSpaceOnUse" x1="10.6079" y1="15.2427" x2="18.7303" y2="35.8459">
			<stop  offset="0" style="stop-color:#E6E8EF"/>
			<stop  offset="1" style="stop-color:#ABBDD2"/>
		</linearGradient>
		<path fill="url(#SVGID_5_)" d="M17.819,32.572c0,0.566,0,1.137,0,1.703v0.135c-0.004,0.135-0.091,0.273-0.254,0.4
			c-0.222,0.178-0.586,0.324-0.97,0.404c-0.38,0.075-0.784,0.079-1.098,0.02c-0.27-0.052-0.471-0.154-0.563-0.285
			c-0.043-0.06-0.059-0.123-0.059-0.187h-0.004c0-0.424,0-0.849,0-1.268c0-2.373,0.004-4.747,0-7.12c0-0.19,0-0.376-0.013-0.566
			c-0.012-0.131-0.027-0.262-0.055-0.393c-0.04-0.202-0.107-0.404-0.19-0.599c-0.103-0.237-0.226-0.463-0.356-0.686
			c-0.159-0.257-0.329-0.511-0.503-0.761c-0.591-0.831-1.236-1.623-1.791-2.483c-0.333-0.516-0.634-1.058-0.852-1.633
			c-0.198-0.511-0.325-1.05-0.376-1.597c-0.02-0.257-0.024-0.516-0.028-0.769c0-0.399,0-0.8,0.004-1.2c0-0.087,0-0.175,0-0.266
			c0.103,0.06,0.206,0.119,0.309,0.179c0.064,0.035,0.123,0.071,0.186,0.106c0.131,0.075,0.257,0.154,0.384,0.238
			c0.337,0.225,0.65,0.49,0.915,0.797c0.076,0.086,0.151,0.182,0.214,0.276c0.115,0.167,0.214,0.353,0.325,0.522
			c0.043,0.06,0.087,0.124,0.131,0.183c0.059,0.083,0.114,0.162,0.174,0.241c0.21,0.282,0.44,0.551,0.678,0.805
			c0.146,0.158,0.301,0.309,0.459,0.456c0.12,0.187,0.242,0.364,0.373,0.543c0.464,0.649,0.959,1.276,1.415,1.929
			c0.226,0.329,0.448,0.666,0.642,1.015c0.167,0.294,0.317,0.591,0.444,0.899c0.118,0.289,0.213,0.583,0.289,0.888
			c0.055,0.226,0.1,0.455,0.123,0.689c0.032,0.253,0.043,0.511,0.047,0.765c0.004,0.167,0.004,0.329,0.004,0.491
			c0,0.459,0,0.919-0.004,1.379c0,1.577,0.004,3.153,0,4.731C17.819,32.561,17.819,32.568,17.819,32.572z"/>
		<linearGradient id="SVGID_6_" gradientUnits="userSpaceOnUse" x1="26.436" y1="16.9897" x2="34.1619" y2="25.3099">
			<stop  offset="0" style="stop-color:#E6E8EF"/>
			<stop  offset="1" style="stop-color:#ABBDD2"/>
		</linearGradient>
		<path fill="url(#SVGID_6_)" d="M28.837,28.819c-0.579,0.333-1.506,0.333-2.084,0c-1.386-0.8-2.773-1.601-4.164-2.4
			c0-0.563,0-1.126,0-1.688c-0.206-0.13-0.42-0.273-0.638-0.416l0.717-0.031c0-1.3,0.123-2.662,0.123-3.963
			c0-0.233,0.048-0.494,0.135-0.756c0.163-0.504,0.48-0.994,0.908-1.244c3.046-1.76,6.098-3.519,9.144-5.277
			c0.068-0.04,0.135-0.079,0.203-0.119c0.285-0.162,0.574-0.329,0.859-0.496c0.376-0.213,0.666-0.138,0.844,0.092
			c1.153,1.466,2.31,2.928,3.463,4.395c0.106,0.139,0.202,0.27,0.293,0.408c0.095,0.142,0.186,0.288,0.273,0.439
			c0.159,0.285,0.297,0.582,0.412,0.887c0.217,0.588,0.352,1.201,0.352,1.827c0,0.579,0,1.157,0,1.739
			c0,0.213-0.142,0.432-0.432,0.599C35.775,24.817,32.308,26.818,28.837,28.819z M38.014,21.771c0-0.222,0.102-3.276-1.926-4.116
			c-2.651,1.529-5.298,3.059-7.944,4.584c0.071,0.096,0.143,0.186,0.218,0.277c0.939,1.197,1.513,2.703,1.513,3.967
			C32.768,24.813,35.122,23.443,38.014,21.771z"/>
		<linearGradient id="SVGID_7_" gradientUnits="userSpaceOnUse" x1="10.645" y1="-1.0293" x2="24.3141" y2="20.1678">
			<stop  offset="0" style="stop-color:#E6E8EF"/>
			<stop  offset="0.3788" style="stop-color:#B0C0D2"/>
			<stop  offset="0.4177" style="stop-color:#B8C6D7"/>
			<stop  offset="0.5886" style="stop-color:#D5DBE8"/>
			<stop  offset="0.686" style="stop-color:#E0E3EF"/>
			<stop  offset="1" style="stop-color:#AEBFD2"/>
		</linearGradient>
		<path fill="url(#SVGID_7_)" d="M32.978,13.043c-3.046,1.759-6.098,3.518-9.144,5.277c-0.428,0.25-0.745,0.74-0.908,1.244
			l-0.143-0.048c-0.463-0.266-0.931-0.534-1.395-0.804c-1.042-0.603-2.088-1.205-3.129-1.807c-0.278-0.159-0.556-0.317-0.833-0.477
			c-0.143-0.086-0.289-0.17-0.432-0.258c-0.499-0.297-0.982-0.617-1.442-0.97c-0.543-0.412-1.058-0.864-1.525-1.364
			c-0.238-0.253-0.468-0.518-0.678-0.799c-0.06-0.079-0.115-0.162-0.174-0.242c-0.044-0.063-0.087-0.123-0.131-0.186
			c-0.111-0.171-0.21-0.354-0.325-0.523c-0.063-0.096-0.139-0.187-0.214-0.273c-0.265-0.309-0.578-0.57-0.915-0.797
			c-0.127-0.086-0.253-0.166-0.384-0.241c-0.063-0.035-0.122-0.071-0.186-0.107c-2.806-1.616-5.614-3.24-8.424-4.861
			c-0.071-0.04-0.143-0.079-0.214-0.122C2.371,5.682,2.359,5.673,2.347,5.665C2.161,5.559,1.979,5.439,1.804,5.309
			c-0.114-0.088-0.229-0.178-0.34-0.277C1.206,4.802,0.972,4.544,0.791,4.247C0.683,4.072,0.596,3.883,0.533,3.684
			c-0.044-0.146-0.071-0.297-0.08-0.451c0-0.031-0.004-0.059-0.004-0.094V3.133c0-0.257,0.06-0.516,0.166-0.744
			c0.111-0.25,0.281-0.472,0.476-0.666C1.309,1.509,1.558,1.327,1.829,1.18c0.316-0.174,0.653-0.309,0.998-0.412
			c0.788-0.24,1.616-0.332,2.444-0.316c0.888,0.02,1.775,0.158,2.627,0.42c0.519,0.158,1.022,0.36,1.493,0.623
			c0.048,0.027,0.091,0.051,0.135,0.074c2.908,1.68,5.82,3.359,8.733,5.04c0.036,0.023,0.071,0.043,0.106,0.063
			c0.147,0.079,0.294,0.158,0.44,0.229c0.428,0.21,0.875,0.376,1.332,0.507c0.158,0.043,0.32,0.088,0.482,0.123
			c0.282,0.068,0.567,0.119,0.848,0.178c0.246,0.053,0.488,0.107,0.725,0.172c0.476,0.118,0.944,0.245,1.411,0.392
			c0.793,0.241,1.569,0.53,2.33,0.859c0.594,0.257,1.176,0.54,1.739,0.853c0.119,0.066,0.238,0.135,0.356,0.201
			C29.678,11.137,31.325,12.092,32.978,13.043z"/>
		<g>
			<path fill="none" stroke="#444346" stroke-width="0.8985" stroke-linecap="round" stroke-linejoin="round" d="M8.627,38.471
				c0-0.047,0-0.083,0.008-0.119c0.004-0.039,0.008-0.075,0.019-0.114c0.02-0.079,0.048-0.159,0.083-0.233
				c0.083-0.166,0.195-0.313,0.337-0.452c0.614-0.591,1.231-1.13,1.858-1.624c0.563-0.444,1.138-0.852,1.712-1.221
				c0.289-0.186,0.578-0.36,0.867-0.523c0.456-0.257,0.907-0.487,1.359-0.688"/>
			<path fill="none" stroke="#444346" stroke-width="0.8985" stroke-linecap="round" stroke-linejoin="round" d="M28.228,38.49
				c0,0.369,0,0.742,0,1.109c0,0.227-0.155,0.44-0.433,0.604c-2.777,1.601-5.55,3.201-8.328,4.805
				c-0.277,0.159-0.649,0.246-1.042,0.246c-0.389,0-0.765-0.087-1.039-0.246c-2.777-1.604-5.555-3.204-8.329-4.805
				C8.782,40.04,8.627,39.826,8.627,39.6c0-0.371,0-0.744,0-1.117v-0.004"/>
			<path fill="none" stroke="#444346" stroke-width="0.8985" stroke-linecap="round" stroke-linejoin="round" d="M19.08,32.561
				c0.376,0.07,0.712,0.158,1.049,0.249c0.376,0.11,0.753,0.237,1.117,0.377c0.765,0.296,1.502,0.657,2.211,1.065
				c1.573,0.903,3.007,2.035,4.323,3.3c0.04,0.044,0.075,0.075,0.106,0.115c0.032,0.031,0.06,0.071,0.087,0.106
				c0.056,0.072,0.099,0.151,0.139,0.23c0.071,0.143,0.11,0.297,0.115,0.467"/>
			<path fill="none" stroke="#444346" stroke-width="0.8985" stroke-linecap="round" stroke-linejoin="round" d="M17.838,32.548
				c0.183-0.023,0.369-0.04,0.567-0.04c0.209,0,0.423,0.017,0.641,0.049c0.004,0,0.012,0.004,0.017,0.004"/>
			<path fill="none" stroke="#444346" stroke-width="0.5943" stroke-linecap="round" stroke-linejoin="round" d="M14.269,18.883
				c0.024,0.043,0.048,0.084,0.075,0.127c0.048,0.075,0.091,0.146,0.143,0.218c0.12,0.187,0.242,0.364,0.373,0.543
				c0.464,0.649,0.959,1.276,1.415,1.929c0.226,0.329,0.448,0.666,0.642,1.015c0.167,0.294,0.317,0.591,0.444,0.899
				c0.118,0.289,0.213,0.583,0.289,0.888c0.055,0.226,0.1,0.455,0.123,0.689c0.032,0.253,0.043,0.511,0.047,0.765
				c0.004,0.167,0.004,0.329,0.004,0.491c0,0.459,0,0.919-0.004,1.379c0,1.577,0.004,3.153,0,4.731c0,0.004,0,0.012,0,0.016
				c0,0.566,0,1.137,0,1.703v0.135c-0.004,0.135-0.091,0.273-0.254,0.4c-0.222,0.178-0.586,0.324-0.97,0.404
				c-0.38,0.075-0.784,0.079-1.098,0.02c-0.27-0.052-0.471-0.154-0.563-0.285c-0.043-0.06-0.059-0.123-0.059-0.187h-0.004
				c0-0.424,0-0.849,0-1.268c0-2.373,0.004-4.747,0-7.12c0-0.19,0-0.376-0.013-0.566c-0.012-0.131-0.027-0.262-0.055-0.393
				c-0.04-0.202-0.107-0.404-0.19-0.599c-0.103-0.237-0.226-0.463-0.356-0.686c-0.159-0.257-0.329-0.511-0.503-0.761
				c-0.591-0.831-1.236-1.623-1.791-2.483c-0.333-0.516-0.634-1.058-0.852-1.633c-0.198-0.511-0.325-1.05-0.376-1.597
				c-0.02-0.257-0.024-0.516-0.028-0.769c0-0.399,0-0.8,0.004-1.2c0-0.087,0-0.175,0-0.266V15.42"/>
			<path fill="none" stroke="#444346" stroke-width="0.8985" stroke-linecap="round" stroke-linejoin="round" d="M0.449,3.139
				c0,0.035,0.004,0.063,0.004,0.094c-0.004,1.608-0.004,3.222-0.004,4.83c0,0.186,0.031,0.372,0.083,0.555
				c0.063,0.198,0.15,0.385,0.258,0.563c0.257,0.42,0.621,0.769,1.013,1.063c0.175,0.126,0.357,0.245,0.543,0.352
				c0.012,0.009,0.024,0.017,0.035,0.023c0.071,0.041,0.143,0.084,0.214,0.124c2.707,1.562,5.413,3.122,8.115,4.683
				c0.103,0.06,0.206,0.119,0.309,0.179c0.064,0.035,0.123,0.071,0.186,0.106c0.131,0.075,0.257,0.154,0.384,0.238
				c0.337,0.225,0.65,0.49,0.915,0.797c0.076,0.086,0.151,0.182,0.214,0.276c0.115,0.167,0.214,0.353,0.325,0.522
				c0.043,0.06,0.087,0.124,0.131,0.183c0.059,0.083,0.114,0.162,0.174,0.241c0.21,0.282,0.44,0.551,0.678,0.805
				c0.146,0.158,0.301,0.309,0.459,0.456c0.329,0.317,0.682,0.609,1.043,0.887c0.462,0.353,0.946,0.679,1.446,0.979
				c0.15,0.091,0.301,0.178,0.451,0.265c1.232,0.71,2.991,1.946,4.525,2.956c0.218,0.143,0.432,0.286,0.638,0.416"/>
			<path fill="none" stroke="#444346" stroke-width="0.8985" stroke-linecap="round" stroke-linejoin="round" d="M32.978,13.043
				c-1.652-0.951-3.3-1.906-4.948-2.857c-0.119-0.066-0.238-0.135-0.356-0.201c-0.563-0.313-1.145-0.596-1.739-0.853
				c-0.761-0.329-1.537-0.618-2.33-0.859c-0.467-0.146-0.935-0.273-1.411-0.392c-0.237-0.064-0.479-0.119-0.725-0.172
				C21.187,7.65,20.902,7.6,20.62,7.531c-0.162-0.035-0.325-0.08-0.482-0.123c-0.457-0.131-0.904-0.297-1.332-0.507
				c-0.146-0.071-0.293-0.15-0.44-0.229c-0.035-0.021-0.07-0.04-0.106-0.063c-2.913-1.681-5.825-3.36-8.733-5.04
				C9.482,1.545,9.439,1.521,9.391,1.494C8.92,1.231,8.417,1.029,7.898,0.871c-0.852-0.262-1.739-0.4-2.627-0.42
				C4.443,0.436,3.615,0.527,2.827,0.768C2.482,0.871,2.145,1.006,1.829,1.18c-0.271,0.147-0.52,0.329-0.737,0.543
				C0.896,1.917,0.727,2.139,0.615,2.389C0.509,2.617,0.449,2.876,0.449,3.133"/>
			<path fill="none" stroke="#444346" stroke-width="0.8985" stroke-linecap="round" stroke-linejoin="round" d="M33.18,12.924
				c0.285-0.162,0.574-0.329,0.859-0.496c0.376-0.213,0.666-0.138,0.844,0.092c1.153,1.466,2.31,2.928,3.463,4.395
				c0.106,0.139,0.202,0.27,0.293,0.408c0.095,0.142,0.186,0.288,0.273,0.439c0.159,0.285,0.297,0.582,0.412,0.887
				c0.217,0.588,0.352,1.201,0.352,1.827c0,0.579,0,1.157,0,1.739c0,0.213-0.142,0.432-0.432,0.599
				c-3.47,2.004-6.938,4.005-10.408,6.006c-0.579,0.333-1.506,0.333-2.084,0c-1.386-0.8-2.773-1.601-4.164-2.4
				c0-0.563,0-1.126,0-1.688c0-0.13,0-0.261,0-0.392"/>
			<path fill="none" stroke="#444346" stroke-width="0.5943" stroke-linecap="round" stroke-linejoin="round" d="M21.388,18.713
				c0.464,0.27,0.932,0.538,1.395,0.804"/>
			<path fill="none" stroke="#444346" stroke-width="0.5943" stroke-linecap="round" stroke-linejoin="round" d="M1.463,5.031
				c0.111,0.1,0.226,0.189,0.34,0.277c0.175,0.131,0.357,0.25,0.543,0.356c0.012,0.008,0.024,0.017,0.035,0.021
				c0.071,0.043,0.143,0.082,0.214,0.122c2.81,1.621,5.618,3.245,8.424,4.861c0.064,0.036,0.123,0.072,0.186,0.107
				c0.131,0.075,0.257,0.155,0.384,0.241c0.337,0.227,0.65,0.488,0.915,0.797c0.076,0.087,0.151,0.178,0.214,0.273
				c0.115,0.17,0.214,0.353,0.325,0.523c0.043,0.063,0.087,0.122,0.131,0.186c0.059,0.08,0.114,0.163,0.174,0.242
				c0.21,0.281,0.44,0.546,0.678,0.799c0.468,0.5,0.982,0.952,1.525,1.364c0.459,0.353,0.943,0.673,1.442,0.97
				c0.143,0.088,0.29,0.172,0.432,0.258c0.277,0.159,0.554,0.317,0.833,0.477c1.041,0.602,2.087,1.204,3.129,1.807"/>
			<path fill="none" stroke="#444346" stroke-width="0.5943" stroke-linecap="round" stroke-linejoin="round" d="M0.453,3.232
				c0.008,0.154,0.035,0.306,0.08,0.451c0.063,0.199,0.15,0.389,0.258,0.563c0.182,0.297,0.416,0.555,0.673,0.784"/>
			
				<line fill="none" stroke="#444346" stroke-width="0.5943" stroke-linecap="round" stroke-linejoin="round" x1="22.324" y1="9.298" x2="15.382" y2="13.301"/>
			<path fill="none" stroke="#444346" stroke-width="0.5943" stroke-linecap="round" stroke-linejoin="round" d="M27.827,27.893
				c0-0.324,0-0.483,0-0.809c0.004-0.467-0.095-0.931-0.237-1.375c-0.234-0.713-0.599-1.379-1.062-1.969
				c-0.959-1.217-1.577-2.049-2.536-3.265"/>
			<path fill="none" stroke="#444346" stroke-width="0.5943" stroke-linecap="round" stroke-linejoin="round" d="M29.875,26.482
				c2.893-1.669,5.246-3.039,8.139-4.712c0-0.222,0.102-3.276-1.926-4.116c-2.651,1.529-5.298,3.059-7.944,4.584
				c0.071,0.096,0.143,0.186,0.218,0.277C29.301,23.713,29.875,25.219,29.875,26.482z"/>
			
				<line fill="none" stroke="#444346" stroke-width="0.5943" stroke-linecap="round" stroke-linejoin="round" x1="28.228" y1="38.479" x2="28.228" y2="38.49"/>
			
				<line fill="none" stroke="#444346" stroke-width="0.5943" stroke-linecap="round" stroke-linejoin="round" x1="0.449" y1="3.139" x2="0.449" y2="3.133"/>
			<path fill="none" stroke="#444346" stroke-width="0.5943" stroke-linecap="round" stroke-linejoin="round" d="M26.9,38.333
				c-1.168,0.305-2.385,0.819-3.601,1.521c-1.466,0.845-2.932,1.966-4.331,3.301c-0.321,0.305-0.764,0.305-1.085,0
				c-1.395-1.335-2.865-2.456-4.327-3.301c-1.284-0.74-2.56-1.268-3.788-1.568"/>
			<path fill="none" stroke="#444346" stroke-width="0.5943" stroke-linecap="round" stroke-linejoin="round" d="M19.08,32.561
				c-0.004,0-0.012,0-0.016,0c-0.032-0.004-0.06-0.009-0.092-0.004"/>
			<path fill="none" stroke="#444346" stroke-width="0.5943" stroke-linecap="round" stroke-linejoin="round" d="M17.883,32.557
				c-0.013,0-0.028,0-0.044,0c-0.004,0-0.011,0-0.02,0h-0.004"/>
			
				<line fill="none" stroke="#444346" stroke-width="0.5943" stroke-linecap="round" stroke-linejoin="round" x1="8.627" y1="38.479" x2="8.627" y2="38.471"/>
			
				<line fill="none" stroke="#444346" stroke-width="0.5943" stroke-linecap="round" stroke-linejoin="round" x1="28.228" y1="38.471" x2="28.228" y2="38.479"/>
			<polyline fill="none" stroke="#444346" stroke-width="0.5943" stroke-linecap="round" stroke-linejoin="round" points="
				17.815,32.572 17.819,32.572 17.883,32.557 			"/>
			<path fill="none" stroke="#444346" stroke-width="0.8985" stroke-linecap="round" stroke-linejoin="round" d="M22.668,24.283
				c0-1.3,0.123-2.662,0.123-3.963c0-0.233,0.048-0.494,0.135-0.756c0.163-0.504,0.48-0.994,0.908-1.244
				c3.046-1.76,6.098-3.519,9.144-5.277c0.068-0.04,0.135-0.079,0.203-0.119"/>
		</g>
	</g>
</g>
</svg>
