<?xml version="1.0" encoding="utf-8"?>
<!-- Generator: Adobe Illustrator 13.0.0, SVG Export Plug-In . SVG Version: 6.00 Build 14948)  -->
<!DOCTYPE svg PUBLIC "-//W3C//DTD SVG 1.1 Basic//EN" "http://www.w3.org/Graphics/SVG/1.1/DTD/svg11-basic.dtd">
<svg version="1.1" baseProfile="basic" xmlns="http://www.w3.org/2000/svg" xmlns:xlink="http://www.w3.org/1999/xlink" x="0px"
	 y="0px" width="45.571px" height="45.131px" viewBox="0 0 45.571 45.131" xml:space="preserve">
<g id="Default">
</g>
<g id="Make2D_visible_lines">
	
		<line fill="none" stroke="#444346" stroke-width="0.5943" stroke-linecap="round" stroke-linejoin="round" x1="18.161" y1="30.438" x2="21.513" y2="32.878"/>
	<path fill="none" stroke="#444346" stroke-width="0.5943" stroke-linecap="round" stroke-linejoin="round" d="M5.504,9.021
		c1.209,0.612,1.882,1.992,1.774,3.496c-0.051,0.725-0.298,1.39-0.739,1.891"/>
	<linearGradient id="SVGID_1_" gradientUnits="userSpaceOnUse" x1="16.4658" y1="35.7207" x2="45.146" y2="35.7207">
		<stop  offset="0" style="stop-color:#E6E8EF"/>
		<stop  offset="1" style="stop-color:#ABBDD2"/>
	</linearGradient>
	<path fill="url(#SVGID_1_)" stroke="#444346" stroke-width="0.8504" stroke-linecap="round" stroke-linejoin="round" d="
		M42.586,26.736c0.86,3.52,1.71,7.03,2.56,10.55c-0.42,0.11-0.84,0.23-1.26,0.34c-6.37,1.73-12.73,3.47-19.1,5.2
		c-2.3,0.63-4.61,1.25-6.91,1.88c-0.7-0.56-1.14-1.189-1.3-1.84c-0.03-0.33-0.07-0.65-0.11-0.98c0-0.409,0.04-0.85,0.14-1.3
		c0.08-0.28,0.15-0.569,0.23-0.85c0.53-1.62,1.53-3.17,2.83-4.41c0.89-0.84,1.84-1.45,2.78-1.771
		C29.166,31.286,35.876,29.016,42.586,26.736z"/>
	<linearGradient id="SVGID_2_" gradientUnits="userSpaceOnUse" x1="30.0884" y1="20.2876" x2="32.5882" y2="26.0371">
		<stop  offset="0" style="stop-color:#E6E8EF"/>
		<stop  offset="1" style="stop-color:#ABBDD2"/>
	</linearGradient>
	<path fill="url(#SVGID_2_)" stroke="#444346" stroke-width="0.8504" stroke-linecap="round" stroke-linejoin="round" d="
		M37.686,23.166c-5.95,1.92-11.91,3.84-17.86,5.75c0.03-0.12,0.06-0.24,0.09-0.36c0.1-0.329,0.21-0.67,0.33-1
		c0.13-0.359,0.29-0.72,0.45-1.069c0.07-0.15,0.13-0.29,0.2-0.431c0.05-0.079,0.09-0.159,0.13-0.239c0.04-0.09,0.08-0.17,0.12-0.25
		c0.03-0.061,0.06-0.12,0.09-0.17c0.19-0.37,0.38-0.73,0.57-1.091c0.3-0.59,0.62-1.189,0.92-1.779h0.01
		c5.88-1.7,11.75-3.41,17.63-5.12c0.64-0.18,1.32-0.021,1.97,0.46c1.61,1.17,2.42,3.47,1.95,5.55c-0.24,1.061-0.8,1.78-1.59,2.01
		c-0.46,0.13-0.91,0.261-1.36,0.391v0.01C40.116,24.936,38.896,24.055,37.686,23.166z"/>
	<linearGradient id="SVGID_3_" gradientUnits="userSpaceOnUse" x1="11.8857" y1="34.9849" x2="27.8561" y2="11.4945">
		<stop  offset="0" style="stop-color:#E6E8EF"/>
		<stop  offset="1" style="stop-color:#ABBDD2"/>
	</linearGradient>
	<path fill="url(#SVGID_3_)" stroke="#444346" stroke-width="0.5669" stroke-linecap="round" stroke-linejoin="round" d="
		M26.376,14.505c0.15,0.04,0.3,0.07,0.45,0.101c0.02,0.01,0.04,0.02,0.06,0.02c-0.07,0.13-0.14,0.25-0.2,0.37
		c-0.15,0.28-0.29,0.56-0.44,0.83c-0.66,1.25-1.31,2.5-1.97,3.75c-0.51,0.97-1.02,1.94-1.53,2.92c-0.01,0.01-0.01,0.021-0.01,0.03
		h-0.01c-0.3,0.59-0.62,1.189-0.92,1.779c-0.19,0.36-0.38,0.721-0.57,1.091c-0.03,0.05-0.06,0.109-0.09,0.17
		c-0.04,0.08-0.08,0.16-0.12,0.25c-0.04,0.08-0.08,0.16-0.13,0.239c-0.07,0.141-0.13,0.28-0.2,0.431
		c-0.16,0.35-0.32,0.71-0.45,1.069c-0.12,0.33-0.23,0.671-0.33,1c-0.03,0.12-0.06,0.24-0.09,0.36c-1.01,0.33-2.02,0.66-3.03,0.98
		c-0.15,0.05-0.31,0.1-0.45,0.17c-0.19,0.08-0.37,0.16-0.55,0.26c-0.19,0.1-0.37,0.22-0.55,0.34c-0.37,0.25-0.73,0.54-1.05,0.86
		c-0.33,0.319-0.63,0.66-0.91,1.029c-0.27,0.37-0.52,0.761-0.75,1.171c-0.23,0.42-0.43,0.85-0.59,1.3
		c-0.08,0.22-0.15,0.439-0.21,0.67c-0.06,0.21-0.11,0.42-0.15,0.64c0.02-0.26,0.06-0.52,0.1-0.78c0.05-0.27,0.11-0.56,0.17-0.829
		c0.07-0.301,0.15-0.601,0.24-0.891c0.09-0.319,0.19-0.64,0.3-0.95c0.11-0.34,0.24-0.67,0.37-1.01c0.14-0.359,0.29-0.729,0.45-1.09
		c0.34-0.8,0.7-1.58,1.09-2.36c0.28-0.56,0.56-1.109,0.86-1.659c0.36-0.681,0.73-1.341,1.1-2.011c0.1-0.18,0.21-0.359,0.31-0.54
		c0.22-0.39,0.44-0.79,0.67-1.18c0.07-0.12,0.14-0.24,0.2-0.36c0.09-0.149,0.18-0.3,0.26-0.449c0.17-0.311,0.34-0.61,0.51-0.91
		c0.41-0.73,0.81-1.45,1.22-2.181c0.21-0.359,0.41-0.729,0.62-1.09c0.2-0.359,0.41-0.72,0.62-1.08c0.52-0.899,1.05-1.79,1.57-2.689
		c0.14-0.26,0.29-0.51,0.43-0.771c0.13,0.04,0.27,0.08,0.41,0.11c0.1,0.03,0.2,0.06,0.3,0.09c0.27,0.08,0.54,0.16,0.81,0.25
		c0.16,0.04,0.32,0.09,0.47,0.13c0.29,0.09,0.59,0.17,0.88,0.24C25.816,14.396,26.096,14.456,26.376,14.505z"/>
	<linearGradient id="SVGID_4_" gradientUnits="userSpaceOnUse" x1="17.6382" y1="43.2441" x2="31.0581" y2="17.8243">
		<stop  offset="0" style="stop-color:#E6E8EF"/>
		<stop  offset="1" style="stop-color:#ABBDD2"/>
	</linearGradient>
	<path fill="url(#SVGID_4_)" stroke="#444346" stroke-width="0.8504" stroke-linecap="round" stroke-linejoin="round" d="
		M20.806,13.085c0.53,0.08,1.05,0.2,1.57,0.34c0.1,0.03,0.2,0.051,0.3,0.08c-0.14,0.261-0.29,0.511-0.43,0.771
		c-0.52,0.899-1.05,1.79-1.57,2.689c-0.21,0.36-0.42,0.721-0.62,1.08c-0.21,0.36-0.41,0.73-0.62,1.09
		c-0.41,0.73-0.81,1.45-1.22,2.181c-0.17,0.3-0.34,0.6-0.51,0.91c-0.08,0.149-0.17,0.3-0.26,0.449c-0.06,0.12-0.13,0.24-0.2,0.36
		c-0.23,0.39-0.45,0.79-0.67,1.18c-0.1,0.181-0.21,0.36-0.31,0.54c-0.37,0.67-0.74,1.33-1.1,2.011c-0.3,0.55-0.58,1.1-0.86,1.659
		c-0.39,0.78-0.75,1.561-1.09,2.36c-0.16,0.36-0.31,0.73-0.45,1.09c-0.13,0.34-0.26,0.67-0.37,1.01c-0.11,0.311-0.21,0.631-0.3,0.95
		c-0.09,0.29-0.17,0.59-0.24,0.891c-0.06,0.27-0.12,0.56-0.17,0.829c-0.04,0.261-0.08,0.521-0.1,0.78c0.04-0.22,0.09-0.43,0.15-0.64
		c0.06-0.23,0.13-0.45,0.21-0.67c0.16-0.45,0.36-0.88,0.59-1.3c0.23-0.41,0.48-0.801,0.75-1.171c0.28-0.369,0.58-0.71,0.91-1.029
		c0.32-0.32,0.68-0.61,1.05-0.86c0.18-0.12,0.36-0.24,0.55-0.34c0.18-0.1,0.36-0.18,0.55-0.26c0.14-0.07,0.3-0.12,0.45-0.17
		c1.01-0.32,2.02-0.65,3.03-0.98c5.95-1.91,11.91-3.83,17.86-5.75c1.21,0.89,2.43,1.771,3.65,2.66c0.42,0.3,0.83,0.61,1.25,0.91
		c-6.71,2.28-13.42,4.55-20.14,6.819c-0.94,0.32-1.89,0.931-2.78,1.771c-1.3,1.24-2.3,2.79-2.83,4.41
		c-0.08,0.28-0.15,0.569-0.23,0.85c-0.1,0.45-0.14,0.891-0.14,1.3c0.04,0.33,0.08,0.65,0.11,0.98c0.16,0.65,0.6,1.28,1.3,1.84
		c-3.12-2.29-6.24-4.59-9.36-6.89c-0.95-0.69-1.43-1.761-1.3-2.931c0.02-0.199,0.05-0.399,0.08-0.6c0.05-0.28,0.11-0.56,0.17-0.83
		c0.07-0.3,0.15-0.6,0.24-0.9c0.09-0.31,0.19-0.63,0.3-0.949c0.11-0.33,0.24-0.67,0.37-1c0.14-0.37,0.29-0.73,0.45-1.101
		c0.34-0.79,0.71-1.569,1.09-2.35c0.28-0.561,0.57-1.11,0.86-1.66c0.36-0.68,0.73-1.35,1.1-2.01c0.1-0.181,0.21-0.37,0.31-0.55
		c0.22-0.391,0.45-0.78,0.67-1.17c0.07-0.12,0.14-0.24,0.21-0.36c0.08-0.15,0.17-0.3,0.25-0.46c0.17-0.3,0.34-0.601,0.51-0.9
		c0.41-0.729,0.81-1.46,1.22-2.18c0.21-0.37,0.41-0.73,0.62-1.09c0.2-0.36,0.41-0.721,0.62-1.08c0.52-0.9,1.05-1.8,1.57-2.7
		c0.02-0.03,0.03-0.06,0.05-0.09c0.03-0.01,0.07-0.01,0.1-0.01c0.33,0,0.66,0,0.98,0.01c0.31,0.01,0.61,0.02,0.91,0.06
		C20.206,12.996,20.506,13.036,20.806,13.085z"/>
	<linearGradient id="SVGID_5_" gradientUnits="userSpaceOnUse" x1="15.7002" y1="6.5723" x2="17.7002" y2="15.0723">
		<stop  offset="0" style="stop-color:#E6E8EF"/>
		<stop  offset="1" style="stop-color:#ABBDD2"/>
	</linearGradient>
	<path fill="url(#SVGID_5_)" stroke="#444346" stroke-width="0.8504" stroke-linecap="round" stroke-linejoin="round" d="
		M26.886,14.625c-0.02,0-0.04-0.01-0.06-0.02c-0.15-0.03-0.3-0.061-0.45-0.101c-0.28-0.05-0.56-0.109-0.83-0.18
		c-0.29-0.07-0.59-0.15-0.88-0.24c-0.15-0.04-0.31-0.09-0.47-0.13c-0.27-0.09-0.54-0.17-0.81-0.25c-0.1-0.03-0.2-0.06-0.3-0.09
		c-0.14-0.03-0.28-0.07-0.41-0.11c-0.1-0.029-0.2-0.05-0.3-0.08c-0.52-0.14-1.04-0.26-1.57-0.34c-0.3-0.05-0.6-0.09-0.91-0.12
		c-0.3-0.04-0.6-0.05-0.91-0.06c-0.32-0.01-0.65-0.01-0.98-0.01c-0.03,0-0.07,0-0.1,0.01c-0.33,0-0.65,0.02-0.98,0.05
		c-0.4,0.061-0.8,0.11-1.2,0.17c-3.18,0.61-6.36,1.22-9.54,1.83c-0.29,0.061-0.58,0.11-0.87,0.17c-1.42-0.53-2.83-1.07-4.25-1.6
		c-0.33-0.12-0.55-0.391-0.62-0.73c-0.07-0.34,0.04-0.67,0.3-0.91c1.12-1.02,2.24-2.05,3.36-3.08c0.29-0.06,0.58-0.109,0.87-0.17
		c3.18-0.609,6.36-1.22,9.54-1.83c0.07-0.01,0.13-0.02,0.19-0.029c0.06-0.07,0.13-0.13,0.2-0.19c0.09-0.08,0.18-0.16,0.27-0.24
		c0.19-0.149,0.37-0.31,0.56-0.46c0.36-0.29,0.73-0.569,1.1-0.85c0.77-0.56,1.56-1.08,2.38-1.56c0.82-0.48,1.67-0.921,2.53-1.32
		c1.14-0.53,2.27-0.96,3.4-1.351c0.99-0.13,1.98-0.25,2.98-0.38c0.37,0.08,0.75,0.16,1.12,0.24c1.54,0.33,2.48,1.59,2.37,3.16
		c-0.19,2.71-0.39,5.43-0.58,8.14c-0.07,1-0.59,1.86-1.43,2.391C28.776,14.875,27.796,14.976,26.886,14.625z"/>
	<path fill="none" stroke="#444346" stroke-width="0.5669" stroke-linecap="round" stroke-linejoin="round" d="M29.142,2.579
		c-1.916,0.479-3.817,1.109-5.634,1.939c-1.818,0.827-3.551,1.854-5.115,3.051"/>
	<path fill="none" stroke="#444346" stroke-width="0.5669" stroke-linecap="round" stroke-linejoin="round" d="M16.086,7.115
		c1.114,0.672,1.707,1.992,1.607,3.403c-0.031,0.44-0.135,0.858-0.311,1.23"/>
	<path fill="none" stroke="#444346" stroke-width="0.5669" stroke-linecap="round" stroke-linejoin="round" d="M4.956,9.676
		c0.944,0.711,1.438,1.931,1.346,3.228C6.277,13.254,6.206,13.589,6.09,13.9"/>
	
		<line fill="none" stroke="#444346" stroke-width="0.5943" stroke-linecap="round" stroke-linejoin="round" x1="40.749" y1="29.548" x2="40.749" y2="36.001"/>
	
		<line fill="none" stroke="#444346" stroke-width="0.5943" stroke-linecap="round" stroke-linejoin="round" x1="38.889" y1="30.151" x2="38.889" y2="36.605"/>
	
		<line fill="none" stroke="#444346" stroke-width="0.5943" stroke-linecap="round" stroke-linejoin="round" x1="37.029" y1="30.753" x2="37.029" y2="37.212"/>
	<line fill="none" stroke="#444346" stroke-width="0.8504" x1="11.586" y1="36.335" x2="11.586" y2="40.079"/>
</g>
</svg>
