<?xml version="1.0" encoding="utf-8"?>
<!-- Generator: Adobe Illustrator 13.0.0, SVG Export Plug-In . SVG Version: 6.00 Build 14948)  -->
<!DOCTYPE svg PUBLIC "-//W3C//DTD SVG 1.1 Basic//EN" "http://www.w3.org/Graphics/SVG/1.1/DTD/svg11-basic.dtd">
<svg version="1.1" baseProfile="basic" xmlns="http://www.w3.org/2000/svg" xmlns:xlink="http://www.w3.org/1999/xlink" x="0px"
	 y="0px" width="42.207px" height="41.353px" viewBox="0 0 42.207 41.353" xml:space="preserve">
<g id="Default">
</g>
<g id="Make2D_visible_lines">
	<linearGradient id="SVGID_1_" gradientUnits="userSpaceOnUse" x1="18.1763" y1="26.395" x2="41.7573" y2="26.395">
		<stop  offset="0" style="stop-color:#E6E8EF"/>
		<stop  offset="1" style="stop-color:#ABBDD2"/>
	</linearGradient>
	<path fill="url(#SVGID_1_)" d="M41.757,11.923v14.998L18.195,40.867l-0.019-0.01V25.888l23.45-13.887l0.042,0.027L41.757,11.923z
		 M40.099,23.748v-1.615l-4.647,2.682v1.615L40.099,23.748z M40.099,19.371v-1.611l-4.647,2.68v1.615L40.099,19.371z M30.612,29.402
		v-1.611l-1.55,0.895v1.613L30.612,29.402z M30.612,24.722v-1.611l-1.55,0.895v1.613L30.612,24.722z M27.515,31.191v-1.613
		l-1.549,0.895v1.615L27.515,31.191z M27.515,26.511V24.9l-1.549,0.893v1.611L27.515,26.511z M24.416,32.98v-1.613l-1.55,0.895
		v1.611L24.416,32.98z M24.416,28.3v-1.615l-1.55,0.896v1.611L24.416,28.3z M21.319,34.767v-1.613l-1.549,0.895v1.611L21.319,34.767
		z M21.319,30.089v-1.615l-1.549,0.895v1.613L21.319,30.089z"/>
	<linearGradient id="SVGID_2_" gradientUnits="userSpaceOnUse" x1="0.5771" y1="13.1685" x2="41.6265" y2="13.1685">
		<stop  offset="0" style="stop-color:#E6E8EF"/>
		<stop  offset="1" style="stop-color:#ABBDD2"/>
	</linearGradient>
	<polygon fill="url(#SVGID_2_)" points="24.03,0.449 41.626,12.001 18.176,25.888 0.577,14.333 	"/>
	<linearGradient id="SVGID_3_" gradientUnits="userSpaceOnUse" x1="35.4521" y1="24.2808" x2="40.0991" y2="24.2808">
		<stop  offset="0" style="stop-color:#F7F4EA"/>
		<stop  offset="1" style="stop-color:#F4EDCE"/>
	</linearGradient>
	<polygon fill="url(#SVGID_3_)" points="40.099,22.132 40.099,23.748 35.452,26.429 35.452,24.814 	"/>
	<linearGradient id="SVGID_4_" gradientUnits="userSpaceOnUse" x1="35.4521" y1="19.9067" x2="40.0991" y2="19.9067">
		<stop  offset="0" style="stop-color:#F7F4EA"/>
		<stop  offset="1" style="stop-color:#F4EDCE"/>
	</linearGradient>
	<polygon fill="url(#SVGID_4_)" points="40.099,17.759 40.099,19.371 35.452,22.054 35.452,20.439 	"/>
	<polygon fill="#2E779A" points="30.612,27.791 30.612,29.402 29.062,30.298 29.062,28.685 	"/>
	<polygon fill="#2E779A" points="30.612,23.111 30.612,24.722 29.062,25.619 29.062,24.005 	"/>
	<polygon fill="#2E779A" points="27.515,29.578 27.515,31.191 25.966,32.087 25.966,30.472 	"/>
	<polygon fill="#2E779A" points="27.515,24.9 27.515,26.511 25.966,27.404 25.966,25.792 	"/>
	<polygon fill="#2E779A" points="24.416,31.367 24.416,32.98 22.866,33.873 22.866,32.261 	"/>
	<polygon fill="#2E779A" points="24.416,26.685 24.416,28.3 22.866,29.193 22.866,27.582 	"/>
	<polygon fill="#2E779A" points="21.319,33.154 21.319,34.767 19.77,35.66 19.77,34.048 	"/>
	<polygon fill="#2E779A" points="21.319,28.474 21.319,30.089 19.77,30.982 19.77,29.369 	"/>
	<polygon fill="#FFFFFF" points="18.248,40.904 18.176,40.88 18.195,40.867 	"/>
	<linearGradient id="SVGID_5_" gradientUnits="userSpaceOnUse" x1="0.4492" y1="27.5952" x2="18.1763" y2="27.5952">
		<stop  offset="0" style="stop-color:#E6E8EF"/>
		<stop  offset="1" style="stop-color:#ABBDD2"/>
	</linearGradient>
	<polygon fill="url(#SVGID_5_)" points="18.176,25.888 18.176,40.857 0.449,29.21 0.449,14.408 0.577,14.333 	"/>
	<polyline fill="none" stroke="#444346" stroke-width="0.8985" stroke-linecap="round" stroke-linejoin="round" points="
		41.757,11.923 41.757,26.921 18.195,40.867 18.176,40.88 18.248,40.904 18.195,40.867 18.176,40.857 0.449,29.21 0.449,14.408 
		0.577,14.333 24.03,0.449 41.626,12.001 41.668,12.029 	"/>
	<radialGradient id="SVGID_6_" cx="20.5444" cy="29.728" r="1.0421" gradientUnits="userSpaceOnUse">
		<stop  offset="0" style="stop-color:#F7F7F7"/>
		<stop  offset="1" style="stop-color:#E3D8A7"/>
	</radialGradient>
	<polygon fill="url(#SVGID_6_)" points="21.319,30.089 21.319,28.474 19.77,29.369 19.77,30.982 	"/>
	<radialGradient id="SVGID_7_" cx="23.6406" cy="27.939" r="1.0423" gradientUnits="userSpaceOnUse">
		<stop  offset="0" style="stop-color:#F7F7F7"/>
		<stop  offset="1" style="stop-color:#E3D8A7"/>
	</radialGradient>
	<polygon fill="url(#SVGID_7_)" points="24.416,28.3 24.416,26.685 22.866,27.582 22.866,29.193 	"/>
	<polyline fill="none" stroke="#444346" stroke-width="0.6739" stroke-linecap="round" stroke-linejoin="round" points="
		18.176,25.888 0.577,14.333 0.537,14.308 	"/>
	<polyline fill="none" stroke="#444346" stroke-width="0.6739" stroke-linecap="round" stroke-linejoin="round" points="
		18.176,25.888 41.626,12.001 41.757,11.923 	"/>
	<polyline fill="none" stroke="#444346" stroke-width="0.6739" stroke-linecap="round" stroke-linejoin="round" points="
		18.176,25.888 18.176,40.857 18.176,40.88 	"/>
	
		<line fill="none" stroke="#444346" stroke-width="0.6739" stroke-linecap="round" stroke-linejoin="round" x1="33.483" y1="19.089" x2="33.483" y2="30.253"/>
	<radialGradient id="SVGID_8_" cx="26.7407" cy="26.1519" r="1.0409" gradientUnits="userSpaceOnUse">
		<stop  offset="0" style="stop-color:#F7F7F7"/>
		<stop  offset="1" style="stop-color:#E3D8A7"/>
	</radialGradient>
	<polygon fill="url(#SVGID_8_)" points="27.515,26.511 27.515,24.9 25.966,25.792 25.966,27.404 	"/>
	<radialGradient id="SVGID_9_" cx="29.8374" cy="24.3647" r="1.0423" gradientUnits="userSpaceOnUse">
		<stop  offset="0" style="stop-color:#F7F7F7"/>
		<stop  offset="1" style="stop-color:#E3D8A7"/>
	</radialGradient>
	<polygon fill="url(#SVGID_9_)" points="30.612,24.722 30.612,23.111 29.062,24.005 29.062,25.619 	"/>
	<radialGradient id="SVGID_10_" cx="20.5444" cy="34.4067" r="1.0415" gradientUnits="userSpaceOnUse">
		<stop  offset="0" style="stop-color:#F7F7F7"/>
		<stop  offset="1" style="stop-color:#E3D8A7"/>
	</radialGradient>
	<polygon fill="url(#SVGID_10_)" points="21.319,34.767 21.319,33.154 19.77,34.048 19.77,35.66 	"/>
	<radialGradient id="SVGID_11_" cx="23.6406" cy="32.6196" r="1.0417" gradientUnits="userSpaceOnUse">
		<stop  offset="0" style="stop-color:#F7F7F7"/>
		<stop  offset="1" style="stop-color:#E3D8A7"/>
	</radialGradient>
	<polygon fill="url(#SVGID_11_)" points="24.416,32.98 24.416,31.367 22.866,32.261 22.866,33.873 	"/>
	<radialGradient id="SVGID_12_" cx="26.7407" cy="30.8325" r="1.0427" gradientUnits="userSpaceOnUse">
		<stop  offset="0" style="stop-color:#F7F7F7"/>
		<stop  offset="1" style="stop-color:#E3D8A7"/>
	</radialGradient>
	<polygon fill="url(#SVGID_12_)" points="27.515,31.191 27.515,29.578 25.966,30.472 25.966,32.087 	"/>
	<radialGradient id="SVGID_13_" cx="29.8374" cy="29.0444" r="1.0423" gradientUnits="userSpaceOnUse">
		<stop  offset="0" style="stop-color:#F7F7F7"/>
		<stop  offset="1" style="stop-color:#E3D8A7"/>
	</radialGradient>
	<polygon fill="url(#SVGID_13_)" points="30.612,29.402 30.612,27.791 29.062,28.685 29.062,30.298 	"/>
	<polygon fill="none" stroke="#000000" stroke-width="0.3962" stroke-linecap="round" stroke-linejoin="round" points="
		21.319,30.089 21.319,28.474 19.77,29.369 19.77,30.982 	"/>
	<polygon fill="none" stroke="#000000" stroke-width="0.3962" stroke-linecap="round" stroke-linejoin="round" points="24.416,28.3 
		24.416,26.685 22.866,27.582 22.866,29.193 	"/>
	<polygon fill="none" stroke="#000000" stroke-width="0.3962" stroke-linecap="round" stroke-linejoin="round" points="
		27.515,26.511 27.515,24.9 25.966,25.792 25.966,27.404 	"/>
	<polygon fill="none" stroke="#000000" stroke-width="0.3962" stroke-linecap="round" stroke-linejoin="round" points="
		30.612,24.722 30.612,23.111 29.062,24.005 29.062,25.619 	"/>
	<polygon fill="none" stroke="#000000" stroke-width="0.3962" stroke-linecap="round" stroke-linejoin="round" points="
		21.319,34.767 21.319,33.154 19.77,34.048 19.77,35.66 	"/>
	<polygon fill="none" stroke="#000000" stroke-width="0.3962" stroke-linecap="round" stroke-linejoin="round" points="
		24.416,32.98 24.416,31.367 22.866,32.261 22.866,33.873 	"/>
	<polygon fill="none" stroke="#000000" stroke-width="0.3962" stroke-linecap="round" stroke-linejoin="round" points="
		27.515,31.191 27.515,29.578 25.966,30.472 25.966,32.087 	"/>
	<polygon fill="none" stroke="#000000" stroke-width="0.3962" stroke-linecap="round" stroke-linejoin="round" points="
		30.612,29.402 30.612,27.791 29.062,28.685 29.062,30.298 	"/>
	<polygon fill="none" stroke="#000000" stroke-width="0.3962" stroke-linecap="round" stroke-linejoin="round" points="
		40.099,23.748 35.452,26.429 35.452,24.814 40.099,22.132 	"/>
	<polygon fill="none" stroke="#000000" stroke-width="0.3962" stroke-linecap="round" stroke-linejoin="round" points="
		40.099,19.371 35.452,22.054 35.452,20.439 40.099,17.759 	"/>
	
		<line fill="none" stroke="#444346" stroke-width="0.6739" stroke-linecap="round" stroke-linejoin="round" x1="27.627" y1="8.125" x2="22.264" y2="4.605"/>
	
		<line fill="none" stroke="#444346" stroke-width="0.6739" stroke-linecap="round" stroke-linejoin="round" x1="25.946" y1="9.123" x2="20.583" y2="5.601"/>
	
		<line fill="none" stroke="#444346" stroke-width="0.6739" stroke-linecap="round" stroke-linejoin="round" x1="24.265" y1="10.115" x2="18.902" y2="6.597"/>
	
		<line fill="none" stroke="#444346" stroke-width="0.6739" stroke-linecap="round" stroke-linejoin="round" x1="22.582" y1="11.115" x2="17.219" y2="7.593"/>
</g>
</svg>
