<?xml version="1.0" encoding="utf-8"?>
<!-- Generator: Adobe Illustrator 13.0.0, SVG Export Plug-In . SVG Version: 6.00 Build 14948)  -->
<!DOCTYPE svg PUBLIC "-//W3C//DTD SVG 1.1 Basic//EN" "http://www.w3.org/Graphics/SVG/1.1/DTD/svg11-basic.dtd">
<svg version="1.1" baseProfile="basic" id="Слой_1"
	 xmlns="http://www.w3.org/2000/svg" xmlns:xlink="http://www.w3.org/1999/xlink" x="0px" y="0px" width="43.675px"
	 height="51.313px" viewBox="0 0 43.675 51.313" xml:space="preserve">
<linearGradient id="SVGID_1_" gradientUnits="userSpaceOnUse" x1="12.5186" y1="37.1052" x2="28.1654" y2="37.1052" gradientTransform="matrix(1 0 0 -1 0.0376 50.1567)">
	<stop  offset="0" style="stop-color:#ABBDD1"/>
	<stop  offset="0.5659" style="stop-color:#E6E7EE"/>
	<stop  offset="1" style="stop-color:#ABBDD1"/>
</linearGradient>
<path fill="url(#SVGID_1_)" d="M25.199,2.129c0-0.927-0.753-1.68-1.68-1.68c-1.121,0-2.241,0-3.362,0c-0.929,0-1.68,0.752-1.68,1.68
	c0,3.662,0,7.323,0,10.983c-5.956,3.438-3.517,12.542,3.361,12.542c6.875,0,9.315-9.104,3.361-12.542
	C25.199,9.452,25.199,5.791,25.199,2.129z"/>
<path fill="none" stroke="#454447" stroke-width="0.8986" stroke-linecap="round" stroke-linejoin="round" d="M0.449,42.002
	c11.813,11.813,30.964,11.813,42.777,0"/>
<path fill="none" stroke="#454447" stroke-width="0.8986" stroke-linecap="round" stroke-linejoin="round" d="M5.202,35.569
	c9.188,9.188,24.084,9.188,33.271,0"/>
<path fill="none" stroke="#454447" stroke-width="0.8986" stroke-linecap="round" stroke-linejoin="round" d="M9.956,29.135
	c6.562,6.563,17.202,6.563,23.765,0"/>
<path fill="none" stroke="#454447" stroke-width="0.8986" stroke-linecap="round" stroke-linejoin="round" d="M25.199,2.129
	c0-0.927-0.753-1.68-1.68-1.68c-1.121,0-2.241,0-3.362,0c-0.929,0-1.68,0.752-1.68,1.68c0,3.662,0,7.323,0,10.983
	c-5.956,3.438-3.517,12.542,3.361,12.542c6.875,0,9.315-9.104,3.361-12.542C25.199,9.452,25.199,5.791,25.199,2.129z"/>
<line opacity="0.5" fill="none" stroke="#454447" stroke-width="0.5953" stroke-linecap="round" stroke-linejoin="round" x1="20.157" y1="13.112" x2="23.519" y2="13.112"/>
</svg>
