<?xml version="1.0" encoding="utf-8"?>
<!-- Generator: Adobe Illustrator 13.0.0, SVG Export Plug-In . SVG Version: 6.00 Build 14948)  -->
<!DOCTYPE svg PUBLIC "-//W3C//DTD SVG 1.1 Basic//EN" "http://www.w3.org/Graphics/SVG/1.1/DTD/svg11-basic.dtd">
<svg version="1.1" baseProfile="basic" xmlns="http://www.w3.org/2000/svg" xmlns:xlink="http://www.w3.org/1999/xlink" x="0px"
	 y="0px" width="44.121px" height="50.614px" viewBox="0 0 44.121 50.614" xml:space="preserve">
<g id="Default">
</g>
<g id="Make2D_visible_lines">
	<linearGradient id="SVGID_1_" gradientUnits="userSpaceOnUse" x1="21.0928" y1="28.5601" x2="37.2051" y2="28.5601">
		<stop  offset="0" style="stop-color:#ABBDD2"/>
		<stop  offset="0.1432" style="stop-color:#BFCCDC"/>
		<stop  offset="0.3773" style="stop-color:#DBE0EA"/>
		<stop  offset="0.513" style="stop-color:#E6E8EF"/>
		<stop  offset="0.6362" style="stop-color:#DDE1EA"/>
		<stop  offset="0.8401" style="stop-color:#C3CFDE"/>
		<stop  offset="1" style="stop-color:#ABBDD2"/>
	</linearGradient>
	<path fill="url(#SVGID_1_)" d="M36.633,12.171c0,7.893,0,15.785,0,23.674c-2.988,4.184-8.529,7.381-15.781,9.104V21.28
		C28.104,19.556,33.645,16.355,36.633,12.171z"/>
	<linearGradient id="SVGID_2_" gradientUnits="userSpaceOnUse" x1="0.3369" y1="10.8086" x2="36.6328" y2="10.8086">
		<stop  offset="0" style="stop-color:#E6E8EF"/>
		<stop  offset="1" style="stop-color:#ABBDD2"/>
	</linearGradient>
	<path fill="url(#SVGID_2_)" d="M34.264,9.896l2.369,2.274c-2.988,4.185-8.529,7.385-15.781,9.109l-3.946-1.367l-2.369-2.277
		l-14.2-8.194l15.78-9.104L30.321,8.53L34.264,9.896z"/>
	<linearGradient id="SVGID_3_" gradientUnits="userSpaceOnUse" x1="0.144" y1="32.7515" x2="20.3715" y2="21.9976">
		<stop  offset="0" style="stop-color:#E6E8EF"/>
		<stop  offset="1" style="stop-color:#ABBDD2"/>
	</linearGradient>
	<polygon fill="url(#SVGID_3_)" points="20.852,21.28 20.852,44.949 16.906,43.584 14.537,41.309 0.337,33.114 0.337,9.441 
		14.537,17.636 16.906,19.913 	"/>
	<path fill="none" stroke="#444346" stroke-width="0.6739" stroke-linecap="round" stroke-linejoin="round" d="M0.337,9.441v23.673
		l14.2,8.194l2.369,2.275l3.946,1.365c7.251-1.724,12.792-4.921,15.781-9.104c0-7.889,0-15.781,0-23.674l-2.369-2.274L30.321,8.53
		L16.117,0.337L0.337,9.441"/>
	
		<line fill="none" stroke="#444346" stroke-width="0.6739" stroke-linecap="round" stroke-linejoin="round" x1="16.906" y1="41.605" x2="16.906" y2="21.894"/>
	
		<line fill="none" stroke="#444346" stroke-width="0.6739" stroke-linecap="round" stroke-linejoin="round" x1="20.852" y1="44.949" x2="20.852" y2="21.28"/>
	
		<line fill="none" stroke="#444346" stroke-width="0.6739" stroke-linecap="round" stroke-linejoin="round" x1="14.537" y1="19.616" x2="14.537" y2="39.327"/>
	<path fill="none" stroke="#444346" stroke-width="0.6739" stroke-linecap="round" stroke-linejoin="round" d="M36.633,12.171
		c-2.988,4.185-8.529,7.385-15.781,9.109l-3.946-1.367l-2.369-2.277l-14.2-8.194"/>
	<path fill="none" stroke="#1F2D7C" stroke-width="0.3962" stroke-linecap="round" stroke-linejoin="round" d="M35.258,33.539
		c0,0.392,0,0.78,0,1.172c-1.152,1.566-2.698,3.016-4.571,4.307c0-0.625,0-1.255,0-1.882C32.56,36.086,34.105,34.873,35.258,33.539z
		"/>
	<path fill="none" stroke="#1F2D7C" stroke-width="0.3962" stroke-linecap="round" stroke-linejoin="round" d="M29.26,34.322
		c0,0.627,0,1.253,0,1.882c-2.024,0.964-4.339,1.732-6.851,2.286c0-0.392,0-0.782,0-1.175C24.921,36.533,27.235,35.524,29.26,34.322
		z"/>
	<path fill="none" stroke="#1F2D7C" stroke-width="0.3962" stroke-linecap="round" stroke-linejoin="round" d="M35.258,29.902
		c0,0.392,0,0.784,0,1.176c-1.152,1.562-2.698,3.016-4.571,4.306c0-0.629,0-1.255,0-1.886C32.56,32.452,34.105,31.236,35.258,29.902
		z"/>
	<path fill="none" stroke="#1F2D7C" stroke-width="0.3962" stroke-linecap="round" stroke-linejoin="round" d="M35.258,26.011
		c0,0.388,0,0.78,0,1.172c-1.152,1.566-2.698,3.016-4.571,4.308c0-0.626,0-1.256,0-1.883C32.56,28.558,34.105,27.345,35.258,26.011z
		"/>
	<path fill="none" stroke="#1F2D7C" stroke-width="0.3962" stroke-linecap="round" stroke-linejoin="round" d="M29.26,30.428
		c0,0.631,0,1.256,0,1.883c-2.024,0.963-4.339,1.734-6.851,2.286c0-0.393,0-0.785,0-1.177C24.921,32.644,27.235,31.633,29.26,30.428
		z"/>
	<path fill="none" stroke="#1F2D7C" stroke-width="0.3962" stroke-linecap="round" stroke-linejoin="round" d="M29.26,26.641
		c0,0.626,0,1.251,0,1.882c-2.024,0.962-4.339,1.73-6.851,2.286c0-0.392,0-0.784,0-1.176C24.921,28.852,27.235,27.841,29.26,26.641z
		"/>
	<path fill="none" stroke="#1F2D7C" stroke-width="0.3962" stroke-linecap="round" stroke-linejoin="round" d="M35.258,22.219
		c0,0.393,0,0.784,0,1.178c-1.152,1.561-2.698,3.015-4.571,4.302c0-0.626,0-1.252,0-1.883C32.56,24.771,34.105,23.554,35.258,22.219
		z"/>
	<path fill="none" stroke="#1F2D7C" stroke-width="0.3962" stroke-linecap="round" stroke-linejoin="round" d="M22.409,42.125
		c2.512-0.552,4.826-1.323,6.851-2.287c0-0.626,0-1.251,0-1.882c-2.024,1.205-4.339,2.215-6.851,2.992
		C22.409,41.341,22.409,41.732,22.409,42.125z"/>
	<path fill="none" stroke="#1F2D7C" stroke-width="0.3962" stroke-linecap="round" stroke-linejoin="round" d="M22.441,25.229
		c0,0.274,0,0.547,0,0.821c2.499-0.662,4.802-1.555,6.818-2.631c0-0.274,0-0.547,0-0.821C27.243,23.677,24.94,24.565,22.441,25.229z
		"/>
	<path fill="none" stroke="#1F2D7C" stroke-width="0.3962" stroke-linecap="round" stroke-linejoin="round" d="M22.441,22.976
		c0,0.277,0,0.551,0,0.824c2.499-0.665,4.802-1.553,6.818-2.635c0-0.273,0-0.547,0-0.82C27.243,21.423,24.94,22.311,22.441,22.976z"
		/>
	<radialGradient id="SVGID_4_" cx="22.3394" cy="22.5986" r="18.4155" gradientUnits="userSpaceOnUse">
		<stop  offset="0" style="stop-color:#F7F7F7"/>
		<stop  offset="1" style="stop-color:#E3D8A7"/>
	</radialGradient>
	<path fill="url(#SVGID_4_)" stroke="#1F267C" stroke-width="0.3962" stroke-linecap="round" stroke-linejoin="round" d="
		M30.687,19.524c0,0.82,0,2.413,0,3.233c1.87-1.165,3.407-2.491,4.561-3.934c0-0.82,0-2.414,0-3.237
		C34.094,17.029,32.557,18.36,30.687,19.524z"/>
	<line fill="none" stroke="#1A171B" x1="44.121" y1="50.114" x2="44.121" y2="50.114"/>
</g>
</svg>
