<?xml version="1.0" encoding="utf-8"?>
<!-- Generator: Adobe Illustrator 13.0.0, SVG Export Plug-In . SVG Version: 6.00 Build 14948)  -->
<!DOCTYPE svg PUBLIC "-//W3C//DTD SVG 1.1 Basic//EN" "http://www.w3.org/Graphics/SVG/1.1/DTD/svg11-basic.dtd">
<svg version="1.1" baseProfile="basic" id="Слой_1"
	 xmlns="http://www.w3.org/2000/svg" xmlns:xlink="http://www.w3.org/1999/xlink" x="0px" y="0px" width="56.175px"
	 height="56.175px" viewBox="0 0 56.175 56.175" xml:space="preserve">
<linearGradient id="SVGID_1_" gradientUnits="userSpaceOnUse" x1="33.5737" y1="17.0063" x2="42.3755" y2="17.0063" gradientTransform="matrix(1 0 0 -1 0.0376 55.0195)">
	<stop  offset="0" style="stop-color:#F8F5EA"/>
	<stop  offset="1" style="stop-color:#F4EDCE"/>
</linearGradient>
<path fill="url(#SVGID_1_)" d="M33.612,41.931c5.229,2.113,10.433-3.09,8.318-8.318"/>
<path fill="none" stroke="#454447" stroke-width="0.8986" d="M33.612,41.931c5.229,2.113,10.433-3.09,8.318-8.318"/>
<linearGradient id="SVGID_2_" gradientUnits="userSpaceOnUse" x1="0.4126" y1="28.5474" x2="52.4604" y2="28.5474" gradientTransform="matrix(1 0 0 -1 0.0376 55.0195)">
	<stop  offset="0" style="stop-color:#E6E7EE"/>
	<stop  offset="1" style="stop-color:#ABBDD1"/>
</linearGradient>
<path fill="url(#SVGID_2_)" d="M17.395,1.425c3.38,3.38,6.759,6.76,10.139,10.139c0.518,0.515,1.059,1.01,1.624,1.473
	c2.627,2.156,5.791,3.617,9.053,4.701c3.597,1.197,7.312,1.937,11.06,2.084c1.076,1.075,2.151,2.15,3.228,3.227
	c-9.814,9.816-19.631,19.63-29.448,29.447c-1.075-1.076-2.151-2.152-3.228-3.227c-0.146-3.748-0.885-7.463-2.082-11.061
	c-1.086-3.26-2.547-6.424-4.702-9.053c-0.463-0.564-0.958-1.104-1.473-1.624c-3.38-3.379-6.759-6.758-10.138-10.137
	c-1.713-1.713-0.811-4.748-0.027-6.478c0.972-2.148,2.308-3.904,3.96-5.556c1.653-1.654,3.409-2.988,5.559-3.963
	C12.649,0.615,15.683-0.286,17.395,1.425z"/>
<path fill="none" stroke="#454447" stroke-width="0.8986" d="M17.395,1.425c3.38,3.38,6.759,6.76,10.139,10.139
	c0.518,0.515,1.059,1.01,1.624,1.473c2.627,2.156,5.791,3.617,9.053,4.701c3.597,1.197,7.312,1.937,11.06,2.084
	c1.076,1.075,2.151,2.15,3.228,3.227c-9.814,9.816-19.631,19.63-29.448,29.447c-1.075-1.076-2.151-2.152-3.228-3.227
	c-0.146-3.748-0.885-7.463-2.082-11.061c-1.086-3.26-2.547-6.424-4.702-9.053c-0.463-0.564-0.958-1.104-1.473-1.624
	c-3.38-3.379-6.759-6.758-10.138-10.137c-1.713-1.713-0.811-4.748-0.027-6.478c0.972-2.148,2.308-3.904,3.96-5.556
	c1.653-1.654,3.409-2.988,5.559-3.963C12.649,0.615,15.683-0.286,17.395,1.425z"/>
<line opacity="0.5" fill="none" stroke="#454447" stroke-width="0.2835" x1="47.53" y1="21.56" x2="21.561" y2="47.528"/>
<line opacity="0.5" fill="none" stroke="#454447" stroke-width="0.2835" x1="25.583" y1="13.115" x2="13.115" y2="25.583"/>
<path fill="none" stroke="#454447" stroke-width="0.8986" d="M37.746,55.728c9.561-0.844,17.141-8.422,17.981-17.984"/>
<path fill="none" stroke="#454447" stroke-width="0.8986" d="M37.353,51.274c7.402-0.649,13.271-6.521,13.924-13.922"/>
<path fill="none" stroke="#454447" stroke-width="0.8986" d="M36.96,46.824c5.244-0.462,9.401-4.619,9.862-9.863"/>
</svg>
