<?xml version="1.0" encoding="utf-8"?>
<!-- Generator: Adobe Illustrator 13.0.0, SVG Export Plug-In . SVG Version: 6.00 Build 14948)  -->
<!DOCTYPE svg PUBLIC "-//W3C//DTD SVG 1.1 Basic//EN" "http://www.w3.org/Graphics/SVG/1.1/DTD/svg11-basic.dtd">
<svg version="1.1" baseProfile="basic" xmlns="http://www.w3.org/2000/svg" xmlns:xlink="http://www.w3.org/1999/xlink" x="0px"
	 y="0px" width="37.249px" height="45.49px" viewBox="0 0 37.249 45.49" xml:space="preserve">
<g id="Default">
</g>
<g id="Make2D_visible_lines">
	<g id="terminal-2_4_">
		
			<linearGradient id="SVGID_1_" gradientUnits="userSpaceOnUse" x1="3078.2852" y1="-7805.8677" x2="3605.8015" y2="-7805.8677" gradientTransform="matrix(0.0256 0.0308 -0.0308 0.0256 -303.833 118.8662)">
			<stop  offset="0" style="stop-color:#E6E8EF"/>
			<stop  offset="1" style="stop-color:#ABBDD2"/>
		</linearGradient>
		<path fill="url(#SVGID_1_)" d="M36.799,4.345c0,0,0,0,0,0.032c0,7.694,0,15.39,0,23.117c-0.226,0.289-0.644,0.772-1.223,1.48
			c-0.612,0.677-1.514,1.513-2.802,2.511l-0.064,0.129c0,0.098,0,0.194,0,0.322c0,0.354,0,0.709,0,1.063
			c-6.986,5.764-13.941,9.788-20.896,12.042c0.129,0.064,0.258,0.128,0.387,0.192c6.955-2.254,13.909-6.278,20.896-12.041
			c0-0.482,0-0.934,0-1.384l0.064-0.13c1.288-0.998,2.189-1.834,2.769-2.543c0.612-0.676,0.998-1.159,1.255-1.449
			c0-7.727,0-15.421,0-23.117c-0.128-0.096-0.225-0.16-0.354-0.257L36.799,4.345z"/>
		
			<linearGradient id="SVGID_2_" gradientUnits="userSpaceOnUse" x1="3078.2896" y1="-8111.7207" x2="3605.7805" y2="-8111.7207" gradientTransform="matrix(0.0256 0.0308 -0.0308 0.0256 -303.833 118.8662)">
			<stop  offset="0" style="stop-color:#E6E8EF"/>
			<stop  offset="1" style="stop-color:#ABBDD2"/>
		</linearGradient>
		<path fill="url(#SVGID_2_)" d="M36.799,4.377c0-0.032,0-0.032,0-0.032l-4.089,3.38c0,3.929,0,8.017,0,12.203
			c0,3.992,0,7.889,0,11.687l0.064-0.129c1.288-0.998,2.189-1.834,2.802-2.511c0.579-0.708,0.997-1.191,1.223-1.48
			C36.799,19.767,36.799,12.071,36.799,4.377z"/>
		
			<linearGradient id="SVGID_3_" gradientUnits="userSpaceOnUse" x1="3078.293" y1="-8348.3174" x2="3605.8096" y2="-8348.3174" gradientTransform="matrix(0.0256 0.0308 -0.0308 0.0256 -303.833 118.8662)">
			<stop  offset="0" style="stop-color:#E6E8EF"/>
			<stop  offset="1" style="stop-color:#ABBDD2"/>
		</linearGradient>
		<path fill="url(#SVGID_3_)" d="M36.799,4.345l0.032-0.032c-1.738-1.224-3.477-2.479-5.248-3.703c0,0.032-0.032,0.032-0.032,0.032
			C33.29,1.898,35.028,3.121,36.799,4.345z"/>
		
			<linearGradient id="SVGID_4_" gradientUnits="userSpaceOnUse" x1="3078.2969" y1="-8281.9063" x2="3605.8008" y2="-8281.9063" gradientTransform="matrix(0.0256 0.0308 -0.0308 0.0256 -303.833 118.8662)">
			<stop  offset="0" style="stop-color:#E6E8EF"/>
			<stop  offset="1" style="stop-color:#ABBDD2"/>
		</linearGradient>
		<path fill="url(#SVGID_4_)" d="M32.678,6.856h0.032v0.032c0,0.258,0,0.548,0,0.837l4.089-3.38
			c-1.771-1.224-3.51-2.446-5.248-3.703c-1.385,0.805-2.769,1.61-4.122,2.383l-0.321-0.226c-0.033,0.032-0.065,0.032-0.065,0.065
			l-0.354-0.257l-0.257,0.128L32.678,6.856z"/>
		
			<linearGradient id="SVGID_5_" gradientUnits="userSpaceOnUse" x1="4007.8481" y1="-10832.6006" x2="4530.9023" y2="-10832.6006" gradientTransform="matrix(0.0195 0.0235 -0.0235 0.0195 -299.9854 123.9553)">
			<stop  offset="0" style="stop-color:#E6E8EF"/>
			<stop  offset="1" style="stop-color:#ABBDD2"/>
		</linearGradient>
		<path fill="url(#SVGID_5_)" d="M32.71,6.856h-0.032l0.032,0.032V6.856z"/>
		
			<linearGradient id="SVGID_6_" gradientUnits="userSpaceOnUse" x1="4007.8755" y1="-10170.126" x2="4535.3687" y2="-10170.126" gradientTransform="matrix(0.0195 0.0235 -0.0235 0.0195 -299.9854 123.9553)">
			<stop  offset="0" style="stop-color:#E6E8EF"/>
			<stop  offset="1" style="stop-color:#ABBDD2"/>
		</linearGradient>
		<path fill="url(#SVGID_6_)" d="M32.71,6.888l-0.032-0.032c-6.954,4.025-13.909,8.049-20.895,12.074v0.322l0.032,22.989l0.29-0.065
			l-0.29,0.065v2.157v0.644l0,0c6.955-2.254,13.909-6.278,20.896-12.042c0-0.354,0-0.709,0-1.063c0-0.128,0-0.225,0-0.322
			c0-3.798,0-7.695,0-11.687c0-4.186,0-8.274,0-12.203C32.71,7.436,32.71,7.146,32.71,6.888z M29.168,12.876v7.47l-14.262,8.209
			v-7.437L29.168,12.876z M25.499,26.656l2.028-1.158v2.093l-2.028,1.191V26.656z M25.499,30.036l2.028-1.158v2.093l-2.028,1.192
			V30.036z M30.747,27.075v2.093l-2.029,1.191v-2.126L30.747,27.075z M24.307,32.774l-2.028,1.191V31.84l2.028-1.159V32.774z
			 M20.444,32.677v2.125l-2.029,1.16v-2.125L20.444,32.677z M20.444,36.058v2.093l-2.029,1.191v-2.124L20.444,36.058z
			 M25.499,33.418l2.028-1.159v2.093l-2.028,1.191V33.418z M20.444,29.297v2.093l-2.029,1.191v-2.125L20.444,29.297z M17.257,31.101
			v2.092l-2.029,1.191v-2.125L17.257,31.101z M15.228,37.765V35.64l2.029-1.158v2.092L15.228,37.765z M15.228,41.146V39.02
			l2.029-1.158v2.093L15.228,41.146z"/>
		
			<linearGradient id="SVGID_7_" gradientUnits="userSpaceOnUse" x1="-13036.9434" y1="3202.1396" x2="-12509.4678" y2="3202.1396" gradientTransform="matrix(-0.027 0 0 -0.027 -322.8003 107.174)">
			<stop  offset="0" style="stop-color:#F7F4EA"/>
			<stop  offset="1" style="stop-color:#F4EDCE"/>
		</linearGradient>
		<path fill="url(#SVGID_7_)" d="M29.168,20.346v-7.47l-14.262,8.243v7.437L29.168,20.346z"/>
		
			<radialGradient id="SVGID_8_" cx="31956.4668" cy="-9057.8057" r="263.7585" gradientTransform="matrix(0.0101 0 0 0.0101 -296.9104 117.8615)" gradientUnits="userSpaceOnUse">
			<stop  offset="0" style="stop-color:#F7F7F7"/>
			<stop  offset="1" style="stop-color:#E3D8A7"/>
		</radialGradient>
		<path fill="url(#SVGID_8_)" d="M27.527,25.498l-2.028,1.158v2.126l2.028-1.191V25.498z"/>
		
			<radialGradient id="SVGID_9_" cx="31956.4668" cy="-9762.7559" r="263.812" gradientTransform="matrix(0.0101 0 0 0.0101 -296.9104 128.3615)" gradientUnits="userSpaceOnUse">
			<stop  offset="0" style="stop-color:#F7F7F7"/>
			<stop  offset="1" style="stop-color:#E3D8A7"/>
		</radialGradient>
		<path fill="url(#SVGID_9_)" d="M27.527,28.878l-2.028,1.158v2.127l2.028-1.192V28.878z"/>
		
			<radialGradient id="SVGID_10_" cx="31285.1152" cy="-9386.8027" r="263.7809" gradientTransform="matrix(0.0101 0 0 0.0101 -286.9104 122.7614)" gradientUnits="userSpaceOnUse">
			<stop  offset="0" style="stop-color:#F7F7F7"/>
			<stop  offset="1" style="stop-color:#E3D8A7"/>
		</radialGradient>
		<path fill="url(#SVGID_10_)" d="M30.747,29.168v-2.093l-2.029,1.158v2.126L30.747,29.168z"/>
		
			<radialGradient id="SVGID_11_" cx="32624.3887" cy="-10138.7305" r="263.7995" gradientTransform="matrix(0.0101 0 0 0.0101 -306.8601 133.9616)" gradientUnits="userSpaceOnUse">
			<stop  offset="0" style="stop-color:#F7F7F7"/>
			<stop  offset="1" style="stop-color:#E3D8A7"/>
		</radialGradient>
		<path fill="url(#SVGID_11_)" d="M22.279,33.966l2.028-1.191v-2.094l-2.028,1.159V33.966z"/>
		
			<radialGradient id="SVGID_12_" cx="33429.9766" cy="-10554.9629" r="263.8305" gradientTransform="matrix(0.0101 0 0 0.0101 -318.8601 140.1618)" gradientUnits="userSpaceOnUse">
			<stop  offset="0" style="stop-color:#F7F7F7"/>
			<stop  offset="1" style="stop-color:#E3D8A7"/>
		</radialGradient>
		<path fill="url(#SVGID_12_)" d="M20.444,34.802v-2.125l-2.029,1.16v2.125L20.444,34.802z"/>
		
			<radialGradient id="SVGID_13_" cx="33429.9766" cy="-11259.8477" r="263.778" gradientTransform="matrix(0.0101 0 0 0.0101 -318.8601 150.6618)" gradientUnits="userSpaceOnUse">
			<stop  offset="0" style="stop-color:#F7F7F7"/>
			<stop  offset="1" style="stop-color:#E3D8A7"/>
		</radialGradient>
		<path fill="url(#SVGID_13_)" d="M20.444,38.15v-2.093l-2.029,1.16v2.124L20.444,38.15z"/>
		
			<radialGradient id="SVGID_14_" cx="31956.4668" cy="-10467.6406" r="263.7577" gradientTransform="matrix(0.0101 0 0 0.0101 -296.9104 138.8615)" gradientUnits="userSpaceOnUse">
			<stop  offset="0" style="stop-color:#F7F7F7"/>
			<stop  offset="1" style="stop-color:#E3D8A7"/>
		</radialGradient>
		<path fill="url(#SVGID_14_)" d="M27.527,32.259l-2.028,1.159v2.125l2.028-1.191V32.259z"/>
		
			<radialGradient id="SVGID_15_" cx="33429.9766" cy="-9850.0127" r="263.7785" gradientTransform="matrix(0.0101 0 0 0.0101 -318.8601 129.6618)" gradientUnits="userSpaceOnUse">
			<stop  offset="0" style="stop-color:#F7F7F7"/>
			<stop  offset="1" style="stop-color:#E3D8A7"/>
		</radialGradient>
		<path fill="url(#SVGID_15_)" d="M20.444,31.39v-2.093l-2.029,1.159v2.125L20.444,31.39z"/>
		
			<radialGradient id="SVGID_16_" cx="34097.9609" cy="-10225.9004" r="263.7437" gradientTransform="matrix(0.0101 0 0 0.0101 -328.8103 135.2614)" gradientUnits="userSpaceOnUse">
			<stop  offset="0" style="stop-color:#F7F7F7"/>
			<stop  offset="1" style="stop-color:#E3D8A7"/>
		</radialGradient>
		<path fill="url(#SVGID_16_)" d="M17.257,33.192v-2.092l-2.029,1.158v2.125L17.257,33.192z"/>
		
			<radialGradient id="SVGID_17_" cx="34097.9609" cy="-10930.7578" r="263.7442" gradientTransform="matrix(0.0101 0 0 0.0101 -328.8103 145.7614)" gradientUnits="userSpaceOnUse">
			<stop  offset="0" style="stop-color:#F7F7F7"/>
			<stop  offset="1" style="stop-color:#E3D8A7"/>
		</radialGradient>
		<path fill="url(#SVGID_17_)" d="M15.228,35.64v2.125l2.029-1.191v-2.092L15.228,35.64z"/>
		
			<radialGradient id="SVGID_18_" cx="34097.9609" cy="-11635.6875" r="263.7971" gradientTransform="matrix(0.0101 0 0 0.0101 -328.8103 156.2614)" gradientUnits="userSpaceOnUse">
			<stop  offset="0" style="stop-color:#F7F7F7"/>
			<stop  offset="1" style="stop-color:#E3D8A7"/>
		</radialGradient>
		<path fill="url(#SVGID_18_)" d="M15.228,39.02v2.126l2.029-1.191v-2.093L15.228,39.02z"/>
		
			<linearGradient id="SVGID_19_" gradientUnits="userSpaceOnUse" x1="3078.2896" y1="-8204.6953" x2="3605.7678" y2="-8204.6953" gradientTransform="matrix(0.0256 0.0308 -0.0308 0.0256 -303.833 118.8662)">
			<stop  offset="0" style="stop-color:#E6E8EF"/>
			<stop  offset="1" style="stop-color:#ABBDD2"/>
		</linearGradient>
		<path fill="url(#SVGID_19_)" d="M26.689,2.606l0.354,0.257c0-0.033,0.032-0.033,0.065-0.065l-0.387-0.225L26.689,2.606z"/>
		
			<linearGradient id="SVGID_20_" gradientUnits="userSpaceOnUse" x1="3078.293" y1="-7925.1235" x2="3605.7776" y2="-7925.1235" gradientTransform="matrix(0.0256 0.0308 -0.0308 0.0256 -303.833 118.8662)">
			<stop  offset="0" style="stop-color:#E6E8EF"/>
			<stop  offset="1" style="stop-color:#ABBDD2"/>
		</linearGradient>
		<path fill="url(#SVGID_20_)" d="M32.678,6.856l-6.246-4.121L5.569,14.873l6.214,3.703v0.354
			C18.769,14.905,25.724,10.881,32.678,6.856z"/>
		
			<linearGradient id="SVGID_21_" gradientUnits="userSpaceOnUse" x1="3078.293" y1="-7556.0015" x2="3605.782" y2="-7556.0015" gradientTransform="matrix(0.0256 0.0308 -0.0308 0.0256 -303.833 118.8662)">
			<stop  offset="0" style="stop-color:#E6E8EF"/>
			<stop  offset="1" style="stop-color:#ABBDD2"/>
		</linearGradient>
		<path fill="url(#SVGID_21_)" d="M5.569,14.873H5.537v1.255l-4.54,2.64l5.441,3.123l5.345-2.64V18.93v-0.354L5.569,14.873z"/>
		
			<linearGradient id="SVGID_22_" gradientUnits="userSpaceOnUse" x1="3078.2988" y1="-7298.6333" x2="3605.7913" y2="-7298.6333" gradientTransform="matrix(0.0256 0.0308 -0.0308 0.0256 -303.833 118.8662)">
			<stop  offset="0" style="stop-color:#E6E8EF"/>
			<stop  offset="1" style="stop-color:#ABBDD2"/>
		</linearGradient>
		<path fill="url(#SVGID_22_)" d="M0.997,18.769l-0.16,0.064v22.248l4.507,2.061l1.063,0.482V21.892h0.032L0.997,18.769z"/>
		
			<linearGradient id="SVGID_23_" gradientUnits="userSpaceOnUse" x1="3078.291" y1="-7404.1943" x2="3605.7935" y2="-7404.1943" gradientTransform="matrix(0.0256 0.0308 -0.0308 0.0256 -303.833 118.8662)">
			<stop  offset="0" style="stop-color:#E6E8EF"/>
			<stop  offset="1" style="stop-color:#ABBDD2"/>
		</linearGradient>
		<path fill="url(#SVGID_23_)" d="M11.783,19.251l-5.345,2.64H6.406v21.732l0.065,0.032l1.835-0.419H8.273
			c0.161,0.064,0.29,0.129,0.419,0.193c1.029,0.548,2.092,1.063,3.122,1.61v-0.644V42.24l-3.509,0.772l3.509-0.772L11.783,19.251z"
			/>
		
			<linearGradient id="SVGID_24_" gradientUnits="userSpaceOnUse" x1="3078.2139" y1="-7181.3159" x2="3605.813" y2="-7181.3159" gradientTransform="matrix(0.0256 0.0308 -0.0308 0.0256 -303.833 118.8662)">
			<stop  offset="0" style="stop-color:#E6E8EF"/>
			<stop  offset="1" style="stop-color:#ABBDD2"/>
		</linearGradient>
		<path fill="url(#SVGID_24_)" d="M6.471,43.656l-0.065-0.032v0.032l0.419,0.192l1.868-0.418c-0.129-0.064-0.259-0.129-0.419-0.193
			h0.033L6.471,43.656z"/>
		
			<linearGradient id="SVGID_25_" gradientUnits="userSpaceOnUse" x1="3078.4487" y1="-7151.7246" x2="3605.7578" y2="-7151.7246" gradientTransform="matrix(0.0256 0.0308 -0.0308 0.0256 -303.833 118.8662)">
			<stop  offset="0" style="stop-color:#E6E8EF"/>
			<stop  offset="1" style="stop-color:#ABBDD2"/>
		</linearGradient>
		<path fill="url(#SVGID_25_)" d="M6.406,43.656v-0.032l-1.063-0.482L6.406,43.656z"/>
		
			<linearGradient id="SVGID_26_" gradientUnits="userSpaceOnUse" x1="4531.4907" y1="-9507.9092" x2="4531.4907" y2="-9507.9092" gradientTransform="matrix(0.0195 0.0235 -0.0235 0.0195 -299.9854 123.9553)">
			<stop  offset="0" style="stop-color:#E6E8EF"/>
			<stop  offset="1" style="stop-color:#ABBDD2"/>
		</linearGradient>
		<path fill="url(#SVGID_26_)" d="M11.814,45.041L11.814,45.041L11.814,45.041z"/>
		<polyline fill="none" stroke="#000000" stroke-width="0.3962" stroke-linecap="round" stroke-linejoin="round" points="
			20.444,34.802 18.415,35.962 18.415,33.837 20.444,32.677 20.444,34.802 		"/>
		<polyline fill="none" stroke="#000000" stroke-width="0.3962" stroke-linecap="round" stroke-linejoin="round" points="
			22.279,33.966 22.279,31.84 24.307,30.681 24.307,32.774 22.279,33.966 		"/>
		<polyline fill="none" stroke="#000000" stroke-width="0.3962" stroke-linecap="round" stroke-linejoin="round" points="
			30.747,29.168 28.718,30.359 28.718,28.233 30.747,27.075 30.747,29.168 		"/>
		<polyline fill="none" stroke="#000000" stroke-width="0.3962" stroke-linecap="round" stroke-linejoin="round" points="
			15.228,35.64 17.257,34.481 17.257,36.573 15.228,37.765 15.228,35.64 		"/>
		<polyline fill="none" stroke="#000000" stroke-width="0.3962" stroke-linecap="round" stroke-linejoin="round" points="
			27.527,28.878 27.527,30.971 25.499,32.163 25.499,30.036 27.527,28.878 		"/>
		<polyline fill="none" stroke="#000000" stroke-width="0.3962" stroke-linecap="round" stroke-linejoin="round" points="
			20.444,31.39 18.415,32.581 18.415,30.456 20.444,29.297 20.444,31.39 		"/>
		<polyline fill="none" stroke="#000000" stroke-width="0.3962" stroke-linecap="round" stroke-linejoin="round" points="
			15.228,39.02 17.257,37.861 17.257,39.954 15.228,41.146 15.228,39.02 		"/>
		<polyline fill="none" stroke="#000000" stroke-width="0.3962" stroke-linecap="round" stroke-linejoin="round" points="
			17.257,33.192 15.228,34.384 15.228,32.259 17.257,31.101 17.257,33.192 		"/>
		<polyline fill="none" stroke="#000000" stroke-width="0.3962" stroke-linecap="round" stroke-linejoin="round" points="
			27.527,25.498 27.527,27.591 25.499,28.782 25.499,26.656 27.527,25.498 		"/>
		<polyline fill="none" stroke="#000000" stroke-width="0.3962" stroke-linecap="round" stroke-linejoin="round" points="
			20.444,38.15 18.415,39.342 18.415,37.218 20.444,36.058 20.444,38.15 		"/>
		<polyline fill="none" stroke="#000000" stroke-width="0.3962" stroke-linecap="round" stroke-linejoin="round" points="
			27.527,32.259 27.527,34.352 25.499,35.543 25.499,33.418 27.527,32.259 		"/>
		
			<line fill="none" stroke="#444346" stroke-width="0.5943" stroke-linecap="round" stroke-linejoin="round" x1="32.71" y1="6.888" x2="32.71" y2="6.856"/>
		<path fill="none" stroke="#444346" stroke-width="0.5943" stroke-linecap="round" stroke-linejoin="round" d="M32.71,31.614
			c0-3.798,0-7.695,0-11.687c0-4.186,0-8.274,0-12.203"/>
		<polyline fill="none" stroke="#444346" stroke-width="0.5943" stroke-linecap="round" stroke-linejoin="round" points="
			26.335,2.703 26.432,2.735 32.678,6.856 		"/>
		<path fill="none" stroke="#444346" stroke-width="0.5943" stroke-linecap="round" stroke-linejoin="round" d="M32.71,7.725
			c0-0.29,0-0.579,0-0.837"/>
		
			<line fill="none" stroke="#444346" stroke-width="0.5943" stroke-linecap="round" stroke-linejoin="round" x1="32.678" y1="6.856" x2="32.71" y2="6.888"/>
		<polyline fill="none" stroke="#444346" stroke-width="0.5943" stroke-linecap="round" stroke-linejoin="round" points="
			0.772,18.64 0.997,18.769 6.438,21.892 		"/>
		<path fill="none" stroke="#444346" stroke-width="0.5943" stroke-linecap="round" stroke-linejoin="round" d="M32.678,6.856
			c-6.954,4.025-13.909,8.049-20.895,12.074"/>
		
			<line fill="none" stroke="#444346" stroke-width="0.5943" stroke-linecap="round" stroke-linejoin="round" x1="11.783" y1="19.251" x2="6.438" y2="21.892"/>
		<polyline fill="none" stroke="#444346" stroke-width="0.5943" stroke-linecap="round" stroke-linejoin="round" points="
			6.438,21.892 6.406,21.892 6.406,43.624 6.406,43.656 		"/>
		<polyline fill="none" stroke="#444346" stroke-width="0.5943" stroke-linecap="round" stroke-linejoin="round" points="
			8.306,43.013 11.814,42.24 12.104,42.175 		"/>
		<polyline fill="none" stroke="#444346" stroke-width="0.5943" stroke-linecap="round" stroke-linejoin="round" points="
			36.831,4.313 36.799,4.345 32.71,7.725 		"/>
		<polyline fill="none" stroke="#000000" stroke-width="0.6736" stroke-linecap="round" stroke-linejoin="round" points="
			29.168,20.346 14.906,28.556 14.906,21.119 29.168,12.876 29.168,20.346 		"/>
		<path fill="none" stroke="#444346" stroke-width="0.8985" stroke-linecap="round" stroke-linejoin="round" d="M36.799,4.345
			c-1.771-1.224-3.51-2.446-5.248-3.703c-0.129-0.065-0.226-0.128-0.322-0.193c-1.384,0.772-2.769,1.577-4.121,2.35
			c-0.033,0.032-0.065,0.032-0.065,0.065l-0.354-0.257l-0.322-0.226L5.15,14.68v1.255L0.449,18.64v22.279l0.387,0.162l4.507,2.061
			l1.063,0.482l0.065,0.032l1.835-0.419H8.273c0.161,0.064,0.29,0.129,0.419,0.193c1.029,0.548,2.092,1.063,3.122,1.61l0,0
			c6.955-2.254,13.909-6.278,20.896-12.042c0-0.354,0-0.709,0-1.063c0-0.128,0-0.225,0-0.322l0.064-0.129
			c1.288-0.998,2.189-1.834,2.802-2.511c0.579-0.708,0.997-1.191,1.223-1.48c0-7.728,0-15.423,0-23.117
			C36.799,4.345,36.799,4.345,36.799,4.345"/>
		<polyline fill="none" stroke="#444346" stroke-width="1.5848" stroke-linecap="round" stroke-linejoin="round" points="
			5.569,14.873 11.783,18.576 11.783,18.93 11.783,19.251 11.814,42.24 11.814,44.397 		"/>
	</g>
</g>
</svg>
