<?xml version="1.0" encoding="utf-8"?>
<!-- Generator: Adobe Illustrator 13.0.0, SVG Export Plug-In . SVG Version: 6.00 Build 14948)  -->
<!DOCTYPE svg PUBLIC "-//W3C//DTD SVG 1.1 Basic//EN" "http://www.w3.org/Graphics/SVG/1.1/DTD/svg11-basic.dtd">
<svg version="1.1" baseProfile="basic" xmlns="http://www.w3.org/2000/svg" xmlns:xlink="http://www.w3.org/1999/xlink" x="0px"
	 y="0px" width="43.949px" height="36.229px" viewBox="0 0 43.949 36.229" xml:space="preserve">
<g id="Default">
</g>
<g id="Make2D_visible_lines">
	<g id="terminal_4_">
		<linearGradient id="SVGID_1_" gradientUnits="userSpaceOnUse" x1="0.4795" y1="12.6201" x2="43.4748" y2="23.5836">
			<stop  offset="0" style="stop-color:#E6E8EF"/>
			<stop  offset="1" style="stop-color:#ABBDD2"/>
		</linearGradient>
		<path fill="url(#SVGID_1_)" d="M20.852,0.66c0.049-0.028,0.101-0.055,0.157-0.076c0.068-0.028,0.142-0.053,0.218-0.072
			c0.153-0.041,0.321-0.062,0.489-0.063c0.085-0.001,0.169,0.003,0.25,0.012c0.082,0.01,0.163,0.023,0.242,0.042
			c0.156,0.038,0.3,0.095,0.418,0.165c7.075,4.208,14.013,9.821,20.581,16.652c0.174,0.181,0.277,0.396,0.292,0.599l-0.002-0.009
			c0.002,1.841,0.002,3.679,0.003,5.518c0.001,0.17-0.097,0.334-0.293,0.449c-0.061,0.033-0.119,0.066-0.178,0.102
			c-6.678,3.854-13.357,7.707-20.035,11.562c-0.06,0.034-0.118,0.068-0.178,0.103c-0.396,0.229-1.03,0.164-1.419-0.13
			C14.585,30.356,7.711,25.75,0.817,21.721c-0.245-0.143-0.368-0.328-0.368-0.514c0-2.823,0-5.646,0-8.469l0.085-0.268
			c0.061-0.09,0.155-0.176,0.283-0.248C1.162,12.021,14.914,4.088,20.852,0.66z"/>
		<linearGradient id="SVGID_2_" gradientUnits="userSpaceOnUse" x1="30.3486" y1="18.6748" x2="35.7715" y2="18.6748">
			<stop  offset="0" style="stop-color:#F7F4EA"/>
			<stop  offset="1" style="stop-color:#F4EDCE"/>
		</linearGradient>
		<path fill="url(#SVGID_2_)" d="M33.061,20.773c-0.896-0.898-1.801-1.777-2.712-2.633c0.904-0.523,1.808-1.043,2.712-1.564
			c0.911,0.855,1.816,1.732,2.711,2.632C34.868,19.729,33.963,20.252,33.061,20.773z"/>
		<linearGradient id="SVGID_3_" gradientUnits="userSpaceOnUse" x1="26.6191" y1="9.4448" x2="32.0449" y2="9.4448">
			<stop  offset="0" style="stop-color:#F7F4EA"/>
			<stop  offset="1" style="stop-color:#F4EDCE"/>
		</linearGradient>
		<path fill="url(#SVGID_3_)" d="M29.332,11.309c-0.899-0.742-1.805-1.464-2.713-2.162c0.905-0.521,1.809-1.043,2.713-1.565
			C30.24,8.279,31.145,9,32.045,9.744C31.139,10.266,30.236,10.787,29.332,11.309z"/>
		<linearGradient id="SVGID_4_" gradientUnits="userSpaceOnUse" x1="30.6875" y1="12.8672" x2="36.1104" y2="12.8672">
			<stop  offset="0" style="stop-color:#F7F4EA"/>
			<stop  offset="1" style="stop-color:#F4EDCE"/>
		</linearGradient>
		<path fill="url(#SVGID_4_)" d="M33.399,14.851c-0.898-0.822-1.802-1.624-2.712-2.401c0.903-0.521,1.808-1.043,2.712-1.565
			c0.908,0.778,1.814,1.579,2.711,2.401C35.207,13.807,34.303,14.328,33.399,14.851z"/>
		<linearGradient id="SVGID_5_" gradientUnits="userSpaceOnUse" x1="34.416" y1="16.3271" x2="39.8389" y2="16.3271">
			<stop  offset="0" style="stop-color:#F7F4EA"/>
			<stop  offset="1" style="stop-color:#F4EDCE"/>
		</linearGradient>
		<path fill="url(#SVGID_5_)" d="M37.129,18.426c-0.896-0.898-1.801-1.777-2.713-2.633c0.902-0.521,1.809-1.043,2.713-1.564
			c0.91,0.855,1.814,1.733,2.71,2.632C38.936,17.383,38.031,17.904,37.129,18.426z"/>
		<linearGradient id="SVGID_6_" gradientUnits="userSpaceOnUse" x1="18.4849" y1="19.9092" x2="23.9082" y2="19.9092">
			<stop  offset="0" style="stop-color:#F7F4EA"/>
			<stop  offset="1" style="stop-color:#F4EDCE"/>
		</linearGradient>
		<path fill="url(#SVGID_6_)" d="M21.196,21.893c-0.898-0.822-1.802-1.623-2.711-2.4c0.904-0.522,1.808-1.045,2.711-1.566
			c0.911,0.779,1.814,1.579,2.712,2.402C23.005,20.848,22.1,21.369,21.196,21.893z"/>
		<linearGradient id="SVGID_7_" gradientUnits="userSpaceOnUse" x1="22.5518" y1="17.5615" x2="27.9756" y2="17.5615">
			<stop  offset="0" style="stop-color:#F7F4EA"/>
			<stop  offset="1" style="stop-color:#F4EDCE"/>
		</linearGradient>
		<path fill="url(#SVGID_7_)" d="M25.265,19.545c-0.898-0.822-1.803-1.623-2.713-2.4c0.904-0.521,1.809-1.045,2.713-1.566
			c0.908,0.778,1.813,1.579,2.711,2.402C27.072,18.502,26.167,19.023,25.265,19.545z"/>
		<linearGradient id="SVGID_8_" gradientUnits="userSpaceOnUse" x1="22.2129" y1="23.3691" x2="27.6377" y2="23.3691">
			<stop  offset="0" style="stop-color:#F7F4EA"/>
			<stop  offset="1" style="stop-color:#F4EDCE"/>
		</linearGradient>
		<path fill="url(#SVGID_8_)" d="M24.925,25.469c-0.896-0.9-1.799-1.778-2.712-2.633c0.905-0.523,1.808-1.044,2.712-1.566
			c0.913,0.857,1.816,1.734,2.713,2.633C26.732,24.424,25.83,24.945,24.925,25.469z"/>
		<linearGradient id="SVGID_9_" gradientUnits="userSpaceOnUse" x1="26.2803" y1="21.021" x2="31.7031" y2="21.021">
			<stop  offset="0" style="stop-color:#F7F4EA"/>
			<stop  offset="1" style="stop-color:#F4EDCE"/>
		</linearGradient>
		<path fill="url(#SVGID_9_)" d="M28.993,23.119c-0.896-0.898-1.801-1.775-2.713-2.632c0.904-0.521,1.809-1.044,2.713-1.564
			c0.911,0.856,1.815,1.734,2.71,2.633C30.8,22.077,29.896,22.599,28.993,23.119z"/>
		<linearGradient id="SVGID_10_" gradientUnits="userSpaceOnUse" x1="26.6191" y1="15.2148" x2="32.0449" y2="15.2148">
			<stop  offset="0" style="stop-color:#F7F4EA"/>
			<stop  offset="1" style="stop-color:#F4EDCE"/>
		</linearGradient>
		<path fill="url(#SVGID_10_)" d="M29.332,17.197c-0.897-0.822-1.803-1.623-2.713-2.402c0.905-0.52,1.809-1.043,2.713-1.563
			c0.909,0.777,1.813,1.578,2.713,2.4C31.139,16.154,30.236,16.676,29.332,17.197z"/>
		<linearGradient id="SVGID_11_" gradientUnits="userSpaceOnUse" x1="22.5518" y1="11.793" x2="27.9756" y2="11.793">
			<stop  offset="0" style="stop-color:#F7F4EA"/>
			<stop  offset="1" style="stop-color:#F4EDCE"/>
		</linearGradient>
		<path fill="url(#SVGID_11_)" d="M25.265,13.656c-0.9-0.743-1.806-1.465-2.713-2.162c0.904-0.521,1.809-1.044,2.713-1.564
			c0.907,0.696,1.813,1.419,2.711,2.162C27.072,12.613,26.167,13.136,25.265,13.656z"/>
		<linearGradient id="SVGID_12_" gradientUnits="userSpaceOnUse" x1="18.4849" y1="14.1396" x2="23.9082" y2="14.1396">
			<stop  offset="0" style="stop-color:#F7F4EA"/>
			<stop  offset="1" style="stop-color:#F4EDCE"/>
		</linearGradient>
		<path fill="url(#SVGID_12_)" d="M21.196,16.003c-0.899-0.742-1.804-1.463-2.711-2.162c0.904-0.522,1.808-1.043,2.711-1.564
			c0.908,0.698,1.813,1.419,2.712,2.162C23.005,14.961,22.1,15.482,21.196,16.003z"/>
		<linearGradient id="SVGID_13_" gradientUnits="userSpaceOnUse" x1="14.417" y1="16.4883" x2="19.8398" y2="16.4883">
			<stop  offset="0" style="stop-color:#F7F4EA"/>
			<stop  offset="1" style="stop-color:#F4EDCE"/>
		</linearGradient>
		<path fill="url(#SVGID_13_)" d="M17.128,18.352c-0.899-0.743-1.803-1.465-2.711-2.163c0.903-0.522,1.808-1.044,2.711-1.563
			c0.908,0.697,1.813,1.418,2.711,2.161C18.937,17.307,18.032,17.829,17.128,18.352z"/>
		<linearGradient id="SVGID_14_" gradientUnits="userSpaceOnUse" x1="6.9604" y1="8.4199" x2="26.959" y2="8.4199">
			<stop  offset="0" style="stop-color:#F7F4EA"/>
			<stop  offset="1" style="stop-color:#F4EDCE"/>
		</linearGradient>
		<path fill="url(#SVGID_14_)" d="M12.044,14.422c-0.21-0.15-0.418-0.299-0.628-0.447c-0.21-0.149-0.421-0.297-0.631-0.442
			c-0.208-0.146-0.419-0.29-0.631-0.433c-0.208-0.143-0.419-0.285-0.629-0.427c-0.421-0.281-0.843-0.558-1.265-0.829
			c-0.433-0.278-0.867-0.553-1.3-0.82c4.97-2.869,9.943-5.738,14.914-8.605c0.263,0.161,0.524,0.324,0.785,0.49
			c0.15,0.094,0.302,0.19,0.452,0.287c0.108,0.07,0.219,0.141,0.328,0.213c0.243,0.158,0.485,0.316,0.727,0.477
			c0.452,0.299,0.903,0.604,1.354,0.916c0.48,0.33,0.96,0.67,1.439,1.015C21.988,8.684,17.017,11.553,12.044,14.422z"/>
		<path fill="none" stroke="#444346" stroke-width="0.8985" stroke-linecap="round" stroke-linejoin="round" d="M20.852,0.66
			c0.049-0.028,0.101-0.055,0.157-0.076c0.068-0.028,0.142-0.053,0.218-0.072c0.153-0.041,0.321-0.062,0.489-0.063
			c0.085-0.001,0.169,0.003,0.25,0.012c0.082,0.01,0.163,0.023,0.242,0.042c0.156,0.038,0.3,0.095,0.418,0.165
			c7.075,4.208,14.013,9.821,20.581,16.652c0.174,0.181,0.277,0.396,0.292,0.599l-0.002-0.009c0.002,1.841,0.002,3.679,0.003,5.518
			c0.001,0.17-0.097,0.334-0.293,0.449c-0.061,0.033-0.119,0.066-0.178,0.102c-6.678,3.854-13.357,7.707-20.035,11.562
			c-0.06,0.034-0.118,0.068-0.178,0.103c-0.396,0.229-1.03,0.164-1.419-0.13C14.585,30.356,7.711,25.75,0.817,21.721
			c-0.245-0.143-0.368-0.328-0.368-0.514c0-2.823,0-5.646,0-8.469l0.085-0.268c0.061-0.09,0.155-0.176,0.283-0.248
			C1.162,12.021,14.914,4.088,20.852,0.66z"/>
		<path fill="none" stroke="#444444" stroke-width="0.6739" stroke-linecap="round" stroke-linejoin="round" d="M33.061,20.773
			c-0.896-0.898-1.801-1.777-2.712-2.633c0.904-0.523,1.808-1.043,2.712-1.564c0.911,0.855,1.816,1.732,2.711,2.632
			C34.868,19.729,33.963,20.252,33.061,20.773z"/>
		<path fill="none" stroke="#444346" stroke-width="0.5943" stroke-linecap="round" stroke-linejoin="round" d="M43.499,17.919
			c0.016,0.222-0.072,0.429-0.292,0.556c-5.999,3.461-11.998,6.922-17.996,10.385C18.162,21.4,10.672,15.35,3.035,10.942"/>
		<path fill="none" stroke="#444444" stroke-width="0.6739" stroke-linecap="round" stroke-linejoin="round" d="M29.332,11.309
			c-0.899-0.742-1.805-1.464-2.713-2.162c0.905-0.521,1.809-1.043,2.713-1.565C30.24,8.279,31.145,9,32.045,9.744
			C31.139,10.266,30.236,10.787,29.332,11.309z"/>
		<path fill="none" stroke="#444444" stroke-width="0.6739" stroke-linecap="round" stroke-linejoin="round" d="M33.399,14.851
			c-0.898-0.822-1.802-1.624-2.712-2.401c0.903-0.521,1.808-1.043,2.712-1.565c0.908,0.778,1.814,1.579,2.711,2.401
			C35.207,13.807,34.303,14.328,33.399,14.851z"/>
		<path fill="none" stroke="#444444" stroke-width="0.6739" stroke-linecap="round" stroke-linejoin="round" d="M37.129,18.426
			c-0.896-0.898-1.801-1.777-2.713-2.633c0.902-0.521,1.809-1.043,2.713-1.564c0.91,0.855,1.814,1.733,2.71,2.632
			C38.936,17.383,38.031,17.904,37.129,18.426z"/>
		<path fill="none" stroke="#444444" stroke-width="0.6739" stroke-linecap="round" stroke-linejoin="round" d="M21.196,21.893
			c-0.898-0.822-1.802-1.623-2.711-2.4c0.904-0.522,1.808-1.045,2.711-1.566c0.911,0.779,1.814,1.579,2.712,2.402
			C23.005,20.848,22.1,21.369,21.196,21.893z"/>
		<path fill="none" stroke="#444346" stroke-width="0.5943" stroke-linecap="round" stroke-linejoin="round" d="M1.852,11.625
			c3.805,2.195,7.6,4.819,11.33,7.836c3.715,3.003,7.349,6.379,10.846,10.08c-0.346,0.199-0.689,0.398-1.034,0.598
			c-0.06,0.033-0.118,0.068-0.178,0.103c-0.418,0.239-1.05,0.048-1.419-0.335C14.83,23.075,7.893,17.463,0.817,13.253
			c-0.244-0.144-0.366-0.33-0.368-0.517c0-0.091,0.028-0.181,0.085-0.266"/>
		<path fill="none" stroke="#444444" stroke-width="0.6739" stroke-linecap="round" stroke-linejoin="round" d="M25.265,19.545
			c-0.898-0.822-1.803-1.623-2.713-2.4c0.904-0.521,1.809-1.045,2.713-1.566c0.908,0.778,1.813,1.579,2.711,2.402
			C27.072,18.502,26.167,19.023,25.265,19.545z"/>
		<path fill="none" stroke="#444444" stroke-width="0.6739" stroke-linecap="round" stroke-linejoin="round" d="M24.925,25.469
			c-0.896-0.9-1.799-1.778-2.712-2.633c0.905-0.523,1.808-1.044,2.712-1.566c0.913,0.857,1.816,1.734,2.713,2.633
			C26.732,24.424,25.83,24.945,24.925,25.469z"/>
		<path fill="none" stroke="#444444" stroke-width="0.6739" stroke-linecap="round" stroke-linejoin="round" d="M28.993,23.119
			c-0.896-0.898-1.801-1.775-2.713-2.632c0.904-0.521,1.809-1.044,2.713-1.564c0.911,0.856,1.815,1.734,2.71,2.633
			C30.8,22.077,29.896,22.599,28.993,23.119z"/>
		<path fill="none" stroke="#444444" stroke-width="0.6739" stroke-linecap="round" stroke-linejoin="round" d="M29.332,17.197
			c-0.897-0.822-1.803-1.623-2.713-2.402c0.905-0.52,1.809-1.043,2.713-1.563c0.909,0.777,1.813,1.578,2.713,2.4
			C31.139,16.154,30.236,16.676,29.332,17.197z"/>
		<path fill="none" stroke="#444444" stroke-width="0.6739" stroke-linecap="round" stroke-linejoin="round" d="M25.265,13.656
			c-0.9-0.743-1.806-1.465-2.713-2.162c0.904-0.521,1.809-1.044,2.713-1.564c0.907,0.696,1.813,1.419,2.711,2.162
			C27.072,12.613,26.167,13.136,25.265,13.656z"/>
		<path fill="none" stroke="#444444" stroke-width="0.6739" stroke-linecap="round" stroke-linejoin="round" d="M21.196,16.003
			c-0.899-0.742-1.804-1.463-2.711-2.162c0.904-0.522,1.808-1.043,2.711-1.564c0.908,0.698,1.813,1.419,2.712,2.162
			C23.005,14.961,22.1,15.482,21.196,16.003z"/>
		<path fill="none" stroke="#444444" stroke-width="0.6739" stroke-linecap="round" stroke-linejoin="round" d="M17.128,18.352
			c-0.899-0.743-1.803-1.465-2.711-2.163c0.903-0.522,1.808-1.044,2.711-1.563c0.908,0.697,1.813,1.418,2.711,2.161
			C18.937,17.307,18.032,17.829,17.128,18.352z"/>
		<path fill="none" stroke="#444444" stroke-width="0.6736" stroke-linecap="round" stroke-linejoin="round" d="M12.044,14.422
			c-0.21-0.15-0.418-0.299-0.628-0.447c-0.21-0.149-0.421-0.297-0.631-0.442c-0.208-0.146-0.419-0.29-0.631-0.433
			c-0.208-0.143-0.419-0.285-0.629-0.427c-0.421-0.281-0.843-0.558-1.265-0.829c-0.433-0.278-0.867-0.553-1.3-0.82
			c4.97-2.869,9.943-5.738,14.914-8.605c0.263,0.161,0.524,0.324,0.785,0.49c0.15,0.094,0.302,0.19,0.452,0.287
			c0.108,0.07,0.219,0.141,0.328,0.213c0.243,0.158,0.485,0.316,0.727,0.477c0.452,0.299,0.903,0.604,1.354,0.916
			c0.48,0.33,0.96,0.67,1.439,1.015C21.988,8.684,17.017,11.553,12.044,14.422z"/>
		<polyline fill="none" stroke="#444346" stroke-width="0.5943" stroke-linecap="round" stroke-linejoin="round" points="
			24.028,29.541 24.028,32.104 25.211,31.422 25.211,28.859 		"/>
	</g>
</g>
</svg>
