<?xml version="1.0" encoding="utf-8"?>
<!-- Generator: Adobe Illustrator 13.0.0, SVG Export Plug-In . SVG Version: 6.00 Build 14948)  -->
<!DOCTYPE svg PUBLIC "-//W3C//DTD SVG 1.1 Basic//EN" "http://www.w3.org/Graphics/SVG/1.1/DTD/svg11-basic.dtd">
<svg version="1.1" baseProfile="basic" xmlns="http://www.w3.org/2000/svg" xmlns:xlink="http://www.w3.org/1999/xlink" x="0px"
	 y="0px" width="30.897px" height="44.562px" viewBox="0 0 30.897 44.562" xml:space="preserve">
<g id="Default">
</g>
<g id="Make2D_visible_lines">
	<g>
		<linearGradient id="SVGID_1_" gradientUnits="userSpaceOnUse" x1="0.4253" y1="22.2808" x2="30.4722" y2="22.2808">
			<stop  offset="0" style="stop-color:#E6E8EF"/>
			<stop  offset="1" style="stop-color:#ABBDD2"/>
		</linearGradient>
		<path fill="url(#SVGID_1_)" stroke="#444346" stroke-width="0.8504" d="M6.958,43.777c-0.682,0.395-1.337,0.478-1.848,0.183
			c-1.307-0.754-2.613-1.509-3.919-2.262c-0.51-0.295-0.766-0.903-0.766-1.693c0-5.529,0-13.072,0-22.627
			c0.102-1.873,1.041-3.499,2.613-4.524C10.005,8.83,16.973,4.808,23.94,0.785c0.682-0.395,1.337-0.478,1.847-0.183
			c1.307,0.754,2.613,1.509,3.92,2.264c0.509,0.294,0.765,0.902,0.765,1.691c0,5.529,0,13.072,0,22.626
			c-0.102,1.875-1.04,3.5-2.613,4.525C20.893,35.732,13.924,39.753,6.958,43.777z"/>
		<path fill="none" stroke="#444346" stroke-width="0.5943" stroke-linecap="round" stroke-linejoin="round" d="M29.708,2.866
			c-0.511-0.296-1.166-0.212-1.848,0.183C20.893,7.07,13.924,11.093,6.958,15.116c-1.572,1.025-2.511,2.65-2.613,4.526
			c0,9.552,0,17.095,0,22.626c0,0.788,0.255,1.396,0.766,1.691"/>
		<linearGradient id="SVGID_2_" gradientUnits="userSpaceOnUse" x1="6.9575" y1="25.2983" x2="21.3276" y2="25.2983">
			<stop  offset="0" style="stop-color:#F7F4EA"/>
			<stop  offset="1" style="stop-color:#F4EDCE"/>
		</linearGradient>
		<polygon fill="url(#SVGID_2_)" stroke="#444346" stroke-width="0.5669" stroke-linecap="round" stroke-linejoin="round" points="
			6.958,40.76 21.328,32.464 21.328,9.836 6.958,18.132 		"/>
		<linearGradient id="SVGID_3_" gradientUnits="userSpaceOnUse" x1="24.2344" y1="21.5259" x2="27.5654" y2="21.5259">
			<stop  offset="0" style="stop-color:#F7F4EA"/>
			<stop  offset="1" style="stop-color:#F4EDCE"/>
		</linearGradient>
		<polygon fill="url(#SVGID_3_)" stroke="#444346" stroke-width="0.5669" stroke-linecap="round" stroke-linejoin="round" points="
			24.234,24.411 27.565,22.489 27.565,18.641 24.234,20.566 		"/>
		<linearGradient id="SVGID_4_" gradientUnits="userSpaceOnUse" x1="24.2344" y1="27.5605" x2="27.5654" y2="27.5605">
			<stop  offset="0" style="stop-color:#F7F4EA"/>
			<stop  offset="1" style="stop-color:#F4EDCE"/>
		</linearGradient>
		<polygon fill="url(#SVGID_4_)" stroke="#444346" stroke-width="0.5669" stroke-linecap="round" stroke-linejoin="round" points="
			24.234,30.446 27.565,28.523 27.565,24.675 24.234,26.599 		"/>
		<linearGradient id="SVGID_5_" gradientUnits="userSpaceOnUse" x1="24.2344" y1="9.4585" x2="27.5654" y2="9.4585">
			<stop  offset="0" style="stop-color:#F7F4EA"/>
			<stop  offset="1" style="stop-color:#F4EDCE"/>
		</linearGradient>
		<polygon fill="url(#SVGID_5_)" stroke="#444346" stroke-width="0.5669" stroke-linecap="round" stroke-linejoin="round" points="
			24.234,12.344 27.565,10.421 27.565,6.573 24.234,8.497 		"/>
		<linearGradient id="SVGID_6_" gradientUnits="userSpaceOnUse" x1="24.2344" y1="15.4922" x2="27.5654" y2="15.4922">
			<stop  offset="0" style="stop-color:#F7F4EA"/>
			<stop  offset="1" style="stop-color:#F4EDCE"/>
		</linearGradient>
		<polygon fill="url(#SVGID_6_)" stroke="#444346" stroke-width="0.5669" stroke-linecap="round" stroke-linejoin="round" points="
			24.234,18.377 27.565,16.455 27.565,12.607 24.234,14.531 		"/>
		
			<line fill="none" stroke="#444346" stroke-width="0.5943" stroke-linecap="round" stroke-linejoin="round" x1="1.881" y1="15.24" x2="4.346" y2="16.663"/>
	</g>
</g>
</svg>
