<?xml version="1.0" encoding="utf-8"?>
<!-- Generator: Adobe Illustrator 13.0.0, SVG Export Plug-In . SVG Version: 6.00 Build 14948)  -->
<!DOCTYPE svg PUBLIC "-//W3C//DTD SVG 1.1 Basic//EN" "http://www.w3.org/Graphics/SVG/1.1/DTD/svg11-basic.dtd">
<svg version="1.1" baseProfile="basic" id="Слой_1"
	 xmlns="http://www.w3.org/2000/svg" xmlns:xlink="http://www.w3.org/1999/xlink" x="0px" y="0px" width="34.941px"
	 height="35.425px" viewBox="0 0 34.941 35.425" xml:space="preserve">
<path fill="none" stroke="#454447" stroke-width="0.8986" stroke-linecap="round" stroke-linejoin="round" d="M0.75,6.521
	c9.164,9.164,24.022,9.164,33.188,0"/>
<path fill="none" stroke="#454447" stroke-width="0.8986" stroke-linecap="round" stroke-linejoin="round" d="M4.438,3.484
	c7.128,7.129,18.685,7.129,25.812,0"/>
<path fill="none" stroke="#454447" stroke-width="0.8986" stroke-linecap="round" stroke-linejoin="round" d="M8.125,0.449
	c5.091,5.092,13.347,5.092,18.438,0"/>
<path fill="none" stroke="#454447" stroke-width="0.8986" stroke-linecap="round" stroke-linejoin="round" d="M0.75,12.67
	c9.939,7.05,23.248,7.05,33.188,0"/>
<linearGradient id="SVGID_1_" gradientUnits="userSpaceOnUse" x1="17.4338" y1="14.3291" x2="17.4338" y2="1.5873" gradientTransform="matrix(1 0 0 -1 0.0376 34.2695)">
	<stop  offset="0" style="stop-color:#ABBDD1"/>
	<stop  offset="0.5659" style="stop-color:#E6E7EE"/>
	<stop  offset="1" style="stop-color:#ABBDD1"/>
</linearGradient>
<path fill="url(#SVGID_1_)" d="M33.263,28.233c-0.599-0.704-1.189-1.299-1.913-1.737c-0.725-0.438-1.581-0.719-2.438-0.877
	c-0.855-0.16-1.711-0.199-2.591-0.221c-0.88-0.023-1.784-0.029-2.575-0.32c-0.79-0.293-1.466-0.873-2.151-1.422
	c-0.688-0.552-1.386-1.07-2.171-1.412c-0.783-0.341-1.655-0.504-2.523-0.605s-1.732-0.143-2.597-0.129
	c-0.865,0.014-1.731,0.08-2.595,0.195c-0.861,0.115-1.72,0.278-2.541,0.549c-0.82,0.27-1.604,0.646-2.344,1.113
	c-0.738,0.465-1.431,1.021-2.27,1.262c-0.84,0.238-1.825,0.162-2.543,0.478c-0.719,0.315-1.17,1.021-1.396,1.839
	c-0.226,0.818-0.227,1.747,0.017,2.596c0.243,0.85,0.73,1.615,1.445,2.008c0.54,0.295,1.208,0.379,1.888,0.423
	c0.646-4.128,6.728-3.687,6.769,0.493c0.563,0.039,1.123,0.076,1.686,0.107c0.865,0.049,1.732,0.086,2.601,0.11
	c0.867,0.024,1.734,0.036,2.603,0.039c0.867,0.001,1.734-0.007,2.604-0.021c0.866-0.014,1.734-0.031,2.603-0.052
	c0.441-0.01,0.885-0.021,1.328-0.03c-0.161-4.537,6.826-4.646,6.807-0.105c0.798,0.033,1.61,0.082,2.269-0.188
	c0.746-0.312,1.29-1.035,1.262-1.806C34.462,29.751,33.859,28.938,33.263,28.233z M12.843,25.464c-2.01,0-4.021,0-6.03,0
	c-0.517,0-0.72-0.668-0.29-0.955c0.104-0.068,0.207-0.139,0.311-0.209c0.25-0.168,0.502-0.332,0.763-0.485
	c0.417-0.247,0.854-0.462,1.308-0.638c0.538-0.207,1.096-0.359,1.66-0.48c0.751-0.162,1.514-0.27,2.281-0.33
	C12.843,23.398,12.843,24.432,12.843,25.464z M21.11,25.464c-2.494,0-4.99,0-7.485,0c0-1.049,0-2.098,0-3.147
	c0.494-0.022,0.988-0.026,1.48-0.019c0.875,0.017,1.747,0.076,2.608,0.25c0.552,0.111,1.1,0.27,1.602,0.509
	c0.774,0.37,1.44,0.937,2.121,1.479C21.821,24.843,21.604,25.464,21.11,25.464z"/>
<linearGradient id="SVGID_2_" gradientUnits="userSpaceOnUse" x1="24.8962" y1="1.772" x2="30.1423" y2="1.772" gradientTransform="matrix(1 0 0 -1 0.0376 34.2695)">
	<stop  offset="0" style="stop-color:#FFF7ED"/>
	<stop  offset="1" style="stop-color:#F3E8BF"/>
</linearGradient>
<circle fill="url(#SVGID_2_)" cx="27.557" cy="32.498" r="2.623"/>
<linearGradient id="SVGID_3_" gradientUnits="userSpaceOnUse" x1="4.7966" y1="4" x2="9.8991" y2="-0.5556" gradientTransform="matrix(1 0 0 -1 0.0376 34.2695)">
	<stop  offset="0" style="stop-color:#FFF7ED"/>
	<stop  offset="1" style="stop-color:#F3E8BF"/>
</linearGradient>
<circle fill="url(#SVGID_3_)" cx="7.33" cy="32.498" r="2.623"/>
<path fill="none" stroke="#454447" stroke-width="0.8986" stroke-linecap="round" stroke-linejoin="round" d="M33.263,28.233
	c-0.599-0.704-1.189-1.299-1.913-1.737c-0.725-0.438-1.581-0.719-2.438-0.877c-0.855-0.16-1.711-0.199-2.591-0.221
	c-0.88-0.023-1.784-0.029-2.575-0.32c-0.79-0.293-1.466-0.873-2.151-1.422c-0.688-0.552-1.386-1.07-2.171-1.412
	c-0.783-0.341-1.655-0.504-2.523-0.605s-1.732-0.143-2.597-0.129c-0.865,0.014-1.731,0.08-2.595,0.195
	c-0.861,0.115-1.72,0.278-2.541,0.549c-0.82,0.27-1.604,0.646-2.344,1.113c-0.738,0.465-1.431,1.021-2.27,1.262
	c-0.84,0.238-1.825,0.162-2.543,0.478c-0.719,0.315-1.17,1.021-1.396,1.839c-0.226,0.818-0.227,1.747,0.017,2.596
	c0.243,0.85,0.73,1.615,1.445,2.008c0.54,0.295,1.208,0.379,1.888,0.423c0.646-4.128,6.728-3.687,6.769,0.493
	c0.563,0.039,1.123,0.076,1.686,0.107c0.865,0.049,1.732,0.086,2.601,0.11c0.867,0.024,1.734,0.036,2.603,0.039
	c0.867,0.001,1.734-0.007,2.604-0.021c0.866-0.014,1.734-0.031,2.603-0.052c0.441-0.01,0.885-0.021,1.328-0.03
	c-0.161-4.537,6.826-4.646,6.807-0.105c0.798,0.033,1.61,0.082,2.269-0.188c0.746-0.312,1.29-1.035,1.262-1.806
	C34.462,29.751,33.859,28.938,33.263,28.233z"/>
<path fill="none" stroke="#454447" stroke-width="0.5953" stroke-linecap="round" stroke-linejoin="round" d="M12.843,25.464
	c-2.01,0-4.021,0-6.03,0c-0.517,0-0.72-0.668-0.29-0.955c0.104-0.068,0.207-0.139,0.311-0.209c0.25-0.168,0.502-0.332,0.763-0.485
	c0.417-0.247,0.854-0.462,1.308-0.638c0.538-0.207,1.096-0.359,1.66-0.48c0.751-0.162,1.514-0.27,2.281-0.33
	C12.843,23.398,12.843,24.432,12.843,25.464z M21.11,25.464c-2.494,0-4.99,0-7.485,0c0-1.049,0-2.098,0-3.147
	c0.494-0.022,0.988-0.026,1.48-0.019c0.875,0.017,1.747,0.076,2.608,0.25c0.552,0.111,1.1,0.27,1.602,0.509
	c0.774,0.37,1.44,0.937,2.121,1.479C21.821,24.843,21.604,25.464,21.11,25.464z"/>
<circle fill="none" stroke="#454447" stroke-width="0.5953" stroke-linecap="round" stroke-linejoin="round" cx="27.557" cy="32.498" r="2.623"/>
<circle fill="none" stroke="#454447" stroke-width="0.5953" stroke-linecap="round" stroke-linejoin="round" cx="7.312" cy="32.505" r="2.623"/>
</svg>
